M48
;GenerationSoftware,Autodesk,EAGLE,9.6.2*%
;CreationDate,2022-09-28T08:24:17Z*%
FMAT,2
ICI,OFF
METRIC,TZ,000.000
T2C0.350
T1C1.016
%
G90
M71
T1
X13970Y10668
X21590Y73660
X10160Y25400
X6350Y10668
X8890Y10668
X11430Y10668
X3810Y55880
X16510Y10668
X19050Y10668
X3810Y73660
X3810Y71120
X3810Y68580
X15240Y25400
X3810Y43180
X3810Y30480
X12700Y25400
X21590Y30480
X21590Y43180
X21590Y55880
X21590Y68580
X3810Y66040
X3810Y63500
X3810Y60960
X3810Y58420
X3810Y53340
X3810Y50800
X3810Y48260
X3810Y45720
X3810Y40640
X3810Y38100
X3810Y35560
X3810Y33020
X3810Y27940
X3810Y25400
X21590Y25400
X21590Y27940
X21590Y33020
X21590Y35560
X21590Y38100
X21590Y40640
X21590Y45720
X21590Y48260
X21590Y50800
X21590Y53340
X21590Y58420
X21590Y60960
X21590Y63500
X21590Y66040
X21590Y71120
T2
X11430Y57658
X9906Y57658
X10922Y20828
M30