G04 EAGLE Gerber RS-274X export*
G75*
%MOMM*%
%FSLAX34Y34*%
%LPD*%
%INTop Copper*%
%IPPOS*%
%AMOC8*
5,1,8,0,0,1.08239X$1,22.5*%
G01*
%ADD10C,0.098800*%
%ADD11C,1.879600*%
%ADD12C,0.100000*%
%ADD13C,0.600000*%
%ADD14C,1.100000*%
%ADD15C,1.050000*%
%ADD16R,1.879600X1.879600*%
%ADD17C,0.100800*%
%ADD18C,0.101600*%
%ADD19C,0.152400*%
%ADD20C,0.304800*%
%ADD21C,0.406400*%
%ADD22C,0.604000*%

G36*
X195670Y93234D02*
X195670Y93234D01*
X195761Y93241D01*
X195791Y93253D01*
X195823Y93259D01*
X195903Y93301D01*
X195987Y93337D01*
X196019Y93363D01*
X196040Y93374D01*
X196062Y93397D01*
X196118Y93442D01*
X198658Y95982D01*
X198711Y96056D01*
X198771Y96125D01*
X198783Y96155D01*
X198802Y96181D01*
X198829Y96268D01*
X198863Y96353D01*
X198867Y96394D01*
X198874Y96417D01*
X198873Y96449D01*
X198881Y96520D01*
X198881Y98136D01*
X198870Y98206D01*
X198868Y98278D01*
X198850Y98327D01*
X198842Y98378D01*
X198808Y98442D01*
X198783Y98509D01*
X198751Y98550D01*
X198726Y98596D01*
X198675Y98645D01*
X198630Y98701D01*
X198586Y98729D01*
X198548Y98765D01*
X198483Y98795D01*
X198423Y98834D01*
X198372Y98847D01*
X198325Y98869D01*
X198254Y98877D01*
X198184Y98894D01*
X198132Y98890D01*
X198081Y98896D01*
X198010Y98881D01*
X197939Y98875D01*
X197891Y98855D01*
X197840Y98844D01*
X197779Y98807D01*
X197713Y98779D01*
X197657Y98734D01*
X197629Y98717D01*
X197614Y98700D01*
X197582Y98674D01*
X196543Y97635D01*
X192622Y96011D01*
X188378Y96011D01*
X184457Y97635D01*
X181455Y100637D01*
X179831Y104558D01*
X179831Y108802D01*
X181455Y112723D01*
X184457Y115725D01*
X186727Y116665D01*
X186827Y116727D01*
X186927Y116787D01*
X186931Y116791D01*
X186936Y116795D01*
X187011Y116885D01*
X187087Y116973D01*
X187089Y116979D01*
X187093Y116984D01*
X187135Y117093D01*
X187179Y117202D01*
X187180Y117209D01*
X187181Y117214D01*
X187182Y117232D01*
X187197Y117368D01*
X187197Y128368D01*
X192054Y133225D01*
X192107Y133299D01*
X192167Y133368D01*
X192179Y133399D01*
X192198Y133425D01*
X192225Y133512D01*
X192259Y133597D01*
X192263Y133638D01*
X192270Y133660D01*
X192269Y133692D01*
X192277Y133763D01*
X192277Y153289D01*
X192274Y153309D01*
X192276Y153328D01*
X192254Y153430D01*
X192238Y153532D01*
X192228Y153549D01*
X192224Y153569D01*
X192171Y153658D01*
X192122Y153749D01*
X192108Y153763D01*
X192098Y153780D01*
X192019Y153847D01*
X191944Y153919D01*
X191926Y153927D01*
X191911Y153940D01*
X191815Y153979D01*
X191721Y154022D01*
X191701Y154024D01*
X191683Y154032D01*
X191516Y154050D01*
X189001Y154050D01*
X187959Y155092D01*
X187959Y161900D01*
X188081Y162022D01*
X188093Y162038D01*
X188108Y162050D01*
X188164Y162138D01*
X188225Y162221D01*
X188231Y162240D01*
X188241Y162257D01*
X188267Y162358D01*
X188297Y162456D01*
X188297Y162476D01*
X188301Y162496D01*
X188293Y162599D01*
X188291Y162702D01*
X188284Y162721D01*
X188282Y162741D01*
X188242Y162836D01*
X188206Y162933D01*
X188194Y162949D01*
X188186Y162967D01*
X188081Y163098D01*
X187959Y163220D01*
X187959Y170028D01*
X189001Y171070D01*
X191516Y171070D01*
X191536Y171073D01*
X191555Y171071D01*
X191657Y171093D01*
X191759Y171109D01*
X191776Y171119D01*
X191796Y171123D01*
X191885Y171176D01*
X191976Y171225D01*
X191990Y171239D01*
X192007Y171249D01*
X192074Y171328D01*
X192146Y171403D01*
X192154Y171421D01*
X192167Y171436D01*
X192206Y171532D01*
X192249Y171626D01*
X192251Y171646D01*
X192259Y171664D01*
X192277Y171831D01*
X192277Y206597D01*
X192263Y206687D01*
X192255Y206778D01*
X192243Y206807D01*
X192238Y206839D01*
X192195Y206920D01*
X192159Y207004D01*
X192133Y207036D01*
X192122Y207057D01*
X192099Y207079D01*
X192054Y207135D01*
X189355Y209834D01*
X189281Y209887D01*
X189212Y209947D01*
X189181Y209959D01*
X189155Y209978D01*
X189068Y210005D01*
X188983Y210039D01*
X188942Y210043D01*
X188920Y210050D01*
X188888Y210049D01*
X188817Y210057D01*
X185792Y210057D01*
X185772Y210054D01*
X185753Y210056D01*
X185651Y210034D01*
X185549Y210018D01*
X185532Y210008D01*
X185512Y210004D01*
X185423Y209951D01*
X185332Y209902D01*
X185318Y209888D01*
X185301Y209878D01*
X185234Y209799D01*
X185162Y209724D01*
X185154Y209706D01*
X185141Y209691D01*
X185102Y209595D01*
X185059Y209501D01*
X185057Y209481D01*
X185049Y209463D01*
X185031Y209296D01*
X185031Y207529D01*
X183991Y206489D01*
X171129Y206489D01*
X170089Y207529D01*
X170089Y219191D01*
X171129Y220231D01*
X183991Y220231D01*
X185031Y219191D01*
X185031Y217424D01*
X185034Y217404D01*
X185032Y217385D01*
X185054Y217283D01*
X185070Y217181D01*
X185080Y217164D01*
X185084Y217144D01*
X185137Y217055D01*
X185186Y216964D01*
X185200Y216950D01*
X185210Y216933D01*
X185289Y216866D01*
X185364Y216794D01*
X185382Y216786D01*
X185397Y216773D01*
X185493Y216734D01*
X185587Y216691D01*
X185607Y216689D01*
X185625Y216681D01*
X185792Y216663D01*
X191868Y216663D01*
X194026Y214505D01*
X196725Y211806D01*
X197582Y210949D01*
X197640Y210907D01*
X197692Y210858D01*
X197739Y210836D01*
X197781Y210806D01*
X197850Y210784D01*
X197915Y210754D01*
X197967Y210748D01*
X198017Y210733D01*
X198088Y210735D01*
X198159Y210727D01*
X198210Y210738D01*
X198262Y210740D01*
X198330Y210764D01*
X198400Y210779D01*
X198444Y210806D01*
X198493Y210824D01*
X198549Y210869D01*
X198611Y210906D01*
X198645Y210945D01*
X198685Y210978D01*
X198724Y211038D01*
X198771Y211092D01*
X198790Y211141D01*
X198818Y211185D01*
X198836Y211254D01*
X198863Y211321D01*
X198871Y211392D01*
X198879Y211423D01*
X198877Y211446D01*
X198881Y211487D01*
X198881Y695960D01*
X198878Y695980D01*
X198880Y695999D01*
X198858Y696101D01*
X198842Y696203D01*
X198832Y696220D01*
X198828Y696240D01*
X198775Y696329D01*
X198726Y696420D01*
X198712Y696434D01*
X198702Y696451D01*
X198623Y696518D01*
X198548Y696590D01*
X198530Y696598D01*
X198515Y696611D01*
X198419Y696650D01*
X198325Y696693D01*
X198305Y696695D01*
X198287Y696703D01*
X198120Y696721D01*
X154806Y696721D01*
X154786Y696718D01*
X154767Y696720D01*
X154665Y696698D01*
X154563Y696682D01*
X154546Y696672D01*
X154526Y696668D01*
X154437Y696615D01*
X154346Y696566D01*
X154332Y696552D01*
X154315Y696542D01*
X154248Y696463D01*
X154176Y696388D01*
X154168Y696370D01*
X154155Y696355D01*
X154116Y696259D01*
X154073Y696165D01*
X154071Y696145D01*
X154063Y696127D01*
X154045Y695960D01*
X154045Y693008D01*
X152243Y689887D01*
X149122Y688085D01*
X105251Y688085D01*
X102775Y689515D01*
X101345Y691991D01*
X101345Y695960D01*
X101342Y695980D01*
X101344Y695999D01*
X101322Y696101D01*
X101306Y696203D01*
X101296Y696220D01*
X101292Y696240D01*
X101239Y696329D01*
X101190Y696420D01*
X101176Y696434D01*
X101166Y696451D01*
X101087Y696518D01*
X101012Y696590D01*
X100994Y696598D01*
X100979Y696611D01*
X100883Y696650D01*
X100789Y696693D01*
X100769Y696695D01*
X100751Y696703D01*
X100584Y696721D01*
X55880Y696721D01*
X55790Y696707D01*
X55699Y696699D01*
X55669Y696687D01*
X55637Y696682D01*
X55557Y696639D01*
X55473Y696603D01*
X55441Y696577D01*
X55420Y696566D01*
X55398Y696543D01*
X55342Y696498D01*
X52802Y693958D01*
X52749Y693884D01*
X52689Y693815D01*
X52677Y693785D01*
X52658Y693759D01*
X52631Y693672D01*
X52597Y693587D01*
X52593Y693546D01*
X52586Y693523D01*
X52587Y693491D01*
X52579Y693420D01*
X52579Y650189D01*
X52594Y650099D01*
X52601Y650008D01*
X52613Y649978D01*
X52619Y649946D01*
X52661Y649865D01*
X52697Y649782D01*
X52723Y649749D01*
X52734Y649729D01*
X52757Y649707D01*
X52802Y649651D01*
X117095Y585358D01*
X117095Y580169D01*
X117109Y580079D01*
X117117Y579988D01*
X117129Y579958D01*
X117134Y579926D01*
X117177Y579845D01*
X117213Y579761D01*
X117239Y579729D01*
X117250Y579708D01*
X117273Y579686D01*
X117318Y579630D01*
X118591Y578357D01*
X118591Y574803D01*
X116077Y572289D01*
X112523Y572289D01*
X110009Y574803D01*
X110009Y578357D01*
X111282Y579630D01*
X111335Y579704D01*
X111395Y579774D01*
X111407Y579804D01*
X111426Y579830D01*
X111453Y579917D01*
X111487Y580002D01*
X111491Y580043D01*
X111498Y580065D01*
X111497Y580097D01*
X111505Y580169D01*
X111505Y582727D01*
X111504Y582737D01*
X111504Y582742D01*
X111499Y582768D01*
X111491Y582817D01*
X111483Y582908D01*
X111471Y582938D01*
X111466Y582970D01*
X111423Y583050D01*
X111387Y583134D01*
X111361Y583166D01*
X111350Y583187D01*
X111327Y583209D01*
X111282Y583265D01*
X53878Y640669D01*
X53820Y640711D01*
X53768Y640761D01*
X53721Y640783D01*
X53679Y640813D01*
X53610Y640834D01*
X53545Y640864D01*
X53493Y640870D01*
X53443Y640885D01*
X53372Y640883D01*
X53301Y640891D01*
X53250Y640880D01*
X53198Y640879D01*
X53130Y640854D01*
X53060Y640839D01*
X53016Y640812D01*
X52967Y640794D01*
X52911Y640750D01*
X52849Y640713D01*
X52815Y640673D01*
X52775Y640641D01*
X52736Y640580D01*
X52689Y640526D01*
X52670Y640478D01*
X52642Y640434D01*
X52624Y640364D01*
X52597Y640298D01*
X52589Y640226D01*
X52581Y640195D01*
X52583Y640172D01*
X52579Y640131D01*
X52579Y627329D01*
X52593Y627239D01*
X52601Y627148D01*
X52613Y627118D01*
X52618Y627086D01*
X52661Y627005D01*
X52697Y626922D01*
X52723Y626889D01*
X52734Y626869D01*
X52757Y626847D01*
X52802Y626791D01*
X98499Y581094D01*
X98573Y581041D01*
X98642Y580981D01*
X98672Y580969D01*
X98698Y580950D01*
X98785Y580923D01*
X98870Y580889D01*
X98911Y580885D01*
X98933Y580878D01*
X98966Y580879D01*
X99037Y580871D01*
X100837Y580871D01*
X103351Y578357D01*
X103351Y574803D01*
X100837Y572289D01*
X97283Y572289D01*
X94769Y574803D01*
X94769Y576603D01*
X94755Y576693D01*
X94747Y576784D01*
X94735Y576814D01*
X94730Y576846D01*
X94708Y576887D01*
X94707Y576892D01*
X94692Y576916D01*
X94687Y576926D01*
X94651Y577010D01*
X94625Y577042D01*
X94614Y577063D01*
X94591Y577085D01*
X94580Y577103D01*
X94569Y577114D01*
X94546Y577141D01*
X53878Y617809D01*
X53820Y617851D01*
X53768Y617901D01*
X53721Y617923D01*
X53679Y617953D01*
X53610Y617974D01*
X53545Y618004D01*
X53493Y618010D01*
X53443Y618025D01*
X53372Y618023D01*
X53301Y618031D01*
X53250Y618020D01*
X53198Y618019D01*
X53130Y617994D01*
X53060Y617979D01*
X53016Y617952D01*
X52967Y617934D01*
X52911Y617890D01*
X52849Y617853D01*
X52815Y617813D01*
X52775Y617781D01*
X52736Y617720D01*
X52689Y617666D01*
X52670Y617618D01*
X52642Y617574D01*
X52624Y617504D01*
X52597Y617438D01*
X52589Y617366D01*
X52581Y617335D01*
X52583Y617312D01*
X52579Y617271D01*
X52579Y114302D01*
X52580Y114295D01*
X52579Y114287D01*
X52600Y114173D01*
X52619Y114060D01*
X52622Y114053D01*
X52624Y114045D01*
X52680Y113944D01*
X52734Y113842D01*
X52739Y113837D01*
X52743Y113830D01*
X52828Y113752D01*
X52912Y113673D01*
X52919Y113670D01*
X52925Y113664D01*
X53030Y113618D01*
X53135Y113569D01*
X53143Y113568D01*
X53150Y113565D01*
X53265Y113555D01*
X53379Y113542D01*
X53387Y113544D01*
X53395Y113543D01*
X53508Y113570D01*
X53620Y113594D01*
X53627Y113599D01*
X53634Y113600D01*
X53733Y113662D01*
X53831Y113721D01*
X53836Y113727D01*
X53843Y113731D01*
X53956Y113855D01*
X54394Y114458D01*
X55722Y115786D01*
X57243Y116891D01*
X58917Y117744D01*
X60704Y118325D01*
X61977Y118526D01*
X61977Y107442D01*
X61980Y107422D01*
X61978Y107403D01*
X62000Y107301D01*
X62017Y107199D01*
X62026Y107182D01*
X62030Y107162D01*
X62083Y107073D01*
X62132Y106982D01*
X62146Y106968D01*
X62156Y106951D01*
X62235Y106884D01*
X62310Y106813D01*
X62328Y106804D01*
X62343Y106791D01*
X62439Y106753D01*
X62533Y106709D01*
X62553Y106707D01*
X62571Y106699D01*
X62738Y106681D01*
X63501Y106681D01*
X63501Y106679D01*
X62738Y106679D01*
X62718Y106676D01*
X62699Y106678D01*
X62597Y106656D01*
X62495Y106639D01*
X62478Y106630D01*
X62458Y106626D01*
X62369Y106573D01*
X62278Y106524D01*
X62264Y106510D01*
X62247Y106500D01*
X62180Y106421D01*
X62109Y106346D01*
X62100Y106328D01*
X62087Y106313D01*
X62048Y106217D01*
X62005Y106123D01*
X62003Y106103D01*
X61995Y106085D01*
X61977Y105918D01*
X61977Y94834D01*
X60704Y95035D01*
X58917Y95616D01*
X57243Y96469D01*
X55722Y97574D01*
X54394Y98902D01*
X53956Y99505D01*
X53950Y99511D01*
X53946Y99518D01*
X53863Y99597D01*
X53781Y99678D01*
X53774Y99682D01*
X53768Y99687D01*
X53664Y99735D01*
X53560Y99786D01*
X53552Y99787D01*
X53545Y99791D01*
X53431Y99803D01*
X53316Y99818D01*
X53309Y99817D01*
X53301Y99818D01*
X53188Y99793D01*
X53075Y99771D01*
X53068Y99767D01*
X53060Y99766D01*
X52961Y99706D01*
X52861Y99649D01*
X52856Y99643D01*
X52849Y99639D01*
X52774Y99552D01*
X52698Y99466D01*
X52694Y99458D01*
X52689Y99452D01*
X52646Y99346D01*
X52601Y99240D01*
X52600Y99232D01*
X52597Y99224D01*
X52579Y99058D01*
X52579Y93980D01*
X52582Y93960D01*
X52580Y93941D01*
X52602Y93839D01*
X52619Y93737D01*
X52628Y93720D01*
X52632Y93700D01*
X52685Y93611D01*
X52734Y93520D01*
X52748Y93506D01*
X52758Y93489D01*
X52837Y93422D01*
X52912Y93351D01*
X52930Y93342D01*
X52945Y93329D01*
X53041Y93290D01*
X53135Y93247D01*
X53155Y93245D01*
X53173Y93237D01*
X53340Y93219D01*
X195580Y93219D01*
X195670Y93234D01*
G37*
%LPC*%
G36*
X105514Y131059D02*
X105514Y131059D01*
X104743Y131266D01*
X104051Y131666D01*
X103486Y132231D01*
X103086Y132923D01*
X103018Y133176D01*
X102979Y133263D01*
X102946Y133352D01*
X102929Y133374D01*
X102917Y133400D01*
X102852Y133470D01*
X102793Y133544D01*
X102769Y133559D01*
X102750Y133580D01*
X102666Y133626D01*
X102586Y133677D01*
X102558Y133684D01*
X102534Y133698D01*
X102440Y133714D01*
X102347Y133737D01*
X102319Y133735D01*
X102291Y133740D01*
X102197Y133725D01*
X102102Y133718D01*
X102076Y133707D01*
X102048Y133703D01*
X101963Y133659D01*
X101876Y133622D01*
X101848Y133600D01*
X101829Y133590D01*
X101806Y133566D01*
X101745Y133517D01*
X100557Y132329D01*
X92483Y132329D01*
X91449Y133363D01*
X91449Y157837D01*
X92202Y158590D01*
X92214Y158606D01*
X92230Y158619D01*
X92286Y158706D01*
X92346Y158790D01*
X92352Y158809D01*
X92363Y158826D01*
X92388Y158926D01*
X92418Y159025D01*
X92418Y159045D01*
X92423Y159064D01*
X92415Y159167D01*
X92412Y159271D01*
X92405Y159290D01*
X92404Y159309D01*
X92363Y159404D01*
X92328Y159502D01*
X92315Y159518D01*
X92307Y159536D01*
X92202Y159667D01*
X80517Y171352D01*
X80517Y219808D01*
X87532Y226823D01*
X138768Y226823D01*
X145137Y220454D01*
X145211Y220401D01*
X145280Y220341D01*
X145311Y220329D01*
X145337Y220310D01*
X145424Y220283D01*
X145509Y220249D01*
X145550Y220245D01*
X145572Y220238D01*
X145604Y220239D01*
X145675Y220231D01*
X153991Y220231D01*
X155031Y219191D01*
X155031Y207529D01*
X153991Y206489D01*
X141129Y206489D01*
X140089Y207529D01*
X140089Y215845D01*
X140075Y215935D01*
X140067Y216026D01*
X140055Y216055D01*
X140050Y216087D01*
X140007Y216168D01*
X139971Y216252D01*
X139945Y216284D01*
X139934Y216305D01*
X139911Y216327D01*
X139866Y216383D01*
X136255Y219994D01*
X136181Y220047D01*
X136112Y220107D01*
X136081Y220119D01*
X136055Y220138D01*
X135968Y220165D01*
X135883Y220199D01*
X135842Y220203D01*
X135820Y220210D01*
X135788Y220209D01*
X135717Y220217D01*
X90583Y220217D01*
X90493Y220203D01*
X90402Y220195D01*
X90373Y220183D01*
X90341Y220178D01*
X90260Y220135D01*
X90176Y220099D01*
X90144Y220073D01*
X90123Y220062D01*
X90101Y220039D01*
X90045Y219994D01*
X87346Y217295D01*
X87293Y217221D01*
X87233Y217152D01*
X87221Y217121D01*
X87202Y217095D01*
X87175Y217008D01*
X87141Y216923D01*
X87137Y216882D01*
X87130Y216860D01*
X87131Y216828D01*
X87123Y216757D01*
X87123Y174403D01*
X87137Y174313D01*
X87145Y174222D01*
X87157Y174193D01*
X87162Y174161D01*
X87205Y174080D01*
X87241Y173996D01*
X87267Y173964D01*
X87278Y173943D01*
X87301Y173921D01*
X87346Y173865D01*
X99823Y161388D01*
X99823Y159632D01*
X99826Y159612D01*
X99824Y159593D01*
X99846Y159491D01*
X99862Y159389D01*
X99872Y159372D01*
X99876Y159352D01*
X99929Y159263D01*
X99978Y159172D01*
X99992Y159158D01*
X100002Y159141D01*
X100081Y159074D01*
X100156Y159002D01*
X100174Y158994D01*
X100189Y158981D01*
X100285Y158942D01*
X100379Y158899D01*
X100399Y158897D01*
X100417Y158889D01*
X100554Y158874D01*
X101745Y157683D01*
X101822Y157627D01*
X101895Y157566D01*
X101921Y157556D01*
X101944Y157539D01*
X102036Y157511D01*
X102124Y157477D01*
X102152Y157475D01*
X102179Y157467D01*
X102275Y157470D01*
X102370Y157465D01*
X102397Y157473D01*
X102425Y157473D01*
X102515Y157506D01*
X102607Y157532D01*
X102630Y157548D01*
X102656Y157558D01*
X102731Y157618D01*
X102809Y157671D01*
X102826Y157694D01*
X102848Y157712D01*
X102900Y157792D01*
X102957Y157868D01*
X102970Y157901D01*
X102981Y157919D01*
X102989Y157951D01*
X103018Y158024D01*
X103086Y158277D01*
X103486Y158969D01*
X104051Y159534D01*
X104743Y159934D01*
X105514Y160141D01*
X107697Y160141D01*
X107697Y146362D01*
X107700Y146342D01*
X107698Y146323D01*
X107720Y146221D01*
X107737Y146119D01*
X107746Y146102D01*
X107750Y146082D01*
X107803Y145993D01*
X107852Y145902D01*
X107866Y145888D01*
X107876Y145871D01*
X107955Y145804D01*
X108030Y145733D01*
X108048Y145724D01*
X108063Y145711D01*
X108159Y145672D01*
X108253Y145629D01*
X108273Y145627D01*
X108291Y145619D01*
X108458Y145601D01*
X109221Y145601D01*
X109221Y145599D01*
X108458Y145599D01*
X108438Y145596D01*
X108419Y145598D01*
X108317Y145576D01*
X108215Y145559D01*
X108198Y145550D01*
X108178Y145546D01*
X108089Y145493D01*
X107998Y145444D01*
X107984Y145430D01*
X107967Y145420D01*
X107900Y145341D01*
X107829Y145266D01*
X107820Y145248D01*
X107807Y145233D01*
X107768Y145137D01*
X107725Y145043D01*
X107723Y145023D01*
X107715Y145005D01*
X107697Y144838D01*
X107697Y131059D01*
X105514Y131059D01*
G37*
%LPD*%
%LPC*%
G36*
X162978Y96011D02*
X162978Y96011D01*
X159057Y97635D01*
X156055Y100637D01*
X154431Y104558D01*
X154431Y108802D01*
X155582Y111581D01*
X155609Y111694D01*
X155637Y111808D01*
X155637Y111814D01*
X155638Y111820D01*
X155627Y111937D01*
X155618Y112053D01*
X155616Y112059D01*
X155615Y112065D01*
X155567Y112173D01*
X155522Y112279D01*
X155517Y112285D01*
X155515Y112290D01*
X155503Y112304D01*
X155417Y112410D01*
X151373Y116454D01*
X151373Y131568D01*
X151370Y131588D01*
X151372Y131607D01*
X151350Y131709D01*
X151334Y131811D01*
X151324Y131828D01*
X151320Y131848D01*
X151267Y131937D01*
X151218Y132028D01*
X151204Y132042D01*
X151194Y132059D01*
X151115Y132126D01*
X151040Y132198D01*
X151022Y132206D01*
X151007Y132219D01*
X150911Y132258D01*
X150817Y132301D01*
X150797Y132303D01*
X150779Y132311D01*
X150612Y132329D01*
X143283Y132329D01*
X142249Y133363D01*
X142249Y157837D01*
X143283Y158871D01*
X148370Y158871D01*
X148440Y158882D01*
X148512Y158884D01*
X148561Y158902D01*
X148612Y158910D01*
X148676Y158944D01*
X148743Y158969D01*
X148784Y159001D01*
X148830Y159026D01*
X148879Y159078D01*
X148935Y159122D01*
X148963Y159166D01*
X148999Y159204D01*
X149029Y159269D01*
X149068Y159329D01*
X149081Y159380D01*
X149103Y159427D01*
X149111Y159498D01*
X149128Y159568D01*
X149124Y159620D01*
X149130Y159671D01*
X149115Y159742D01*
X149109Y159813D01*
X149089Y159861D01*
X149078Y159912D01*
X149041Y159973D01*
X149013Y160039D01*
X148968Y160095D01*
X148951Y160123D01*
X148934Y160138D01*
X148908Y160170D01*
X146996Y162082D01*
X146922Y162135D01*
X146852Y162195D01*
X146822Y162207D01*
X146796Y162226D01*
X146709Y162253D01*
X146624Y162287D01*
X146583Y162291D01*
X146561Y162298D01*
X146529Y162297D01*
X146458Y162305D01*
X102982Y162305D01*
X95585Y169702D01*
X94181Y171106D01*
X94107Y171159D01*
X94038Y171219D01*
X94008Y171231D01*
X93982Y171250D01*
X93895Y171277D01*
X93810Y171311D01*
X93769Y171315D01*
X93747Y171322D01*
X93714Y171321D01*
X93643Y171329D01*
X92483Y171329D01*
X91449Y172363D01*
X91449Y196837D01*
X92483Y197871D01*
X100557Y197871D01*
X101591Y196837D01*
X101591Y172289D01*
X101588Y172285D01*
X101563Y172185D01*
X101532Y172086D01*
X101533Y172066D01*
X101528Y172047D01*
X101536Y171944D01*
X101539Y171840D01*
X101546Y171821D01*
X101547Y171801D01*
X101588Y171706D01*
X101623Y171609D01*
X101636Y171593D01*
X101643Y171575D01*
X101748Y171444D01*
X105075Y168118D01*
X105149Y168065D01*
X105218Y168005D01*
X105248Y167993D01*
X105274Y167974D01*
X105362Y167947D01*
X105446Y167913D01*
X105487Y167909D01*
X105509Y167902D01*
X105542Y167903D01*
X105613Y167895D01*
X149088Y167895D01*
X156963Y160020D01*
X156963Y119085D01*
X156965Y119072D01*
X156964Y119062D01*
X156975Y119010D01*
X156977Y118995D01*
X156985Y118904D01*
X156997Y118874D01*
X157002Y118842D01*
X157045Y118762D01*
X157081Y118678D01*
X157107Y118646D01*
X157118Y118625D01*
X157141Y118603D01*
X157186Y118547D01*
X159370Y116363D01*
X159464Y116295D01*
X159558Y116225D01*
X159564Y116223D01*
X159569Y116219D01*
X159680Y116185D01*
X159792Y116149D01*
X159798Y116149D01*
X159804Y116147D01*
X159921Y116150D01*
X160038Y116151D01*
X160045Y116153D01*
X160050Y116153D01*
X160068Y116160D01*
X160199Y116198D01*
X162978Y117349D01*
X167222Y117349D01*
X171143Y115725D01*
X174145Y112723D01*
X175769Y108802D01*
X175769Y104558D01*
X174145Y100637D01*
X171143Y97635D01*
X167222Y96011D01*
X162978Y96011D01*
G37*
%LPD*%
%LPC*%
G36*
X143853Y230979D02*
X143853Y230979D01*
X143079Y231753D01*
X143079Y248472D01*
X143069Y248537D01*
X143068Y248602D01*
X143045Y248682D01*
X143040Y248715D01*
X143030Y248732D01*
X143021Y248763D01*
X141731Y251878D01*
X141731Y256122D01*
X143355Y260043D01*
X144134Y260822D01*
X144137Y260826D01*
X144141Y260829D01*
X144209Y260927D01*
X144277Y261022D01*
X144279Y261026D01*
X144282Y261031D01*
X144286Y261045D01*
X144597Y261424D01*
X144609Y261445D01*
X144680Y261548D01*
X144851Y261868D01*
X144886Y261887D01*
X144981Y261934D01*
X144993Y261945D01*
X145008Y261953D01*
X145128Y262071D01*
X145322Y262306D01*
X145330Y262321D01*
X145342Y262333D01*
X145392Y262427D01*
X145445Y262519D01*
X145448Y262536D01*
X145456Y262551D01*
X145471Y262621D01*
X145747Y262848D01*
X145762Y262866D01*
X145852Y262953D01*
X146082Y263233D01*
X146120Y263245D01*
X146223Y263273D01*
X146237Y263282D01*
X146253Y263287D01*
X146394Y263378D01*
X146629Y263572D01*
X146641Y263585D01*
X146655Y263594D01*
X146721Y263676D01*
X146792Y263757D01*
X146798Y263772D01*
X146809Y263785D01*
X146837Y263852D01*
X147152Y264020D01*
X147171Y264034D01*
X147276Y264103D01*
X147556Y264333D01*
X147595Y264337D01*
X147702Y264344D01*
X147717Y264350D01*
X147734Y264352D01*
X147890Y264414D01*
X148159Y264558D01*
X148172Y264568D01*
X148188Y264574D01*
X148270Y264643D01*
X148354Y264708D01*
X148364Y264721D01*
X148377Y264732D01*
X148417Y264792D01*
X148759Y264895D01*
X148780Y264906D01*
X148897Y264952D01*
X149216Y265123D01*
X149256Y265120D01*
X149361Y265106D01*
X149378Y265109D01*
X149395Y265108D01*
X149559Y265138D01*
X149851Y265227D01*
X149867Y265234D01*
X149883Y265237D01*
X149977Y265288D01*
X150072Y265335D01*
X150084Y265347D01*
X150099Y265355D01*
X150151Y265406D01*
X150506Y265441D01*
X150529Y265447D01*
X150652Y265470D01*
X150999Y265575D01*
X151037Y265564D01*
X151138Y265529D01*
X151155Y265529D01*
X151171Y265525D01*
X151338Y265523D01*
X151642Y265552D01*
X151658Y265557D01*
X151675Y265556D01*
X151777Y265588D01*
X151880Y265616D01*
X151894Y265625D01*
X151910Y265630D01*
X151970Y265669D01*
X152325Y265634D01*
X152349Y265636D01*
X152475Y265634D01*
X152835Y265670D01*
X152870Y265652D01*
X152962Y265598D01*
X152979Y265595D01*
X152994Y265587D01*
X153158Y265552D01*
X153462Y265523D01*
X153478Y265524D01*
X153495Y265520D01*
X153601Y265531D01*
X153707Y265538D01*
X153723Y265545D01*
X153739Y265546D01*
X153806Y265573D01*
X154148Y265470D01*
X154172Y265466D01*
X154294Y265441D01*
X154655Y265405D01*
X154686Y265380D01*
X154766Y265310D01*
X154781Y265303D01*
X154794Y265293D01*
X154949Y265227D01*
X155241Y265138D01*
X155257Y265136D01*
X155272Y265129D01*
X155379Y265120D01*
X155484Y265106D01*
X155501Y265109D01*
X155517Y265108D01*
X155588Y265121D01*
X155903Y264952D01*
X155926Y264945D01*
X156041Y264895D01*
X156388Y264790D01*
X156393Y264785D01*
X156401Y264770D01*
X156413Y264760D01*
X156478Y264675D01*
X156492Y264666D01*
X156503Y264653D01*
X156641Y264558D01*
X156910Y264414D01*
X156926Y264409D01*
X156940Y264399D01*
X157042Y264369D01*
X157143Y264335D01*
X157160Y264335D01*
X157176Y264330D01*
X157248Y264329D01*
X157524Y264103D01*
X157545Y264091D01*
X157648Y264020D01*
X157968Y263849D01*
X157987Y263814D01*
X158034Y263719D01*
X158045Y263707D01*
X158053Y263692D01*
X158171Y263572D01*
X158406Y263378D01*
X158421Y263370D01*
X158433Y263358D01*
X158527Y263309D01*
X158619Y263255D01*
X158636Y263252D01*
X158651Y263244D01*
X158721Y263229D01*
X158948Y262953D01*
X158966Y262938D01*
X159053Y262848D01*
X159333Y262618D01*
X159345Y262580D01*
X159373Y262477D01*
X159382Y262463D01*
X159387Y262447D01*
X159478Y262306D01*
X159672Y262071D01*
X159685Y262060D01*
X159694Y262045D01*
X159777Y261979D01*
X159857Y261908D01*
X159872Y261902D01*
X159885Y261891D01*
X159952Y261863D01*
X160120Y261548D01*
X160134Y261529D01*
X160203Y261424D01*
X160529Y261026D01*
X160556Y260961D01*
X160559Y260958D01*
X160561Y260953D01*
X160666Y260822D01*
X161445Y260043D01*
X163069Y256122D01*
X163069Y251878D01*
X161779Y248763D01*
X161770Y248728D01*
X161766Y248719D01*
X161764Y248702D01*
X161764Y248700D01*
X161739Y248639D01*
X161730Y248556D01*
X161723Y248524D01*
X161724Y248505D01*
X161721Y248472D01*
X161721Y231753D01*
X160947Y230979D01*
X143853Y230979D01*
G37*
%LPD*%
%LPC*%
G36*
X93053Y230979D02*
X93053Y230979D01*
X92279Y231753D01*
X92279Y248472D01*
X92269Y248537D01*
X92268Y248602D01*
X92245Y248682D01*
X92240Y248715D01*
X92230Y248732D01*
X92221Y248763D01*
X90931Y251878D01*
X90931Y256122D01*
X92555Y260043D01*
X93334Y260822D01*
X93337Y260826D01*
X93341Y260829D01*
X93409Y260927D01*
X93477Y261022D01*
X93479Y261026D01*
X93482Y261031D01*
X93486Y261045D01*
X93797Y261424D01*
X93809Y261445D01*
X93880Y261548D01*
X94051Y261868D01*
X94085Y261886D01*
X94181Y261934D01*
X94193Y261945D01*
X94208Y261953D01*
X94328Y262071D01*
X94522Y262306D01*
X94530Y262321D01*
X94542Y262333D01*
X94591Y262427D01*
X94645Y262519D01*
X94648Y262536D01*
X94656Y262551D01*
X94671Y262621D01*
X94947Y262848D01*
X94962Y262866D01*
X95052Y262953D01*
X95282Y263233D01*
X95320Y263245D01*
X95423Y263273D01*
X95437Y263282D01*
X95453Y263287D01*
X95594Y263378D01*
X95829Y263572D01*
X95841Y263585D01*
X95855Y263594D01*
X95921Y263676D01*
X95992Y263757D01*
X95998Y263772D01*
X96009Y263785D01*
X96037Y263852D01*
X96352Y264020D01*
X96371Y264034D01*
X96476Y264103D01*
X96756Y264333D01*
X96795Y264337D01*
X96902Y264344D01*
X96917Y264350D01*
X96934Y264352D01*
X97090Y264414D01*
X97359Y264558D01*
X97372Y264568D01*
X97388Y264574D01*
X97470Y264643D01*
X97554Y264708D01*
X97564Y264721D01*
X97577Y264732D01*
X97617Y264792D01*
X97959Y264895D01*
X97980Y264906D01*
X98097Y264952D01*
X98416Y265123D01*
X98456Y265120D01*
X98561Y265106D01*
X98578Y265109D01*
X98595Y265107D01*
X98760Y265138D01*
X99052Y265227D01*
X99067Y265234D01*
X99083Y265237D01*
X99177Y265288D01*
X99272Y265335D01*
X99284Y265347D01*
X99299Y265355D01*
X99351Y265406D01*
X99706Y265441D01*
X99729Y265447D01*
X99852Y265470D01*
X100199Y265575D01*
X100237Y265564D01*
X100338Y265529D01*
X100355Y265529D01*
X100371Y265525D01*
X100538Y265523D01*
X100842Y265552D01*
X100858Y265557D01*
X100875Y265556D01*
X100977Y265588D01*
X101080Y265616D01*
X101094Y265625D01*
X101110Y265630D01*
X101170Y265669D01*
X101525Y265634D01*
X101549Y265636D01*
X101675Y265634D01*
X102035Y265670D01*
X102070Y265652D01*
X102162Y265598D01*
X102179Y265595D01*
X102194Y265587D01*
X102358Y265552D01*
X102662Y265523D01*
X102678Y265524D01*
X102695Y265520D01*
X102801Y265531D01*
X102907Y265538D01*
X102923Y265545D01*
X102939Y265546D01*
X103006Y265573D01*
X103348Y265470D01*
X103372Y265466D01*
X103494Y265441D01*
X103855Y265405D01*
X103886Y265380D01*
X103966Y265310D01*
X103981Y265303D01*
X103994Y265293D01*
X104148Y265227D01*
X104440Y265138D01*
X104457Y265136D01*
X104473Y265129D01*
X104579Y265120D01*
X104684Y265106D01*
X104701Y265109D01*
X104718Y265107D01*
X104789Y265121D01*
X105103Y264952D01*
X105126Y264945D01*
X105241Y264895D01*
X105588Y264790D01*
X105593Y264785D01*
X105601Y264770D01*
X105613Y264760D01*
X105678Y264675D01*
X105692Y264666D01*
X105703Y264653D01*
X105841Y264558D01*
X106110Y264414D01*
X106126Y264409D01*
X106140Y264399D01*
X106242Y264369D01*
X106343Y264335D01*
X106360Y264335D01*
X106376Y264330D01*
X106448Y264329D01*
X106724Y264103D01*
X106745Y264091D01*
X106848Y264020D01*
X107168Y263849D01*
X107187Y263814D01*
X107234Y263719D01*
X107245Y263707D01*
X107253Y263692D01*
X107371Y263572D01*
X107606Y263378D01*
X107621Y263370D01*
X107633Y263358D01*
X107727Y263308D01*
X107819Y263255D01*
X107836Y263252D01*
X107851Y263244D01*
X107921Y263229D01*
X108148Y262953D01*
X108166Y262938D01*
X108253Y262848D01*
X108533Y262618D01*
X108545Y262580D01*
X108573Y262477D01*
X108582Y262463D01*
X108587Y262447D01*
X108678Y262306D01*
X108872Y262071D01*
X108885Y262059D01*
X108894Y262045D01*
X108976Y261979D01*
X109057Y261908D01*
X109072Y261902D01*
X109085Y261891D01*
X109152Y261863D01*
X109320Y261548D01*
X109334Y261529D01*
X109403Y261424D01*
X109729Y261026D01*
X109756Y260961D01*
X109759Y260958D01*
X109761Y260953D01*
X109866Y260822D01*
X110645Y260043D01*
X112269Y256122D01*
X112269Y251878D01*
X110979Y248763D01*
X110970Y248728D01*
X110966Y248719D01*
X110964Y248702D01*
X110964Y248700D01*
X110939Y248639D01*
X110930Y248556D01*
X110923Y248524D01*
X110924Y248505D01*
X110921Y248472D01*
X110921Y231753D01*
X110147Y230979D01*
X93053Y230979D01*
G37*
%LPD*%
G36*
X239947Y677787D02*
X239947Y677787D01*
X239942Y677794D01*
X239949Y677800D01*
X239949Y693800D01*
X239913Y693847D01*
X239906Y693842D01*
X239900Y693849D01*
X209900Y693849D01*
X209896Y693846D01*
X209894Y693849D01*
X209376Y693781D01*
X209369Y693774D01*
X209364Y693777D01*
X208881Y693578D01*
X208876Y693569D01*
X208870Y693571D01*
X208456Y693253D01*
X208453Y693244D01*
X208447Y693244D01*
X208129Y692830D01*
X208129Y692821D01*
X208122Y692819D01*
X207923Y692336D01*
X207925Y692327D01*
X207919Y692324D01*
X207851Y691806D01*
X207854Y691802D01*
X207851Y691800D01*
X207851Y679800D01*
X207854Y679796D01*
X207851Y679794D01*
X207919Y679276D01*
X207926Y679269D01*
X207923Y679264D01*
X208122Y678781D01*
X208131Y678776D01*
X208129Y678770D01*
X208447Y678356D01*
X208456Y678353D01*
X208456Y678347D01*
X208870Y678029D01*
X208880Y678029D01*
X208881Y678022D01*
X209364Y677823D01*
X209373Y677825D01*
X209376Y677819D01*
X209894Y677751D01*
X209898Y677754D01*
X209900Y677751D01*
X239900Y677751D01*
X239947Y677787D01*
G37*
G36*
X239947Y550787D02*
X239947Y550787D01*
X239942Y550794D01*
X239949Y550800D01*
X239949Y566800D01*
X239913Y566847D01*
X239906Y566842D01*
X239900Y566849D01*
X209900Y566849D01*
X209896Y566846D01*
X209894Y566849D01*
X209376Y566781D01*
X209369Y566774D01*
X209364Y566777D01*
X208881Y566578D01*
X208876Y566569D01*
X208870Y566571D01*
X208456Y566253D01*
X208453Y566244D01*
X208447Y566244D01*
X208129Y565830D01*
X208129Y565821D01*
X208122Y565819D01*
X207923Y565336D01*
X207925Y565327D01*
X207919Y565324D01*
X207851Y564806D01*
X207854Y564802D01*
X207851Y564800D01*
X207851Y552800D01*
X207854Y552796D01*
X207851Y552794D01*
X207919Y552276D01*
X207926Y552269D01*
X207923Y552264D01*
X208122Y551781D01*
X208131Y551776D01*
X208129Y551770D01*
X208447Y551356D01*
X208456Y551353D01*
X208456Y551347D01*
X208870Y551029D01*
X208880Y551029D01*
X208881Y551022D01*
X209364Y550823D01*
X209373Y550825D01*
X209376Y550819D01*
X209894Y550751D01*
X209898Y550754D01*
X209900Y550751D01*
X239900Y550751D01*
X239947Y550787D01*
G37*
G36*
X239947Y423787D02*
X239947Y423787D01*
X239942Y423794D01*
X239949Y423800D01*
X239949Y439800D01*
X239913Y439847D01*
X239906Y439842D01*
X239900Y439849D01*
X209900Y439849D01*
X209896Y439846D01*
X209894Y439849D01*
X209376Y439781D01*
X209369Y439774D01*
X209364Y439777D01*
X208881Y439578D01*
X208876Y439569D01*
X208870Y439571D01*
X208456Y439253D01*
X208453Y439244D01*
X208447Y439244D01*
X208129Y438830D01*
X208129Y438821D01*
X208122Y438819D01*
X207923Y438336D01*
X207925Y438327D01*
X207919Y438324D01*
X207851Y437806D01*
X207854Y437802D01*
X207851Y437800D01*
X207851Y425800D01*
X207854Y425796D01*
X207851Y425794D01*
X207919Y425276D01*
X207926Y425269D01*
X207923Y425264D01*
X208122Y424781D01*
X208131Y424776D01*
X208129Y424770D01*
X208447Y424356D01*
X208456Y424353D01*
X208456Y424347D01*
X208870Y424029D01*
X208880Y424029D01*
X208881Y424022D01*
X209364Y423823D01*
X209373Y423825D01*
X209376Y423819D01*
X209894Y423751D01*
X209898Y423754D01*
X209900Y423751D01*
X239900Y423751D01*
X239947Y423787D01*
G37*
G36*
X239947Y296787D02*
X239947Y296787D01*
X239942Y296794D01*
X239949Y296800D01*
X239949Y312800D01*
X239913Y312847D01*
X239906Y312842D01*
X239900Y312849D01*
X209900Y312849D01*
X209896Y312846D01*
X209894Y312849D01*
X209376Y312781D01*
X209369Y312774D01*
X209364Y312777D01*
X208881Y312578D01*
X208876Y312569D01*
X208870Y312571D01*
X208456Y312253D01*
X208453Y312244D01*
X208447Y312244D01*
X208129Y311830D01*
X208129Y311821D01*
X208122Y311819D01*
X207923Y311336D01*
X207925Y311327D01*
X207919Y311324D01*
X207851Y310806D01*
X207854Y310802D01*
X207851Y310800D01*
X207851Y298800D01*
X207854Y298796D01*
X207851Y298794D01*
X207919Y298276D01*
X207926Y298269D01*
X207923Y298264D01*
X208122Y297781D01*
X208131Y297776D01*
X208129Y297770D01*
X208447Y297356D01*
X208456Y297353D01*
X208456Y297347D01*
X208870Y297029D01*
X208880Y297029D01*
X208881Y297022D01*
X209364Y296823D01*
X209373Y296825D01*
X209376Y296819D01*
X209894Y296751D01*
X209898Y296754D01*
X209900Y296751D01*
X239900Y296751D01*
X239947Y296787D01*
G37*
G36*
X44104Y677754D02*
X44104Y677754D01*
X44106Y677751D01*
X44624Y677819D01*
X44631Y677826D01*
X44636Y677823D01*
X45119Y678022D01*
X45124Y678031D01*
X45130Y678029D01*
X45544Y678347D01*
X45547Y678356D01*
X45553Y678356D01*
X45871Y678770D01*
X45871Y678780D01*
X45878Y678781D01*
X46077Y679264D01*
X46075Y679273D01*
X46081Y679276D01*
X46149Y679794D01*
X46146Y679798D01*
X46149Y679800D01*
X46149Y691800D01*
X46146Y691804D01*
X46149Y691806D01*
X46081Y692324D01*
X46074Y692331D01*
X46077Y692336D01*
X45878Y692819D01*
X45869Y692824D01*
X45871Y692830D01*
X45553Y693244D01*
X45544Y693247D01*
X45544Y693253D01*
X45130Y693571D01*
X45121Y693571D01*
X45119Y693578D01*
X44636Y693777D01*
X44627Y693775D01*
X44624Y693781D01*
X44106Y693849D01*
X44102Y693846D01*
X44100Y693849D01*
X14100Y693849D01*
X14053Y693813D01*
X14058Y693806D01*
X14051Y693800D01*
X14051Y677800D01*
X14087Y677753D01*
X14094Y677758D01*
X14100Y677751D01*
X44100Y677751D01*
X44104Y677754D01*
G37*
G36*
X44104Y296754D02*
X44104Y296754D01*
X44106Y296751D01*
X44624Y296819D01*
X44631Y296826D01*
X44636Y296823D01*
X45119Y297022D01*
X45124Y297031D01*
X45130Y297029D01*
X45544Y297347D01*
X45547Y297356D01*
X45553Y297356D01*
X45871Y297770D01*
X45871Y297780D01*
X45878Y297781D01*
X46077Y298264D01*
X46075Y298273D01*
X46081Y298276D01*
X46149Y298794D01*
X46146Y298798D01*
X46149Y298800D01*
X46149Y310800D01*
X46146Y310804D01*
X46149Y310806D01*
X46081Y311324D01*
X46074Y311331D01*
X46077Y311336D01*
X45878Y311819D01*
X45869Y311824D01*
X45871Y311830D01*
X45553Y312244D01*
X45544Y312247D01*
X45544Y312253D01*
X45130Y312571D01*
X45121Y312571D01*
X45119Y312578D01*
X44636Y312777D01*
X44627Y312775D01*
X44624Y312781D01*
X44106Y312849D01*
X44102Y312846D01*
X44100Y312849D01*
X14100Y312849D01*
X14053Y312813D01*
X14058Y312806D01*
X14051Y312800D01*
X14051Y296800D01*
X14087Y296753D01*
X14094Y296758D01*
X14100Y296751D01*
X44100Y296751D01*
X44104Y296754D01*
G37*
G36*
X44104Y423754D02*
X44104Y423754D01*
X44106Y423751D01*
X44624Y423819D01*
X44631Y423826D01*
X44636Y423823D01*
X45119Y424022D01*
X45124Y424031D01*
X45130Y424029D01*
X45544Y424347D01*
X45547Y424356D01*
X45553Y424356D01*
X45871Y424770D01*
X45871Y424780D01*
X45878Y424781D01*
X46077Y425264D01*
X46075Y425273D01*
X46081Y425276D01*
X46149Y425794D01*
X46146Y425798D01*
X46149Y425800D01*
X46149Y437800D01*
X46146Y437804D01*
X46149Y437806D01*
X46081Y438324D01*
X46074Y438331D01*
X46077Y438336D01*
X45878Y438819D01*
X45869Y438824D01*
X45871Y438830D01*
X45553Y439244D01*
X45544Y439247D01*
X45544Y439253D01*
X45130Y439571D01*
X45121Y439571D01*
X45119Y439578D01*
X44636Y439777D01*
X44627Y439775D01*
X44624Y439781D01*
X44106Y439849D01*
X44102Y439846D01*
X44100Y439849D01*
X14100Y439849D01*
X14053Y439813D01*
X14058Y439806D01*
X14051Y439800D01*
X14051Y423800D01*
X14087Y423753D01*
X14094Y423758D01*
X14100Y423751D01*
X44100Y423751D01*
X44104Y423754D01*
G37*
G36*
X44104Y550754D02*
X44104Y550754D01*
X44106Y550751D01*
X44624Y550819D01*
X44631Y550826D01*
X44636Y550823D01*
X45119Y551022D01*
X45124Y551031D01*
X45130Y551029D01*
X45544Y551347D01*
X45547Y551356D01*
X45553Y551356D01*
X45871Y551770D01*
X45871Y551780D01*
X45878Y551781D01*
X46077Y552264D01*
X46075Y552273D01*
X46081Y552276D01*
X46149Y552794D01*
X46146Y552798D01*
X46149Y552800D01*
X46149Y564800D01*
X46146Y564804D01*
X46149Y564806D01*
X46081Y565324D01*
X46074Y565331D01*
X46077Y565336D01*
X45878Y565819D01*
X45869Y565824D01*
X45871Y565830D01*
X45553Y566244D01*
X45544Y566247D01*
X45544Y566253D01*
X45130Y566571D01*
X45121Y566571D01*
X45119Y566578D01*
X44636Y566777D01*
X44627Y566775D01*
X44624Y566781D01*
X44106Y566849D01*
X44102Y566846D01*
X44100Y566849D01*
X14100Y566849D01*
X14053Y566813D01*
X14058Y566806D01*
X14051Y566800D01*
X14051Y550800D01*
X14087Y550753D01*
X14094Y550758D01*
X14100Y550751D01*
X44100Y550751D01*
X44104Y550754D01*
G37*
G36*
X109647Y232287D02*
X109647Y232287D01*
X109642Y232294D01*
X109649Y232300D01*
X109649Y256300D01*
X109647Y256303D01*
X109649Y256305D01*
X109495Y257866D01*
X109490Y257871D01*
X109493Y257875D01*
X109038Y259376D01*
X109032Y259380D01*
X109034Y259385D01*
X108295Y260768D01*
X108289Y260771D01*
X108290Y260776D01*
X107295Y261988D01*
X107288Y261990D01*
X107288Y261995D01*
X106076Y262990D01*
X106069Y262990D01*
X106068Y262995D01*
X104685Y263734D01*
X104678Y263733D01*
X104676Y263738D01*
X103175Y264193D01*
X103168Y264191D01*
X103166Y264195D01*
X101605Y264349D01*
X101599Y264345D01*
X101595Y264349D01*
X100034Y264195D01*
X100029Y264190D01*
X100025Y264193D01*
X98524Y263738D01*
X98520Y263732D01*
X98515Y263734D01*
X97132Y262995D01*
X97129Y262989D01*
X97124Y262990D01*
X95912Y261995D01*
X95910Y261988D01*
X95905Y261988D01*
X94910Y260776D01*
X94910Y260769D01*
X94905Y260768D01*
X94166Y259385D01*
X94167Y259378D01*
X94162Y259376D01*
X94035Y258958D01*
X94020Y258908D01*
X93841Y258317D01*
X93826Y258268D01*
X93707Y257875D01*
X93707Y257874D01*
X93706Y257874D01*
X93708Y257872D01*
X93709Y257868D01*
X93705Y257866D01*
X93551Y256305D01*
X93553Y256302D01*
X93551Y256300D01*
X93551Y232300D01*
X93587Y232253D01*
X93594Y232258D01*
X93600Y232251D01*
X109600Y232251D01*
X109647Y232287D01*
G37*
G36*
X160447Y232287D02*
X160447Y232287D01*
X160442Y232294D01*
X160449Y232300D01*
X160449Y256300D01*
X160447Y256303D01*
X160449Y256305D01*
X160295Y257866D01*
X160290Y257871D01*
X160293Y257875D01*
X159838Y259376D01*
X159832Y259380D01*
X159834Y259385D01*
X159095Y260768D01*
X159089Y260771D01*
X159090Y260776D01*
X158095Y261988D01*
X158088Y261990D01*
X158088Y261995D01*
X156876Y262990D01*
X156869Y262990D01*
X156868Y262995D01*
X155485Y263734D01*
X155478Y263733D01*
X155476Y263738D01*
X153975Y264193D01*
X153968Y264191D01*
X153966Y264195D01*
X152405Y264349D01*
X152399Y264345D01*
X152395Y264349D01*
X150834Y264195D01*
X150829Y264190D01*
X150825Y264193D01*
X149324Y263738D01*
X149320Y263732D01*
X149315Y263734D01*
X147932Y262995D01*
X147929Y262989D01*
X147924Y262990D01*
X146712Y261995D01*
X146710Y261988D01*
X146705Y261988D01*
X145710Y260776D01*
X145710Y260769D01*
X145705Y260768D01*
X144966Y259385D01*
X144967Y259378D01*
X144962Y259376D01*
X144835Y258958D01*
X144820Y258908D01*
X144641Y258317D01*
X144626Y258268D01*
X144507Y257875D01*
X144507Y257874D01*
X144506Y257874D01*
X144508Y257872D01*
X144509Y257868D01*
X144505Y257866D01*
X144351Y256305D01*
X144353Y256302D01*
X144351Y256300D01*
X144351Y232300D01*
X144387Y232253D01*
X144394Y232258D01*
X144400Y232251D01*
X160400Y232251D01*
X160447Y232287D01*
G37*
G36*
X239947Y652387D02*
X239947Y652387D01*
X239942Y652394D01*
X239949Y652400D01*
X239949Y668400D01*
X239913Y668447D01*
X239906Y668442D01*
X239900Y668449D01*
X215900Y668449D01*
X215897Y668447D01*
X215895Y668449D01*
X214334Y668295D01*
X214329Y668290D01*
X214325Y668293D01*
X212824Y667838D01*
X212820Y667832D01*
X212815Y667834D01*
X211432Y667095D01*
X211429Y667089D01*
X211424Y667090D01*
X210212Y666095D01*
X210210Y666088D01*
X210205Y666088D01*
X209210Y664876D01*
X209210Y664869D01*
X209205Y664868D01*
X208466Y663485D01*
X208467Y663478D01*
X208462Y663476D01*
X208007Y661975D01*
X208008Y661970D01*
X208006Y661968D01*
X208007Y661967D01*
X208005Y661966D01*
X207851Y660405D01*
X207855Y660399D01*
X207851Y660395D01*
X208005Y658834D01*
X208010Y658829D01*
X208007Y658825D01*
X208462Y657324D01*
X208468Y657320D01*
X208466Y657315D01*
X209205Y655932D01*
X209211Y655929D01*
X209210Y655924D01*
X210205Y654712D01*
X210212Y654710D01*
X210212Y654705D01*
X211424Y653710D01*
X211431Y653710D01*
X211432Y653705D01*
X212815Y652966D01*
X212822Y652967D01*
X212824Y652962D01*
X214325Y652507D01*
X214332Y652509D01*
X214334Y652505D01*
X215895Y652351D01*
X215898Y652353D01*
X215900Y652351D01*
X239900Y652351D01*
X239947Y652387D01*
G37*
G36*
X239947Y728587D02*
X239947Y728587D01*
X239942Y728594D01*
X239949Y728600D01*
X239949Y744600D01*
X239913Y744647D01*
X239906Y744642D01*
X239900Y744649D01*
X215900Y744649D01*
X215897Y744647D01*
X215895Y744649D01*
X214334Y744495D01*
X214329Y744490D01*
X214325Y744493D01*
X212824Y744038D01*
X212820Y744032D01*
X212815Y744034D01*
X211432Y743295D01*
X211429Y743289D01*
X211424Y743290D01*
X210212Y742295D01*
X210210Y742288D01*
X210205Y742288D01*
X209210Y741076D01*
X209210Y741069D01*
X209205Y741068D01*
X208466Y739685D01*
X208467Y739678D01*
X208462Y739676D01*
X208007Y738175D01*
X208008Y738170D01*
X208006Y738168D01*
X208007Y738167D01*
X208005Y738166D01*
X207851Y736605D01*
X207855Y736599D01*
X207851Y736595D01*
X208005Y735034D01*
X208010Y735029D01*
X208007Y735025D01*
X208462Y733524D01*
X208468Y733520D01*
X208466Y733515D01*
X209205Y732132D01*
X209211Y732129D01*
X209210Y732124D01*
X210205Y730912D01*
X210212Y730910D01*
X210212Y730905D01*
X211424Y729910D01*
X211431Y729910D01*
X211432Y729905D01*
X212815Y729166D01*
X212822Y729167D01*
X212824Y729162D01*
X214325Y728707D01*
X214332Y728709D01*
X214334Y728705D01*
X215895Y728551D01*
X215898Y728553D01*
X215900Y728551D01*
X239900Y728551D01*
X239947Y728587D01*
G37*
G36*
X239947Y703187D02*
X239947Y703187D01*
X239942Y703194D01*
X239949Y703200D01*
X239949Y719200D01*
X239913Y719247D01*
X239906Y719242D01*
X239900Y719249D01*
X215900Y719249D01*
X215897Y719247D01*
X215895Y719249D01*
X214334Y719095D01*
X214329Y719090D01*
X214325Y719093D01*
X212824Y718638D01*
X212820Y718632D01*
X212815Y718634D01*
X211432Y717895D01*
X211429Y717889D01*
X211424Y717890D01*
X210212Y716895D01*
X210210Y716888D01*
X210205Y716888D01*
X209210Y715676D01*
X209210Y715669D01*
X209205Y715668D01*
X208466Y714285D01*
X208467Y714278D01*
X208462Y714276D01*
X208007Y712775D01*
X208008Y712770D01*
X208006Y712768D01*
X208007Y712767D01*
X208005Y712766D01*
X207851Y711205D01*
X207855Y711199D01*
X207851Y711195D01*
X208005Y709634D01*
X208010Y709629D01*
X208007Y709625D01*
X208462Y708124D01*
X208468Y708120D01*
X208466Y708115D01*
X209205Y706732D01*
X209211Y706729D01*
X209210Y706724D01*
X210205Y705512D01*
X210212Y705510D01*
X210212Y705505D01*
X211424Y704510D01*
X211431Y704510D01*
X211432Y704505D01*
X212815Y703766D01*
X212822Y703767D01*
X212824Y703762D01*
X214325Y703307D01*
X214332Y703309D01*
X214334Y703305D01*
X215895Y703151D01*
X215898Y703153D01*
X215900Y703151D01*
X239900Y703151D01*
X239947Y703187D01*
G37*
G36*
X239947Y499987D02*
X239947Y499987D01*
X239942Y499994D01*
X239949Y500000D01*
X239949Y516000D01*
X239913Y516047D01*
X239906Y516042D01*
X239900Y516049D01*
X215900Y516049D01*
X215897Y516047D01*
X215895Y516049D01*
X214334Y515895D01*
X214329Y515890D01*
X214325Y515893D01*
X212824Y515438D01*
X212820Y515432D01*
X212815Y515434D01*
X211432Y514695D01*
X211429Y514689D01*
X211424Y514690D01*
X210212Y513695D01*
X210210Y513688D01*
X210205Y513688D01*
X209210Y512476D01*
X209210Y512469D01*
X209205Y512468D01*
X208466Y511085D01*
X208467Y511078D01*
X208462Y511076D01*
X208007Y509575D01*
X208008Y509570D01*
X208006Y509568D01*
X208007Y509567D01*
X208005Y509566D01*
X207851Y508005D01*
X207855Y507999D01*
X207851Y507995D01*
X208005Y506434D01*
X208010Y506429D01*
X208007Y506425D01*
X208462Y504924D01*
X208468Y504920D01*
X208466Y504915D01*
X209205Y503532D01*
X209211Y503529D01*
X209210Y503524D01*
X210205Y502312D01*
X210212Y502310D01*
X210212Y502305D01*
X211424Y501310D01*
X211431Y501310D01*
X211432Y501305D01*
X212815Y500566D01*
X212822Y500567D01*
X212824Y500562D01*
X214325Y500107D01*
X214332Y500109D01*
X214334Y500105D01*
X215895Y499951D01*
X215898Y499953D01*
X215900Y499951D01*
X239900Y499951D01*
X239947Y499987D01*
G37*
G36*
X239947Y576187D02*
X239947Y576187D01*
X239942Y576194D01*
X239949Y576200D01*
X239949Y592200D01*
X239913Y592247D01*
X239906Y592242D01*
X239900Y592249D01*
X215900Y592249D01*
X215897Y592247D01*
X215895Y592249D01*
X214334Y592095D01*
X214329Y592090D01*
X214325Y592093D01*
X212824Y591638D01*
X212820Y591632D01*
X212815Y591634D01*
X211432Y590895D01*
X211429Y590889D01*
X211424Y590890D01*
X210212Y589895D01*
X210210Y589888D01*
X210205Y589888D01*
X209210Y588676D01*
X209210Y588669D01*
X209205Y588668D01*
X208466Y587285D01*
X208467Y587278D01*
X208462Y587276D01*
X208007Y585775D01*
X208008Y585770D01*
X208006Y585768D01*
X208007Y585767D01*
X208005Y585766D01*
X207851Y584205D01*
X207855Y584199D01*
X207851Y584195D01*
X208005Y582634D01*
X208010Y582629D01*
X208007Y582625D01*
X208462Y581124D01*
X208468Y581120D01*
X208466Y581115D01*
X209205Y579732D01*
X209211Y579729D01*
X209210Y579724D01*
X210205Y578512D01*
X210212Y578510D01*
X210212Y578505D01*
X211424Y577510D01*
X211431Y577510D01*
X211432Y577505D01*
X212815Y576766D01*
X212822Y576767D01*
X212824Y576762D01*
X214325Y576307D01*
X214332Y576309D01*
X214334Y576305D01*
X215895Y576151D01*
X215898Y576153D01*
X215900Y576151D01*
X239900Y576151D01*
X239947Y576187D01*
G37*
G36*
X239947Y322187D02*
X239947Y322187D01*
X239942Y322194D01*
X239949Y322200D01*
X239949Y338200D01*
X239913Y338247D01*
X239906Y338242D01*
X239900Y338249D01*
X215900Y338249D01*
X215897Y338247D01*
X215895Y338249D01*
X214334Y338095D01*
X214329Y338090D01*
X214325Y338093D01*
X212824Y337638D01*
X212820Y337632D01*
X212815Y337634D01*
X211432Y336895D01*
X211429Y336889D01*
X211424Y336890D01*
X210212Y335895D01*
X210210Y335888D01*
X210205Y335888D01*
X209210Y334676D01*
X209210Y334669D01*
X209205Y334668D01*
X208466Y333285D01*
X208467Y333278D01*
X208462Y333276D01*
X208007Y331775D01*
X208008Y331770D01*
X208006Y331768D01*
X208007Y331767D01*
X208005Y331766D01*
X207851Y330205D01*
X207855Y330199D01*
X207851Y330195D01*
X208005Y328634D01*
X208010Y328629D01*
X208007Y328625D01*
X208462Y327124D01*
X208468Y327120D01*
X208466Y327115D01*
X209205Y325732D01*
X209211Y325729D01*
X209210Y325724D01*
X210205Y324512D01*
X210212Y324510D01*
X210212Y324505D01*
X211424Y323510D01*
X211431Y323510D01*
X211432Y323505D01*
X212815Y322766D01*
X212822Y322767D01*
X212824Y322762D01*
X214325Y322307D01*
X214332Y322309D01*
X214334Y322305D01*
X215895Y322151D01*
X215898Y322153D01*
X215900Y322151D01*
X239900Y322151D01*
X239947Y322187D01*
G37*
G36*
X239947Y398387D02*
X239947Y398387D01*
X239942Y398394D01*
X239949Y398400D01*
X239949Y414400D01*
X239913Y414447D01*
X239906Y414442D01*
X239900Y414449D01*
X215900Y414449D01*
X215897Y414447D01*
X215895Y414449D01*
X214334Y414295D01*
X214329Y414290D01*
X214325Y414293D01*
X212824Y413838D01*
X212820Y413832D01*
X212815Y413834D01*
X211432Y413095D01*
X211429Y413089D01*
X211424Y413090D01*
X210212Y412095D01*
X210210Y412088D01*
X210205Y412088D01*
X209210Y410876D01*
X209210Y410869D01*
X209205Y410868D01*
X208466Y409485D01*
X208467Y409478D01*
X208462Y409476D01*
X208007Y407975D01*
X208008Y407970D01*
X208006Y407968D01*
X208007Y407967D01*
X208005Y407966D01*
X207851Y406405D01*
X207855Y406399D01*
X207851Y406395D01*
X208005Y404834D01*
X208010Y404829D01*
X208007Y404825D01*
X208462Y403324D01*
X208468Y403320D01*
X208466Y403315D01*
X209205Y401932D01*
X209211Y401929D01*
X209210Y401924D01*
X210205Y400712D01*
X210212Y400710D01*
X210212Y400705D01*
X211424Y399710D01*
X211431Y399710D01*
X211432Y399705D01*
X212815Y398966D01*
X212822Y398967D01*
X212824Y398962D01*
X214325Y398507D01*
X214332Y398509D01*
X214334Y398505D01*
X215895Y398351D01*
X215898Y398353D01*
X215900Y398351D01*
X239900Y398351D01*
X239947Y398387D01*
G37*
G36*
X239947Y626987D02*
X239947Y626987D01*
X239942Y626994D01*
X239949Y627000D01*
X239949Y643000D01*
X239913Y643047D01*
X239906Y643042D01*
X239900Y643049D01*
X215900Y643049D01*
X215897Y643047D01*
X215895Y643049D01*
X214334Y642895D01*
X214329Y642890D01*
X214325Y642893D01*
X212824Y642438D01*
X212820Y642432D01*
X212815Y642434D01*
X211432Y641695D01*
X211429Y641689D01*
X211424Y641690D01*
X210212Y640695D01*
X210210Y640688D01*
X210205Y640688D01*
X209210Y639476D01*
X209210Y639469D01*
X209205Y639468D01*
X208466Y638085D01*
X208467Y638078D01*
X208462Y638076D01*
X208007Y636575D01*
X208008Y636570D01*
X208006Y636568D01*
X208007Y636567D01*
X208005Y636566D01*
X207851Y635005D01*
X207855Y634999D01*
X207851Y634995D01*
X208005Y633434D01*
X208010Y633429D01*
X208007Y633425D01*
X208462Y631924D01*
X208468Y631920D01*
X208466Y631915D01*
X209205Y630532D01*
X209211Y630529D01*
X209210Y630524D01*
X210205Y629312D01*
X210212Y629310D01*
X210212Y629305D01*
X211424Y628310D01*
X211431Y628310D01*
X211432Y628305D01*
X212815Y627566D01*
X212822Y627567D01*
X212824Y627562D01*
X214325Y627107D01*
X214332Y627109D01*
X214334Y627105D01*
X215895Y626951D01*
X215898Y626953D01*
X215900Y626951D01*
X239900Y626951D01*
X239947Y626987D01*
G37*
G36*
X239947Y347587D02*
X239947Y347587D01*
X239942Y347594D01*
X239949Y347600D01*
X239949Y363600D01*
X239913Y363647D01*
X239906Y363642D01*
X239900Y363649D01*
X215900Y363649D01*
X215897Y363647D01*
X215895Y363649D01*
X214334Y363495D01*
X214329Y363490D01*
X214325Y363493D01*
X212824Y363038D01*
X212820Y363032D01*
X212815Y363034D01*
X211432Y362295D01*
X211429Y362289D01*
X211424Y362290D01*
X210212Y361295D01*
X210210Y361288D01*
X210205Y361288D01*
X209210Y360076D01*
X209210Y360069D01*
X209205Y360068D01*
X208466Y358685D01*
X208467Y358678D01*
X208462Y358676D01*
X208007Y357175D01*
X208008Y357170D01*
X208006Y357168D01*
X208007Y357167D01*
X208005Y357166D01*
X207851Y355605D01*
X207855Y355599D01*
X207851Y355595D01*
X208005Y354034D01*
X208010Y354029D01*
X208007Y354025D01*
X208462Y352524D01*
X208468Y352520D01*
X208466Y352515D01*
X209205Y351132D01*
X209211Y351129D01*
X209210Y351124D01*
X210205Y349912D01*
X210212Y349910D01*
X210212Y349905D01*
X211424Y348910D01*
X211431Y348910D01*
X211432Y348905D01*
X212815Y348166D01*
X212822Y348167D01*
X212824Y348162D01*
X214325Y347707D01*
X214332Y347709D01*
X214334Y347705D01*
X215895Y347551D01*
X215898Y347553D01*
X215900Y347551D01*
X239900Y347551D01*
X239947Y347587D01*
G37*
G36*
X239947Y601587D02*
X239947Y601587D01*
X239942Y601594D01*
X239949Y601600D01*
X239949Y617600D01*
X239913Y617647D01*
X239906Y617642D01*
X239900Y617649D01*
X215900Y617649D01*
X215897Y617647D01*
X215895Y617649D01*
X214334Y617495D01*
X214329Y617490D01*
X214325Y617493D01*
X212824Y617038D01*
X212820Y617032D01*
X212815Y617034D01*
X211432Y616295D01*
X211429Y616289D01*
X211424Y616290D01*
X210212Y615295D01*
X210210Y615288D01*
X210205Y615288D01*
X209210Y614076D01*
X209210Y614069D01*
X209205Y614068D01*
X208466Y612685D01*
X208467Y612678D01*
X208462Y612676D01*
X208007Y611175D01*
X208008Y611170D01*
X208006Y611168D01*
X208007Y611167D01*
X208005Y611166D01*
X207851Y609605D01*
X207855Y609599D01*
X207851Y609595D01*
X208005Y608034D01*
X208010Y608029D01*
X208007Y608025D01*
X208462Y606524D01*
X208468Y606520D01*
X208466Y606515D01*
X209205Y605132D01*
X209211Y605129D01*
X209210Y605124D01*
X210205Y603912D01*
X210212Y603910D01*
X210212Y603905D01*
X211424Y602910D01*
X211431Y602910D01*
X211432Y602905D01*
X212815Y602166D01*
X212822Y602167D01*
X212824Y602162D01*
X214325Y601707D01*
X214332Y601709D01*
X214334Y601705D01*
X215895Y601551D01*
X215898Y601553D01*
X215900Y601551D01*
X239900Y601551D01*
X239947Y601587D01*
G37*
G36*
X239947Y474587D02*
X239947Y474587D01*
X239942Y474594D01*
X239949Y474600D01*
X239949Y490600D01*
X239913Y490647D01*
X239906Y490642D01*
X239900Y490649D01*
X215900Y490649D01*
X215897Y490647D01*
X215895Y490649D01*
X214334Y490495D01*
X214329Y490490D01*
X214325Y490493D01*
X212824Y490038D01*
X212820Y490032D01*
X212815Y490034D01*
X211432Y489295D01*
X211429Y489289D01*
X211424Y489290D01*
X210212Y488295D01*
X210210Y488288D01*
X210205Y488288D01*
X209210Y487076D01*
X209210Y487069D01*
X209205Y487068D01*
X208466Y485685D01*
X208467Y485678D01*
X208462Y485676D01*
X208007Y484175D01*
X208008Y484170D01*
X208006Y484168D01*
X208007Y484167D01*
X208005Y484166D01*
X207851Y482605D01*
X207855Y482599D01*
X207851Y482595D01*
X208005Y481034D01*
X208010Y481029D01*
X208007Y481025D01*
X208462Y479524D01*
X208468Y479520D01*
X208466Y479515D01*
X209205Y478132D01*
X209211Y478129D01*
X209210Y478124D01*
X210205Y476912D01*
X210212Y476910D01*
X210212Y476905D01*
X211424Y475910D01*
X211431Y475910D01*
X211432Y475905D01*
X212815Y475166D01*
X212822Y475167D01*
X212824Y475162D01*
X214325Y474707D01*
X214332Y474709D01*
X214334Y474705D01*
X215895Y474551D01*
X215898Y474553D01*
X215900Y474551D01*
X239900Y474551D01*
X239947Y474587D01*
G37*
G36*
X239947Y372987D02*
X239947Y372987D01*
X239942Y372994D01*
X239949Y373000D01*
X239949Y389000D01*
X239913Y389047D01*
X239906Y389042D01*
X239900Y389049D01*
X215900Y389049D01*
X215897Y389047D01*
X215895Y389049D01*
X214334Y388895D01*
X214329Y388890D01*
X214325Y388893D01*
X212824Y388438D01*
X212820Y388432D01*
X212815Y388434D01*
X211432Y387695D01*
X211429Y387689D01*
X211424Y387690D01*
X210212Y386695D01*
X210210Y386688D01*
X210205Y386688D01*
X209210Y385476D01*
X209210Y385469D01*
X209205Y385468D01*
X208466Y384085D01*
X208467Y384078D01*
X208462Y384076D01*
X208007Y382575D01*
X208008Y382570D01*
X208006Y382568D01*
X208007Y382567D01*
X208005Y382566D01*
X207851Y381005D01*
X207855Y380999D01*
X207851Y380995D01*
X208005Y379434D01*
X208010Y379429D01*
X208007Y379425D01*
X208462Y377924D01*
X208468Y377920D01*
X208466Y377915D01*
X209205Y376532D01*
X209211Y376529D01*
X209210Y376524D01*
X210205Y375312D01*
X210212Y375310D01*
X210212Y375305D01*
X211424Y374310D01*
X211431Y374310D01*
X211432Y374305D01*
X212815Y373566D01*
X212822Y373567D01*
X212824Y373562D01*
X214325Y373107D01*
X214332Y373109D01*
X214334Y373105D01*
X215895Y372951D01*
X215898Y372953D01*
X215900Y372951D01*
X239900Y372951D01*
X239947Y372987D01*
G37*
G36*
X239947Y525387D02*
X239947Y525387D01*
X239942Y525394D01*
X239949Y525400D01*
X239949Y541400D01*
X239913Y541447D01*
X239906Y541442D01*
X239900Y541449D01*
X215900Y541449D01*
X215897Y541447D01*
X215895Y541449D01*
X214334Y541295D01*
X214329Y541290D01*
X214325Y541293D01*
X212824Y540838D01*
X212820Y540832D01*
X212815Y540834D01*
X211432Y540095D01*
X211429Y540089D01*
X211424Y540090D01*
X210212Y539095D01*
X210210Y539088D01*
X210205Y539088D01*
X209210Y537876D01*
X209210Y537869D01*
X209205Y537868D01*
X208466Y536485D01*
X208467Y536478D01*
X208462Y536476D01*
X208007Y534975D01*
X208008Y534970D01*
X208006Y534968D01*
X208007Y534967D01*
X208005Y534966D01*
X207851Y533405D01*
X207855Y533399D01*
X207851Y533395D01*
X208005Y531834D01*
X208010Y531829D01*
X208007Y531825D01*
X208462Y530324D01*
X208468Y530320D01*
X208466Y530315D01*
X209205Y528932D01*
X209211Y528929D01*
X209210Y528924D01*
X210205Y527712D01*
X210212Y527710D01*
X210212Y527705D01*
X211424Y526710D01*
X211431Y526710D01*
X211432Y526705D01*
X212815Y525966D01*
X212822Y525967D01*
X212824Y525962D01*
X214325Y525507D01*
X214332Y525509D01*
X214334Y525505D01*
X215895Y525351D01*
X215898Y525353D01*
X215900Y525351D01*
X239900Y525351D01*
X239947Y525387D01*
G37*
G36*
X239947Y271387D02*
X239947Y271387D01*
X239942Y271394D01*
X239949Y271400D01*
X239949Y287400D01*
X239913Y287447D01*
X239906Y287442D01*
X239900Y287449D01*
X215900Y287449D01*
X215897Y287447D01*
X215895Y287449D01*
X214334Y287295D01*
X214329Y287290D01*
X214325Y287293D01*
X212824Y286838D01*
X212820Y286832D01*
X212815Y286834D01*
X211432Y286095D01*
X211429Y286089D01*
X211424Y286090D01*
X210212Y285095D01*
X210210Y285088D01*
X210205Y285088D01*
X209210Y283876D01*
X209210Y283869D01*
X209205Y283868D01*
X208466Y282485D01*
X208467Y282478D01*
X208462Y282476D01*
X208007Y280975D01*
X208008Y280970D01*
X208006Y280968D01*
X208007Y280967D01*
X208005Y280966D01*
X207851Y279405D01*
X207855Y279399D01*
X207851Y279395D01*
X208005Y277834D01*
X208010Y277829D01*
X208007Y277825D01*
X208462Y276324D01*
X208468Y276320D01*
X208466Y276315D01*
X209205Y274932D01*
X209211Y274929D01*
X209210Y274924D01*
X210205Y273712D01*
X210212Y273710D01*
X210212Y273705D01*
X211424Y272710D01*
X211431Y272710D01*
X211432Y272705D01*
X212815Y271966D01*
X212822Y271967D01*
X212824Y271962D01*
X214325Y271507D01*
X214332Y271509D01*
X214334Y271505D01*
X215895Y271351D01*
X215898Y271353D01*
X215900Y271351D01*
X239900Y271351D01*
X239947Y271387D01*
G37*
G36*
X239947Y245987D02*
X239947Y245987D01*
X239942Y245994D01*
X239949Y246000D01*
X239949Y262000D01*
X239913Y262047D01*
X239906Y262042D01*
X239900Y262049D01*
X215900Y262049D01*
X215897Y262047D01*
X215895Y262049D01*
X214334Y261895D01*
X214329Y261890D01*
X214325Y261893D01*
X212824Y261438D01*
X212820Y261432D01*
X212815Y261434D01*
X211432Y260695D01*
X211429Y260689D01*
X211424Y260690D01*
X210212Y259695D01*
X210210Y259688D01*
X210205Y259688D01*
X209210Y258476D01*
X209210Y258469D01*
X209205Y258468D01*
X208466Y257085D01*
X208467Y257078D01*
X208462Y257076D01*
X208007Y255575D01*
X208008Y255570D01*
X208006Y255568D01*
X208007Y255567D01*
X208005Y255566D01*
X207851Y254005D01*
X207855Y253999D01*
X207851Y253995D01*
X208005Y252434D01*
X208010Y252429D01*
X208007Y252425D01*
X208462Y250924D01*
X208468Y250920D01*
X208466Y250915D01*
X209205Y249532D01*
X209211Y249529D01*
X209210Y249524D01*
X210205Y248312D01*
X210212Y248310D01*
X210212Y248305D01*
X211424Y247310D01*
X211431Y247310D01*
X211432Y247305D01*
X212815Y246566D01*
X212822Y246567D01*
X212824Y246562D01*
X214325Y246107D01*
X214332Y246109D01*
X214334Y246105D01*
X215895Y245951D01*
X215898Y245953D01*
X215900Y245951D01*
X239900Y245951D01*
X239947Y245987D01*
G37*
G36*
X239947Y449187D02*
X239947Y449187D01*
X239942Y449194D01*
X239949Y449200D01*
X239949Y465200D01*
X239913Y465247D01*
X239906Y465242D01*
X239900Y465249D01*
X215900Y465249D01*
X215897Y465247D01*
X215895Y465249D01*
X214334Y465095D01*
X214329Y465090D01*
X214325Y465093D01*
X212824Y464638D01*
X212820Y464632D01*
X212815Y464634D01*
X211432Y463895D01*
X211429Y463889D01*
X211424Y463890D01*
X210212Y462895D01*
X210210Y462888D01*
X210205Y462888D01*
X209210Y461676D01*
X209210Y461669D01*
X209205Y461668D01*
X208466Y460285D01*
X208467Y460278D01*
X208462Y460276D01*
X208007Y458775D01*
X208009Y458770D01*
X208006Y458768D01*
X208007Y458767D01*
X208005Y458766D01*
X207851Y457205D01*
X207855Y457199D01*
X207851Y457195D01*
X208005Y455634D01*
X208010Y455629D01*
X208007Y455625D01*
X208462Y454124D01*
X208468Y454120D01*
X208466Y454115D01*
X209205Y452732D01*
X209211Y452729D01*
X209210Y452724D01*
X210205Y451512D01*
X210212Y451510D01*
X210212Y451505D01*
X211424Y450510D01*
X211431Y450510D01*
X211432Y450505D01*
X212815Y449766D01*
X212822Y449767D01*
X212824Y449762D01*
X214325Y449307D01*
X214332Y449309D01*
X214334Y449305D01*
X215895Y449151D01*
X215898Y449153D01*
X215900Y449151D01*
X239900Y449151D01*
X239947Y449187D01*
G37*
G36*
X38103Y398353D02*
X38103Y398353D01*
X38105Y398351D01*
X39666Y398505D01*
X39671Y398510D01*
X39675Y398507D01*
X41176Y398962D01*
X41180Y398968D01*
X41185Y398966D01*
X42568Y399705D01*
X42571Y399711D01*
X42576Y399710D01*
X43788Y400705D01*
X43790Y400712D01*
X43795Y400712D01*
X44790Y401924D01*
X44790Y401931D01*
X44795Y401932D01*
X45534Y403315D01*
X45533Y403322D01*
X45538Y403324D01*
X45609Y403558D01*
X45803Y404198D01*
X45993Y404825D01*
X45991Y404832D01*
X45995Y404834D01*
X46149Y406395D01*
X46145Y406401D01*
X46149Y406405D01*
X45995Y407966D01*
X45990Y407971D01*
X45993Y407975D01*
X45538Y409476D01*
X45532Y409480D01*
X45534Y409485D01*
X44795Y410868D01*
X44789Y410871D01*
X44790Y410876D01*
X43795Y412088D01*
X43788Y412090D01*
X43788Y412095D01*
X42576Y413090D01*
X42569Y413090D01*
X42568Y413095D01*
X41185Y413834D01*
X41178Y413833D01*
X41176Y413838D01*
X39675Y414293D01*
X39668Y414291D01*
X39666Y414295D01*
X38105Y414449D01*
X38102Y414447D01*
X38100Y414449D01*
X14100Y414449D01*
X14053Y414413D01*
X14058Y414406D01*
X14051Y414400D01*
X14051Y398400D01*
X14087Y398353D01*
X14094Y398358D01*
X14100Y398351D01*
X38100Y398351D01*
X38103Y398353D01*
G37*
G36*
X38103Y372953D02*
X38103Y372953D01*
X38105Y372951D01*
X39666Y373105D01*
X39671Y373110D01*
X39675Y373107D01*
X41176Y373562D01*
X41180Y373568D01*
X41185Y373566D01*
X42568Y374305D01*
X42571Y374311D01*
X42576Y374310D01*
X43788Y375305D01*
X43790Y375312D01*
X43795Y375312D01*
X44790Y376524D01*
X44790Y376531D01*
X44795Y376532D01*
X45534Y377915D01*
X45533Y377922D01*
X45538Y377924D01*
X45609Y378158D01*
X45803Y378798D01*
X45993Y379425D01*
X45991Y379432D01*
X45995Y379434D01*
X46149Y380995D01*
X46145Y381001D01*
X46149Y381005D01*
X45995Y382566D01*
X45990Y382571D01*
X45993Y382575D01*
X45538Y384076D01*
X45532Y384080D01*
X45534Y384085D01*
X44795Y385468D01*
X44789Y385471D01*
X44790Y385476D01*
X43795Y386688D01*
X43788Y386690D01*
X43788Y386695D01*
X42576Y387690D01*
X42569Y387690D01*
X42568Y387695D01*
X41185Y388434D01*
X41178Y388433D01*
X41176Y388438D01*
X39675Y388893D01*
X39668Y388891D01*
X39666Y388895D01*
X38105Y389049D01*
X38102Y389047D01*
X38100Y389049D01*
X14100Y389049D01*
X14053Y389013D01*
X14058Y389006D01*
X14051Y389000D01*
X14051Y373000D01*
X14087Y372953D01*
X14094Y372958D01*
X14100Y372951D01*
X38100Y372951D01*
X38103Y372953D01*
G37*
G36*
X38103Y347553D02*
X38103Y347553D01*
X38105Y347551D01*
X39666Y347705D01*
X39671Y347710D01*
X39675Y347707D01*
X41176Y348162D01*
X41180Y348168D01*
X41185Y348166D01*
X42568Y348905D01*
X42571Y348911D01*
X42576Y348910D01*
X43788Y349905D01*
X43790Y349912D01*
X43795Y349912D01*
X44790Y351124D01*
X44790Y351131D01*
X44795Y351132D01*
X45534Y352515D01*
X45533Y352522D01*
X45538Y352524D01*
X45609Y352758D01*
X45803Y353398D01*
X45993Y354025D01*
X45991Y354032D01*
X45995Y354034D01*
X46149Y355595D01*
X46145Y355601D01*
X46149Y355605D01*
X45995Y357166D01*
X45990Y357171D01*
X45993Y357175D01*
X45538Y358676D01*
X45532Y358680D01*
X45534Y358685D01*
X44795Y360068D01*
X44789Y360071D01*
X44790Y360076D01*
X43795Y361288D01*
X43788Y361290D01*
X43788Y361295D01*
X42576Y362290D01*
X42569Y362290D01*
X42568Y362295D01*
X41185Y363034D01*
X41178Y363033D01*
X41176Y363038D01*
X39675Y363493D01*
X39668Y363491D01*
X39666Y363495D01*
X38105Y363649D01*
X38102Y363647D01*
X38100Y363649D01*
X14100Y363649D01*
X14053Y363613D01*
X14058Y363606D01*
X14051Y363600D01*
X14051Y347600D01*
X14087Y347553D01*
X14094Y347558D01*
X14100Y347551D01*
X38100Y347551D01*
X38103Y347553D01*
G37*
G36*
X38103Y322153D02*
X38103Y322153D01*
X38105Y322151D01*
X39666Y322305D01*
X39671Y322310D01*
X39675Y322307D01*
X41176Y322762D01*
X41180Y322768D01*
X41185Y322766D01*
X42568Y323505D01*
X42571Y323511D01*
X42576Y323510D01*
X43788Y324505D01*
X43790Y324512D01*
X43795Y324512D01*
X44790Y325724D01*
X44790Y325731D01*
X44795Y325732D01*
X45534Y327115D01*
X45533Y327122D01*
X45538Y327124D01*
X45609Y327358D01*
X45803Y327998D01*
X45993Y328625D01*
X45991Y328632D01*
X45995Y328634D01*
X46149Y330195D01*
X46145Y330201D01*
X46149Y330205D01*
X45995Y331766D01*
X45990Y331771D01*
X45993Y331775D01*
X45538Y333276D01*
X45532Y333280D01*
X45534Y333285D01*
X44795Y334668D01*
X44789Y334671D01*
X44790Y334676D01*
X43795Y335888D01*
X43788Y335890D01*
X43788Y335895D01*
X42576Y336890D01*
X42569Y336890D01*
X42568Y336895D01*
X41185Y337634D01*
X41178Y337633D01*
X41176Y337638D01*
X39675Y338093D01*
X39668Y338091D01*
X39666Y338095D01*
X38105Y338249D01*
X38102Y338247D01*
X38100Y338249D01*
X14100Y338249D01*
X14053Y338213D01*
X14058Y338206D01*
X14051Y338200D01*
X14051Y322200D01*
X14087Y322153D01*
X14094Y322158D01*
X14100Y322151D01*
X38100Y322151D01*
X38103Y322153D01*
G37*
G36*
X38103Y703153D02*
X38103Y703153D01*
X38105Y703151D01*
X39666Y703305D01*
X39671Y703310D01*
X39675Y703307D01*
X41176Y703762D01*
X41180Y703768D01*
X41185Y703766D01*
X42568Y704505D01*
X42571Y704511D01*
X42576Y704510D01*
X43788Y705505D01*
X43790Y705512D01*
X43795Y705512D01*
X44790Y706724D01*
X44790Y706731D01*
X44795Y706732D01*
X45534Y708115D01*
X45533Y708122D01*
X45538Y708124D01*
X45609Y708358D01*
X45803Y708998D01*
X45993Y709625D01*
X45991Y709632D01*
X45995Y709634D01*
X46149Y711195D01*
X46145Y711201D01*
X46149Y711205D01*
X45995Y712766D01*
X45990Y712771D01*
X45993Y712775D01*
X45538Y714276D01*
X45532Y714280D01*
X45534Y714285D01*
X44795Y715668D01*
X44789Y715671D01*
X44790Y715676D01*
X43795Y716888D01*
X43788Y716890D01*
X43788Y716895D01*
X42576Y717890D01*
X42569Y717890D01*
X42568Y717895D01*
X41185Y718634D01*
X41178Y718633D01*
X41176Y718638D01*
X39675Y719093D01*
X39668Y719091D01*
X39666Y719095D01*
X38105Y719249D01*
X38102Y719247D01*
X38100Y719249D01*
X14100Y719249D01*
X14053Y719213D01*
X14058Y719206D01*
X14051Y719200D01*
X14051Y703200D01*
X14087Y703153D01*
X14094Y703158D01*
X14100Y703151D01*
X38100Y703151D01*
X38103Y703153D01*
G37*
G36*
X38103Y271353D02*
X38103Y271353D01*
X38105Y271351D01*
X39666Y271505D01*
X39671Y271510D01*
X39675Y271507D01*
X41176Y271962D01*
X41180Y271968D01*
X41185Y271966D01*
X42568Y272705D01*
X42571Y272711D01*
X42576Y272710D01*
X43788Y273705D01*
X43790Y273712D01*
X43795Y273712D01*
X44790Y274924D01*
X44790Y274931D01*
X44795Y274932D01*
X45534Y276315D01*
X45533Y276322D01*
X45538Y276324D01*
X45609Y276558D01*
X45803Y277198D01*
X45993Y277825D01*
X45991Y277832D01*
X45995Y277834D01*
X46149Y279395D01*
X46145Y279401D01*
X46149Y279405D01*
X45995Y280966D01*
X45990Y280971D01*
X45993Y280975D01*
X45538Y282476D01*
X45532Y282480D01*
X45534Y282485D01*
X44795Y283868D01*
X44789Y283871D01*
X44790Y283876D01*
X43795Y285088D01*
X43788Y285090D01*
X43788Y285095D01*
X42576Y286090D01*
X42569Y286090D01*
X42568Y286095D01*
X41185Y286834D01*
X41178Y286833D01*
X41176Y286838D01*
X39675Y287293D01*
X39668Y287291D01*
X39666Y287295D01*
X38105Y287449D01*
X38102Y287447D01*
X38100Y287449D01*
X14100Y287449D01*
X14053Y287413D01*
X14058Y287406D01*
X14051Y287400D01*
X14051Y271400D01*
X14087Y271353D01*
X14094Y271358D01*
X14100Y271351D01*
X38100Y271351D01*
X38103Y271353D01*
G37*
G36*
X38103Y652353D02*
X38103Y652353D01*
X38105Y652351D01*
X39666Y652505D01*
X39671Y652510D01*
X39675Y652507D01*
X41176Y652962D01*
X41180Y652968D01*
X41185Y652966D01*
X42568Y653705D01*
X42571Y653711D01*
X42576Y653710D01*
X43788Y654705D01*
X43790Y654712D01*
X43795Y654712D01*
X44790Y655924D01*
X44790Y655931D01*
X44795Y655932D01*
X45534Y657315D01*
X45533Y657322D01*
X45538Y657324D01*
X45609Y657558D01*
X45803Y658198D01*
X45993Y658825D01*
X45991Y658832D01*
X45995Y658834D01*
X46149Y660395D01*
X46145Y660401D01*
X46149Y660405D01*
X45995Y661966D01*
X45990Y661971D01*
X45993Y661975D01*
X45538Y663476D01*
X45532Y663480D01*
X45534Y663485D01*
X44795Y664868D01*
X44789Y664871D01*
X44790Y664876D01*
X43795Y666088D01*
X43788Y666090D01*
X43788Y666095D01*
X42576Y667090D01*
X42569Y667090D01*
X42568Y667095D01*
X41185Y667834D01*
X41178Y667833D01*
X41176Y667838D01*
X39675Y668293D01*
X39668Y668291D01*
X39666Y668295D01*
X38105Y668449D01*
X38102Y668447D01*
X38100Y668449D01*
X14100Y668449D01*
X14053Y668413D01*
X14058Y668406D01*
X14051Y668400D01*
X14051Y652400D01*
X14087Y652353D01*
X14094Y652358D01*
X14100Y652351D01*
X38100Y652351D01*
X38103Y652353D01*
G37*
G36*
X38103Y626953D02*
X38103Y626953D01*
X38105Y626951D01*
X39666Y627105D01*
X39671Y627110D01*
X39675Y627107D01*
X41176Y627562D01*
X41180Y627568D01*
X41185Y627566D01*
X42568Y628305D01*
X42571Y628311D01*
X42576Y628310D01*
X43788Y629305D01*
X43790Y629312D01*
X43795Y629312D01*
X44790Y630524D01*
X44790Y630531D01*
X44795Y630532D01*
X45534Y631915D01*
X45533Y631922D01*
X45538Y631924D01*
X45609Y632158D01*
X45803Y632798D01*
X45993Y633425D01*
X45991Y633432D01*
X45995Y633434D01*
X46149Y634995D01*
X46145Y635001D01*
X46149Y635005D01*
X45995Y636566D01*
X45990Y636571D01*
X45993Y636575D01*
X45538Y638076D01*
X45532Y638080D01*
X45534Y638085D01*
X44795Y639468D01*
X44789Y639471D01*
X44790Y639476D01*
X43795Y640688D01*
X43788Y640690D01*
X43788Y640695D01*
X42576Y641690D01*
X42569Y641690D01*
X42568Y641695D01*
X41185Y642434D01*
X41178Y642433D01*
X41176Y642438D01*
X39675Y642893D01*
X39668Y642891D01*
X39666Y642895D01*
X38105Y643049D01*
X38102Y643047D01*
X38100Y643049D01*
X14100Y643049D01*
X14053Y643013D01*
X14058Y643006D01*
X14051Y643000D01*
X14051Y627000D01*
X14087Y626953D01*
X14094Y626958D01*
X14100Y626951D01*
X38100Y626951D01*
X38103Y626953D01*
G37*
G36*
X38103Y601553D02*
X38103Y601553D01*
X38105Y601551D01*
X39666Y601705D01*
X39671Y601710D01*
X39675Y601707D01*
X41176Y602162D01*
X41180Y602168D01*
X41185Y602166D01*
X42568Y602905D01*
X42571Y602911D01*
X42576Y602910D01*
X43788Y603905D01*
X43790Y603912D01*
X43795Y603912D01*
X44790Y605124D01*
X44790Y605131D01*
X44795Y605132D01*
X45534Y606515D01*
X45533Y606522D01*
X45538Y606524D01*
X45609Y606758D01*
X45803Y607398D01*
X45993Y608025D01*
X45991Y608032D01*
X45995Y608034D01*
X46149Y609595D01*
X46145Y609601D01*
X46149Y609605D01*
X45995Y611166D01*
X45990Y611171D01*
X45993Y611175D01*
X45538Y612676D01*
X45532Y612680D01*
X45534Y612685D01*
X44795Y614068D01*
X44789Y614071D01*
X44790Y614076D01*
X43795Y615288D01*
X43788Y615290D01*
X43788Y615295D01*
X42576Y616290D01*
X42569Y616290D01*
X42568Y616295D01*
X41185Y617034D01*
X41178Y617033D01*
X41176Y617038D01*
X39675Y617493D01*
X39668Y617491D01*
X39666Y617495D01*
X38105Y617649D01*
X38102Y617647D01*
X38100Y617649D01*
X14100Y617649D01*
X14053Y617613D01*
X14058Y617606D01*
X14051Y617600D01*
X14051Y601600D01*
X14087Y601553D01*
X14094Y601558D01*
X14100Y601551D01*
X38100Y601551D01*
X38103Y601553D01*
G37*
G36*
X38103Y728553D02*
X38103Y728553D01*
X38105Y728551D01*
X39666Y728705D01*
X39671Y728710D01*
X39675Y728707D01*
X41176Y729162D01*
X41180Y729168D01*
X41185Y729166D01*
X42568Y729905D01*
X42571Y729911D01*
X42576Y729910D01*
X43788Y730905D01*
X43790Y730912D01*
X43795Y730912D01*
X44790Y732124D01*
X44790Y732131D01*
X44795Y732132D01*
X45534Y733515D01*
X45533Y733522D01*
X45538Y733524D01*
X45609Y733758D01*
X45803Y734398D01*
X45993Y735025D01*
X45991Y735032D01*
X45995Y735034D01*
X46149Y736595D01*
X46145Y736601D01*
X46149Y736605D01*
X45995Y738166D01*
X45990Y738171D01*
X45993Y738175D01*
X45538Y739676D01*
X45532Y739680D01*
X45534Y739685D01*
X44795Y741068D01*
X44789Y741071D01*
X44790Y741076D01*
X43795Y742288D01*
X43788Y742290D01*
X43788Y742295D01*
X42576Y743290D01*
X42569Y743290D01*
X42568Y743295D01*
X41185Y744034D01*
X41178Y744033D01*
X41176Y744038D01*
X39675Y744493D01*
X39668Y744491D01*
X39666Y744495D01*
X38105Y744649D01*
X38102Y744647D01*
X38100Y744649D01*
X14100Y744649D01*
X14053Y744613D01*
X14058Y744606D01*
X14051Y744600D01*
X14051Y728600D01*
X14087Y728553D01*
X14094Y728558D01*
X14100Y728551D01*
X38100Y728551D01*
X38103Y728553D01*
G37*
G36*
X38103Y576153D02*
X38103Y576153D01*
X38105Y576151D01*
X39666Y576305D01*
X39671Y576310D01*
X39675Y576307D01*
X41176Y576762D01*
X41180Y576768D01*
X41185Y576766D01*
X42568Y577505D01*
X42571Y577511D01*
X42576Y577510D01*
X43788Y578505D01*
X43790Y578512D01*
X43795Y578512D01*
X44790Y579724D01*
X44790Y579731D01*
X44795Y579732D01*
X45534Y581115D01*
X45533Y581122D01*
X45538Y581124D01*
X45609Y581358D01*
X45803Y581998D01*
X45993Y582625D01*
X45991Y582632D01*
X45995Y582634D01*
X46149Y584195D01*
X46145Y584201D01*
X46149Y584205D01*
X45995Y585766D01*
X45990Y585771D01*
X45993Y585775D01*
X45538Y587276D01*
X45532Y587280D01*
X45534Y587285D01*
X44795Y588668D01*
X44789Y588671D01*
X44790Y588676D01*
X43795Y589888D01*
X43788Y589890D01*
X43788Y589895D01*
X42576Y590890D01*
X42569Y590890D01*
X42568Y590895D01*
X41185Y591634D01*
X41178Y591633D01*
X41176Y591638D01*
X39675Y592093D01*
X39668Y592091D01*
X39666Y592095D01*
X38105Y592249D01*
X38102Y592247D01*
X38100Y592249D01*
X14100Y592249D01*
X14053Y592213D01*
X14058Y592206D01*
X14051Y592200D01*
X14051Y576200D01*
X14087Y576153D01*
X14094Y576158D01*
X14100Y576151D01*
X38100Y576151D01*
X38103Y576153D01*
G37*
G36*
X38103Y245953D02*
X38103Y245953D01*
X38105Y245951D01*
X39666Y246105D01*
X39671Y246110D01*
X39675Y246107D01*
X41176Y246562D01*
X41180Y246568D01*
X41185Y246566D01*
X42568Y247305D01*
X42571Y247311D01*
X42576Y247310D01*
X43788Y248305D01*
X43790Y248312D01*
X43795Y248312D01*
X44790Y249524D01*
X44790Y249531D01*
X44795Y249532D01*
X45534Y250915D01*
X45533Y250922D01*
X45538Y250924D01*
X45609Y251158D01*
X45803Y251798D01*
X45993Y252425D01*
X45991Y252432D01*
X45995Y252434D01*
X46149Y253995D01*
X46145Y254001D01*
X46149Y254005D01*
X45995Y255566D01*
X45990Y255571D01*
X45993Y255575D01*
X45538Y257076D01*
X45532Y257080D01*
X45534Y257085D01*
X44795Y258468D01*
X44789Y258471D01*
X44790Y258476D01*
X43795Y259688D01*
X43788Y259690D01*
X43788Y259695D01*
X42576Y260690D01*
X42569Y260690D01*
X42568Y260695D01*
X41185Y261434D01*
X41178Y261433D01*
X41176Y261438D01*
X39675Y261893D01*
X39668Y261891D01*
X39666Y261895D01*
X38105Y262049D01*
X38102Y262047D01*
X38100Y262049D01*
X14100Y262049D01*
X14053Y262013D01*
X14058Y262006D01*
X14051Y262000D01*
X14051Y246000D01*
X14087Y245953D01*
X14094Y245958D01*
X14100Y245951D01*
X38100Y245951D01*
X38103Y245953D01*
G37*
G36*
X38103Y525353D02*
X38103Y525353D01*
X38105Y525351D01*
X39666Y525505D01*
X39671Y525510D01*
X39675Y525507D01*
X41176Y525962D01*
X41180Y525968D01*
X41185Y525966D01*
X42568Y526705D01*
X42571Y526711D01*
X42576Y526710D01*
X43788Y527705D01*
X43790Y527712D01*
X43795Y527712D01*
X44790Y528924D01*
X44790Y528931D01*
X44795Y528932D01*
X45534Y530315D01*
X45533Y530322D01*
X45538Y530324D01*
X45609Y530558D01*
X45803Y531198D01*
X45993Y531825D01*
X45991Y531832D01*
X45995Y531834D01*
X46149Y533395D01*
X46145Y533401D01*
X46149Y533405D01*
X45995Y534966D01*
X45990Y534971D01*
X45993Y534975D01*
X45538Y536476D01*
X45532Y536480D01*
X45534Y536485D01*
X44795Y537868D01*
X44789Y537871D01*
X44790Y537876D01*
X43795Y539088D01*
X43788Y539090D01*
X43788Y539095D01*
X42576Y540090D01*
X42569Y540090D01*
X42568Y540095D01*
X41185Y540834D01*
X41178Y540833D01*
X41176Y540838D01*
X39675Y541293D01*
X39668Y541291D01*
X39666Y541295D01*
X38105Y541449D01*
X38102Y541447D01*
X38100Y541449D01*
X14100Y541449D01*
X14053Y541413D01*
X14058Y541406D01*
X14051Y541400D01*
X14051Y525400D01*
X14087Y525353D01*
X14094Y525358D01*
X14100Y525351D01*
X38100Y525351D01*
X38103Y525353D01*
G37*
G36*
X38103Y499953D02*
X38103Y499953D01*
X38105Y499951D01*
X39666Y500105D01*
X39671Y500110D01*
X39675Y500107D01*
X41176Y500562D01*
X41180Y500568D01*
X41185Y500566D01*
X42568Y501305D01*
X42571Y501311D01*
X42576Y501310D01*
X43788Y502305D01*
X43790Y502312D01*
X43795Y502312D01*
X44790Y503524D01*
X44790Y503531D01*
X44795Y503532D01*
X45534Y504915D01*
X45533Y504922D01*
X45538Y504924D01*
X45609Y505158D01*
X45803Y505798D01*
X45993Y506425D01*
X45991Y506432D01*
X45995Y506434D01*
X46149Y507995D01*
X46145Y508001D01*
X46149Y508005D01*
X45995Y509566D01*
X45990Y509571D01*
X45993Y509575D01*
X45538Y511076D01*
X45532Y511080D01*
X45534Y511085D01*
X44795Y512468D01*
X44789Y512471D01*
X44790Y512476D01*
X43795Y513688D01*
X43788Y513690D01*
X43788Y513695D01*
X42576Y514690D01*
X42569Y514690D01*
X42568Y514695D01*
X41185Y515434D01*
X41178Y515433D01*
X41176Y515438D01*
X39675Y515893D01*
X39668Y515891D01*
X39666Y515895D01*
X38105Y516049D01*
X38102Y516047D01*
X38100Y516049D01*
X14100Y516049D01*
X14053Y516013D01*
X14058Y516006D01*
X14051Y516000D01*
X14051Y500000D01*
X14087Y499953D01*
X14094Y499958D01*
X14100Y499951D01*
X38100Y499951D01*
X38103Y499953D01*
G37*
G36*
X38103Y474553D02*
X38103Y474553D01*
X38105Y474551D01*
X39666Y474705D01*
X39671Y474710D01*
X39675Y474707D01*
X41176Y475162D01*
X41180Y475168D01*
X41185Y475166D01*
X42568Y475905D01*
X42571Y475911D01*
X42576Y475910D01*
X43788Y476905D01*
X43790Y476912D01*
X43795Y476912D01*
X44790Y478124D01*
X44790Y478131D01*
X44795Y478132D01*
X45534Y479515D01*
X45533Y479522D01*
X45538Y479524D01*
X45609Y479758D01*
X45803Y480398D01*
X45993Y481025D01*
X45991Y481032D01*
X45995Y481034D01*
X46149Y482595D01*
X46145Y482601D01*
X46149Y482605D01*
X45995Y484166D01*
X45990Y484171D01*
X45993Y484175D01*
X45538Y485676D01*
X45532Y485680D01*
X45534Y485685D01*
X44795Y487068D01*
X44789Y487071D01*
X44790Y487076D01*
X43795Y488288D01*
X43788Y488290D01*
X43788Y488295D01*
X42576Y489290D01*
X42569Y489290D01*
X42568Y489295D01*
X41185Y490034D01*
X41178Y490033D01*
X41176Y490038D01*
X39675Y490493D01*
X39668Y490491D01*
X39666Y490495D01*
X38105Y490649D01*
X38102Y490647D01*
X38100Y490649D01*
X14100Y490649D01*
X14053Y490613D01*
X14058Y490606D01*
X14051Y490600D01*
X14051Y474600D01*
X14087Y474553D01*
X14094Y474558D01*
X14100Y474551D01*
X38100Y474551D01*
X38103Y474553D01*
G37*
G36*
X38103Y449153D02*
X38103Y449153D01*
X38105Y449151D01*
X39666Y449305D01*
X39671Y449310D01*
X39675Y449307D01*
X41176Y449762D01*
X41180Y449768D01*
X41185Y449766D01*
X42568Y450505D01*
X42571Y450511D01*
X42576Y450510D01*
X43788Y451505D01*
X43790Y451512D01*
X43795Y451512D01*
X44790Y452724D01*
X44790Y452731D01*
X44795Y452732D01*
X45534Y454115D01*
X45533Y454122D01*
X45538Y454124D01*
X45669Y454555D01*
X45863Y455195D01*
X45993Y455625D01*
X45991Y455632D01*
X45995Y455634D01*
X46149Y457195D01*
X46145Y457201D01*
X46149Y457205D01*
X45995Y458766D01*
X45990Y458771D01*
X45993Y458775D01*
X45538Y460276D01*
X45532Y460280D01*
X45534Y460285D01*
X44795Y461668D01*
X44789Y461671D01*
X44790Y461676D01*
X43795Y462888D01*
X43788Y462890D01*
X43788Y462895D01*
X42576Y463890D01*
X42569Y463890D01*
X42568Y463895D01*
X41185Y464634D01*
X41178Y464633D01*
X41176Y464638D01*
X39675Y465093D01*
X39668Y465091D01*
X39666Y465095D01*
X38105Y465249D01*
X38102Y465247D01*
X38100Y465249D01*
X14100Y465249D01*
X14053Y465213D01*
X14058Y465206D01*
X14051Y465200D01*
X14051Y449200D01*
X14087Y449153D01*
X14094Y449158D01*
X14100Y449151D01*
X38100Y449151D01*
X38103Y449153D01*
G37*
%LPC*%
G36*
X123443Y131059D02*
X123443Y131059D01*
X123443Y144838D01*
X123440Y144858D01*
X123442Y144877D01*
X123420Y144979D01*
X123403Y145081D01*
X123394Y145098D01*
X123390Y145118D01*
X123337Y145207D01*
X123288Y145298D01*
X123274Y145312D01*
X123264Y145329D01*
X123185Y145396D01*
X123110Y145467D01*
X123092Y145476D01*
X123077Y145489D01*
X122981Y145528D01*
X122887Y145571D01*
X122867Y145573D01*
X122849Y145581D01*
X122682Y145599D01*
X121919Y145599D01*
X121919Y145601D01*
X122682Y145601D01*
X122702Y145604D01*
X122721Y145602D01*
X122823Y145624D01*
X122925Y145641D01*
X122942Y145650D01*
X122962Y145654D01*
X123051Y145707D01*
X123142Y145756D01*
X123156Y145770D01*
X123173Y145780D01*
X123240Y145859D01*
X123311Y145934D01*
X123320Y145952D01*
X123333Y145967D01*
X123372Y146063D01*
X123415Y146157D01*
X123417Y146177D01*
X123425Y146195D01*
X123443Y146362D01*
X123443Y160141D01*
X125626Y160141D01*
X126397Y159934D01*
X127089Y159534D01*
X127654Y158969D01*
X128054Y158277D01*
X128122Y158024D01*
X128161Y157937D01*
X128194Y157848D01*
X128211Y157826D01*
X128223Y157800D01*
X128288Y157730D01*
X128347Y157656D01*
X128371Y157641D01*
X128390Y157620D01*
X128474Y157574D01*
X128554Y157523D01*
X128582Y157516D01*
X128606Y157502D01*
X128700Y157486D01*
X128793Y157463D01*
X128821Y157465D01*
X128849Y157460D01*
X128943Y157475D01*
X129038Y157482D01*
X129064Y157493D01*
X129092Y157497D01*
X129177Y157541D01*
X129264Y157578D01*
X129292Y157600D01*
X129311Y157610D01*
X129334Y157634D01*
X129395Y157683D01*
X130583Y158871D01*
X138657Y158871D01*
X139691Y157837D01*
X139691Y133363D01*
X138657Y132329D01*
X130583Y132329D01*
X129395Y133517D01*
X129318Y133573D01*
X129245Y133634D01*
X129219Y133644D01*
X129196Y133661D01*
X129104Y133689D01*
X129016Y133723D01*
X128988Y133725D01*
X128961Y133733D01*
X128865Y133730D01*
X128770Y133735D01*
X128743Y133727D01*
X128715Y133727D01*
X128625Y133694D01*
X128533Y133668D01*
X128510Y133652D01*
X128484Y133642D01*
X128409Y133582D01*
X128331Y133529D01*
X128314Y133506D01*
X128292Y133488D01*
X128240Y133408D01*
X128183Y133332D01*
X128170Y133299D01*
X128159Y133281D01*
X128151Y133249D01*
X128122Y133176D01*
X128054Y132923D01*
X127654Y132231D01*
X127089Y131666D01*
X126397Y131266D01*
X125626Y131059D01*
X123443Y131059D01*
G37*
%LPD*%
%LPC*%
G36*
X105183Y171329D02*
X105183Y171329D01*
X104149Y172363D01*
X104149Y196837D01*
X105183Y197871D01*
X105664Y197871D01*
X105684Y197874D01*
X105703Y197872D01*
X105805Y197894D01*
X105907Y197910D01*
X105924Y197920D01*
X105944Y197924D01*
X106033Y197977D01*
X106124Y198026D01*
X106138Y198040D01*
X106155Y198050D01*
X106222Y198129D01*
X106294Y198204D01*
X106302Y198222D01*
X106315Y198237D01*
X106354Y198333D01*
X106397Y198427D01*
X106399Y198447D01*
X106407Y198465D01*
X106425Y198632D01*
X106425Y204691D01*
X106411Y204781D01*
X106403Y204872D01*
X106391Y204902D01*
X106386Y204934D01*
X106343Y205015D01*
X106307Y205099D01*
X106281Y205131D01*
X106270Y205152D01*
X106247Y205174D01*
X106202Y205230D01*
X104929Y206503D01*
X104929Y210057D01*
X107443Y212571D01*
X110997Y212571D01*
X113511Y210057D01*
X113511Y206503D01*
X112238Y205230D01*
X112185Y205156D01*
X112125Y205086D01*
X112113Y205056D01*
X112094Y205030D01*
X112067Y204943D01*
X112033Y204858D01*
X112029Y204817D01*
X112022Y204795D01*
X112023Y204763D01*
X112015Y204691D01*
X112015Y198632D01*
X112018Y198612D01*
X112016Y198593D01*
X112038Y198491D01*
X112054Y198389D01*
X112064Y198372D01*
X112068Y198352D01*
X112121Y198263D01*
X112170Y198172D01*
X112184Y198158D01*
X112194Y198141D01*
X112273Y198074D01*
X112348Y198002D01*
X112366Y197994D01*
X112381Y197981D01*
X112477Y197942D01*
X112571Y197899D01*
X112591Y197897D01*
X112609Y197889D01*
X112776Y197871D01*
X113257Y197871D01*
X114291Y196837D01*
X114291Y172363D01*
X113257Y171329D01*
X105183Y171329D01*
G37*
%LPD*%
%LPC*%
G36*
X86778Y96011D02*
X86778Y96011D01*
X82857Y97635D01*
X79855Y100637D01*
X78231Y104558D01*
X78231Y108802D01*
X79855Y112723D01*
X82857Y115725D01*
X86778Y117349D01*
X91022Y117349D01*
X94943Y115725D01*
X97945Y112723D01*
X99569Y108802D01*
X99569Y104558D01*
X97945Y100637D01*
X94943Y97635D01*
X91022Y96011D01*
X86778Y96011D01*
G37*
%LPD*%
%LPC*%
G36*
X112178Y96011D02*
X112178Y96011D01*
X108257Y97635D01*
X105255Y100637D01*
X103631Y104558D01*
X103631Y108802D01*
X105255Y112723D01*
X108257Y115725D01*
X112178Y117349D01*
X116422Y117349D01*
X120343Y115725D01*
X123345Y112723D01*
X124969Y108802D01*
X124969Y104558D01*
X123345Y100637D01*
X120343Y97635D01*
X116422Y96011D01*
X112178Y96011D01*
G37*
%LPD*%
%LPC*%
G36*
X137578Y96011D02*
X137578Y96011D01*
X133657Y97635D01*
X130655Y100637D01*
X129031Y104558D01*
X129031Y108802D01*
X130655Y112723D01*
X133657Y115725D01*
X137578Y117349D01*
X141822Y117349D01*
X145743Y115725D01*
X148745Y112723D01*
X150369Y108802D01*
X150369Y104558D01*
X148745Y100637D01*
X145743Y97635D01*
X141822Y96011D01*
X137578Y96011D01*
G37*
%LPD*%
%LPC*%
G36*
X95731Y636529D02*
X95731Y636529D01*
X93229Y639031D01*
X93229Y651569D01*
X95731Y654071D01*
X108269Y654071D01*
X110771Y651569D01*
X110771Y639031D01*
X108269Y636529D01*
X95731Y636529D01*
G37*
%LPD*%
%LPC*%
G36*
X95731Y661529D02*
X95731Y661529D01*
X93229Y664031D01*
X93229Y676569D01*
X95731Y679071D01*
X108269Y679071D01*
X110771Y676569D01*
X110771Y664031D01*
X108269Y661529D01*
X95731Y661529D01*
G37*
%LPD*%
%LPC*%
G36*
X95731Y611529D02*
X95731Y611529D01*
X93229Y614031D01*
X93229Y626569D01*
X95731Y629071D01*
X108269Y629071D01*
X110771Y626569D01*
X110771Y614031D01*
X108269Y611529D01*
X95731Y611529D01*
G37*
%LPD*%
%LPC*%
G36*
X130583Y171329D02*
X130583Y171329D01*
X129549Y172363D01*
X129549Y196837D01*
X130583Y197871D01*
X138657Y197871D01*
X139691Y196837D01*
X139691Y172363D01*
X138657Y171329D01*
X130583Y171329D01*
G37*
%LPD*%
%LPC*%
G36*
X117883Y171329D02*
X117883Y171329D01*
X116849Y172363D01*
X116849Y196837D01*
X117883Y197871D01*
X125957Y197871D01*
X126991Y196837D01*
X126991Y172363D01*
X125957Y171329D01*
X117883Y171329D01*
G37*
%LPD*%
%LPC*%
G36*
X143283Y171329D02*
X143283Y171329D01*
X142249Y172363D01*
X142249Y196837D01*
X143283Y197871D01*
X151357Y197871D01*
X152391Y196837D01*
X152391Y172363D01*
X151357Y171329D01*
X143283Y171329D01*
G37*
%LPD*%
%LPC*%
G36*
X118659Y229709D02*
X118659Y229709D01*
X118000Y229886D01*
X117409Y230227D01*
X116927Y230709D01*
X116586Y231300D01*
X116409Y231959D01*
X116409Y241917D01*
X116398Y241984D01*
X116397Y242052D01*
X116379Y242105D01*
X116369Y242160D01*
X116338Y242220D01*
X116315Y242284D01*
X116281Y242328D01*
X116254Y242377D01*
X116205Y242424D01*
X116164Y242477D01*
X116100Y242524D01*
X116076Y242547D01*
X116057Y242556D01*
X116050Y242561D01*
X115569Y243042D01*
X115234Y243621D01*
X115061Y244268D01*
X115061Y252477D01*
X115648Y252477D01*
X115668Y252480D01*
X115687Y252478D01*
X115789Y252500D01*
X115891Y252517D01*
X115908Y252526D01*
X115928Y252530D01*
X116017Y252583D01*
X116108Y252632D01*
X116122Y252646D01*
X116139Y252656D01*
X116206Y252735D01*
X116277Y252810D01*
X116286Y252828D01*
X116299Y252843D01*
X116338Y252939D01*
X116381Y253033D01*
X116383Y253053D01*
X116391Y253071D01*
X116409Y253238D01*
X116409Y254762D01*
X116406Y254782D01*
X116408Y254801D01*
X116386Y254903D01*
X116369Y255005D01*
X116360Y255022D01*
X116356Y255042D01*
X116303Y255131D01*
X116254Y255222D01*
X116240Y255236D01*
X116230Y255253D01*
X116151Y255320D01*
X116076Y255391D01*
X116058Y255400D01*
X116043Y255413D01*
X115947Y255452D01*
X115853Y255495D01*
X115833Y255497D01*
X115815Y255505D01*
X115648Y255523D01*
X115061Y255523D01*
X115061Y263732D01*
X115234Y264379D01*
X115569Y264958D01*
X116042Y265431D01*
X116621Y265766D01*
X117268Y265939D01*
X117933Y265939D01*
X117982Y265947D01*
X118031Y265945D01*
X118102Y265966D01*
X118176Y265978D01*
X118219Y266001D01*
X118266Y266015D01*
X118373Y266082D01*
X118394Y266094D01*
X118399Y266099D01*
X118408Y266105D01*
X118542Y266212D01*
X119474Y266661D01*
X120483Y266891D01*
X125477Y266891D01*
X125477Y264349D01*
X121000Y264349D01*
X120996Y264346D01*
X120994Y264349D01*
X120476Y264281D01*
X120469Y264274D01*
X120464Y264277D01*
X119981Y264078D01*
X119976Y264069D01*
X119970Y264071D01*
X119556Y263753D01*
X119553Y263744D01*
X119547Y263744D01*
X119229Y263330D01*
X119229Y263321D01*
X119222Y263319D01*
X119023Y262836D01*
X119025Y262827D01*
X119019Y262824D01*
X118951Y262306D01*
X118954Y262302D01*
X118951Y262300D01*
X118951Y232300D01*
X118987Y232253D01*
X118994Y232258D01*
X119000Y232251D01*
X125477Y232251D01*
X125477Y229709D01*
X118659Y229709D01*
G37*
%LPD*%
%LPC*%
G36*
X128523Y229709D02*
X128523Y229709D01*
X128523Y232251D01*
X135000Y232251D01*
X135047Y232287D01*
X135042Y232294D01*
X135049Y232300D01*
X135049Y262300D01*
X135046Y262304D01*
X135049Y262306D01*
X134981Y262824D01*
X134974Y262831D01*
X134977Y262836D01*
X134778Y263319D01*
X134769Y263324D01*
X134771Y263330D01*
X134453Y263744D01*
X134444Y263747D01*
X134444Y263753D01*
X134030Y264071D01*
X134021Y264071D01*
X134019Y264078D01*
X133536Y264277D01*
X133527Y264275D01*
X133524Y264281D01*
X133006Y264349D01*
X133002Y264346D01*
X133000Y264349D01*
X128523Y264349D01*
X128523Y266891D01*
X133517Y266891D01*
X133905Y266802D01*
X134526Y266661D01*
X135458Y266212D01*
X135592Y266105D01*
X135634Y266081D01*
X135672Y266049D01*
X135741Y266021D01*
X135806Y265985D01*
X135854Y265975D01*
X135900Y265957D01*
X136025Y265943D01*
X136048Y265939D01*
X136055Y265940D01*
X136067Y265939D01*
X136732Y265939D01*
X137379Y265766D01*
X137958Y265431D01*
X138431Y264958D01*
X138766Y264379D01*
X138939Y263732D01*
X138939Y255523D01*
X138352Y255523D01*
X138332Y255520D01*
X138313Y255522D01*
X138211Y255500D01*
X138109Y255483D01*
X138092Y255474D01*
X138072Y255470D01*
X137983Y255417D01*
X137892Y255368D01*
X137878Y255354D01*
X137861Y255344D01*
X137794Y255265D01*
X137722Y255190D01*
X137714Y255172D01*
X137701Y255157D01*
X137662Y255061D01*
X137619Y254967D01*
X137617Y254947D01*
X137609Y254929D01*
X137591Y254762D01*
X137591Y253238D01*
X137594Y253218D01*
X137592Y253199D01*
X137614Y253097D01*
X137630Y252995D01*
X137640Y252978D01*
X137644Y252958D01*
X137697Y252869D01*
X137746Y252778D01*
X137760Y252764D01*
X137770Y252747D01*
X137849Y252680D01*
X137924Y252609D01*
X137942Y252600D01*
X137957Y252587D01*
X138053Y252548D01*
X138147Y252505D01*
X138167Y252503D01*
X138185Y252495D01*
X138352Y252477D01*
X138939Y252477D01*
X138939Y244268D01*
X138766Y243621D01*
X138431Y243042D01*
X137940Y242551D01*
X137919Y242534D01*
X137861Y242499D01*
X137824Y242456D01*
X137781Y242421D01*
X137745Y242364D01*
X137701Y242312D01*
X137680Y242260D01*
X137650Y242212D01*
X137634Y242147D01*
X137609Y242084D01*
X137600Y242005D01*
X137593Y241973D01*
X137595Y241953D01*
X137591Y241917D01*
X137591Y231959D01*
X137414Y231300D01*
X137073Y230709D01*
X136591Y230227D01*
X136000Y229886D01*
X135341Y229709D01*
X128523Y229709D01*
G37*
%LPD*%
%LPC*%
G36*
X110743Y147123D02*
X110743Y147123D01*
X110743Y160141D01*
X112926Y160141D01*
X113697Y159934D01*
X114389Y159534D01*
X115015Y158909D01*
X115026Y158893D01*
X115048Y158877D01*
X115065Y158856D01*
X115146Y158804D01*
X115224Y158747D01*
X115250Y158739D01*
X115273Y158725D01*
X115367Y158702D01*
X115459Y158672D01*
X115486Y158673D01*
X115512Y158667D01*
X115608Y158675D01*
X115705Y158676D01*
X115730Y158685D01*
X115757Y158688D01*
X115845Y158726D01*
X115937Y158758D01*
X115958Y158775D01*
X115983Y158786D01*
X116039Y158836D01*
X116047Y158841D01*
X116061Y158856D01*
X116084Y158874D01*
X116130Y158910D01*
X116141Y158925D01*
X116751Y159534D01*
X117443Y159934D01*
X118214Y160141D01*
X120397Y160141D01*
X120397Y147123D01*
X110743Y147123D01*
G37*
%LPD*%
%LPC*%
G36*
X110743Y131059D02*
X110743Y131059D01*
X110743Y144077D01*
X120397Y144077D01*
X120397Y131059D01*
X118214Y131059D01*
X117443Y131266D01*
X116751Y131666D01*
X116125Y132291D01*
X116114Y132307D01*
X116092Y132323D01*
X116075Y132344D01*
X115994Y132396D01*
X115916Y132453D01*
X115890Y132461D01*
X115867Y132475D01*
X115773Y132498D01*
X115681Y132528D01*
X115654Y132527D01*
X115628Y132533D01*
X115532Y132525D01*
X115435Y132524D01*
X115410Y132515D01*
X115383Y132512D01*
X115295Y132474D01*
X115203Y132442D01*
X115182Y132425D01*
X115157Y132414D01*
X115091Y132354D01*
X115056Y132326D01*
X115010Y132290D01*
X114999Y132275D01*
X114389Y131666D01*
X113697Y131266D01*
X112926Y131059D01*
X110743Y131059D01*
G37*
%LPD*%
%LPC*%
G36*
X65023Y108203D02*
X65023Y108203D01*
X65023Y118526D01*
X66296Y118325D01*
X68083Y117744D01*
X69757Y116891D01*
X71278Y115786D01*
X72606Y114458D01*
X73711Y112937D01*
X74564Y111263D01*
X75145Y109476D01*
X75346Y108203D01*
X65023Y108203D01*
G37*
%LPD*%
%LPC*%
G36*
X65023Y105157D02*
X65023Y105157D01*
X75346Y105157D01*
X75145Y103884D01*
X74564Y102097D01*
X73711Y100423D01*
X72606Y98902D01*
X71278Y97574D01*
X69757Y96469D01*
X68083Y95616D01*
X66296Y95035D01*
X65023Y94834D01*
X65023Y105157D01*
G37*
%LPD*%
D10*
X125226Y173094D02*
X118614Y173094D01*
X118614Y196106D01*
X125226Y196106D01*
X125226Y173094D01*
X125226Y174033D02*
X118614Y174033D01*
X118614Y174972D02*
X125226Y174972D01*
X125226Y175911D02*
X118614Y175911D01*
X118614Y176850D02*
X125226Y176850D01*
X125226Y177789D02*
X118614Y177789D01*
X118614Y178728D02*
X125226Y178728D01*
X125226Y179667D02*
X118614Y179667D01*
X118614Y180606D02*
X125226Y180606D01*
X125226Y181545D02*
X118614Y181545D01*
X118614Y182484D02*
X125226Y182484D01*
X125226Y183423D02*
X118614Y183423D01*
X118614Y184362D02*
X125226Y184362D01*
X125226Y185301D02*
X118614Y185301D01*
X118614Y186240D02*
X125226Y186240D01*
X125226Y187179D02*
X118614Y187179D01*
X118614Y188118D02*
X125226Y188118D01*
X125226Y189057D02*
X118614Y189057D01*
X118614Y189996D02*
X125226Y189996D01*
X125226Y190935D02*
X118614Y190935D01*
X118614Y191874D02*
X125226Y191874D01*
X125226Y192813D02*
X118614Y192813D01*
X118614Y193752D02*
X125226Y193752D01*
X125226Y194691D02*
X118614Y194691D01*
X118614Y195630D02*
X125226Y195630D01*
X131314Y173094D02*
X137926Y173094D01*
X131314Y173094D02*
X131314Y196106D01*
X137926Y196106D01*
X137926Y173094D01*
X137926Y174033D02*
X131314Y174033D01*
X131314Y174972D02*
X137926Y174972D01*
X137926Y175911D02*
X131314Y175911D01*
X131314Y176850D02*
X137926Y176850D01*
X137926Y177789D02*
X131314Y177789D01*
X131314Y178728D02*
X137926Y178728D01*
X137926Y179667D02*
X131314Y179667D01*
X131314Y180606D02*
X137926Y180606D01*
X137926Y181545D02*
X131314Y181545D01*
X131314Y182484D02*
X137926Y182484D01*
X137926Y183423D02*
X131314Y183423D01*
X131314Y184362D02*
X137926Y184362D01*
X137926Y185301D02*
X131314Y185301D01*
X131314Y186240D02*
X137926Y186240D01*
X137926Y187179D02*
X131314Y187179D01*
X131314Y188118D02*
X137926Y188118D01*
X137926Y189057D02*
X131314Y189057D01*
X131314Y189996D02*
X137926Y189996D01*
X137926Y190935D02*
X131314Y190935D01*
X131314Y191874D02*
X137926Y191874D01*
X137926Y192813D02*
X131314Y192813D01*
X131314Y193752D02*
X137926Y193752D01*
X137926Y194691D02*
X131314Y194691D01*
X131314Y195630D02*
X137926Y195630D01*
X144014Y173094D02*
X150626Y173094D01*
X144014Y173094D02*
X144014Y196106D01*
X150626Y196106D01*
X150626Y173094D01*
X150626Y174033D02*
X144014Y174033D01*
X144014Y174972D02*
X150626Y174972D01*
X150626Y175911D02*
X144014Y175911D01*
X144014Y176850D02*
X150626Y176850D01*
X150626Y177789D02*
X144014Y177789D01*
X144014Y178728D02*
X150626Y178728D01*
X150626Y179667D02*
X144014Y179667D01*
X144014Y180606D02*
X150626Y180606D01*
X150626Y181545D02*
X144014Y181545D01*
X144014Y182484D02*
X150626Y182484D01*
X150626Y183423D02*
X144014Y183423D01*
X144014Y184362D02*
X150626Y184362D01*
X150626Y185301D02*
X144014Y185301D01*
X144014Y186240D02*
X150626Y186240D01*
X150626Y187179D02*
X144014Y187179D01*
X144014Y188118D02*
X150626Y188118D01*
X150626Y189057D02*
X144014Y189057D01*
X144014Y189996D02*
X150626Y189996D01*
X150626Y190935D02*
X144014Y190935D01*
X144014Y191874D02*
X150626Y191874D01*
X150626Y192813D02*
X144014Y192813D01*
X144014Y193752D02*
X150626Y193752D01*
X150626Y194691D02*
X144014Y194691D01*
X144014Y195630D02*
X150626Y195630D01*
X112526Y173094D02*
X105914Y173094D01*
X105914Y196106D01*
X112526Y196106D01*
X112526Y173094D01*
X112526Y174033D02*
X105914Y174033D01*
X105914Y174972D02*
X112526Y174972D01*
X112526Y175911D02*
X105914Y175911D01*
X105914Y176850D02*
X112526Y176850D01*
X112526Y177789D02*
X105914Y177789D01*
X105914Y178728D02*
X112526Y178728D01*
X112526Y179667D02*
X105914Y179667D01*
X105914Y180606D02*
X112526Y180606D01*
X112526Y181545D02*
X105914Y181545D01*
X105914Y182484D02*
X112526Y182484D01*
X112526Y183423D02*
X105914Y183423D01*
X105914Y184362D02*
X112526Y184362D01*
X112526Y185301D02*
X105914Y185301D01*
X105914Y186240D02*
X112526Y186240D01*
X112526Y187179D02*
X105914Y187179D01*
X105914Y188118D02*
X112526Y188118D01*
X112526Y189057D02*
X105914Y189057D01*
X105914Y189996D02*
X112526Y189996D01*
X112526Y190935D02*
X105914Y190935D01*
X105914Y191874D02*
X112526Y191874D01*
X112526Y192813D02*
X105914Y192813D01*
X105914Y193752D02*
X112526Y193752D01*
X112526Y194691D02*
X105914Y194691D01*
X105914Y195630D02*
X112526Y195630D01*
X99826Y173094D02*
X93214Y173094D01*
X93214Y196106D01*
X99826Y196106D01*
X99826Y173094D01*
X99826Y174033D02*
X93214Y174033D01*
X93214Y174972D02*
X99826Y174972D01*
X99826Y175911D02*
X93214Y175911D01*
X93214Y176850D02*
X99826Y176850D01*
X99826Y177789D02*
X93214Y177789D01*
X93214Y178728D02*
X99826Y178728D01*
X99826Y179667D02*
X93214Y179667D01*
X93214Y180606D02*
X99826Y180606D01*
X99826Y181545D02*
X93214Y181545D01*
X93214Y182484D02*
X99826Y182484D01*
X99826Y183423D02*
X93214Y183423D01*
X93214Y184362D02*
X99826Y184362D01*
X99826Y185301D02*
X93214Y185301D01*
X93214Y186240D02*
X99826Y186240D01*
X99826Y187179D02*
X93214Y187179D01*
X93214Y188118D02*
X99826Y188118D01*
X99826Y189057D02*
X93214Y189057D01*
X93214Y189996D02*
X99826Y189996D01*
X99826Y190935D02*
X93214Y190935D01*
X93214Y191874D02*
X99826Y191874D01*
X99826Y192813D02*
X93214Y192813D01*
X93214Y193752D02*
X99826Y193752D01*
X99826Y194691D02*
X93214Y194691D01*
X93214Y195630D02*
X99826Y195630D01*
X99826Y134094D02*
X93214Y134094D01*
X93214Y157106D01*
X99826Y157106D01*
X99826Y134094D01*
X99826Y135033D02*
X93214Y135033D01*
X93214Y135972D02*
X99826Y135972D01*
X99826Y136911D02*
X93214Y136911D01*
X93214Y137850D02*
X99826Y137850D01*
X99826Y138789D02*
X93214Y138789D01*
X93214Y139728D02*
X99826Y139728D01*
X99826Y140667D02*
X93214Y140667D01*
X93214Y141606D02*
X99826Y141606D01*
X99826Y142545D02*
X93214Y142545D01*
X93214Y143484D02*
X99826Y143484D01*
X99826Y144423D02*
X93214Y144423D01*
X93214Y145362D02*
X99826Y145362D01*
X99826Y146301D02*
X93214Y146301D01*
X93214Y147240D02*
X99826Y147240D01*
X99826Y148179D02*
X93214Y148179D01*
X93214Y149118D02*
X99826Y149118D01*
X99826Y150057D02*
X93214Y150057D01*
X93214Y150996D02*
X99826Y150996D01*
X99826Y151935D02*
X93214Y151935D01*
X93214Y152874D02*
X99826Y152874D01*
X99826Y153813D02*
X93214Y153813D01*
X93214Y154752D02*
X99826Y154752D01*
X99826Y155691D02*
X93214Y155691D01*
X93214Y156630D02*
X99826Y156630D01*
X105914Y134094D02*
X112526Y134094D01*
X105914Y134094D02*
X105914Y157106D01*
X112526Y157106D01*
X112526Y134094D01*
X112526Y135033D02*
X105914Y135033D01*
X105914Y135972D02*
X112526Y135972D01*
X112526Y136911D02*
X105914Y136911D01*
X105914Y137850D02*
X112526Y137850D01*
X112526Y138789D02*
X105914Y138789D01*
X105914Y139728D02*
X112526Y139728D01*
X112526Y140667D02*
X105914Y140667D01*
X105914Y141606D02*
X112526Y141606D01*
X112526Y142545D02*
X105914Y142545D01*
X105914Y143484D02*
X112526Y143484D01*
X112526Y144423D02*
X105914Y144423D01*
X105914Y145362D02*
X112526Y145362D01*
X112526Y146301D02*
X105914Y146301D01*
X105914Y147240D02*
X112526Y147240D01*
X112526Y148179D02*
X105914Y148179D01*
X105914Y149118D02*
X112526Y149118D01*
X112526Y150057D02*
X105914Y150057D01*
X105914Y150996D02*
X112526Y150996D01*
X112526Y151935D02*
X105914Y151935D01*
X105914Y152874D02*
X112526Y152874D01*
X112526Y153813D02*
X105914Y153813D01*
X105914Y154752D02*
X112526Y154752D01*
X112526Y155691D02*
X105914Y155691D01*
X105914Y156630D02*
X112526Y156630D01*
X118614Y134094D02*
X125226Y134094D01*
X118614Y134094D02*
X118614Y157106D01*
X125226Y157106D01*
X125226Y134094D01*
X125226Y135033D02*
X118614Y135033D01*
X118614Y135972D02*
X125226Y135972D01*
X125226Y136911D02*
X118614Y136911D01*
X118614Y137850D02*
X125226Y137850D01*
X125226Y138789D02*
X118614Y138789D01*
X118614Y139728D02*
X125226Y139728D01*
X125226Y140667D02*
X118614Y140667D01*
X118614Y141606D02*
X125226Y141606D01*
X125226Y142545D02*
X118614Y142545D01*
X118614Y143484D02*
X125226Y143484D01*
X125226Y144423D02*
X118614Y144423D01*
X118614Y145362D02*
X125226Y145362D01*
X125226Y146301D02*
X118614Y146301D01*
X118614Y147240D02*
X125226Y147240D01*
X125226Y148179D02*
X118614Y148179D01*
X118614Y149118D02*
X125226Y149118D01*
X125226Y150057D02*
X118614Y150057D01*
X118614Y150996D02*
X125226Y150996D01*
X125226Y151935D02*
X118614Y151935D01*
X118614Y152874D02*
X125226Y152874D01*
X125226Y153813D02*
X118614Y153813D01*
X118614Y154752D02*
X125226Y154752D01*
X125226Y155691D02*
X118614Y155691D01*
X118614Y156630D02*
X125226Y156630D01*
X131314Y134094D02*
X137926Y134094D01*
X131314Y134094D02*
X131314Y157106D01*
X137926Y157106D01*
X137926Y134094D01*
X137926Y135033D02*
X131314Y135033D01*
X131314Y135972D02*
X137926Y135972D01*
X137926Y136911D02*
X131314Y136911D01*
X131314Y137850D02*
X137926Y137850D01*
X137926Y138789D02*
X131314Y138789D01*
X131314Y139728D02*
X137926Y139728D01*
X137926Y140667D02*
X131314Y140667D01*
X131314Y141606D02*
X137926Y141606D01*
X137926Y142545D02*
X131314Y142545D01*
X131314Y143484D02*
X137926Y143484D01*
X137926Y144423D02*
X131314Y144423D01*
X131314Y145362D02*
X137926Y145362D01*
X137926Y146301D02*
X131314Y146301D01*
X131314Y147240D02*
X137926Y147240D01*
X137926Y148179D02*
X131314Y148179D01*
X131314Y149118D02*
X137926Y149118D01*
X137926Y150057D02*
X131314Y150057D01*
X131314Y150996D02*
X137926Y150996D01*
X137926Y151935D02*
X131314Y151935D01*
X131314Y152874D02*
X137926Y152874D01*
X137926Y153813D02*
X131314Y153813D01*
X131314Y154752D02*
X137926Y154752D01*
X137926Y155691D02*
X131314Y155691D01*
X131314Y156630D02*
X137926Y156630D01*
X144014Y134094D02*
X150626Y134094D01*
X144014Y134094D02*
X144014Y157106D01*
X150626Y157106D01*
X150626Y134094D01*
X150626Y135033D02*
X144014Y135033D01*
X144014Y135972D02*
X150626Y135972D01*
X150626Y136911D02*
X144014Y136911D01*
X144014Y137850D02*
X150626Y137850D01*
X150626Y138789D02*
X144014Y138789D01*
X144014Y139728D02*
X150626Y139728D01*
X150626Y140667D02*
X144014Y140667D01*
X144014Y141606D02*
X150626Y141606D01*
X150626Y142545D02*
X144014Y142545D01*
X144014Y143484D02*
X150626Y143484D01*
X150626Y144423D02*
X144014Y144423D01*
X144014Y145362D02*
X150626Y145362D01*
X150626Y146301D02*
X144014Y146301D01*
X144014Y147240D02*
X150626Y147240D01*
X150626Y148179D02*
X144014Y148179D01*
X144014Y149118D02*
X150626Y149118D01*
X150626Y150057D02*
X144014Y150057D01*
X144014Y150996D02*
X150626Y150996D01*
X150626Y151935D02*
X144014Y151935D01*
X144014Y152874D02*
X150626Y152874D01*
X150626Y153813D02*
X144014Y153813D01*
X144014Y154752D02*
X150626Y154752D01*
X150626Y155691D02*
X144014Y155691D01*
X144014Y156630D02*
X150626Y156630D01*
D11*
X63500Y106680D03*
X88900Y106680D03*
X114300Y106680D03*
X139700Y106680D03*
X165100Y106680D03*
X190500Y106680D03*
D12*
X34600Y732100D02*
X25600Y732100D01*
X25600Y741100D01*
X34600Y741100D01*
X34600Y732100D01*
X34600Y733050D02*
X25600Y733050D01*
X25600Y734000D02*
X34600Y734000D01*
X34600Y734950D02*
X25600Y734950D01*
X25600Y735900D02*
X34600Y735900D01*
X34600Y736850D02*
X25600Y736850D01*
X25600Y737800D02*
X34600Y737800D01*
X34600Y738750D02*
X25600Y738750D01*
X25600Y739700D02*
X34600Y739700D01*
X34600Y740650D02*
X25600Y740650D01*
X219400Y732100D02*
X228400Y732100D01*
X219400Y732100D02*
X219400Y741100D01*
X228400Y741100D01*
X228400Y732100D01*
X228400Y733050D02*
X219400Y733050D01*
X219400Y734000D02*
X228400Y734000D01*
X228400Y734950D02*
X219400Y734950D01*
X219400Y735900D02*
X228400Y735900D01*
X228400Y736850D02*
X219400Y736850D01*
X219400Y737800D02*
X228400Y737800D01*
X228400Y738750D02*
X219400Y738750D01*
X219400Y739700D02*
X228400Y739700D01*
X228400Y740650D02*
X219400Y740650D01*
X219400Y681300D02*
X228400Y681300D01*
X219400Y681300D02*
X219400Y690300D01*
X228400Y690300D01*
X228400Y681300D01*
X228400Y682250D02*
X219400Y682250D01*
X219400Y683200D02*
X228400Y683200D01*
X228400Y684150D02*
X219400Y684150D01*
X219400Y685100D02*
X228400Y685100D01*
X228400Y686050D02*
X219400Y686050D01*
X219400Y687000D02*
X228400Y687000D01*
X228400Y687950D02*
X219400Y687950D01*
X219400Y688900D02*
X228400Y688900D01*
X228400Y689850D02*
X219400Y689850D01*
X106100Y243800D02*
X97100Y243800D01*
X97100Y252800D01*
X106100Y252800D01*
X106100Y243800D01*
X106100Y244750D02*
X97100Y244750D01*
X97100Y245700D02*
X106100Y245700D01*
X106100Y246650D02*
X97100Y246650D01*
X97100Y247600D02*
X106100Y247600D01*
X106100Y248550D02*
X97100Y248550D01*
X97100Y249500D02*
X106100Y249500D01*
X106100Y250450D02*
X97100Y250450D01*
X97100Y251400D02*
X106100Y251400D01*
X106100Y252350D02*
X97100Y252350D01*
X122500Y243800D02*
X131500Y243800D01*
X122500Y243800D02*
X122500Y252800D01*
X131500Y252800D01*
X131500Y243800D01*
X131500Y244750D02*
X122500Y244750D01*
X122500Y245700D02*
X131500Y245700D01*
X131500Y246650D02*
X122500Y246650D01*
X122500Y247600D02*
X131500Y247600D01*
X131500Y248550D02*
X122500Y248550D01*
X122500Y249500D02*
X131500Y249500D01*
X131500Y250450D02*
X122500Y250450D01*
X122500Y251400D02*
X131500Y251400D01*
X131500Y252350D02*
X122500Y252350D01*
X34600Y706700D02*
X25600Y706700D01*
X25600Y715700D01*
X34600Y715700D01*
X34600Y706700D01*
X34600Y707650D02*
X25600Y707650D01*
X25600Y708600D02*
X34600Y708600D01*
X34600Y709550D02*
X25600Y709550D01*
X25600Y710500D02*
X34600Y710500D01*
X34600Y711450D02*
X25600Y711450D01*
X25600Y712400D02*
X34600Y712400D01*
X34600Y713350D02*
X25600Y713350D01*
X25600Y714300D02*
X34600Y714300D01*
X34600Y715250D02*
X25600Y715250D01*
X25600Y655900D02*
X34600Y655900D01*
X25600Y655900D02*
X25600Y664900D01*
X34600Y664900D01*
X34600Y655900D01*
X34600Y656850D02*
X25600Y656850D01*
X25600Y657800D02*
X34600Y657800D01*
X34600Y658750D02*
X25600Y658750D01*
X25600Y659700D02*
X34600Y659700D01*
X34600Y660650D02*
X25600Y660650D01*
X25600Y661600D02*
X34600Y661600D01*
X34600Y662550D02*
X25600Y662550D01*
X25600Y663500D02*
X34600Y663500D01*
X34600Y664450D02*
X25600Y664450D01*
X25600Y630500D02*
X34600Y630500D01*
X25600Y630500D02*
X25600Y639500D01*
X34600Y639500D01*
X34600Y630500D01*
X34600Y631450D02*
X25600Y631450D01*
X25600Y632400D02*
X34600Y632400D01*
X34600Y633350D02*
X25600Y633350D01*
X25600Y634300D02*
X34600Y634300D01*
X34600Y635250D02*
X25600Y635250D01*
X25600Y636200D02*
X34600Y636200D01*
X34600Y637150D02*
X25600Y637150D01*
X25600Y638100D02*
X34600Y638100D01*
X34600Y639050D02*
X25600Y639050D01*
X25600Y605100D02*
X34600Y605100D01*
X25600Y605100D02*
X25600Y614100D01*
X34600Y614100D01*
X34600Y605100D01*
X34600Y606050D02*
X25600Y606050D01*
X25600Y607000D02*
X34600Y607000D01*
X34600Y607950D02*
X25600Y607950D01*
X25600Y608900D02*
X34600Y608900D01*
X34600Y609850D02*
X25600Y609850D01*
X25600Y610800D02*
X34600Y610800D01*
X34600Y611750D02*
X25600Y611750D01*
X25600Y612700D02*
X34600Y612700D01*
X34600Y613650D02*
X25600Y613650D01*
X25600Y579700D02*
X34600Y579700D01*
X25600Y579700D02*
X25600Y588700D01*
X34600Y588700D01*
X34600Y579700D01*
X34600Y580650D02*
X25600Y580650D01*
X25600Y581600D02*
X34600Y581600D01*
X34600Y582550D02*
X25600Y582550D01*
X25600Y583500D02*
X34600Y583500D01*
X34600Y584450D02*
X25600Y584450D01*
X25600Y585400D02*
X34600Y585400D01*
X34600Y586350D02*
X25600Y586350D01*
X25600Y587300D02*
X34600Y587300D01*
X34600Y588250D02*
X25600Y588250D01*
X25600Y528900D02*
X34600Y528900D01*
X25600Y528900D02*
X25600Y537900D01*
X34600Y537900D01*
X34600Y528900D01*
X34600Y529850D02*
X25600Y529850D01*
X25600Y530800D02*
X34600Y530800D01*
X34600Y531750D02*
X25600Y531750D01*
X25600Y532700D02*
X34600Y532700D01*
X34600Y533650D02*
X25600Y533650D01*
X25600Y534600D02*
X34600Y534600D01*
X34600Y535550D02*
X25600Y535550D01*
X25600Y536500D02*
X34600Y536500D01*
X34600Y537450D02*
X25600Y537450D01*
X25600Y503500D02*
X34600Y503500D01*
X25600Y503500D02*
X25600Y512500D01*
X34600Y512500D01*
X34600Y503500D01*
X34600Y504450D02*
X25600Y504450D01*
X25600Y505400D02*
X34600Y505400D01*
X34600Y506350D02*
X25600Y506350D01*
X25600Y507300D02*
X34600Y507300D01*
X34600Y508250D02*
X25600Y508250D01*
X25600Y509200D02*
X34600Y509200D01*
X34600Y510150D02*
X25600Y510150D01*
X25600Y511100D02*
X34600Y511100D01*
X34600Y512050D02*
X25600Y512050D01*
X25600Y478100D02*
X34600Y478100D01*
X25600Y478100D02*
X25600Y487100D01*
X34600Y487100D01*
X34600Y478100D01*
X34600Y479050D02*
X25600Y479050D01*
X25600Y480000D02*
X34600Y480000D01*
X34600Y480950D02*
X25600Y480950D01*
X25600Y481900D02*
X34600Y481900D01*
X34600Y482850D02*
X25600Y482850D01*
X25600Y483800D02*
X34600Y483800D01*
X34600Y484750D02*
X25600Y484750D01*
X25600Y485700D02*
X34600Y485700D01*
X34600Y486650D02*
X25600Y486650D01*
X25600Y452700D02*
X34600Y452700D01*
X25600Y452700D02*
X25600Y461700D01*
X34600Y461700D01*
X34600Y452700D01*
X34600Y453650D02*
X25600Y453650D01*
X25600Y454600D02*
X34600Y454600D01*
X34600Y455550D02*
X25600Y455550D01*
X25600Y456500D02*
X34600Y456500D01*
X34600Y457450D02*
X25600Y457450D01*
X25600Y458400D02*
X34600Y458400D01*
X34600Y459350D02*
X25600Y459350D01*
X25600Y460300D02*
X34600Y460300D01*
X34600Y461250D02*
X25600Y461250D01*
X25600Y401900D02*
X34600Y401900D01*
X25600Y401900D02*
X25600Y410900D01*
X34600Y410900D01*
X34600Y401900D01*
X34600Y402850D02*
X25600Y402850D01*
X25600Y403800D02*
X34600Y403800D01*
X34600Y404750D02*
X25600Y404750D01*
X25600Y405700D02*
X34600Y405700D01*
X34600Y406650D02*
X25600Y406650D01*
X25600Y407600D02*
X34600Y407600D01*
X34600Y408550D02*
X25600Y408550D01*
X25600Y409500D02*
X34600Y409500D01*
X34600Y410450D02*
X25600Y410450D01*
X25600Y376500D02*
X34600Y376500D01*
X25600Y376500D02*
X25600Y385500D01*
X34600Y385500D01*
X34600Y376500D01*
X34600Y377450D02*
X25600Y377450D01*
X25600Y378400D02*
X34600Y378400D01*
X34600Y379350D02*
X25600Y379350D01*
X25600Y380300D02*
X34600Y380300D01*
X34600Y381250D02*
X25600Y381250D01*
X25600Y382200D02*
X34600Y382200D01*
X34600Y383150D02*
X25600Y383150D01*
X25600Y384100D02*
X34600Y384100D01*
X34600Y385050D02*
X25600Y385050D01*
X25600Y351100D02*
X34600Y351100D01*
X25600Y351100D02*
X25600Y360100D01*
X34600Y360100D01*
X34600Y351100D01*
X34600Y352050D02*
X25600Y352050D01*
X25600Y353000D02*
X34600Y353000D01*
X34600Y353950D02*
X25600Y353950D01*
X25600Y354900D02*
X34600Y354900D01*
X34600Y355850D02*
X25600Y355850D01*
X25600Y356800D02*
X34600Y356800D01*
X34600Y357750D02*
X25600Y357750D01*
X25600Y358700D02*
X34600Y358700D01*
X34600Y359650D02*
X25600Y359650D01*
X25600Y325700D02*
X34600Y325700D01*
X25600Y325700D02*
X25600Y334700D01*
X34600Y334700D01*
X34600Y325700D01*
X34600Y326650D02*
X25600Y326650D01*
X25600Y327600D02*
X34600Y327600D01*
X34600Y328550D02*
X25600Y328550D01*
X25600Y329500D02*
X34600Y329500D01*
X34600Y330450D02*
X25600Y330450D01*
X25600Y331400D02*
X34600Y331400D01*
X34600Y332350D02*
X25600Y332350D01*
X25600Y333300D02*
X34600Y333300D01*
X34600Y334250D02*
X25600Y334250D01*
X25600Y274900D02*
X34600Y274900D01*
X25600Y274900D02*
X25600Y283900D01*
X34600Y283900D01*
X34600Y274900D01*
X34600Y275850D02*
X25600Y275850D01*
X25600Y276800D02*
X34600Y276800D01*
X34600Y277750D02*
X25600Y277750D01*
X25600Y278700D02*
X34600Y278700D01*
X34600Y279650D02*
X25600Y279650D01*
X25600Y280600D02*
X34600Y280600D01*
X34600Y281550D02*
X25600Y281550D01*
X25600Y282500D02*
X34600Y282500D01*
X34600Y283450D02*
X25600Y283450D01*
X25600Y249500D02*
X34600Y249500D01*
X25600Y249500D02*
X25600Y258500D01*
X34600Y258500D01*
X34600Y249500D01*
X34600Y250450D02*
X25600Y250450D01*
X25600Y251400D02*
X34600Y251400D01*
X34600Y252350D02*
X25600Y252350D01*
X25600Y253300D02*
X34600Y253300D01*
X34600Y254250D02*
X25600Y254250D01*
X25600Y255200D02*
X34600Y255200D01*
X34600Y256150D02*
X25600Y256150D01*
X25600Y257100D02*
X34600Y257100D01*
X34600Y258050D02*
X25600Y258050D01*
X25600Y681300D02*
X34600Y681300D01*
X25600Y681300D02*
X25600Y690300D01*
X34600Y690300D01*
X34600Y681300D01*
X34600Y682250D02*
X25600Y682250D01*
X25600Y683200D02*
X34600Y683200D01*
X34600Y684150D02*
X25600Y684150D01*
X25600Y685100D02*
X34600Y685100D01*
X34600Y686050D02*
X25600Y686050D01*
X25600Y687000D02*
X34600Y687000D01*
X34600Y687950D02*
X25600Y687950D01*
X25600Y688900D02*
X34600Y688900D01*
X34600Y689850D02*
X25600Y689850D01*
X25600Y554300D02*
X34600Y554300D01*
X25600Y554300D02*
X25600Y563300D01*
X34600Y563300D01*
X34600Y554300D01*
X34600Y555250D02*
X25600Y555250D01*
X25600Y556200D02*
X34600Y556200D01*
X34600Y557150D02*
X25600Y557150D01*
X25600Y558100D02*
X34600Y558100D01*
X34600Y559050D02*
X25600Y559050D01*
X25600Y560000D02*
X34600Y560000D01*
X34600Y560950D02*
X25600Y560950D01*
X25600Y561900D02*
X34600Y561900D01*
X34600Y562850D02*
X25600Y562850D01*
X25600Y427300D02*
X34600Y427300D01*
X25600Y427300D02*
X25600Y436300D01*
X34600Y436300D01*
X34600Y427300D01*
X34600Y428250D02*
X25600Y428250D01*
X25600Y429200D02*
X34600Y429200D01*
X34600Y430150D02*
X25600Y430150D01*
X25600Y431100D02*
X34600Y431100D01*
X34600Y432050D02*
X25600Y432050D01*
X25600Y433000D02*
X34600Y433000D01*
X34600Y433950D02*
X25600Y433950D01*
X25600Y434900D02*
X34600Y434900D01*
X34600Y435850D02*
X25600Y435850D01*
X25600Y300300D02*
X34600Y300300D01*
X25600Y300300D02*
X25600Y309300D01*
X34600Y309300D01*
X34600Y300300D01*
X34600Y301250D02*
X25600Y301250D01*
X25600Y302200D02*
X34600Y302200D01*
X34600Y303150D02*
X25600Y303150D01*
X25600Y304100D02*
X34600Y304100D01*
X34600Y305050D02*
X25600Y305050D01*
X25600Y306000D02*
X34600Y306000D01*
X34600Y306950D02*
X25600Y306950D01*
X25600Y307900D02*
X34600Y307900D01*
X34600Y308850D02*
X25600Y308850D01*
X219400Y706700D02*
X228400Y706700D01*
X219400Y706700D02*
X219400Y715700D01*
X228400Y715700D01*
X228400Y706700D01*
X228400Y707650D02*
X219400Y707650D01*
X219400Y708600D02*
X228400Y708600D01*
X228400Y709550D02*
X219400Y709550D01*
X219400Y710500D02*
X228400Y710500D01*
X228400Y711450D02*
X219400Y711450D01*
X219400Y712400D02*
X228400Y712400D01*
X228400Y713350D02*
X219400Y713350D01*
X219400Y714300D02*
X228400Y714300D01*
X228400Y715250D02*
X219400Y715250D01*
X219400Y655900D02*
X228400Y655900D01*
X219400Y655900D02*
X219400Y664900D01*
X228400Y664900D01*
X228400Y655900D01*
X228400Y656850D02*
X219400Y656850D01*
X219400Y657800D02*
X228400Y657800D01*
X228400Y658750D02*
X219400Y658750D01*
X219400Y659700D02*
X228400Y659700D01*
X228400Y660650D02*
X219400Y660650D01*
X219400Y661600D02*
X228400Y661600D01*
X228400Y662550D02*
X219400Y662550D01*
X219400Y663500D02*
X228400Y663500D01*
X228400Y664450D02*
X219400Y664450D01*
X219400Y630500D02*
X228400Y630500D01*
X219400Y630500D02*
X219400Y639500D01*
X228400Y639500D01*
X228400Y630500D01*
X228400Y631450D02*
X219400Y631450D01*
X219400Y632400D02*
X228400Y632400D01*
X228400Y633350D02*
X219400Y633350D01*
X219400Y634300D02*
X228400Y634300D01*
X228400Y635250D02*
X219400Y635250D01*
X219400Y636200D02*
X228400Y636200D01*
X228400Y637150D02*
X219400Y637150D01*
X219400Y638100D02*
X228400Y638100D01*
X228400Y639050D02*
X219400Y639050D01*
X219400Y605100D02*
X228400Y605100D01*
X219400Y605100D02*
X219400Y614100D01*
X228400Y614100D01*
X228400Y605100D01*
X228400Y606050D02*
X219400Y606050D01*
X219400Y607000D02*
X228400Y607000D01*
X228400Y607950D02*
X219400Y607950D01*
X219400Y608900D02*
X228400Y608900D01*
X228400Y609850D02*
X219400Y609850D01*
X219400Y610800D02*
X228400Y610800D01*
X228400Y611750D02*
X219400Y611750D01*
X219400Y612700D02*
X228400Y612700D01*
X228400Y613650D02*
X219400Y613650D01*
X219400Y579700D02*
X228400Y579700D01*
X219400Y579700D02*
X219400Y588700D01*
X228400Y588700D01*
X228400Y579700D01*
X228400Y580650D02*
X219400Y580650D01*
X219400Y581600D02*
X228400Y581600D01*
X228400Y582550D02*
X219400Y582550D01*
X219400Y583500D02*
X228400Y583500D01*
X228400Y584450D02*
X219400Y584450D01*
X219400Y585400D02*
X228400Y585400D01*
X228400Y586350D02*
X219400Y586350D01*
X219400Y587300D02*
X228400Y587300D01*
X228400Y588250D02*
X219400Y588250D01*
X219400Y528900D02*
X228400Y528900D01*
X219400Y528900D02*
X219400Y537900D01*
X228400Y537900D01*
X228400Y528900D01*
X228400Y529850D02*
X219400Y529850D01*
X219400Y530800D02*
X228400Y530800D01*
X228400Y531750D02*
X219400Y531750D01*
X219400Y532700D02*
X228400Y532700D01*
X228400Y533650D02*
X219400Y533650D01*
X219400Y534600D02*
X228400Y534600D01*
X228400Y535550D02*
X219400Y535550D01*
X219400Y536500D02*
X228400Y536500D01*
X228400Y537450D02*
X219400Y537450D01*
X219400Y503500D02*
X228400Y503500D01*
X219400Y503500D02*
X219400Y512500D01*
X228400Y512500D01*
X228400Y503500D01*
X228400Y504450D02*
X219400Y504450D01*
X219400Y505400D02*
X228400Y505400D01*
X228400Y506350D02*
X219400Y506350D01*
X219400Y507300D02*
X228400Y507300D01*
X228400Y508250D02*
X219400Y508250D01*
X219400Y509200D02*
X228400Y509200D01*
X228400Y510150D02*
X219400Y510150D01*
X219400Y511100D02*
X228400Y511100D01*
X228400Y512050D02*
X219400Y512050D01*
X219400Y478100D02*
X228400Y478100D01*
X219400Y478100D02*
X219400Y487100D01*
X228400Y487100D01*
X228400Y478100D01*
X228400Y479050D02*
X219400Y479050D01*
X219400Y480000D02*
X228400Y480000D01*
X228400Y480950D02*
X219400Y480950D01*
X219400Y481900D02*
X228400Y481900D01*
X228400Y482850D02*
X219400Y482850D01*
X219400Y483800D02*
X228400Y483800D01*
X228400Y484750D02*
X219400Y484750D01*
X219400Y485700D02*
X228400Y485700D01*
X228400Y486650D02*
X219400Y486650D01*
X219400Y452700D02*
X228400Y452700D01*
X219400Y452700D02*
X219400Y461700D01*
X228400Y461700D01*
X228400Y452700D01*
X228400Y453650D02*
X219400Y453650D01*
X219400Y454600D02*
X228400Y454600D01*
X228400Y455550D02*
X219400Y455550D01*
X219400Y456500D02*
X228400Y456500D01*
X228400Y457450D02*
X219400Y457450D01*
X219400Y458400D02*
X228400Y458400D01*
X228400Y459350D02*
X219400Y459350D01*
X219400Y460300D02*
X228400Y460300D01*
X228400Y461250D02*
X219400Y461250D01*
X219400Y401900D02*
X228400Y401900D01*
X219400Y401900D02*
X219400Y410900D01*
X228400Y410900D01*
X228400Y401900D01*
X228400Y402850D02*
X219400Y402850D01*
X219400Y403800D02*
X228400Y403800D01*
X228400Y404750D02*
X219400Y404750D01*
X219400Y405700D02*
X228400Y405700D01*
X228400Y406650D02*
X219400Y406650D01*
X219400Y407600D02*
X228400Y407600D01*
X228400Y408550D02*
X219400Y408550D01*
X219400Y409500D02*
X228400Y409500D01*
X228400Y410450D02*
X219400Y410450D01*
X219400Y376500D02*
X228400Y376500D01*
X219400Y376500D02*
X219400Y385500D01*
X228400Y385500D01*
X228400Y376500D01*
X228400Y377450D02*
X219400Y377450D01*
X219400Y378400D02*
X228400Y378400D01*
X228400Y379350D02*
X219400Y379350D01*
X219400Y380300D02*
X228400Y380300D01*
X228400Y381250D02*
X219400Y381250D01*
X219400Y382200D02*
X228400Y382200D01*
X228400Y383150D02*
X219400Y383150D01*
X219400Y384100D02*
X228400Y384100D01*
X228400Y385050D02*
X219400Y385050D01*
X219400Y351100D02*
X228400Y351100D01*
X219400Y351100D02*
X219400Y360100D01*
X228400Y360100D01*
X228400Y351100D01*
X228400Y352050D02*
X219400Y352050D01*
X219400Y353000D02*
X228400Y353000D01*
X228400Y353950D02*
X219400Y353950D01*
X219400Y354900D02*
X228400Y354900D01*
X228400Y355850D02*
X219400Y355850D01*
X219400Y356800D02*
X228400Y356800D01*
X228400Y357750D02*
X219400Y357750D01*
X219400Y358700D02*
X228400Y358700D01*
X228400Y359650D02*
X219400Y359650D01*
X219400Y325700D02*
X228400Y325700D01*
X219400Y325700D02*
X219400Y334700D01*
X228400Y334700D01*
X228400Y325700D01*
X228400Y326650D02*
X219400Y326650D01*
X219400Y327600D02*
X228400Y327600D01*
X228400Y328550D02*
X219400Y328550D01*
X219400Y329500D02*
X228400Y329500D01*
X228400Y330450D02*
X219400Y330450D01*
X219400Y331400D02*
X228400Y331400D01*
X228400Y332350D02*
X219400Y332350D01*
X219400Y333300D02*
X228400Y333300D01*
X228400Y334250D02*
X219400Y334250D01*
X219400Y274900D02*
X228400Y274900D01*
X219400Y274900D02*
X219400Y283900D01*
X228400Y283900D01*
X228400Y274900D01*
X228400Y275850D02*
X219400Y275850D01*
X219400Y276800D02*
X228400Y276800D01*
X228400Y277750D02*
X219400Y277750D01*
X219400Y278700D02*
X228400Y278700D01*
X228400Y279650D02*
X219400Y279650D01*
X219400Y280600D02*
X228400Y280600D01*
X228400Y281550D02*
X219400Y281550D01*
X219400Y282500D02*
X228400Y282500D01*
X228400Y283450D02*
X219400Y283450D01*
X219400Y249500D02*
X228400Y249500D01*
X219400Y249500D02*
X219400Y258500D01*
X228400Y258500D01*
X228400Y249500D01*
X228400Y250450D02*
X219400Y250450D01*
X219400Y251400D02*
X228400Y251400D01*
X228400Y252350D02*
X219400Y252350D01*
X219400Y253300D02*
X228400Y253300D01*
X228400Y254250D02*
X219400Y254250D01*
X219400Y255200D02*
X228400Y255200D01*
X228400Y256150D02*
X219400Y256150D01*
X219400Y257100D02*
X228400Y257100D01*
X228400Y258050D02*
X219400Y258050D01*
X219400Y554300D02*
X228400Y554300D01*
X219400Y554300D02*
X219400Y563300D01*
X228400Y563300D01*
X228400Y554300D01*
X228400Y555250D02*
X219400Y555250D01*
X219400Y556200D02*
X228400Y556200D01*
X228400Y557150D02*
X219400Y557150D01*
X219400Y558100D02*
X228400Y558100D01*
X228400Y559050D02*
X219400Y559050D01*
X219400Y560000D02*
X228400Y560000D01*
X228400Y560950D02*
X219400Y560950D01*
X219400Y561900D02*
X228400Y561900D01*
X228400Y562850D02*
X219400Y562850D01*
X219400Y427300D02*
X228400Y427300D01*
X219400Y427300D02*
X219400Y436300D01*
X228400Y436300D01*
X228400Y427300D01*
X228400Y428250D02*
X219400Y428250D01*
X219400Y429200D02*
X228400Y429200D01*
X228400Y430150D02*
X219400Y430150D01*
X219400Y431100D02*
X228400Y431100D01*
X228400Y432050D02*
X219400Y432050D01*
X219400Y433000D02*
X228400Y433000D01*
X228400Y433950D02*
X219400Y433950D01*
X219400Y434900D02*
X228400Y434900D01*
X228400Y435850D02*
X219400Y435850D01*
X219400Y300300D02*
X228400Y300300D01*
X219400Y300300D02*
X219400Y309300D01*
X228400Y309300D01*
X228400Y300300D01*
X228400Y301250D02*
X219400Y301250D01*
X219400Y302200D02*
X228400Y302200D01*
X228400Y303150D02*
X219400Y303150D01*
X219400Y304100D02*
X228400Y304100D01*
X228400Y305050D02*
X219400Y305050D01*
X219400Y306000D02*
X228400Y306000D01*
X228400Y306950D02*
X219400Y306950D01*
X219400Y307900D02*
X228400Y307900D01*
X228400Y308850D02*
X219400Y308850D01*
X156900Y243800D02*
X147900Y243800D01*
X147900Y252800D01*
X156900Y252800D01*
X156900Y243800D01*
X156900Y244750D02*
X147900Y244750D01*
X147900Y245700D02*
X156900Y245700D01*
X156900Y246650D02*
X147900Y246650D01*
X147900Y247600D02*
X156900Y247600D01*
X156900Y248550D02*
X147900Y248550D01*
X147900Y249500D02*
X156900Y249500D01*
X156900Y250450D02*
X147900Y250450D01*
X147900Y251400D02*
X156900Y251400D01*
X156900Y252350D02*
X147900Y252350D01*
D13*
X121500Y733800D02*
X112500Y733800D01*
X112500Y742800D01*
X121500Y742800D01*
X121500Y733800D01*
X121500Y739500D02*
X112500Y739500D01*
X132500Y733800D02*
X141500Y733800D01*
X132500Y733800D02*
X132500Y742800D01*
X141500Y742800D01*
X141500Y733800D01*
X141500Y739500D02*
X132500Y739500D01*
X131500Y700800D02*
X122500Y700800D01*
X122500Y709800D01*
X131500Y709800D01*
X131500Y700800D01*
X131500Y706500D02*
X122500Y706500D01*
X106500Y665800D02*
X97500Y665800D01*
X97500Y674800D01*
X106500Y674800D01*
X106500Y665800D01*
X106500Y671500D02*
X97500Y671500D01*
X97500Y640800D02*
X106500Y640800D01*
X97500Y640800D02*
X97500Y649800D01*
X106500Y649800D01*
X106500Y640800D01*
X106500Y646500D02*
X97500Y646500D01*
X97500Y615800D02*
X106500Y615800D01*
X97500Y615800D02*
X97500Y624800D01*
X106500Y624800D01*
X106500Y615800D01*
X106500Y621500D02*
X97500Y621500D01*
D14*
X99750Y731800D02*
X99750Y738800D01*
X154250Y738800D02*
X154250Y731800D01*
D15*
X102750Y707000D02*
X102750Y703000D01*
X151250Y703000D02*
X151250Y707000D01*
D11*
X38100Y736600D03*
X38100Y711200D03*
D16*
X38100Y685800D03*
X38100Y558800D03*
X38100Y431800D03*
X38100Y304800D03*
X127000Y254000D03*
X215900Y304800D03*
X215900Y431800D03*
X215900Y558800D03*
X215900Y685800D03*
D11*
X38100Y660400D03*
X38100Y635000D03*
X38100Y609600D03*
X38100Y584200D03*
X38100Y533400D03*
X38100Y508000D03*
X38100Y482600D03*
X38100Y457200D03*
X38100Y406400D03*
X38100Y381000D03*
X38100Y355600D03*
X38100Y330200D03*
X38100Y279400D03*
X38100Y254000D03*
X215900Y254000D03*
X215900Y279400D03*
X215900Y330200D03*
X215900Y355600D03*
X215900Y381000D03*
X215900Y406400D03*
X215900Y457200D03*
X215900Y482600D03*
X215900Y508000D03*
X215900Y533400D03*
X215900Y584200D03*
X215900Y609600D03*
X215900Y635000D03*
X215900Y660400D03*
X215900Y711200D03*
X215900Y736600D03*
X101600Y254000D03*
X152400Y254000D03*
D17*
X171864Y218456D02*
X183256Y218456D01*
X183256Y208264D01*
X171864Y208264D01*
X171864Y218456D01*
X171864Y209222D02*
X183256Y209222D01*
X183256Y210180D02*
X171864Y210180D01*
X171864Y211138D02*
X183256Y211138D01*
X183256Y212096D02*
X171864Y212096D01*
X171864Y213054D02*
X183256Y213054D01*
X183256Y214012D02*
X171864Y214012D01*
X171864Y214970D02*
X183256Y214970D01*
X183256Y215928D02*
X171864Y215928D01*
X171864Y216886D02*
X183256Y216886D01*
X183256Y217844D02*
X171864Y217844D01*
X153256Y218456D02*
X141864Y218456D01*
X153256Y218456D02*
X153256Y208264D01*
X141864Y208264D01*
X141864Y218456D01*
X141864Y209222D02*
X153256Y209222D01*
X153256Y210180D02*
X141864Y210180D01*
X141864Y211138D02*
X153256Y211138D01*
X153256Y212096D02*
X141864Y212096D01*
X141864Y213054D02*
X153256Y213054D01*
X153256Y214012D02*
X141864Y214012D01*
X141864Y214970D02*
X153256Y214970D01*
X153256Y215928D02*
X141864Y215928D01*
X141864Y216886D02*
X153256Y216886D01*
X153256Y217844D02*
X141864Y217844D01*
D18*
X201422Y161163D02*
X201422Y155829D01*
X189738Y155829D01*
X189738Y161163D01*
X201422Y161163D01*
X201422Y156794D02*
X189738Y156794D01*
X189738Y157759D02*
X201422Y157759D01*
X201422Y158724D02*
X189738Y158724D01*
X189738Y159689D02*
X201422Y159689D01*
X201422Y160654D02*
X189738Y160654D01*
X201422Y163957D02*
X201422Y169291D01*
X201422Y163957D02*
X189738Y163957D01*
X189738Y169291D01*
X201422Y169291D01*
X201422Y164922D02*
X189738Y164922D01*
X189738Y165887D02*
X201422Y165887D01*
X201422Y166852D02*
X189738Y166852D01*
X189738Y167817D02*
X201422Y167817D01*
X201422Y168782D02*
X189738Y168782D01*
D19*
X215900Y609600D02*
X233680Y609600D01*
D20*
X223900Y609600D01*
X223900Y635000D02*
X226060Y635000D01*
X233680Y635000D01*
X234950Y633730D01*
X223900Y635000D02*
X215900Y635000D01*
X215900Y736600D02*
X223900Y736600D01*
X154250Y735300D02*
X154250Y708000D01*
X151250Y705000D01*
X99750Y708000D02*
X99750Y735300D01*
X99750Y708000D02*
X102750Y705000D01*
X102823Y704998D01*
X102895Y704992D01*
X102967Y704983D01*
X103039Y704970D01*
X103110Y704953D01*
X103180Y704932D01*
X103248Y704908D01*
X103315Y704880D01*
X103381Y704848D01*
X103445Y704814D01*
X103507Y704776D01*
X103567Y704735D01*
X103625Y704690D01*
X103680Y704643D01*
X103733Y704593D01*
X103783Y704540D01*
X103830Y704485D01*
X103875Y704427D01*
X103916Y704367D01*
X103954Y704305D01*
X103988Y704241D01*
X104020Y704175D01*
X104048Y704108D01*
X104072Y704040D01*
X104093Y703970D01*
X104110Y703899D01*
X104123Y703827D01*
X104132Y703755D01*
X104138Y703683D01*
X104140Y703610D01*
X104140Y693420D01*
X104142Y693320D01*
X104148Y693221D01*
X104158Y693121D01*
X104171Y693023D01*
X104189Y692924D01*
X104210Y692827D01*
X104235Y692731D01*
X104264Y692635D01*
X104297Y692541D01*
X104333Y692448D01*
X104373Y692357D01*
X104417Y692267D01*
X104464Y692179D01*
X104514Y692093D01*
X104568Y692009D01*
X104625Y691927D01*
X104685Y691848D01*
X104749Y691770D01*
X104815Y691696D01*
X104884Y691624D01*
X104956Y691555D01*
X105030Y691489D01*
X105108Y691425D01*
X105187Y691365D01*
X105269Y691308D01*
X105353Y691254D01*
X105439Y691204D01*
X105527Y691157D01*
X105617Y691113D01*
X105708Y691073D01*
X105801Y691037D01*
X105895Y691004D01*
X105991Y690975D01*
X106087Y690950D01*
X106184Y690929D01*
X106283Y690911D01*
X106381Y690898D01*
X106481Y690888D01*
X106580Y690882D01*
X106680Y690880D01*
X147320Y690880D01*
X147443Y690882D01*
X147567Y690888D01*
X147690Y690897D01*
X147813Y690911D01*
X147935Y690928D01*
X148056Y690950D01*
X148177Y690975D01*
X148297Y691003D01*
X148416Y691036D01*
X148534Y691072D01*
X148651Y691112D01*
X148767Y691156D01*
X148881Y691203D01*
X148993Y691254D01*
X149104Y691308D01*
X149213Y691366D01*
X149321Y691427D01*
X149426Y691492D01*
X149529Y691560D01*
X149630Y691631D01*
X149729Y691705D01*
X149825Y691782D01*
X149919Y691862D01*
X150010Y691945D01*
X150099Y692031D01*
X150185Y692120D01*
X150268Y692211D01*
X150348Y692305D01*
X150425Y692401D01*
X150499Y692500D01*
X150570Y692601D01*
X150638Y692704D01*
X150703Y692809D01*
X150764Y692917D01*
X150822Y693026D01*
X150876Y693137D01*
X150927Y693249D01*
X150974Y693363D01*
X151018Y693479D01*
X151058Y693596D01*
X151094Y693714D01*
X151127Y693833D01*
X151155Y693953D01*
X151180Y694074D01*
X151202Y694195D01*
X151219Y694317D01*
X151233Y694440D01*
X151242Y694563D01*
X151248Y694687D01*
X151250Y694810D01*
X151250Y705000D01*
X109220Y145600D02*
X109220Y134620D01*
X101600Y127000D01*
X71120Y127000D01*
X63500Y119380D01*
X63500Y106680D01*
D21*
X109220Y145600D02*
X121920Y145600D01*
D20*
X86360Y431800D02*
X38100Y431800D01*
X221360Y429260D02*
X221460Y429262D01*
X221559Y429268D01*
X221659Y429278D01*
X221757Y429291D01*
X221856Y429309D01*
X221953Y429330D01*
X222049Y429355D01*
X222145Y429384D01*
X222239Y429417D01*
X222332Y429453D01*
X222423Y429493D01*
X222513Y429537D01*
X222601Y429584D01*
X222687Y429634D01*
X222771Y429688D01*
X222853Y429745D01*
X222932Y429805D01*
X223010Y429869D01*
X223084Y429935D01*
X223156Y430004D01*
X223225Y430076D01*
X223291Y430150D01*
X223355Y430228D01*
X223415Y430307D01*
X223472Y430389D01*
X223526Y430473D01*
X223576Y430559D01*
X223623Y430647D01*
X223667Y430737D01*
X223707Y430828D01*
X223743Y430921D01*
X223776Y431015D01*
X223805Y431111D01*
X223830Y431207D01*
X223851Y431304D01*
X223869Y431403D01*
X223882Y431501D01*
X223892Y431601D01*
X223898Y431700D01*
X223900Y431800D01*
X221360Y429260D02*
X170180Y429260D01*
X162560Y304800D02*
X215900Y304800D01*
X127000Y287020D02*
X127000Y248300D01*
X40640Y307340D02*
X40540Y307338D01*
X40441Y307332D01*
X40341Y307322D01*
X40243Y307309D01*
X40144Y307291D01*
X40047Y307270D01*
X39951Y307245D01*
X39855Y307216D01*
X39761Y307183D01*
X39668Y307147D01*
X39577Y307107D01*
X39487Y307063D01*
X39399Y307016D01*
X39313Y306966D01*
X39229Y306912D01*
X39147Y306855D01*
X39068Y306795D01*
X38990Y306731D01*
X38916Y306665D01*
X38844Y306596D01*
X38775Y306524D01*
X38709Y306450D01*
X38645Y306372D01*
X38585Y306293D01*
X38528Y306211D01*
X38474Y306127D01*
X38424Y306041D01*
X38377Y305953D01*
X38333Y305863D01*
X38293Y305772D01*
X38257Y305679D01*
X38224Y305585D01*
X38195Y305489D01*
X38170Y305393D01*
X38149Y305296D01*
X38131Y305197D01*
X38118Y305099D01*
X38108Y304999D01*
X38102Y304900D01*
X38100Y304800D01*
X40640Y307340D02*
X93980Y307340D01*
X38100Y685800D02*
X215900Y685800D01*
X91440Y558800D02*
X38100Y558800D01*
X30100Y558800D02*
X68580Y558800D01*
X120650Y506730D01*
X128270Y499110D01*
X129540Y497840D01*
X132080Y495300D01*
X120650Y529590D02*
X91440Y558800D01*
X120650Y529590D02*
X120650Y506730D01*
X129540Y558800D02*
X215900Y558800D01*
X129540Y558800D02*
X129540Y497840D01*
X93052Y630848D02*
X38100Y685800D01*
X93052Y630848D02*
X109005Y630848D01*
X128270Y611583D01*
X128270Y499110D01*
X38100Y685800D02*
X30100Y685800D01*
X30100Y304800D02*
X38100Y304800D01*
X38100Y431800D02*
X30100Y431800D01*
X215900Y304800D02*
X223900Y304800D01*
X223900Y431800D02*
X215900Y431800D01*
X215900Y685800D02*
X223900Y685800D01*
D22*
X109220Y208280D03*
D20*
X109220Y184600D01*
X114300Y584200D02*
X38100Y660400D01*
X114300Y584200D02*
X114300Y576580D01*
D22*
X114300Y576580D03*
D20*
X38100Y660400D02*
X30100Y660400D01*
X154168Y117612D02*
X165100Y106680D01*
X154168Y117612D02*
X154168Y158863D01*
X147931Y165100D01*
X104140Y165100D01*
X96520Y172720D01*
X96520Y184600D01*
X40640Y635000D02*
X30100Y635000D01*
X40640Y635000D02*
X99060Y576580D01*
D22*
X99060Y576580D03*
D20*
X38100Y635000D02*
X30100Y635000D01*
D21*
X190500Y127000D02*
X190500Y106680D01*
X190500Y127000D02*
X195580Y132080D01*
X195580Y158496D01*
D20*
X215900Y711200D02*
X223900Y711200D01*
X38100Y584200D02*
X30100Y584200D01*
X30100Y609600D02*
X38100Y609600D01*
D21*
X137400Y223520D02*
X147560Y213360D01*
X88900Y223520D02*
X83820Y218440D01*
X83820Y172720D01*
X96520Y160020D02*
X96520Y145600D01*
X88900Y223520D02*
X137400Y223520D01*
X83820Y172720D02*
X96520Y160020D01*
X177560Y213360D02*
X190500Y213360D01*
X195580Y208280D01*
X195580Y166624D01*
M02*
