G04 EAGLE Gerber RS-274X export*
G75*
%MOMM*%
%FSLAX34Y34*%
%LPD*%
%INTop Silkscreen*%
%IPPOS*%
%AMOC8*
5,1,8,0,0,1.08239X$1,22.5*%
G01*
%ADD10C,0.101600*%
%ADD11C,0.203200*%
%ADD12C,0.127000*%
%ADD13C,0.200000*%


D10*
X183388Y127508D02*
X185081Y122428D01*
X186775Y127508D01*
X191796Y123557D02*
X191794Y123491D01*
X191788Y123426D01*
X191779Y123361D01*
X191766Y123297D01*
X191749Y123233D01*
X191728Y123171D01*
X191704Y123110D01*
X191676Y123050D01*
X191645Y122993D01*
X191610Y122937D01*
X191573Y122883D01*
X191532Y122831D01*
X191488Y122782D01*
X191442Y122736D01*
X191393Y122692D01*
X191341Y122651D01*
X191287Y122614D01*
X191232Y122579D01*
X191174Y122548D01*
X191114Y122520D01*
X191053Y122496D01*
X190991Y122475D01*
X190927Y122458D01*
X190863Y122445D01*
X190798Y122436D01*
X190733Y122430D01*
X190667Y122428D01*
X190573Y122430D01*
X190479Y122435D01*
X190385Y122445D01*
X190292Y122458D01*
X190199Y122474D01*
X190107Y122495D01*
X190016Y122518D01*
X189926Y122546D01*
X189837Y122577D01*
X189750Y122611D01*
X189664Y122649D01*
X189579Y122691D01*
X189496Y122735D01*
X189415Y122783D01*
X189336Y122834D01*
X189259Y122888D01*
X189184Y122945D01*
X189111Y123005D01*
X189041Y123068D01*
X188974Y123134D01*
X189115Y126379D02*
X189117Y126445D01*
X189123Y126510D01*
X189132Y126575D01*
X189145Y126639D01*
X189162Y126703D01*
X189183Y126765D01*
X189207Y126826D01*
X189235Y126886D01*
X189266Y126944D01*
X189301Y126999D01*
X189338Y127053D01*
X189379Y127105D01*
X189423Y127154D01*
X189469Y127200D01*
X189518Y127244D01*
X189570Y127285D01*
X189624Y127322D01*
X189680Y127357D01*
X189737Y127388D01*
X189797Y127416D01*
X189858Y127440D01*
X189920Y127461D01*
X189984Y127478D01*
X190048Y127491D01*
X190113Y127500D01*
X190178Y127506D01*
X190244Y127508D01*
X190335Y127506D01*
X190425Y127500D01*
X190516Y127490D01*
X190606Y127477D01*
X190695Y127459D01*
X190783Y127438D01*
X190870Y127413D01*
X190956Y127385D01*
X191041Y127352D01*
X191125Y127316D01*
X191206Y127277D01*
X191286Y127234D01*
X191364Y127187D01*
X191440Y127138D01*
X191514Y127085D01*
X189679Y125391D02*
X189623Y125426D01*
X189569Y125464D01*
X189517Y125506D01*
X189468Y125550D01*
X189422Y125597D01*
X189378Y125647D01*
X189337Y125699D01*
X189300Y125753D01*
X189265Y125810D01*
X189234Y125868D01*
X189206Y125928D01*
X189182Y125990D01*
X189161Y126053D01*
X189144Y126117D01*
X189131Y126182D01*
X189122Y126247D01*
X189116Y126313D01*
X189114Y126379D01*
X191231Y124545D02*
X191287Y124510D01*
X191341Y124472D01*
X191393Y124430D01*
X191442Y124386D01*
X191488Y124339D01*
X191532Y124289D01*
X191573Y124237D01*
X191610Y124183D01*
X191645Y124126D01*
X191676Y124068D01*
X191704Y124008D01*
X191728Y123946D01*
X191749Y123883D01*
X191766Y123819D01*
X191779Y123755D01*
X191788Y123689D01*
X191794Y123623D01*
X191796Y123557D01*
X191231Y124545D02*
X189679Y125391D01*
X193995Y127508D02*
X195688Y125109D01*
X197382Y127508D01*
X195688Y125109D02*
X195688Y122428D01*
X201274Y122428D02*
X201340Y122430D01*
X201405Y122436D01*
X201470Y122445D01*
X201534Y122458D01*
X201598Y122475D01*
X201660Y122496D01*
X201721Y122520D01*
X201781Y122548D01*
X201839Y122579D01*
X201894Y122614D01*
X201948Y122651D01*
X202000Y122692D01*
X202049Y122736D01*
X202095Y122782D01*
X202139Y122831D01*
X202180Y122883D01*
X202217Y122937D01*
X202252Y122993D01*
X202283Y123050D01*
X202311Y123110D01*
X202335Y123171D01*
X202356Y123233D01*
X202373Y123297D01*
X202386Y123361D01*
X202395Y123426D01*
X202401Y123491D01*
X202403Y123557D01*
X201274Y122428D02*
X201180Y122430D01*
X201086Y122435D01*
X200992Y122445D01*
X200899Y122458D01*
X200806Y122474D01*
X200714Y122495D01*
X200623Y122518D01*
X200533Y122546D01*
X200444Y122577D01*
X200357Y122611D01*
X200271Y122649D01*
X200186Y122691D01*
X200103Y122735D01*
X200022Y122783D01*
X199943Y122834D01*
X199866Y122888D01*
X199791Y122945D01*
X199718Y123005D01*
X199648Y123068D01*
X199581Y123134D01*
X199722Y126379D02*
X199724Y126445D01*
X199730Y126510D01*
X199739Y126575D01*
X199752Y126639D01*
X199769Y126703D01*
X199790Y126765D01*
X199814Y126826D01*
X199842Y126886D01*
X199873Y126944D01*
X199908Y126999D01*
X199945Y127053D01*
X199986Y127105D01*
X200030Y127154D01*
X200076Y127200D01*
X200125Y127244D01*
X200177Y127285D01*
X200231Y127322D01*
X200287Y127357D01*
X200344Y127388D01*
X200404Y127416D01*
X200465Y127440D01*
X200527Y127461D01*
X200591Y127478D01*
X200655Y127491D01*
X200720Y127500D01*
X200785Y127506D01*
X200851Y127508D01*
X200942Y127506D01*
X201032Y127500D01*
X201123Y127490D01*
X201213Y127477D01*
X201302Y127459D01*
X201390Y127438D01*
X201477Y127413D01*
X201563Y127385D01*
X201648Y127352D01*
X201732Y127316D01*
X201813Y127277D01*
X201893Y127234D01*
X201971Y127187D01*
X202047Y127138D01*
X202121Y127085D01*
X200286Y125391D02*
X200230Y125426D01*
X200176Y125464D01*
X200124Y125506D01*
X200075Y125550D01*
X200029Y125597D01*
X199985Y125647D01*
X199944Y125699D01*
X199907Y125753D01*
X199872Y125810D01*
X199841Y125868D01*
X199813Y125928D01*
X199789Y125990D01*
X199768Y126053D01*
X199751Y126117D01*
X199738Y126182D01*
X199729Y126247D01*
X199723Y126313D01*
X199721Y126379D01*
X201838Y124545D02*
X201894Y124510D01*
X201948Y124472D01*
X202000Y124430D01*
X202049Y124386D01*
X202095Y124339D01*
X202139Y124289D01*
X202180Y124237D01*
X202217Y124183D01*
X202252Y124126D01*
X202283Y124068D01*
X202311Y124008D01*
X202335Y123946D01*
X202356Y123883D01*
X202373Y123819D01*
X202386Y123755D01*
X202395Y123689D01*
X202401Y123623D01*
X202403Y123557D01*
X201838Y124545D02*
X200286Y125391D01*
X160810Y123557D02*
X160808Y123491D01*
X160802Y123426D01*
X160793Y123361D01*
X160780Y123297D01*
X160763Y123233D01*
X160742Y123171D01*
X160718Y123110D01*
X160690Y123050D01*
X160659Y122993D01*
X160624Y122937D01*
X160587Y122883D01*
X160546Y122831D01*
X160502Y122782D01*
X160456Y122736D01*
X160407Y122692D01*
X160355Y122651D01*
X160301Y122614D01*
X160246Y122579D01*
X160188Y122548D01*
X160128Y122520D01*
X160067Y122496D01*
X160005Y122475D01*
X159941Y122458D01*
X159877Y122445D01*
X159812Y122436D01*
X159747Y122430D01*
X159681Y122428D01*
X159587Y122430D01*
X159493Y122435D01*
X159399Y122445D01*
X159306Y122458D01*
X159213Y122474D01*
X159121Y122495D01*
X159030Y122518D01*
X158940Y122546D01*
X158851Y122577D01*
X158764Y122611D01*
X158678Y122649D01*
X158593Y122691D01*
X158510Y122735D01*
X158429Y122783D01*
X158350Y122834D01*
X158273Y122888D01*
X158198Y122945D01*
X158125Y123005D01*
X158055Y123068D01*
X157988Y123134D01*
X158129Y126379D02*
X158131Y126445D01*
X158137Y126510D01*
X158146Y126575D01*
X158159Y126639D01*
X158176Y126703D01*
X158197Y126765D01*
X158221Y126826D01*
X158249Y126886D01*
X158280Y126944D01*
X158315Y126999D01*
X158352Y127053D01*
X158393Y127105D01*
X158437Y127154D01*
X158483Y127200D01*
X158532Y127244D01*
X158584Y127285D01*
X158638Y127322D01*
X158694Y127357D01*
X158751Y127388D01*
X158811Y127416D01*
X158872Y127440D01*
X158934Y127461D01*
X158998Y127478D01*
X159062Y127491D01*
X159127Y127500D01*
X159192Y127506D01*
X159258Y127508D01*
X159349Y127506D01*
X159439Y127500D01*
X159530Y127490D01*
X159620Y127477D01*
X159709Y127459D01*
X159797Y127438D01*
X159884Y127413D01*
X159970Y127385D01*
X160055Y127352D01*
X160139Y127316D01*
X160220Y127277D01*
X160300Y127234D01*
X160378Y127187D01*
X160454Y127138D01*
X160528Y127085D01*
X158694Y125391D02*
X158638Y125426D01*
X158584Y125464D01*
X158532Y125506D01*
X158483Y125550D01*
X158437Y125597D01*
X158393Y125647D01*
X158352Y125699D01*
X158315Y125753D01*
X158280Y125810D01*
X158249Y125868D01*
X158221Y125928D01*
X158197Y125990D01*
X158176Y126053D01*
X158159Y126117D01*
X158146Y126182D01*
X158137Y126247D01*
X158131Y126313D01*
X158129Y126379D01*
X160246Y124545D02*
X160302Y124510D01*
X160356Y124472D01*
X160408Y124430D01*
X160457Y124386D01*
X160503Y124339D01*
X160547Y124289D01*
X160588Y124237D01*
X160625Y124183D01*
X160660Y124126D01*
X160691Y124068D01*
X160719Y124008D01*
X160743Y123946D01*
X160764Y123883D01*
X160781Y123819D01*
X160794Y123755D01*
X160803Y123689D01*
X160809Y123623D01*
X160811Y123557D01*
X160246Y124545D02*
X158694Y125391D01*
X163176Y127508D02*
X164305Y122428D01*
X165434Y125815D01*
X166563Y122428D01*
X167692Y127508D01*
X170555Y127508D02*
X170555Y122428D01*
X171119Y122428D02*
X169990Y122428D01*
X169990Y127508D02*
X171119Y127508D01*
X173533Y126097D02*
X173533Y123839D01*
X173533Y126097D02*
X173535Y126171D01*
X173541Y126244D01*
X173550Y126318D01*
X173564Y126390D01*
X173581Y126462D01*
X173602Y126533D01*
X173627Y126603D01*
X173655Y126671D01*
X173687Y126738D01*
X173722Y126803D01*
X173761Y126865D01*
X173802Y126926D01*
X173847Y126985D01*
X173895Y127041D01*
X173946Y127095D01*
X174000Y127146D01*
X174056Y127194D01*
X174115Y127239D01*
X174176Y127280D01*
X174239Y127319D01*
X174303Y127354D01*
X174370Y127386D01*
X174438Y127414D01*
X174508Y127439D01*
X174579Y127460D01*
X174651Y127477D01*
X174723Y127491D01*
X174797Y127500D01*
X174870Y127506D01*
X174944Y127508D01*
X175018Y127506D01*
X175091Y127500D01*
X175165Y127491D01*
X175237Y127477D01*
X175309Y127460D01*
X175380Y127439D01*
X175450Y127414D01*
X175518Y127386D01*
X175585Y127354D01*
X175650Y127319D01*
X175712Y127280D01*
X175773Y127239D01*
X175832Y127194D01*
X175888Y127146D01*
X175942Y127095D01*
X175993Y127041D01*
X176041Y126985D01*
X176086Y126926D01*
X176127Y126865D01*
X176166Y126803D01*
X176201Y126738D01*
X176233Y126671D01*
X176261Y126603D01*
X176286Y126533D01*
X176307Y126462D01*
X176324Y126390D01*
X176338Y126318D01*
X176347Y126244D01*
X176353Y126171D01*
X176355Y126097D01*
X176355Y123839D01*
X176353Y123765D01*
X176347Y123692D01*
X176338Y123618D01*
X176324Y123546D01*
X176307Y123474D01*
X176286Y123403D01*
X176261Y123333D01*
X176233Y123265D01*
X176201Y123198D01*
X176166Y123134D01*
X176127Y123071D01*
X176086Y123010D01*
X176041Y122951D01*
X175993Y122895D01*
X175942Y122841D01*
X175888Y122790D01*
X175832Y122742D01*
X175773Y122697D01*
X175712Y122656D01*
X175650Y122617D01*
X175585Y122582D01*
X175518Y122550D01*
X175450Y122522D01*
X175380Y122497D01*
X175309Y122476D01*
X175237Y122459D01*
X175165Y122445D01*
X175091Y122436D01*
X175018Y122430D01*
X174944Y122428D01*
X174870Y122430D01*
X174797Y122436D01*
X174723Y122445D01*
X174651Y122459D01*
X174579Y122476D01*
X174508Y122497D01*
X174438Y122522D01*
X174370Y122550D01*
X174303Y122582D01*
X174239Y122617D01*
X174176Y122656D01*
X174115Y122697D01*
X174056Y122742D01*
X174000Y122790D01*
X173946Y122841D01*
X173895Y122895D01*
X173847Y122951D01*
X173802Y123010D01*
X173761Y123071D01*
X173722Y123134D01*
X173687Y123198D01*
X173655Y123265D01*
X173627Y123333D01*
X173602Y123403D01*
X173581Y123474D01*
X173564Y123546D01*
X173550Y123618D01*
X173541Y123692D01*
X173535Y123765D01*
X173533Y123839D01*
X130330Y123557D02*
X130328Y123491D01*
X130322Y123426D01*
X130313Y123361D01*
X130300Y123297D01*
X130283Y123233D01*
X130262Y123171D01*
X130238Y123110D01*
X130210Y123050D01*
X130179Y122993D01*
X130144Y122937D01*
X130107Y122883D01*
X130066Y122831D01*
X130022Y122782D01*
X129976Y122736D01*
X129927Y122692D01*
X129875Y122651D01*
X129821Y122614D01*
X129766Y122579D01*
X129708Y122548D01*
X129648Y122520D01*
X129587Y122496D01*
X129525Y122475D01*
X129461Y122458D01*
X129397Y122445D01*
X129332Y122436D01*
X129267Y122430D01*
X129201Y122428D01*
X129107Y122430D01*
X129013Y122435D01*
X128919Y122445D01*
X128826Y122458D01*
X128733Y122474D01*
X128641Y122495D01*
X128550Y122518D01*
X128460Y122546D01*
X128371Y122577D01*
X128284Y122611D01*
X128198Y122649D01*
X128113Y122691D01*
X128030Y122735D01*
X127949Y122783D01*
X127870Y122834D01*
X127793Y122888D01*
X127718Y122945D01*
X127645Y123005D01*
X127575Y123068D01*
X127508Y123134D01*
X127649Y126379D02*
X127651Y126445D01*
X127657Y126510D01*
X127666Y126575D01*
X127679Y126639D01*
X127696Y126703D01*
X127717Y126765D01*
X127741Y126826D01*
X127769Y126886D01*
X127800Y126944D01*
X127835Y126999D01*
X127872Y127053D01*
X127913Y127105D01*
X127957Y127154D01*
X128003Y127200D01*
X128052Y127244D01*
X128104Y127285D01*
X128158Y127322D01*
X128214Y127357D01*
X128271Y127388D01*
X128331Y127416D01*
X128392Y127440D01*
X128454Y127461D01*
X128518Y127478D01*
X128582Y127491D01*
X128647Y127500D01*
X128712Y127506D01*
X128778Y127508D01*
X128869Y127506D01*
X128959Y127500D01*
X129050Y127490D01*
X129140Y127477D01*
X129229Y127459D01*
X129317Y127438D01*
X129404Y127413D01*
X129490Y127385D01*
X129575Y127352D01*
X129659Y127316D01*
X129740Y127277D01*
X129820Y127234D01*
X129898Y127187D01*
X129974Y127138D01*
X130048Y127085D01*
X128214Y125391D02*
X128158Y125426D01*
X128104Y125464D01*
X128052Y125506D01*
X128003Y125550D01*
X127957Y125597D01*
X127913Y125647D01*
X127872Y125699D01*
X127835Y125753D01*
X127800Y125810D01*
X127769Y125868D01*
X127741Y125928D01*
X127717Y125990D01*
X127696Y126053D01*
X127679Y126117D01*
X127666Y126182D01*
X127657Y126247D01*
X127651Y126313D01*
X127649Y126379D01*
X129766Y124545D02*
X129822Y124510D01*
X129876Y124472D01*
X129928Y124430D01*
X129977Y124386D01*
X130023Y124339D01*
X130067Y124289D01*
X130108Y124237D01*
X130145Y124183D01*
X130180Y124126D01*
X130211Y124068D01*
X130239Y124008D01*
X130263Y123946D01*
X130284Y123883D01*
X130301Y123819D01*
X130314Y123755D01*
X130323Y123689D01*
X130329Y123623D01*
X130331Y123557D01*
X129766Y124545D02*
X128214Y125391D01*
X132696Y127508D02*
X133825Y122428D01*
X134954Y125815D01*
X136083Y122428D01*
X137212Y127508D01*
X140865Y122428D02*
X141994Y122428D01*
X140865Y122428D02*
X140799Y122430D01*
X140734Y122436D01*
X140669Y122445D01*
X140605Y122458D01*
X140541Y122475D01*
X140479Y122496D01*
X140418Y122520D01*
X140358Y122548D01*
X140301Y122579D01*
X140245Y122614D01*
X140191Y122651D01*
X140139Y122692D01*
X140090Y122736D01*
X140044Y122782D01*
X140000Y122831D01*
X139959Y122883D01*
X139922Y122937D01*
X139887Y122993D01*
X139856Y123050D01*
X139828Y123110D01*
X139804Y123171D01*
X139783Y123233D01*
X139766Y123297D01*
X139753Y123361D01*
X139744Y123426D01*
X139738Y123491D01*
X139736Y123557D01*
X139736Y126379D01*
X139738Y126445D01*
X139744Y126510D01*
X139753Y126575D01*
X139766Y126639D01*
X139783Y126703D01*
X139804Y126765D01*
X139828Y126826D01*
X139856Y126886D01*
X139887Y126943D01*
X139922Y126999D01*
X139959Y127053D01*
X140000Y127105D01*
X140044Y127154D01*
X140090Y127200D01*
X140139Y127244D01*
X140191Y127285D01*
X140245Y127322D01*
X140300Y127357D01*
X140358Y127388D01*
X140418Y127416D01*
X140479Y127440D01*
X140541Y127461D01*
X140605Y127478D01*
X140669Y127491D01*
X140734Y127500D01*
X140799Y127506D01*
X140865Y127508D01*
X141994Y127508D01*
X144532Y127508D02*
X144532Y122428D01*
X146790Y122428D01*
X149396Y122428D02*
X149396Y127508D01*
X152218Y127508D02*
X149396Y124404D01*
X150525Y125532D02*
X152218Y122428D01*
X109728Y122428D02*
X109728Y127508D01*
X111139Y127508D01*
X111213Y127506D01*
X111286Y127500D01*
X111360Y127491D01*
X111432Y127477D01*
X111504Y127460D01*
X111575Y127439D01*
X111645Y127414D01*
X111713Y127386D01*
X111780Y127354D01*
X111844Y127319D01*
X111907Y127280D01*
X111968Y127239D01*
X112027Y127194D01*
X112083Y127146D01*
X112137Y127095D01*
X112188Y127041D01*
X112236Y126985D01*
X112281Y126926D01*
X112322Y126865D01*
X112361Y126803D01*
X112396Y126738D01*
X112428Y126671D01*
X112456Y126603D01*
X112481Y126533D01*
X112502Y126462D01*
X112519Y126390D01*
X112533Y126318D01*
X112542Y126244D01*
X112548Y126171D01*
X112550Y126097D01*
X112548Y126023D01*
X112542Y125950D01*
X112533Y125876D01*
X112519Y125804D01*
X112502Y125732D01*
X112481Y125661D01*
X112456Y125591D01*
X112428Y125523D01*
X112396Y125456D01*
X112361Y125392D01*
X112322Y125329D01*
X112281Y125268D01*
X112236Y125209D01*
X112188Y125153D01*
X112137Y125099D01*
X112083Y125048D01*
X112027Y125000D01*
X111968Y124955D01*
X111907Y124914D01*
X111845Y124875D01*
X111780Y124840D01*
X111713Y124808D01*
X111645Y124780D01*
X111575Y124755D01*
X111504Y124734D01*
X111432Y124717D01*
X111360Y124703D01*
X111286Y124694D01*
X111213Y124688D01*
X111139Y124686D01*
X109728Y124686D01*
X111421Y124686D02*
X112550Y122428D01*
X114878Y122428D02*
X118264Y127508D01*
X114878Y127508D02*
X118264Y122428D01*
X88279Y122428D02*
X88279Y127508D01*
X86868Y127508D02*
X89690Y127508D01*
X95093Y127508D02*
X91706Y122428D01*
X95093Y122428D02*
X91706Y127508D01*
X59210Y125250D02*
X58364Y125250D01*
X59210Y125250D02*
X59210Y122428D01*
X57517Y122428D01*
X57451Y122430D01*
X57386Y122436D01*
X57321Y122445D01*
X57257Y122458D01*
X57193Y122475D01*
X57131Y122496D01*
X57070Y122520D01*
X57010Y122548D01*
X56953Y122579D01*
X56897Y122614D01*
X56843Y122651D01*
X56791Y122692D01*
X56742Y122736D01*
X56696Y122782D01*
X56652Y122831D01*
X56611Y122883D01*
X56574Y122937D01*
X56539Y122993D01*
X56508Y123050D01*
X56480Y123110D01*
X56456Y123171D01*
X56435Y123233D01*
X56418Y123297D01*
X56405Y123361D01*
X56396Y123426D01*
X56390Y123491D01*
X56388Y123557D01*
X56388Y126379D01*
X56390Y126445D01*
X56396Y126510D01*
X56405Y126575D01*
X56418Y126639D01*
X56435Y126703D01*
X56456Y126765D01*
X56480Y126826D01*
X56508Y126886D01*
X56539Y126943D01*
X56574Y126999D01*
X56611Y127053D01*
X56652Y127105D01*
X56696Y127154D01*
X56742Y127200D01*
X56791Y127244D01*
X56843Y127285D01*
X56897Y127322D01*
X56952Y127357D01*
X57010Y127388D01*
X57070Y127416D01*
X57131Y127440D01*
X57193Y127461D01*
X57257Y127478D01*
X57321Y127491D01*
X57386Y127500D01*
X57451Y127506D01*
X57517Y127508D01*
X59210Y127508D01*
X62240Y127508D02*
X62240Y122428D01*
X65062Y122428D02*
X62240Y127508D01*
X65062Y127508D02*
X65062Y122428D01*
X68092Y122428D02*
X68092Y127508D01*
X69503Y127508D01*
X69577Y127506D01*
X69650Y127500D01*
X69724Y127491D01*
X69796Y127477D01*
X69868Y127460D01*
X69939Y127439D01*
X70009Y127414D01*
X70077Y127386D01*
X70144Y127354D01*
X70209Y127319D01*
X70271Y127280D01*
X70332Y127239D01*
X70391Y127194D01*
X70447Y127146D01*
X70501Y127095D01*
X70552Y127041D01*
X70600Y126985D01*
X70645Y126926D01*
X70686Y126865D01*
X70725Y126803D01*
X70760Y126738D01*
X70792Y126671D01*
X70820Y126603D01*
X70845Y126533D01*
X70866Y126462D01*
X70883Y126390D01*
X70897Y126318D01*
X70906Y126244D01*
X70912Y126171D01*
X70914Y126097D01*
X70915Y126097D02*
X70915Y123839D01*
X70914Y123839D02*
X70912Y123765D01*
X70906Y123692D01*
X70897Y123618D01*
X70883Y123546D01*
X70866Y123474D01*
X70845Y123403D01*
X70820Y123333D01*
X70792Y123265D01*
X70760Y123198D01*
X70725Y123133D01*
X70686Y123071D01*
X70645Y123010D01*
X70600Y122951D01*
X70552Y122895D01*
X70501Y122841D01*
X70447Y122790D01*
X70391Y122742D01*
X70332Y122697D01*
X70271Y122656D01*
X70208Y122617D01*
X70144Y122582D01*
X70077Y122550D01*
X70009Y122522D01*
X69939Y122497D01*
X69868Y122476D01*
X69796Y122459D01*
X69724Y122445D01*
X69650Y122436D01*
X69577Y122430D01*
X69503Y122428D01*
X68092Y122428D01*
D11*
X153920Y140100D02*
X184920Y140100D01*
X184920Y190100D01*
X153920Y190100D01*
X89920Y190100D02*
X58920Y190100D01*
X58920Y140100D01*
X89920Y140100D01*
X115920Y136100D02*
X115920Y131100D01*
X127920Y131100D01*
X127920Y136100D01*
X84920Y134100D02*
X84922Y134163D01*
X84928Y134225D01*
X84938Y134287D01*
X84951Y134349D01*
X84969Y134409D01*
X84990Y134468D01*
X85015Y134526D01*
X85044Y134582D01*
X85076Y134636D01*
X85111Y134688D01*
X85149Y134737D01*
X85191Y134785D01*
X85235Y134829D01*
X85283Y134871D01*
X85332Y134909D01*
X85384Y134944D01*
X85438Y134976D01*
X85494Y135005D01*
X85552Y135030D01*
X85611Y135051D01*
X85671Y135069D01*
X85733Y135082D01*
X85795Y135092D01*
X85857Y135098D01*
X85920Y135100D01*
X85983Y135098D01*
X86045Y135092D01*
X86107Y135082D01*
X86169Y135069D01*
X86229Y135051D01*
X86288Y135030D01*
X86346Y135005D01*
X86402Y134976D01*
X86456Y134944D01*
X86508Y134909D01*
X86557Y134871D01*
X86605Y134829D01*
X86649Y134785D01*
X86691Y134737D01*
X86729Y134688D01*
X86764Y134636D01*
X86796Y134582D01*
X86825Y134526D01*
X86850Y134468D01*
X86871Y134409D01*
X86889Y134349D01*
X86902Y134287D01*
X86912Y134225D01*
X86918Y134163D01*
X86920Y134100D01*
X86918Y134037D01*
X86912Y133975D01*
X86902Y133913D01*
X86889Y133851D01*
X86871Y133791D01*
X86850Y133732D01*
X86825Y133674D01*
X86796Y133618D01*
X86764Y133564D01*
X86729Y133512D01*
X86691Y133463D01*
X86649Y133415D01*
X86605Y133371D01*
X86557Y133329D01*
X86508Y133291D01*
X86456Y133256D01*
X86402Y133224D01*
X86346Y133195D01*
X86288Y133170D01*
X86229Y133149D01*
X86169Y133131D01*
X86107Y133118D01*
X86045Y133108D01*
X85983Y133102D01*
X85920Y133100D01*
X85857Y133102D01*
X85795Y133108D01*
X85733Y133118D01*
X85671Y133131D01*
X85611Y133149D01*
X85552Y133170D01*
X85494Y133195D01*
X85438Y133224D01*
X85384Y133256D01*
X85332Y133291D01*
X85283Y133329D01*
X85235Y133371D01*
X85191Y133415D01*
X85149Y133463D01*
X85111Y133512D01*
X85076Y133564D01*
X85044Y133618D01*
X85015Y133674D01*
X84990Y133732D01*
X84969Y133791D01*
X84951Y133851D01*
X84938Y133913D01*
X84928Y133975D01*
X84922Y134037D01*
X84920Y134100D01*
D12*
X22000Y747800D02*
X22000Y750300D01*
X22000Y242800D02*
X22000Y240300D01*
X232000Y747800D02*
X232000Y750300D01*
X232000Y242800D02*
X232000Y240300D01*
X90400Y240300D02*
X22000Y240300D01*
X163600Y240300D02*
X232000Y240300D01*
X87000Y750300D02*
X22000Y750300D01*
X87000Y750300D02*
X87000Y763300D01*
X167000Y763300D01*
X167000Y750300D01*
X232000Y750300D01*
D13*
X4100Y736600D02*
X4102Y736663D01*
X4108Y736725D01*
X4118Y736787D01*
X4131Y736849D01*
X4149Y736909D01*
X4170Y736968D01*
X4195Y737026D01*
X4224Y737082D01*
X4256Y737136D01*
X4291Y737188D01*
X4329Y737237D01*
X4371Y737285D01*
X4415Y737329D01*
X4463Y737371D01*
X4512Y737409D01*
X4564Y737444D01*
X4618Y737476D01*
X4674Y737505D01*
X4732Y737530D01*
X4791Y737551D01*
X4851Y737569D01*
X4913Y737582D01*
X4975Y737592D01*
X5037Y737598D01*
X5100Y737600D01*
X5163Y737598D01*
X5225Y737592D01*
X5287Y737582D01*
X5349Y737569D01*
X5409Y737551D01*
X5468Y737530D01*
X5526Y737505D01*
X5582Y737476D01*
X5636Y737444D01*
X5688Y737409D01*
X5737Y737371D01*
X5785Y737329D01*
X5829Y737285D01*
X5871Y737237D01*
X5909Y737188D01*
X5944Y737136D01*
X5976Y737082D01*
X6005Y737026D01*
X6030Y736968D01*
X6051Y736909D01*
X6069Y736849D01*
X6082Y736787D01*
X6092Y736725D01*
X6098Y736663D01*
X6100Y736600D01*
X6098Y736537D01*
X6092Y736475D01*
X6082Y736413D01*
X6069Y736351D01*
X6051Y736291D01*
X6030Y736232D01*
X6005Y736174D01*
X5976Y736118D01*
X5944Y736064D01*
X5909Y736012D01*
X5871Y735963D01*
X5829Y735915D01*
X5785Y735871D01*
X5737Y735829D01*
X5688Y735791D01*
X5636Y735756D01*
X5582Y735724D01*
X5526Y735695D01*
X5468Y735670D01*
X5409Y735649D01*
X5349Y735631D01*
X5287Y735618D01*
X5225Y735608D01*
X5163Y735602D01*
X5100Y735600D01*
X5037Y735602D01*
X4975Y735608D01*
X4913Y735618D01*
X4851Y735631D01*
X4791Y735649D01*
X4732Y735670D01*
X4674Y735695D01*
X4618Y735724D01*
X4564Y735756D01*
X4512Y735791D01*
X4463Y735829D01*
X4415Y735871D01*
X4371Y735915D01*
X4329Y735963D01*
X4291Y736012D01*
X4256Y736064D01*
X4224Y736118D01*
X4195Y736174D01*
X4170Y736232D01*
X4149Y736291D01*
X4131Y736351D01*
X4118Y736413D01*
X4108Y736475D01*
X4102Y736537D01*
X4100Y736600D01*
D10*
X12508Y779054D02*
X12508Y787492D01*
X12508Y779054D02*
X12510Y778941D01*
X12516Y778828D01*
X12526Y778715D01*
X12540Y778602D01*
X12557Y778490D01*
X12579Y778379D01*
X12604Y778269D01*
X12634Y778159D01*
X12667Y778051D01*
X12704Y777944D01*
X12744Y777838D01*
X12789Y777734D01*
X12837Y777631D01*
X12888Y777530D01*
X12943Y777431D01*
X13001Y777334D01*
X13063Y777239D01*
X13128Y777146D01*
X13196Y777056D01*
X13267Y776968D01*
X13342Y776882D01*
X13419Y776799D01*
X13499Y776719D01*
X13582Y776642D01*
X13668Y776567D01*
X13756Y776496D01*
X13846Y776428D01*
X13939Y776363D01*
X14034Y776301D01*
X14131Y776243D01*
X14230Y776188D01*
X14331Y776137D01*
X14434Y776089D01*
X14538Y776044D01*
X14644Y776004D01*
X14751Y775967D01*
X14859Y775934D01*
X14969Y775904D01*
X15079Y775879D01*
X15190Y775857D01*
X15302Y775840D01*
X15415Y775826D01*
X15528Y775816D01*
X15641Y775810D01*
X15754Y775808D01*
X15867Y775810D01*
X15980Y775816D01*
X16093Y775826D01*
X16206Y775840D01*
X16318Y775857D01*
X16429Y775879D01*
X16539Y775904D01*
X16649Y775934D01*
X16757Y775967D01*
X16864Y776004D01*
X16970Y776044D01*
X17074Y776089D01*
X17177Y776137D01*
X17278Y776188D01*
X17377Y776243D01*
X17474Y776301D01*
X17569Y776363D01*
X17662Y776428D01*
X17752Y776496D01*
X17840Y776567D01*
X17926Y776642D01*
X18009Y776719D01*
X18089Y776799D01*
X18166Y776882D01*
X18241Y776968D01*
X18312Y777056D01*
X18380Y777146D01*
X18445Y777239D01*
X18507Y777334D01*
X18565Y777431D01*
X18620Y777530D01*
X18671Y777631D01*
X18719Y777734D01*
X18764Y777838D01*
X18804Y777944D01*
X18841Y778051D01*
X18874Y778159D01*
X18904Y778269D01*
X18929Y778379D01*
X18951Y778490D01*
X18968Y778602D01*
X18982Y778715D01*
X18992Y778828D01*
X18998Y778941D01*
X19000Y779054D01*
X18999Y779054D02*
X18999Y787492D01*
X24319Y784896D02*
X27565Y787492D01*
X27565Y775808D01*
X30810Y775808D02*
X24319Y775808D01*
D13*
X149060Y205110D02*
X183760Y205110D01*
X176060Y221610D02*
X149060Y221610D01*
D10*
X188794Y218440D02*
X188794Y213360D01*
X188794Y218440D02*
X190205Y218440D01*
X190279Y218438D01*
X190352Y218432D01*
X190426Y218423D01*
X190498Y218409D01*
X190570Y218392D01*
X190641Y218371D01*
X190711Y218346D01*
X190779Y218318D01*
X190846Y218286D01*
X190911Y218251D01*
X190973Y218212D01*
X191034Y218171D01*
X191093Y218126D01*
X191149Y218078D01*
X191203Y218027D01*
X191254Y217973D01*
X191302Y217917D01*
X191347Y217858D01*
X191388Y217797D01*
X191427Y217735D01*
X191462Y217670D01*
X191494Y217603D01*
X191522Y217535D01*
X191547Y217465D01*
X191568Y217394D01*
X191585Y217322D01*
X191599Y217250D01*
X191608Y217176D01*
X191614Y217103D01*
X191616Y217029D01*
X191616Y214771D01*
X191614Y214697D01*
X191608Y214624D01*
X191599Y214550D01*
X191585Y214478D01*
X191568Y214406D01*
X191547Y214335D01*
X191522Y214265D01*
X191494Y214197D01*
X191462Y214130D01*
X191427Y214065D01*
X191388Y214003D01*
X191347Y213942D01*
X191302Y213883D01*
X191254Y213827D01*
X191203Y213773D01*
X191149Y213722D01*
X191093Y213674D01*
X191034Y213629D01*
X190973Y213588D01*
X190910Y213549D01*
X190846Y213514D01*
X190779Y213482D01*
X190711Y213454D01*
X190641Y213429D01*
X190570Y213408D01*
X190498Y213391D01*
X190426Y213377D01*
X190352Y213368D01*
X190279Y213362D01*
X190205Y213360D01*
X188794Y213360D01*
X194464Y217311D02*
X195875Y218440D01*
X195875Y213360D01*
X194464Y213360D02*
X197286Y213360D01*
D12*
X192097Y180721D02*
X192097Y176967D01*
X192096Y176967D02*
X192094Y176902D01*
X192088Y176838D01*
X192078Y176774D01*
X192065Y176710D01*
X192047Y176648D01*
X192026Y176587D01*
X192002Y176527D01*
X191973Y176469D01*
X191941Y176412D01*
X191906Y176358D01*
X191868Y176306D01*
X191826Y176256D01*
X191782Y176209D01*
X191735Y176165D01*
X191685Y176123D01*
X191633Y176085D01*
X191579Y176050D01*
X191522Y176018D01*
X191464Y175989D01*
X191404Y175965D01*
X191343Y175944D01*
X191281Y175926D01*
X191217Y175913D01*
X191153Y175903D01*
X191089Y175897D01*
X191024Y175895D01*
X190488Y175895D01*
X195374Y175895D02*
X195374Y180721D01*
X196714Y180721D01*
X196785Y180719D01*
X196857Y180713D01*
X196927Y180704D01*
X196997Y180691D01*
X197067Y180674D01*
X197135Y180653D01*
X197202Y180629D01*
X197268Y180601D01*
X197332Y180570D01*
X197395Y180535D01*
X197455Y180497D01*
X197514Y180456D01*
X197570Y180412D01*
X197624Y180365D01*
X197675Y180316D01*
X197723Y180263D01*
X197769Y180208D01*
X197811Y180151D01*
X197851Y180091D01*
X197887Y180030D01*
X197920Y179966D01*
X197949Y179901D01*
X197975Y179835D01*
X197998Y179767D01*
X198017Y179698D01*
X198032Y179628D01*
X198043Y179558D01*
X198051Y179487D01*
X198055Y179416D01*
X198055Y179344D01*
X198051Y179273D01*
X198043Y179202D01*
X198032Y179132D01*
X198017Y179062D01*
X197998Y178993D01*
X197975Y178925D01*
X197949Y178859D01*
X197920Y178794D01*
X197887Y178730D01*
X197851Y178669D01*
X197811Y178609D01*
X197769Y178552D01*
X197723Y178497D01*
X197675Y178444D01*
X197624Y178395D01*
X197570Y178348D01*
X197514Y178304D01*
X197455Y178263D01*
X197395Y178225D01*
X197332Y178190D01*
X197268Y178159D01*
X197202Y178131D01*
X197135Y178107D01*
X197067Y178086D01*
X196997Y178069D01*
X196927Y178056D01*
X196857Y178047D01*
X196785Y178041D01*
X196714Y178039D01*
X196714Y178040D02*
X195374Y178040D01*
X200531Y179649D02*
X201871Y180721D01*
X201871Y175895D01*
X200531Y175895D02*
X203212Y175895D01*
M02*
