G04 EAGLE Gerber RS-274X export*
G75*
%MOMM*%
%FSLAX34Y34*%
%LPD*%
%INBottom Solder Mask*%
%IPPOS*%
%AMOC8*
5,1,8,0,0,1.08239X$1,22.5*%
G01*
%ADD10C,2.006600*%
%ADD11R,2.006600X2.006600*%


D10*
X63500Y106680D03*
X88900Y106680D03*
X114300Y106680D03*
X139700Y106680D03*
X165100Y106680D03*
X190500Y106680D03*
X38100Y736600D03*
X38100Y711200D03*
D11*
X38100Y685800D03*
X38100Y558800D03*
X38100Y431800D03*
X38100Y304800D03*
X127000Y254000D03*
X215900Y304800D03*
X215900Y431800D03*
X215900Y558800D03*
X215900Y685800D03*
D10*
X38100Y660400D03*
X38100Y635000D03*
X38100Y609600D03*
X38100Y584200D03*
X38100Y533400D03*
X38100Y508000D03*
X38100Y482600D03*
X38100Y457200D03*
X38100Y406400D03*
X38100Y381000D03*
X38100Y355600D03*
X38100Y330200D03*
X38100Y279400D03*
X38100Y254000D03*
X215900Y254000D03*
X215900Y279400D03*
X215900Y330200D03*
X215900Y355600D03*
X215900Y381000D03*
X215900Y406400D03*
X215900Y457200D03*
X215900Y482600D03*
X215900Y508000D03*
X215900Y533400D03*
X215900Y584200D03*
X215900Y609600D03*
X215900Y635000D03*
X215900Y660400D03*
X215900Y711200D03*
X215900Y736600D03*
X101600Y254000D03*
X152400Y254000D03*
M02*
