G04 EAGLE Gerber RS-274X export*
G75*
%MOMM*%
%FSLAX34Y34*%
%LPD*%
%INTop Paste*%
%IPPOS*%
%AMOC8*
5,1,8,0,0,1.08239X$1,22.5*%
G01*
%ADD10C,0.098800*%
%ADD11C,0.600000*%
%ADD12C,1.100000*%
%ADD13C,1.050000*%
%ADD14C,0.100800*%

G36*
X239947Y677787D02*
X239947Y677787D01*
X239942Y677794D01*
X239949Y677800D01*
X239949Y693800D01*
X239913Y693847D01*
X239906Y693842D01*
X239900Y693849D01*
X209900Y693849D01*
X209896Y693846D01*
X209894Y693849D01*
X209376Y693781D01*
X209369Y693774D01*
X209364Y693777D01*
X208881Y693578D01*
X208876Y693569D01*
X208870Y693571D01*
X208456Y693253D01*
X208453Y693244D01*
X208447Y693244D01*
X208129Y692830D01*
X208129Y692821D01*
X208122Y692819D01*
X207923Y692336D01*
X207925Y692327D01*
X207919Y692324D01*
X207851Y691806D01*
X207854Y691802D01*
X207851Y691800D01*
X207851Y679800D01*
X207854Y679796D01*
X207851Y679794D01*
X207919Y679276D01*
X207926Y679269D01*
X207923Y679264D01*
X208122Y678781D01*
X208131Y678776D01*
X208129Y678770D01*
X208447Y678356D01*
X208456Y678353D01*
X208456Y678347D01*
X208870Y678029D01*
X208880Y678029D01*
X208881Y678022D01*
X209364Y677823D01*
X209373Y677825D01*
X209376Y677819D01*
X209894Y677751D01*
X209898Y677754D01*
X209900Y677751D01*
X239900Y677751D01*
X239947Y677787D01*
G37*
G36*
X239947Y296787D02*
X239947Y296787D01*
X239942Y296794D01*
X239949Y296800D01*
X239949Y312800D01*
X239913Y312847D01*
X239906Y312842D01*
X239900Y312849D01*
X209900Y312849D01*
X209896Y312846D01*
X209894Y312849D01*
X209376Y312781D01*
X209369Y312774D01*
X209364Y312777D01*
X208881Y312578D01*
X208876Y312569D01*
X208870Y312571D01*
X208456Y312253D01*
X208453Y312244D01*
X208447Y312244D01*
X208129Y311830D01*
X208129Y311821D01*
X208122Y311819D01*
X207923Y311336D01*
X207925Y311327D01*
X207919Y311324D01*
X207851Y310806D01*
X207854Y310802D01*
X207851Y310800D01*
X207851Y298800D01*
X207854Y298796D01*
X207851Y298794D01*
X207919Y298276D01*
X207926Y298269D01*
X207923Y298264D01*
X208122Y297781D01*
X208131Y297776D01*
X208129Y297770D01*
X208447Y297356D01*
X208456Y297353D01*
X208456Y297347D01*
X208870Y297029D01*
X208880Y297029D01*
X208881Y297022D01*
X209364Y296823D01*
X209373Y296825D01*
X209376Y296819D01*
X209894Y296751D01*
X209898Y296754D01*
X209900Y296751D01*
X239900Y296751D01*
X239947Y296787D01*
G37*
G36*
X239947Y550787D02*
X239947Y550787D01*
X239942Y550794D01*
X239949Y550800D01*
X239949Y566800D01*
X239913Y566847D01*
X239906Y566842D01*
X239900Y566849D01*
X209900Y566849D01*
X209896Y566846D01*
X209894Y566849D01*
X209376Y566781D01*
X209369Y566774D01*
X209364Y566777D01*
X208881Y566578D01*
X208876Y566569D01*
X208870Y566571D01*
X208456Y566253D01*
X208453Y566244D01*
X208447Y566244D01*
X208129Y565830D01*
X208129Y565821D01*
X208122Y565819D01*
X207923Y565336D01*
X207925Y565327D01*
X207919Y565324D01*
X207851Y564806D01*
X207854Y564802D01*
X207851Y564800D01*
X207851Y552800D01*
X207854Y552796D01*
X207851Y552794D01*
X207919Y552276D01*
X207926Y552269D01*
X207923Y552264D01*
X208122Y551781D01*
X208131Y551776D01*
X208129Y551770D01*
X208447Y551356D01*
X208456Y551353D01*
X208456Y551347D01*
X208870Y551029D01*
X208880Y551029D01*
X208881Y551022D01*
X209364Y550823D01*
X209373Y550825D01*
X209376Y550819D01*
X209894Y550751D01*
X209898Y550754D01*
X209900Y550751D01*
X239900Y550751D01*
X239947Y550787D01*
G37*
G36*
X239947Y423787D02*
X239947Y423787D01*
X239942Y423794D01*
X239949Y423800D01*
X239949Y439800D01*
X239913Y439847D01*
X239906Y439842D01*
X239900Y439849D01*
X209900Y439849D01*
X209896Y439846D01*
X209894Y439849D01*
X209376Y439781D01*
X209369Y439774D01*
X209364Y439777D01*
X208881Y439578D01*
X208876Y439569D01*
X208870Y439571D01*
X208456Y439253D01*
X208453Y439244D01*
X208447Y439244D01*
X208129Y438830D01*
X208129Y438821D01*
X208122Y438819D01*
X207923Y438336D01*
X207925Y438327D01*
X207919Y438324D01*
X207851Y437806D01*
X207854Y437802D01*
X207851Y437800D01*
X207851Y425800D01*
X207854Y425796D01*
X207851Y425794D01*
X207919Y425276D01*
X207926Y425269D01*
X207923Y425264D01*
X208122Y424781D01*
X208131Y424776D01*
X208129Y424770D01*
X208447Y424356D01*
X208456Y424353D01*
X208456Y424347D01*
X208870Y424029D01*
X208880Y424029D01*
X208881Y424022D01*
X209364Y423823D01*
X209373Y423825D01*
X209376Y423819D01*
X209894Y423751D01*
X209898Y423754D01*
X209900Y423751D01*
X239900Y423751D01*
X239947Y423787D01*
G37*
G36*
X135047Y232287D02*
X135047Y232287D01*
X135042Y232294D01*
X135049Y232300D01*
X135049Y262300D01*
X135046Y262304D01*
X135049Y262306D01*
X134981Y262824D01*
X134974Y262831D01*
X134977Y262836D01*
X134778Y263319D01*
X134769Y263324D01*
X134771Y263330D01*
X134453Y263744D01*
X134444Y263747D01*
X134444Y263753D01*
X134030Y264071D01*
X134021Y264071D01*
X134019Y264078D01*
X133536Y264277D01*
X133527Y264275D01*
X133524Y264281D01*
X133006Y264349D01*
X133002Y264346D01*
X133000Y264349D01*
X121000Y264349D01*
X120996Y264346D01*
X120994Y264349D01*
X120476Y264281D01*
X120469Y264274D01*
X120464Y264277D01*
X119981Y264078D01*
X119976Y264069D01*
X119970Y264071D01*
X119556Y263753D01*
X119553Y263744D01*
X119547Y263744D01*
X119229Y263330D01*
X119229Y263321D01*
X119222Y263319D01*
X119023Y262836D01*
X119025Y262827D01*
X119019Y262824D01*
X118951Y262306D01*
X118954Y262302D01*
X118951Y262300D01*
X118951Y232300D01*
X118987Y232253D01*
X118994Y232258D01*
X119000Y232251D01*
X135000Y232251D01*
X135047Y232287D01*
G37*
G36*
X44104Y423754D02*
X44104Y423754D01*
X44106Y423751D01*
X44624Y423819D01*
X44631Y423826D01*
X44636Y423823D01*
X45119Y424022D01*
X45124Y424031D01*
X45130Y424029D01*
X45544Y424347D01*
X45547Y424356D01*
X45553Y424356D01*
X45871Y424770D01*
X45871Y424780D01*
X45878Y424781D01*
X46077Y425264D01*
X46075Y425273D01*
X46081Y425276D01*
X46149Y425794D01*
X46146Y425798D01*
X46149Y425800D01*
X46149Y437800D01*
X46146Y437804D01*
X46149Y437806D01*
X46081Y438324D01*
X46074Y438331D01*
X46077Y438336D01*
X45878Y438819D01*
X45869Y438824D01*
X45871Y438830D01*
X45553Y439244D01*
X45544Y439247D01*
X45544Y439253D01*
X45130Y439571D01*
X45121Y439571D01*
X45119Y439578D01*
X44636Y439777D01*
X44627Y439775D01*
X44624Y439781D01*
X44106Y439849D01*
X44102Y439846D01*
X44100Y439849D01*
X14100Y439849D01*
X14053Y439813D01*
X14058Y439806D01*
X14051Y439800D01*
X14051Y423800D01*
X14087Y423753D01*
X14094Y423758D01*
X14100Y423751D01*
X44100Y423751D01*
X44104Y423754D01*
G37*
G36*
X44104Y296754D02*
X44104Y296754D01*
X44106Y296751D01*
X44624Y296819D01*
X44631Y296826D01*
X44636Y296823D01*
X45119Y297022D01*
X45124Y297031D01*
X45130Y297029D01*
X45544Y297347D01*
X45547Y297356D01*
X45553Y297356D01*
X45871Y297770D01*
X45871Y297780D01*
X45878Y297781D01*
X46077Y298264D01*
X46075Y298273D01*
X46081Y298276D01*
X46149Y298794D01*
X46146Y298798D01*
X46149Y298800D01*
X46149Y310800D01*
X46146Y310804D01*
X46149Y310806D01*
X46081Y311324D01*
X46074Y311331D01*
X46077Y311336D01*
X45878Y311819D01*
X45869Y311824D01*
X45871Y311830D01*
X45553Y312244D01*
X45544Y312247D01*
X45544Y312253D01*
X45130Y312571D01*
X45121Y312571D01*
X45119Y312578D01*
X44636Y312777D01*
X44627Y312775D01*
X44624Y312781D01*
X44106Y312849D01*
X44102Y312846D01*
X44100Y312849D01*
X14100Y312849D01*
X14053Y312813D01*
X14058Y312806D01*
X14051Y312800D01*
X14051Y296800D01*
X14087Y296753D01*
X14094Y296758D01*
X14100Y296751D01*
X44100Y296751D01*
X44104Y296754D01*
G37*
G36*
X44104Y677754D02*
X44104Y677754D01*
X44106Y677751D01*
X44624Y677819D01*
X44631Y677826D01*
X44636Y677823D01*
X45119Y678022D01*
X45124Y678031D01*
X45130Y678029D01*
X45544Y678347D01*
X45547Y678356D01*
X45553Y678356D01*
X45871Y678770D01*
X45871Y678780D01*
X45878Y678781D01*
X46077Y679264D01*
X46075Y679273D01*
X46081Y679276D01*
X46149Y679794D01*
X46146Y679798D01*
X46149Y679800D01*
X46149Y691800D01*
X46146Y691804D01*
X46149Y691806D01*
X46081Y692324D01*
X46074Y692331D01*
X46077Y692336D01*
X45878Y692819D01*
X45869Y692824D01*
X45871Y692830D01*
X45553Y693244D01*
X45544Y693247D01*
X45544Y693253D01*
X45130Y693571D01*
X45121Y693571D01*
X45119Y693578D01*
X44636Y693777D01*
X44627Y693775D01*
X44624Y693781D01*
X44106Y693849D01*
X44102Y693846D01*
X44100Y693849D01*
X14100Y693849D01*
X14053Y693813D01*
X14058Y693806D01*
X14051Y693800D01*
X14051Y677800D01*
X14087Y677753D01*
X14094Y677758D01*
X14100Y677751D01*
X44100Y677751D01*
X44104Y677754D01*
G37*
G36*
X44104Y550754D02*
X44104Y550754D01*
X44106Y550751D01*
X44624Y550819D01*
X44631Y550826D01*
X44636Y550823D01*
X45119Y551022D01*
X45124Y551031D01*
X45130Y551029D01*
X45544Y551347D01*
X45547Y551356D01*
X45553Y551356D01*
X45871Y551770D01*
X45871Y551780D01*
X45878Y551781D01*
X46077Y552264D01*
X46075Y552273D01*
X46081Y552276D01*
X46149Y552794D01*
X46146Y552798D01*
X46149Y552800D01*
X46149Y564800D01*
X46146Y564804D01*
X46149Y564806D01*
X46081Y565324D01*
X46074Y565331D01*
X46077Y565336D01*
X45878Y565819D01*
X45869Y565824D01*
X45871Y565830D01*
X45553Y566244D01*
X45544Y566247D01*
X45544Y566253D01*
X45130Y566571D01*
X45121Y566571D01*
X45119Y566578D01*
X44636Y566777D01*
X44627Y566775D01*
X44624Y566781D01*
X44106Y566849D01*
X44102Y566846D01*
X44100Y566849D01*
X14100Y566849D01*
X14053Y566813D01*
X14058Y566806D01*
X14051Y566800D01*
X14051Y550800D01*
X14087Y550753D01*
X14094Y550758D01*
X14100Y550751D01*
X44100Y550751D01*
X44104Y550754D01*
G37*
G36*
X160447Y232287D02*
X160447Y232287D01*
X160442Y232294D01*
X160449Y232300D01*
X160449Y256300D01*
X160447Y256303D01*
X160449Y256305D01*
X160295Y257866D01*
X160290Y257871D01*
X160293Y257875D01*
X159838Y259376D01*
X159832Y259380D01*
X159834Y259385D01*
X159095Y260768D01*
X159089Y260771D01*
X159090Y260776D01*
X158095Y261988D01*
X158088Y261990D01*
X158088Y261995D01*
X156876Y262990D01*
X156869Y262990D01*
X156868Y262995D01*
X155485Y263734D01*
X155478Y263733D01*
X155476Y263738D01*
X153975Y264193D01*
X153968Y264191D01*
X153966Y264195D01*
X152405Y264349D01*
X152399Y264345D01*
X152395Y264349D01*
X150834Y264195D01*
X150829Y264190D01*
X150825Y264193D01*
X149324Y263738D01*
X149320Y263732D01*
X149315Y263734D01*
X147932Y262995D01*
X147929Y262989D01*
X147924Y262990D01*
X146712Y261995D01*
X146710Y261988D01*
X146705Y261988D01*
X145710Y260776D01*
X145710Y260769D01*
X145705Y260768D01*
X144966Y259385D01*
X144967Y259378D01*
X144962Y259376D01*
X144835Y258958D01*
X144820Y258908D01*
X144641Y258317D01*
X144626Y258268D01*
X144507Y257875D01*
X144507Y257874D01*
X144506Y257874D01*
X144508Y257872D01*
X144509Y257868D01*
X144505Y257866D01*
X144351Y256305D01*
X144353Y256302D01*
X144351Y256300D01*
X144351Y232300D01*
X144387Y232253D01*
X144394Y232258D01*
X144400Y232251D01*
X160400Y232251D01*
X160447Y232287D01*
G37*
G36*
X109647Y232287D02*
X109647Y232287D01*
X109642Y232294D01*
X109649Y232300D01*
X109649Y256300D01*
X109647Y256303D01*
X109649Y256305D01*
X109495Y257866D01*
X109490Y257871D01*
X109493Y257875D01*
X109038Y259376D01*
X109032Y259380D01*
X109034Y259385D01*
X108295Y260768D01*
X108289Y260771D01*
X108290Y260776D01*
X107295Y261988D01*
X107288Y261990D01*
X107288Y261995D01*
X106076Y262990D01*
X106069Y262990D01*
X106068Y262995D01*
X104685Y263734D01*
X104678Y263733D01*
X104676Y263738D01*
X103175Y264193D01*
X103168Y264191D01*
X103166Y264195D01*
X101605Y264349D01*
X101599Y264345D01*
X101595Y264349D01*
X100034Y264195D01*
X100029Y264190D01*
X100025Y264193D01*
X98524Y263738D01*
X98520Y263732D01*
X98515Y263734D01*
X97132Y262995D01*
X97129Y262989D01*
X97124Y262990D01*
X95912Y261995D01*
X95910Y261988D01*
X95905Y261988D01*
X94910Y260776D01*
X94910Y260769D01*
X94905Y260768D01*
X94166Y259385D01*
X94167Y259378D01*
X94162Y259376D01*
X94035Y258958D01*
X94020Y258908D01*
X93841Y258317D01*
X93826Y258268D01*
X93707Y257875D01*
X93707Y257874D01*
X93706Y257874D01*
X93708Y257872D01*
X93709Y257868D01*
X93705Y257866D01*
X93551Y256305D01*
X93553Y256302D01*
X93551Y256300D01*
X93551Y232300D01*
X93587Y232253D01*
X93594Y232258D01*
X93600Y232251D01*
X109600Y232251D01*
X109647Y232287D01*
G37*
G36*
X239947Y271387D02*
X239947Y271387D01*
X239942Y271394D01*
X239949Y271400D01*
X239949Y287400D01*
X239913Y287447D01*
X239906Y287442D01*
X239900Y287449D01*
X215900Y287449D01*
X215897Y287447D01*
X215895Y287449D01*
X214334Y287295D01*
X214329Y287290D01*
X214325Y287293D01*
X212824Y286838D01*
X212820Y286832D01*
X212815Y286834D01*
X211432Y286095D01*
X211429Y286089D01*
X211424Y286090D01*
X210212Y285095D01*
X210210Y285088D01*
X210205Y285088D01*
X209210Y283876D01*
X209210Y283869D01*
X209205Y283868D01*
X208466Y282485D01*
X208467Y282478D01*
X208462Y282476D01*
X208007Y280975D01*
X208008Y280970D01*
X208006Y280968D01*
X208007Y280967D01*
X208005Y280966D01*
X207851Y279405D01*
X207855Y279399D01*
X207851Y279395D01*
X208005Y277834D01*
X208010Y277829D01*
X208007Y277825D01*
X208462Y276324D01*
X208468Y276320D01*
X208466Y276315D01*
X209205Y274932D01*
X209211Y274929D01*
X209210Y274924D01*
X210205Y273712D01*
X210212Y273710D01*
X210212Y273705D01*
X211424Y272710D01*
X211431Y272710D01*
X211432Y272705D01*
X212815Y271966D01*
X212822Y271967D01*
X212824Y271962D01*
X214325Y271507D01*
X214332Y271509D01*
X214334Y271505D01*
X215895Y271351D01*
X215898Y271353D01*
X215900Y271351D01*
X239900Y271351D01*
X239947Y271387D01*
G37*
G36*
X239947Y703187D02*
X239947Y703187D01*
X239942Y703194D01*
X239949Y703200D01*
X239949Y719200D01*
X239913Y719247D01*
X239906Y719242D01*
X239900Y719249D01*
X215900Y719249D01*
X215897Y719247D01*
X215895Y719249D01*
X214334Y719095D01*
X214329Y719090D01*
X214325Y719093D01*
X212824Y718638D01*
X212820Y718632D01*
X212815Y718634D01*
X211432Y717895D01*
X211429Y717889D01*
X211424Y717890D01*
X210212Y716895D01*
X210210Y716888D01*
X210205Y716888D01*
X209210Y715676D01*
X209210Y715669D01*
X209205Y715668D01*
X208466Y714285D01*
X208467Y714278D01*
X208462Y714276D01*
X208007Y712775D01*
X208008Y712770D01*
X208006Y712768D01*
X208007Y712767D01*
X208005Y712766D01*
X207851Y711205D01*
X207855Y711199D01*
X207851Y711195D01*
X208005Y709634D01*
X208010Y709629D01*
X208007Y709625D01*
X208462Y708124D01*
X208468Y708120D01*
X208466Y708115D01*
X209205Y706732D01*
X209211Y706729D01*
X209210Y706724D01*
X210205Y705512D01*
X210212Y705510D01*
X210212Y705505D01*
X211424Y704510D01*
X211431Y704510D01*
X211432Y704505D01*
X212815Y703766D01*
X212822Y703767D01*
X212824Y703762D01*
X214325Y703307D01*
X214332Y703309D01*
X214334Y703305D01*
X215895Y703151D01*
X215898Y703153D01*
X215900Y703151D01*
X239900Y703151D01*
X239947Y703187D01*
G37*
G36*
X239947Y245987D02*
X239947Y245987D01*
X239942Y245994D01*
X239949Y246000D01*
X239949Y262000D01*
X239913Y262047D01*
X239906Y262042D01*
X239900Y262049D01*
X215900Y262049D01*
X215897Y262047D01*
X215895Y262049D01*
X214334Y261895D01*
X214329Y261890D01*
X214325Y261893D01*
X212824Y261438D01*
X212820Y261432D01*
X212815Y261434D01*
X211432Y260695D01*
X211429Y260689D01*
X211424Y260690D01*
X210212Y259695D01*
X210210Y259688D01*
X210205Y259688D01*
X209210Y258476D01*
X209210Y258469D01*
X209205Y258468D01*
X208466Y257085D01*
X208467Y257078D01*
X208462Y257076D01*
X208007Y255575D01*
X208008Y255570D01*
X208006Y255568D01*
X208007Y255567D01*
X208005Y255566D01*
X207851Y254005D01*
X207855Y253999D01*
X207851Y253995D01*
X208005Y252434D01*
X208010Y252429D01*
X208007Y252425D01*
X208462Y250924D01*
X208468Y250920D01*
X208466Y250915D01*
X209205Y249532D01*
X209211Y249529D01*
X209210Y249524D01*
X210205Y248312D01*
X210212Y248310D01*
X210212Y248305D01*
X211424Y247310D01*
X211431Y247310D01*
X211432Y247305D01*
X212815Y246566D01*
X212822Y246567D01*
X212824Y246562D01*
X214325Y246107D01*
X214332Y246109D01*
X214334Y246105D01*
X215895Y245951D01*
X215898Y245953D01*
X215900Y245951D01*
X239900Y245951D01*
X239947Y245987D01*
G37*
G36*
X239947Y728587D02*
X239947Y728587D01*
X239942Y728594D01*
X239949Y728600D01*
X239949Y744600D01*
X239913Y744647D01*
X239906Y744642D01*
X239900Y744649D01*
X215900Y744649D01*
X215897Y744647D01*
X215895Y744649D01*
X214334Y744495D01*
X214329Y744490D01*
X214325Y744493D01*
X212824Y744038D01*
X212820Y744032D01*
X212815Y744034D01*
X211432Y743295D01*
X211429Y743289D01*
X211424Y743290D01*
X210212Y742295D01*
X210210Y742288D01*
X210205Y742288D01*
X209210Y741076D01*
X209210Y741069D01*
X209205Y741068D01*
X208466Y739685D01*
X208467Y739678D01*
X208462Y739676D01*
X208007Y738175D01*
X208008Y738170D01*
X208006Y738168D01*
X208007Y738167D01*
X208005Y738166D01*
X207851Y736605D01*
X207855Y736599D01*
X207851Y736595D01*
X208005Y735034D01*
X208010Y735029D01*
X208007Y735025D01*
X208462Y733524D01*
X208468Y733520D01*
X208466Y733515D01*
X209205Y732132D01*
X209211Y732129D01*
X209210Y732124D01*
X210205Y730912D01*
X210212Y730910D01*
X210212Y730905D01*
X211424Y729910D01*
X211431Y729910D01*
X211432Y729905D01*
X212815Y729166D01*
X212822Y729167D01*
X212824Y729162D01*
X214325Y728707D01*
X214332Y728709D01*
X214334Y728705D01*
X215895Y728551D01*
X215898Y728553D01*
X215900Y728551D01*
X239900Y728551D01*
X239947Y728587D01*
G37*
G36*
X239947Y652387D02*
X239947Y652387D01*
X239942Y652394D01*
X239949Y652400D01*
X239949Y668400D01*
X239913Y668447D01*
X239906Y668442D01*
X239900Y668449D01*
X215900Y668449D01*
X215897Y668447D01*
X215895Y668449D01*
X214334Y668295D01*
X214329Y668290D01*
X214325Y668293D01*
X212824Y667838D01*
X212820Y667832D01*
X212815Y667834D01*
X211432Y667095D01*
X211429Y667089D01*
X211424Y667090D01*
X210212Y666095D01*
X210210Y666088D01*
X210205Y666088D01*
X209210Y664876D01*
X209210Y664869D01*
X209205Y664868D01*
X208466Y663485D01*
X208467Y663478D01*
X208462Y663476D01*
X208007Y661975D01*
X208008Y661970D01*
X208006Y661968D01*
X208007Y661967D01*
X208005Y661966D01*
X207851Y660405D01*
X207855Y660399D01*
X207851Y660395D01*
X208005Y658834D01*
X208010Y658829D01*
X208007Y658825D01*
X208462Y657324D01*
X208468Y657320D01*
X208466Y657315D01*
X209205Y655932D01*
X209211Y655929D01*
X209210Y655924D01*
X210205Y654712D01*
X210212Y654710D01*
X210212Y654705D01*
X211424Y653710D01*
X211431Y653710D01*
X211432Y653705D01*
X212815Y652966D01*
X212822Y652967D01*
X212824Y652962D01*
X214325Y652507D01*
X214332Y652509D01*
X214334Y652505D01*
X215895Y652351D01*
X215898Y652353D01*
X215900Y652351D01*
X239900Y652351D01*
X239947Y652387D01*
G37*
G36*
X239947Y626987D02*
X239947Y626987D01*
X239942Y626994D01*
X239949Y627000D01*
X239949Y643000D01*
X239913Y643047D01*
X239906Y643042D01*
X239900Y643049D01*
X215900Y643049D01*
X215897Y643047D01*
X215895Y643049D01*
X214334Y642895D01*
X214329Y642890D01*
X214325Y642893D01*
X212824Y642438D01*
X212820Y642432D01*
X212815Y642434D01*
X211432Y641695D01*
X211429Y641689D01*
X211424Y641690D01*
X210212Y640695D01*
X210210Y640688D01*
X210205Y640688D01*
X209210Y639476D01*
X209210Y639469D01*
X209205Y639468D01*
X208466Y638085D01*
X208467Y638078D01*
X208462Y638076D01*
X208007Y636575D01*
X208008Y636570D01*
X208006Y636568D01*
X208007Y636567D01*
X208005Y636566D01*
X207851Y635005D01*
X207855Y634999D01*
X207851Y634995D01*
X208005Y633434D01*
X208010Y633429D01*
X208007Y633425D01*
X208462Y631924D01*
X208468Y631920D01*
X208466Y631915D01*
X209205Y630532D01*
X209211Y630529D01*
X209210Y630524D01*
X210205Y629312D01*
X210212Y629310D01*
X210212Y629305D01*
X211424Y628310D01*
X211431Y628310D01*
X211432Y628305D01*
X212815Y627566D01*
X212822Y627567D01*
X212824Y627562D01*
X214325Y627107D01*
X214332Y627109D01*
X214334Y627105D01*
X215895Y626951D01*
X215898Y626953D01*
X215900Y626951D01*
X239900Y626951D01*
X239947Y626987D01*
G37*
G36*
X239947Y601587D02*
X239947Y601587D01*
X239942Y601594D01*
X239949Y601600D01*
X239949Y617600D01*
X239913Y617647D01*
X239906Y617642D01*
X239900Y617649D01*
X215900Y617649D01*
X215897Y617647D01*
X215895Y617649D01*
X214334Y617495D01*
X214329Y617490D01*
X214325Y617493D01*
X212824Y617038D01*
X212820Y617032D01*
X212815Y617034D01*
X211432Y616295D01*
X211429Y616289D01*
X211424Y616290D01*
X210212Y615295D01*
X210210Y615288D01*
X210205Y615288D01*
X209210Y614076D01*
X209210Y614069D01*
X209205Y614068D01*
X208466Y612685D01*
X208467Y612678D01*
X208462Y612676D01*
X208007Y611175D01*
X208008Y611170D01*
X208006Y611168D01*
X208007Y611167D01*
X208005Y611166D01*
X207851Y609605D01*
X207855Y609599D01*
X207851Y609595D01*
X208005Y608034D01*
X208010Y608029D01*
X208007Y608025D01*
X208462Y606524D01*
X208468Y606520D01*
X208466Y606515D01*
X209205Y605132D01*
X209211Y605129D01*
X209210Y605124D01*
X210205Y603912D01*
X210212Y603910D01*
X210212Y603905D01*
X211424Y602910D01*
X211431Y602910D01*
X211432Y602905D01*
X212815Y602166D01*
X212822Y602167D01*
X212824Y602162D01*
X214325Y601707D01*
X214332Y601709D01*
X214334Y601705D01*
X215895Y601551D01*
X215898Y601553D01*
X215900Y601551D01*
X239900Y601551D01*
X239947Y601587D01*
G37*
G36*
X239947Y576187D02*
X239947Y576187D01*
X239942Y576194D01*
X239949Y576200D01*
X239949Y592200D01*
X239913Y592247D01*
X239906Y592242D01*
X239900Y592249D01*
X215900Y592249D01*
X215897Y592247D01*
X215895Y592249D01*
X214334Y592095D01*
X214329Y592090D01*
X214325Y592093D01*
X212824Y591638D01*
X212820Y591632D01*
X212815Y591634D01*
X211432Y590895D01*
X211429Y590889D01*
X211424Y590890D01*
X210212Y589895D01*
X210210Y589888D01*
X210205Y589888D01*
X209210Y588676D01*
X209210Y588669D01*
X209205Y588668D01*
X208466Y587285D01*
X208467Y587278D01*
X208462Y587276D01*
X208007Y585775D01*
X208008Y585770D01*
X208006Y585768D01*
X208007Y585767D01*
X208005Y585766D01*
X207851Y584205D01*
X207855Y584199D01*
X207851Y584195D01*
X208005Y582634D01*
X208010Y582629D01*
X208007Y582625D01*
X208462Y581124D01*
X208468Y581120D01*
X208466Y581115D01*
X209205Y579732D01*
X209211Y579729D01*
X209210Y579724D01*
X210205Y578512D01*
X210212Y578510D01*
X210212Y578505D01*
X211424Y577510D01*
X211431Y577510D01*
X211432Y577505D01*
X212815Y576766D01*
X212822Y576767D01*
X212824Y576762D01*
X214325Y576307D01*
X214332Y576309D01*
X214334Y576305D01*
X215895Y576151D01*
X215898Y576153D01*
X215900Y576151D01*
X239900Y576151D01*
X239947Y576187D01*
G37*
G36*
X239947Y525387D02*
X239947Y525387D01*
X239942Y525394D01*
X239949Y525400D01*
X239949Y541400D01*
X239913Y541447D01*
X239906Y541442D01*
X239900Y541449D01*
X215900Y541449D01*
X215897Y541447D01*
X215895Y541449D01*
X214334Y541295D01*
X214329Y541290D01*
X214325Y541293D01*
X212824Y540838D01*
X212820Y540832D01*
X212815Y540834D01*
X211432Y540095D01*
X211429Y540089D01*
X211424Y540090D01*
X210212Y539095D01*
X210210Y539088D01*
X210205Y539088D01*
X209210Y537876D01*
X209210Y537869D01*
X209205Y537868D01*
X208466Y536485D01*
X208467Y536478D01*
X208462Y536476D01*
X208007Y534975D01*
X208008Y534970D01*
X208006Y534968D01*
X208007Y534967D01*
X208005Y534966D01*
X207851Y533405D01*
X207855Y533399D01*
X207851Y533395D01*
X208005Y531834D01*
X208010Y531829D01*
X208007Y531825D01*
X208462Y530324D01*
X208468Y530320D01*
X208466Y530315D01*
X209205Y528932D01*
X209211Y528929D01*
X209210Y528924D01*
X210205Y527712D01*
X210212Y527710D01*
X210212Y527705D01*
X211424Y526710D01*
X211431Y526710D01*
X211432Y526705D01*
X212815Y525966D01*
X212822Y525967D01*
X212824Y525962D01*
X214325Y525507D01*
X214332Y525509D01*
X214334Y525505D01*
X215895Y525351D01*
X215898Y525353D01*
X215900Y525351D01*
X239900Y525351D01*
X239947Y525387D01*
G37*
G36*
X239947Y499987D02*
X239947Y499987D01*
X239942Y499994D01*
X239949Y500000D01*
X239949Y516000D01*
X239913Y516047D01*
X239906Y516042D01*
X239900Y516049D01*
X215900Y516049D01*
X215897Y516047D01*
X215895Y516049D01*
X214334Y515895D01*
X214329Y515890D01*
X214325Y515893D01*
X212824Y515438D01*
X212820Y515432D01*
X212815Y515434D01*
X211432Y514695D01*
X211429Y514689D01*
X211424Y514690D01*
X210212Y513695D01*
X210210Y513688D01*
X210205Y513688D01*
X209210Y512476D01*
X209210Y512469D01*
X209205Y512468D01*
X208466Y511085D01*
X208467Y511078D01*
X208462Y511076D01*
X208007Y509575D01*
X208008Y509570D01*
X208006Y509568D01*
X208007Y509567D01*
X208005Y509566D01*
X207851Y508005D01*
X207855Y507999D01*
X207851Y507995D01*
X208005Y506434D01*
X208010Y506429D01*
X208007Y506425D01*
X208462Y504924D01*
X208468Y504920D01*
X208466Y504915D01*
X209205Y503532D01*
X209211Y503529D01*
X209210Y503524D01*
X210205Y502312D01*
X210212Y502310D01*
X210212Y502305D01*
X211424Y501310D01*
X211431Y501310D01*
X211432Y501305D01*
X212815Y500566D01*
X212822Y500567D01*
X212824Y500562D01*
X214325Y500107D01*
X214332Y500109D01*
X214334Y500105D01*
X215895Y499951D01*
X215898Y499953D01*
X215900Y499951D01*
X239900Y499951D01*
X239947Y499987D01*
G37*
G36*
X239947Y474587D02*
X239947Y474587D01*
X239942Y474594D01*
X239949Y474600D01*
X239949Y490600D01*
X239913Y490647D01*
X239906Y490642D01*
X239900Y490649D01*
X215900Y490649D01*
X215897Y490647D01*
X215895Y490649D01*
X214334Y490495D01*
X214329Y490490D01*
X214325Y490493D01*
X212824Y490038D01*
X212820Y490032D01*
X212815Y490034D01*
X211432Y489295D01*
X211429Y489289D01*
X211424Y489290D01*
X210212Y488295D01*
X210210Y488288D01*
X210205Y488288D01*
X209210Y487076D01*
X209210Y487069D01*
X209205Y487068D01*
X208466Y485685D01*
X208467Y485678D01*
X208462Y485676D01*
X208007Y484175D01*
X208008Y484170D01*
X208006Y484168D01*
X208007Y484167D01*
X208005Y484166D01*
X207851Y482605D01*
X207855Y482599D01*
X207851Y482595D01*
X208005Y481034D01*
X208010Y481029D01*
X208007Y481025D01*
X208462Y479524D01*
X208468Y479520D01*
X208466Y479515D01*
X209205Y478132D01*
X209211Y478129D01*
X209210Y478124D01*
X210205Y476912D01*
X210212Y476910D01*
X210212Y476905D01*
X211424Y475910D01*
X211431Y475910D01*
X211432Y475905D01*
X212815Y475166D01*
X212822Y475167D01*
X212824Y475162D01*
X214325Y474707D01*
X214332Y474709D01*
X214334Y474705D01*
X215895Y474551D01*
X215898Y474553D01*
X215900Y474551D01*
X239900Y474551D01*
X239947Y474587D01*
G37*
G36*
X239947Y398387D02*
X239947Y398387D01*
X239942Y398394D01*
X239949Y398400D01*
X239949Y414400D01*
X239913Y414447D01*
X239906Y414442D01*
X239900Y414449D01*
X215900Y414449D01*
X215897Y414447D01*
X215895Y414449D01*
X214334Y414295D01*
X214329Y414290D01*
X214325Y414293D01*
X212824Y413838D01*
X212820Y413832D01*
X212815Y413834D01*
X211432Y413095D01*
X211429Y413089D01*
X211424Y413090D01*
X210212Y412095D01*
X210210Y412088D01*
X210205Y412088D01*
X209210Y410876D01*
X209210Y410869D01*
X209205Y410868D01*
X208466Y409485D01*
X208467Y409478D01*
X208462Y409476D01*
X208007Y407975D01*
X208008Y407970D01*
X208006Y407968D01*
X208007Y407967D01*
X208005Y407966D01*
X207851Y406405D01*
X207855Y406399D01*
X207851Y406395D01*
X208005Y404834D01*
X208010Y404829D01*
X208007Y404825D01*
X208462Y403324D01*
X208468Y403320D01*
X208466Y403315D01*
X209205Y401932D01*
X209211Y401929D01*
X209210Y401924D01*
X210205Y400712D01*
X210212Y400710D01*
X210212Y400705D01*
X211424Y399710D01*
X211431Y399710D01*
X211432Y399705D01*
X212815Y398966D01*
X212822Y398967D01*
X212824Y398962D01*
X214325Y398507D01*
X214332Y398509D01*
X214334Y398505D01*
X215895Y398351D01*
X215898Y398353D01*
X215900Y398351D01*
X239900Y398351D01*
X239947Y398387D01*
G37*
G36*
X239947Y372987D02*
X239947Y372987D01*
X239942Y372994D01*
X239949Y373000D01*
X239949Y389000D01*
X239913Y389047D01*
X239906Y389042D01*
X239900Y389049D01*
X215900Y389049D01*
X215897Y389047D01*
X215895Y389049D01*
X214334Y388895D01*
X214329Y388890D01*
X214325Y388893D01*
X212824Y388438D01*
X212820Y388432D01*
X212815Y388434D01*
X211432Y387695D01*
X211429Y387689D01*
X211424Y387690D01*
X210212Y386695D01*
X210210Y386688D01*
X210205Y386688D01*
X209210Y385476D01*
X209210Y385469D01*
X209205Y385468D01*
X208466Y384085D01*
X208467Y384078D01*
X208462Y384076D01*
X208007Y382575D01*
X208008Y382570D01*
X208006Y382568D01*
X208007Y382567D01*
X208005Y382566D01*
X207851Y381005D01*
X207855Y380999D01*
X207851Y380995D01*
X208005Y379434D01*
X208010Y379429D01*
X208007Y379425D01*
X208462Y377924D01*
X208468Y377920D01*
X208466Y377915D01*
X209205Y376532D01*
X209211Y376529D01*
X209210Y376524D01*
X210205Y375312D01*
X210212Y375310D01*
X210212Y375305D01*
X211424Y374310D01*
X211431Y374310D01*
X211432Y374305D01*
X212815Y373566D01*
X212822Y373567D01*
X212824Y373562D01*
X214325Y373107D01*
X214332Y373109D01*
X214334Y373105D01*
X215895Y372951D01*
X215898Y372953D01*
X215900Y372951D01*
X239900Y372951D01*
X239947Y372987D01*
G37*
G36*
X239947Y347587D02*
X239947Y347587D01*
X239942Y347594D01*
X239949Y347600D01*
X239949Y363600D01*
X239913Y363647D01*
X239906Y363642D01*
X239900Y363649D01*
X215900Y363649D01*
X215897Y363647D01*
X215895Y363649D01*
X214334Y363495D01*
X214329Y363490D01*
X214325Y363493D01*
X212824Y363038D01*
X212820Y363032D01*
X212815Y363034D01*
X211432Y362295D01*
X211429Y362289D01*
X211424Y362290D01*
X210212Y361295D01*
X210210Y361288D01*
X210205Y361288D01*
X209210Y360076D01*
X209210Y360069D01*
X209205Y360068D01*
X208466Y358685D01*
X208467Y358678D01*
X208462Y358676D01*
X208007Y357175D01*
X208008Y357170D01*
X208006Y357168D01*
X208007Y357167D01*
X208005Y357166D01*
X207851Y355605D01*
X207855Y355599D01*
X207851Y355595D01*
X208005Y354034D01*
X208010Y354029D01*
X208007Y354025D01*
X208462Y352524D01*
X208468Y352520D01*
X208466Y352515D01*
X209205Y351132D01*
X209211Y351129D01*
X209210Y351124D01*
X210205Y349912D01*
X210212Y349910D01*
X210212Y349905D01*
X211424Y348910D01*
X211431Y348910D01*
X211432Y348905D01*
X212815Y348166D01*
X212822Y348167D01*
X212824Y348162D01*
X214325Y347707D01*
X214332Y347709D01*
X214334Y347705D01*
X215895Y347551D01*
X215898Y347553D01*
X215900Y347551D01*
X239900Y347551D01*
X239947Y347587D01*
G37*
G36*
X239947Y322187D02*
X239947Y322187D01*
X239942Y322194D01*
X239949Y322200D01*
X239949Y338200D01*
X239913Y338247D01*
X239906Y338242D01*
X239900Y338249D01*
X215900Y338249D01*
X215897Y338247D01*
X215895Y338249D01*
X214334Y338095D01*
X214329Y338090D01*
X214325Y338093D01*
X212824Y337638D01*
X212820Y337632D01*
X212815Y337634D01*
X211432Y336895D01*
X211429Y336889D01*
X211424Y336890D01*
X210212Y335895D01*
X210210Y335888D01*
X210205Y335888D01*
X209210Y334676D01*
X209210Y334669D01*
X209205Y334668D01*
X208466Y333285D01*
X208467Y333278D01*
X208462Y333276D01*
X208007Y331775D01*
X208008Y331770D01*
X208006Y331768D01*
X208007Y331767D01*
X208005Y331766D01*
X207851Y330205D01*
X207855Y330199D01*
X207851Y330195D01*
X208005Y328634D01*
X208010Y328629D01*
X208007Y328625D01*
X208462Y327124D01*
X208468Y327120D01*
X208466Y327115D01*
X209205Y325732D01*
X209211Y325729D01*
X209210Y325724D01*
X210205Y324512D01*
X210212Y324510D01*
X210212Y324505D01*
X211424Y323510D01*
X211431Y323510D01*
X211432Y323505D01*
X212815Y322766D01*
X212822Y322767D01*
X212824Y322762D01*
X214325Y322307D01*
X214332Y322309D01*
X214334Y322305D01*
X215895Y322151D01*
X215898Y322153D01*
X215900Y322151D01*
X239900Y322151D01*
X239947Y322187D01*
G37*
G36*
X239947Y449187D02*
X239947Y449187D01*
X239942Y449194D01*
X239949Y449200D01*
X239949Y465200D01*
X239913Y465247D01*
X239906Y465242D01*
X239900Y465249D01*
X215900Y465249D01*
X215897Y465247D01*
X215895Y465249D01*
X214334Y465095D01*
X214329Y465090D01*
X214325Y465093D01*
X212824Y464638D01*
X212820Y464632D01*
X212815Y464634D01*
X211432Y463895D01*
X211429Y463889D01*
X211424Y463890D01*
X210212Y462895D01*
X210210Y462888D01*
X210205Y462888D01*
X209210Y461676D01*
X209210Y461669D01*
X209205Y461668D01*
X208466Y460285D01*
X208467Y460278D01*
X208462Y460276D01*
X208007Y458775D01*
X208009Y458770D01*
X208006Y458768D01*
X208007Y458767D01*
X208005Y458766D01*
X207851Y457205D01*
X207855Y457199D01*
X207851Y457195D01*
X208005Y455634D01*
X208010Y455629D01*
X208007Y455625D01*
X208462Y454124D01*
X208468Y454120D01*
X208466Y454115D01*
X209205Y452732D01*
X209211Y452729D01*
X209210Y452724D01*
X210205Y451512D01*
X210212Y451510D01*
X210212Y451505D01*
X211424Y450510D01*
X211431Y450510D01*
X211432Y450505D01*
X212815Y449766D01*
X212822Y449767D01*
X212824Y449762D01*
X214325Y449307D01*
X214332Y449309D01*
X214334Y449305D01*
X215895Y449151D01*
X215898Y449153D01*
X215900Y449151D01*
X239900Y449151D01*
X239947Y449187D01*
G37*
G36*
X38103Y728553D02*
X38103Y728553D01*
X38105Y728551D01*
X39666Y728705D01*
X39671Y728710D01*
X39675Y728707D01*
X41176Y729162D01*
X41180Y729168D01*
X41185Y729166D01*
X42568Y729905D01*
X42571Y729911D01*
X42576Y729910D01*
X43788Y730905D01*
X43790Y730912D01*
X43795Y730912D01*
X44790Y732124D01*
X44790Y732131D01*
X44795Y732132D01*
X45534Y733515D01*
X45533Y733522D01*
X45538Y733524D01*
X45609Y733758D01*
X45803Y734398D01*
X45993Y735025D01*
X45991Y735032D01*
X45995Y735034D01*
X46149Y736595D01*
X46145Y736601D01*
X46149Y736605D01*
X45995Y738166D01*
X45990Y738171D01*
X45993Y738175D01*
X45538Y739676D01*
X45532Y739680D01*
X45534Y739685D01*
X44795Y741068D01*
X44789Y741071D01*
X44790Y741076D01*
X43795Y742288D01*
X43788Y742290D01*
X43788Y742295D01*
X42576Y743290D01*
X42569Y743290D01*
X42568Y743295D01*
X41185Y744034D01*
X41178Y744033D01*
X41176Y744038D01*
X39675Y744493D01*
X39668Y744491D01*
X39666Y744495D01*
X38105Y744649D01*
X38102Y744647D01*
X38100Y744649D01*
X14100Y744649D01*
X14053Y744613D01*
X14058Y744606D01*
X14051Y744600D01*
X14051Y728600D01*
X14087Y728553D01*
X14094Y728558D01*
X14100Y728551D01*
X38100Y728551D01*
X38103Y728553D01*
G37*
G36*
X38103Y703153D02*
X38103Y703153D01*
X38105Y703151D01*
X39666Y703305D01*
X39671Y703310D01*
X39675Y703307D01*
X41176Y703762D01*
X41180Y703768D01*
X41185Y703766D01*
X42568Y704505D01*
X42571Y704511D01*
X42576Y704510D01*
X43788Y705505D01*
X43790Y705512D01*
X43795Y705512D01*
X44790Y706724D01*
X44790Y706731D01*
X44795Y706732D01*
X45534Y708115D01*
X45533Y708122D01*
X45538Y708124D01*
X45609Y708358D01*
X45803Y708998D01*
X45993Y709625D01*
X45991Y709632D01*
X45995Y709634D01*
X46149Y711195D01*
X46145Y711201D01*
X46149Y711205D01*
X45995Y712766D01*
X45990Y712771D01*
X45993Y712775D01*
X45538Y714276D01*
X45532Y714280D01*
X45534Y714285D01*
X44795Y715668D01*
X44789Y715671D01*
X44790Y715676D01*
X43795Y716888D01*
X43788Y716890D01*
X43788Y716895D01*
X42576Y717890D01*
X42569Y717890D01*
X42568Y717895D01*
X41185Y718634D01*
X41178Y718633D01*
X41176Y718638D01*
X39675Y719093D01*
X39668Y719091D01*
X39666Y719095D01*
X38105Y719249D01*
X38102Y719247D01*
X38100Y719249D01*
X14100Y719249D01*
X14053Y719213D01*
X14058Y719206D01*
X14051Y719200D01*
X14051Y703200D01*
X14087Y703153D01*
X14094Y703158D01*
X14100Y703151D01*
X38100Y703151D01*
X38103Y703153D01*
G37*
G36*
X38103Y372953D02*
X38103Y372953D01*
X38105Y372951D01*
X39666Y373105D01*
X39671Y373110D01*
X39675Y373107D01*
X41176Y373562D01*
X41180Y373568D01*
X41185Y373566D01*
X42568Y374305D01*
X42571Y374311D01*
X42576Y374310D01*
X43788Y375305D01*
X43790Y375312D01*
X43795Y375312D01*
X44790Y376524D01*
X44790Y376531D01*
X44795Y376532D01*
X45534Y377915D01*
X45533Y377922D01*
X45538Y377924D01*
X45609Y378158D01*
X45803Y378798D01*
X45993Y379425D01*
X45991Y379432D01*
X45995Y379434D01*
X46149Y380995D01*
X46145Y381001D01*
X46149Y381005D01*
X45995Y382566D01*
X45990Y382571D01*
X45993Y382575D01*
X45538Y384076D01*
X45532Y384080D01*
X45534Y384085D01*
X44795Y385468D01*
X44789Y385471D01*
X44790Y385476D01*
X43795Y386688D01*
X43788Y386690D01*
X43788Y386695D01*
X42576Y387690D01*
X42569Y387690D01*
X42568Y387695D01*
X41185Y388434D01*
X41178Y388433D01*
X41176Y388438D01*
X39675Y388893D01*
X39668Y388891D01*
X39666Y388895D01*
X38105Y389049D01*
X38102Y389047D01*
X38100Y389049D01*
X14100Y389049D01*
X14053Y389013D01*
X14058Y389006D01*
X14051Y389000D01*
X14051Y373000D01*
X14087Y372953D01*
X14094Y372958D01*
X14100Y372951D01*
X38100Y372951D01*
X38103Y372953D01*
G37*
G36*
X38103Y474553D02*
X38103Y474553D01*
X38105Y474551D01*
X39666Y474705D01*
X39671Y474710D01*
X39675Y474707D01*
X41176Y475162D01*
X41180Y475168D01*
X41185Y475166D01*
X42568Y475905D01*
X42571Y475911D01*
X42576Y475910D01*
X43788Y476905D01*
X43790Y476912D01*
X43795Y476912D01*
X44790Y478124D01*
X44790Y478131D01*
X44795Y478132D01*
X45534Y479515D01*
X45533Y479522D01*
X45538Y479524D01*
X45609Y479758D01*
X45803Y480398D01*
X45993Y481025D01*
X45991Y481032D01*
X45995Y481034D01*
X46149Y482595D01*
X46145Y482601D01*
X46149Y482605D01*
X45995Y484166D01*
X45990Y484171D01*
X45993Y484175D01*
X45538Y485676D01*
X45532Y485680D01*
X45534Y485685D01*
X44795Y487068D01*
X44789Y487071D01*
X44790Y487076D01*
X43795Y488288D01*
X43788Y488290D01*
X43788Y488295D01*
X42576Y489290D01*
X42569Y489290D01*
X42568Y489295D01*
X41185Y490034D01*
X41178Y490033D01*
X41176Y490038D01*
X39675Y490493D01*
X39668Y490491D01*
X39666Y490495D01*
X38105Y490649D01*
X38102Y490647D01*
X38100Y490649D01*
X14100Y490649D01*
X14053Y490613D01*
X14058Y490606D01*
X14051Y490600D01*
X14051Y474600D01*
X14087Y474553D01*
X14094Y474558D01*
X14100Y474551D01*
X38100Y474551D01*
X38103Y474553D01*
G37*
G36*
X38103Y347553D02*
X38103Y347553D01*
X38105Y347551D01*
X39666Y347705D01*
X39671Y347710D01*
X39675Y347707D01*
X41176Y348162D01*
X41180Y348168D01*
X41185Y348166D01*
X42568Y348905D01*
X42571Y348911D01*
X42576Y348910D01*
X43788Y349905D01*
X43790Y349912D01*
X43795Y349912D01*
X44790Y351124D01*
X44790Y351131D01*
X44795Y351132D01*
X45534Y352515D01*
X45533Y352522D01*
X45538Y352524D01*
X45609Y352758D01*
X45803Y353398D01*
X45993Y354025D01*
X45991Y354032D01*
X45995Y354034D01*
X46149Y355595D01*
X46145Y355601D01*
X46149Y355605D01*
X45995Y357166D01*
X45990Y357171D01*
X45993Y357175D01*
X45538Y358676D01*
X45532Y358680D01*
X45534Y358685D01*
X44795Y360068D01*
X44789Y360071D01*
X44790Y360076D01*
X43795Y361288D01*
X43788Y361290D01*
X43788Y361295D01*
X42576Y362290D01*
X42569Y362290D01*
X42568Y362295D01*
X41185Y363034D01*
X41178Y363033D01*
X41176Y363038D01*
X39675Y363493D01*
X39668Y363491D01*
X39666Y363495D01*
X38105Y363649D01*
X38102Y363647D01*
X38100Y363649D01*
X14100Y363649D01*
X14053Y363613D01*
X14058Y363606D01*
X14051Y363600D01*
X14051Y347600D01*
X14087Y347553D01*
X14094Y347558D01*
X14100Y347551D01*
X38100Y347551D01*
X38103Y347553D01*
G37*
G36*
X38103Y499953D02*
X38103Y499953D01*
X38105Y499951D01*
X39666Y500105D01*
X39671Y500110D01*
X39675Y500107D01*
X41176Y500562D01*
X41180Y500568D01*
X41185Y500566D01*
X42568Y501305D01*
X42571Y501311D01*
X42576Y501310D01*
X43788Y502305D01*
X43790Y502312D01*
X43795Y502312D01*
X44790Y503524D01*
X44790Y503531D01*
X44795Y503532D01*
X45534Y504915D01*
X45533Y504922D01*
X45538Y504924D01*
X45609Y505158D01*
X45803Y505798D01*
X45993Y506425D01*
X45991Y506432D01*
X45995Y506434D01*
X46149Y507995D01*
X46145Y508001D01*
X46149Y508005D01*
X45995Y509566D01*
X45990Y509571D01*
X45993Y509575D01*
X45538Y511076D01*
X45532Y511080D01*
X45534Y511085D01*
X44795Y512468D01*
X44789Y512471D01*
X44790Y512476D01*
X43795Y513688D01*
X43788Y513690D01*
X43788Y513695D01*
X42576Y514690D01*
X42569Y514690D01*
X42568Y514695D01*
X41185Y515434D01*
X41178Y515433D01*
X41176Y515438D01*
X39675Y515893D01*
X39668Y515891D01*
X39666Y515895D01*
X38105Y516049D01*
X38102Y516047D01*
X38100Y516049D01*
X14100Y516049D01*
X14053Y516013D01*
X14058Y516006D01*
X14051Y516000D01*
X14051Y500000D01*
X14087Y499953D01*
X14094Y499958D01*
X14100Y499951D01*
X38100Y499951D01*
X38103Y499953D01*
G37*
G36*
X38103Y322153D02*
X38103Y322153D01*
X38105Y322151D01*
X39666Y322305D01*
X39671Y322310D01*
X39675Y322307D01*
X41176Y322762D01*
X41180Y322768D01*
X41185Y322766D01*
X42568Y323505D01*
X42571Y323511D01*
X42576Y323510D01*
X43788Y324505D01*
X43790Y324512D01*
X43795Y324512D01*
X44790Y325724D01*
X44790Y325731D01*
X44795Y325732D01*
X45534Y327115D01*
X45533Y327122D01*
X45538Y327124D01*
X45609Y327358D01*
X45803Y327998D01*
X45993Y328625D01*
X45991Y328632D01*
X45995Y328634D01*
X46149Y330195D01*
X46145Y330201D01*
X46149Y330205D01*
X45995Y331766D01*
X45990Y331771D01*
X45993Y331775D01*
X45538Y333276D01*
X45532Y333280D01*
X45534Y333285D01*
X44795Y334668D01*
X44789Y334671D01*
X44790Y334676D01*
X43795Y335888D01*
X43788Y335890D01*
X43788Y335895D01*
X42576Y336890D01*
X42569Y336890D01*
X42568Y336895D01*
X41185Y337634D01*
X41178Y337633D01*
X41176Y337638D01*
X39675Y338093D01*
X39668Y338091D01*
X39666Y338095D01*
X38105Y338249D01*
X38102Y338247D01*
X38100Y338249D01*
X14100Y338249D01*
X14053Y338213D01*
X14058Y338206D01*
X14051Y338200D01*
X14051Y322200D01*
X14087Y322153D01*
X14094Y322158D01*
X14100Y322151D01*
X38100Y322151D01*
X38103Y322153D01*
G37*
G36*
X38103Y525353D02*
X38103Y525353D01*
X38105Y525351D01*
X39666Y525505D01*
X39671Y525510D01*
X39675Y525507D01*
X41176Y525962D01*
X41180Y525968D01*
X41185Y525966D01*
X42568Y526705D01*
X42571Y526711D01*
X42576Y526710D01*
X43788Y527705D01*
X43790Y527712D01*
X43795Y527712D01*
X44790Y528924D01*
X44790Y528931D01*
X44795Y528932D01*
X45534Y530315D01*
X45533Y530322D01*
X45538Y530324D01*
X45609Y530558D01*
X45803Y531198D01*
X45993Y531825D01*
X45991Y531832D01*
X45995Y531834D01*
X46149Y533395D01*
X46145Y533401D01*
X46149Y533405D01*
X45995Y534966D01*
X45990Y534971D01*
X45993Y534975D01*
X45538Y536476D01*
X45532Y536480D01*
X45534Y536485D01*
X44795Y537868D01*
X44789Y537871D01*
X44790Y537876D01*
X43795Y539088D01*
X43788Y539090D01*
X43788Y539095D01*
X42576Y540090D01*
X42569Y540090D01*
X42568Y540095D01*
X41185Y540834D01*
X41178Y540833D01*
X41176Y540838D01*
X39675Y541293D01*
X39668Y541291D01*
X39666Y541295D01*
X38105Y541449D01*
X38102Y541447D01*
X38100Y541449D01*
X14100Y541449D01*
X14053Y541413D01*
X14058Y541406D01*
X14051Y541400D01*
X14051Y525400D01*
X14087Y525353D01*
X14094Y525358D01*
X14100Y525351D01*
X38100Y525351D01*
X38103Y525353D01*
G37*
G36*
X38103Y576153D02*
X38103Y576153D01*
X38105Y576151D01*
X39666Y576305D01*
X39671Y576310D01*
X39675Y576307D01*
X41176Y576762D01*
X41180Y576768D01*
X41185Y576766D01*
X42568Y577505D01*
X42571Y577511D01*
X42576Y577510D01*
X43788Y578505D01*
X43790Y578512D01*
X43795Y578512D01*
X44790Y579724D01*
X44790Y579731D01*
X44795Y579732D01*
X45534Y581115D01*
X45533Y581122D01*
X45538Y581124D01*
X45609Y581358D01*
X45803Y581998D01*
X45993Y582625D01*
X45991Y582632D01*
X45995Y582634D01*
X46149Y584195D01*
X46145Y584201D01*
X46149Y584205D01*
X45995Y585766D01*
X45990Y585771D01*
X45993Y585775D01*
X45538Y587276D01*
X45532Y587280D01*
X45534Y587285D01*
X44795Y588668D01*
X44789Y588671D01*
X44790Y588676D01*
X43795Y589888D01*
X43788Y589890D01*
X43788Y589895D01*
X42576Y590890D01*
X42569Y590890D01*
X42568Y590895D01*
X41185Y591634D01*
X41178Y591633D01*
X41176Y591638D01*
X39675Y592093D01*
X39668Y592091D01*
X39666Y592095D01*
X38105Y592249D01*
X38102Y592247D01*
X38100Y592249D01*
X14100Y592249D01*
X14053Y592213D01*
X14058Y592206D01*
X14051Y592200D01*
X14051Y576200D01*
X14087Y576153D01*
X14094Y576158D01*
X14100Y576151D01*
X38100Y576151D01*
X38103Y576153D01*
G37*
G36*
X38103Y398353D02*
X38103Y398353D01*
X38105Y398351D01*
X39666Y398505D01*
X39671Y398510D01*
X39675Y398507D01*
X41176Y398962D01*
X41180Y398968D01*
X41185Y398966D01*
X42568Y399705D01*
X42571Y399711D01*
X42576Y399710D01*
X43788Y400705D01*
X43790Y400712D01*
X43795Y400712D01*
X44790Y401924D01*
X44790Y401931D01*
X44795Y401932D01*
X45534Y403315D01*
X45533Y403322D01*
X45538Y403324D01*
X45609Y403558D01*
X45803Y404198D01*
X45993Y404825D01*
X45991Y404832D01*
X45995Y404834D01*
X46149Y406395D01*
X46145Y406401D01*
X46149Y406405D01*
X45995Y407966D01*
X45990Y407971D01*
X45993Y407975D01*
X45538Y409476D01*
X45532Y409480D01*
X45534Y409485D01*
X44795Y410868D01*
X44789Y410871D01*
X44790Y410876D01*
X43795Y412088D01*
X43788Y412090D01*
X43788Y412095D01*
X42576Y413090D01*
X42569Y413090D01*
X42568Y413095D01*
X41185Y413834D01*
X41178Y413833D01*
X41176Y413838D01*
X39675Y414293D01*
X39668Y414291D01*
X39666Y414295D01*
X38105Y414449D01*
X38102Y414447D01*
X38100Y414449D01*
X14100Y414449D01*
X14053Y414413D01*
X14058Y414406D01*
X14051Y414400D01*
X14051Y398400D01*
X14087Y398353D01*
X14094Y398358D01*
X14100Y398351D01*
X38100Y398351D01*
X38103Y398353D01*
G37*
G36*
X38103Y601553D02*
X38103Y601553D01*
X38105Y601551D01*
X39666Y601705D01*
X39671Y601710D01*
X39675Y601707D01*
X41176Y602162D01*
X41180Y602168D01*
X41185Y602166D01*
X42568Y602905D01*
X42571Y602911D01*
X42576Y602910D01*
X43788Y603905D01*
X43790Y603912D01*
X43795Y603912D01*
X44790Y605124D01*
X44790Y605131D01*
X44795Y605132D01*
X45534Y606515D01*
X45533Y606522D01*
X45538Y606524D01*
X45609Y606758D01*
X45803Y607398D01*
X45993Y608025D01*
X45991Y608032D01*
X45995Y608034D01*
X46149Y609595D01*
X46145Y609601D01*
X46149Y609605D01*
X45995Y611166D01*
X45990Y611171D01*
X45993Y611175D01*
X45538Y612676D01*
X45532Y612680D01*
X45534Y612685D01*
X44795Y614068D01*
X44789Y614071D01*
X44790Y614076D01*
X43795Y615288D01*
X43788Y615290D01*
X43788Y615295D01*
X42576Y616290D01*
X42569Y616290D01*
X42568Y616295D01*
X41185Y617034D01*
X41178Y617033D01*
X41176Y617038D01*
X39675Y617493D01*
X39668Y617491D01*
X39666Y617495D01*
X38105Y617649D01*
X38102Y617647D01*
X38100Y617649D01*
X14100Y617649D01*
X14053Y617613D01*
X14058Y617606D01*
X14051Y617600D01*
X14051Y601600D01*
X14087Y601553D01*
X14094Y601558D01*
X14100Y601551D01*
X38100Y601551D01*
X38103Y601553D01*
G37*
G36*
X38103Y626953D02*
X38103Y626953D01*
X38105Y626951D01*
X39666Y627105D01*
X39671Y627110D01*
X39675Y627107D01*
X41176Y627562D01*
X41180Y627568D01*
X41185Y627566D01*
X42568Y628305D01*
X42571Y628311D01*
X42576Y628310D01*
X43788Y629305D01*
X43790Y629312D01*
X43795Y629312D01*
X44790Y630524D01*
X44790Y630531D01*
X44795Y630532D01*
X45534Y631915D01*
X45533Y631922D01*
X45538Y631924D01*
X45609Y632158D01*
X45803Y632798D01*
X45993Y633425D01*
X45991Y633432D01*
X45995Y633434D01*
X46149Y634995D01*
X46145Y635001D01*
X46149Y635005D01*
X45995Y636566D01*
X45990Y636571D01*
X45993Y636575D01*
X45538Y638076D01*
X45532Y638080D01*
X45534Y638085D01*
X44795Y639468D01*
X44789Y639471D01*
X44790Y639476D01*
X43795Y640688D01*
X43788Y640690D01*
X43788Y640695D01*
X42576Y641690D01*
X42569Y641690D01*
X42568Y641695D01*
X41185Y642434D01*
X41178Y642433D01*
X41176Y642438D01*
X39675Y642893D01*
X39668Y642891D01*
X39666Y642895D01*
X38105Y643049D01*
X38102Y643047D01*
X38100Y643049D01*
X14100Y643049D01*
X14053Y643013D01*
X14058Y643006D01*
X14051Y643000D01*
X14051Y627000D01*
X14087Y626953D01*
X14094Y626958D01*
X14100Y626951D01*
X38100Y626951D01*
X38103Y626953D01*
G37*
G36*
X38103Y652353D02*
X38103Y652353D01*
X38105Y652351D01*
X39666Y652505D01*
X39671Y652510D01*
X39675Y652507D01*
X41176Y652962D01*
X41180Y652968D01*
X41185Y652966D01*
X42568Y653705D01*
X42571Y653711D01*
X42576Y653710D01*
X43788Y654705D01*
X43790Y654712D01*
X43795Y654712D01*
X44790Y655924D01*
X44790Y655931D01*
X44795Y655932D01*
X45534Y657315D01*
X45533Y657322D01*
X45538Y657324D01*
X45609Y657558D01*
X45803Y658198D01*
X45993Y658825D01*
X45991Y658832D01*
X45995Y658834D01*
X46149Y660395D01*
X46145Y660401D01*
X46149Y660405D01*
X45995Y661966D01*
X45990Y661971D01*
X45993Y661975D01*
X45538Y663476D01*
X45532Y663480D01*
X45534Y663485D01*
X44795Y664868D01*
X44789Y664871D01*
X44790Y664876D01*
X43795Y666088D01*
X43788Y666090D01*
X43788Y666095D01*
X42576Y667090D01*
X42569Y667090D01*
X42568Y667095D01*
X41185Y667834D01*
X41178Y667833D01*
X41176Y667838D01*
X39675Y668293D01*
X39668Y668291D01*
X39666Y668295D01*
X38105Y668449D01*
X38102Y668447D01*
X38100Y668449D01*
X14100Y668449D01*
X14053Y668413D01*
X14058Y668406D01*
X14051Y668400D01*
X14051Y652400D01*
X14087Y652353D01*
X14094Y652358D01*
X14100Y652351D01*
X38100Y652351D01*
X38103Y652353D01*
G37*
G36*
X38103Y245953D02*
X38103Y245953D01*
X38105Y245951D01*
X39666Y246105D01*
X39671Y246110D01*
X39675Y246107D01*
X41176Y246562D01*
X41180Y246568D01*
X41185Y246566D01*
X42568Y247305D01*
X42571Y247311D01*
X42576Y247310D01*
X43788Y248305D01*
X43790Y248312D01*
X43795Y248312D01*
X44790Y249524D01*
X44790Y249531D01*
X44795Y249532D01*
X45534Y250915D01*
X45533Y250922D01*
X45538Y250924D01*
X45609Y251158D01*
X45803Y251798D01*
X45993Y252425D01*
X45991Y252432D01*
X45995Y252434D01*
X46149Y253995D01*
X46145Y254001D01*
X46149Y254005D01*
X45995Y255566D01*
X45990Y255571D01*
X45993Y255575D01*
X45538Y257076D01*
X45532Y257080D01*
X45534Y257085D01*
X44795Y258468D01*
X44789Y258471D01*
X44790Y258476D01*
X43795Y259688D01*
X43788Y259690D01*
X43788Y259695D01*
X42576Y260690D01*
X42569Y260690D01*
X42568Y260695D01*
X41185Y261434D01*
X41178Y261433D01*
X41176Y261438D01*
X39675Y261893D01*
X39668Y261891D01*
X39666Y261895D01*
X38105Y262049D01*
X38102Y262047D01*
X38100Y262049D01*
X14100Y262049D01*
X14053Y262013D01*
X14058Y262006D01*
X14051Y262000D01*
X14051Y246000D01*
X14087Y245953D01*
X14094Y245958D01*
X14100Y245951D01*
X38100Y245951D01*
X38103Y245953D01*
G37*
G36*
X38103Y271353D02*
X38103Y271353D01*
X38105Y271351D01*
X39666Y271505D01*
X39671Y271510D01*
X39675Y271507D01*
X41176Y271962D01*
X41180Y271968D01*
X41185Y271966D01*
X42568Y272705D01*
X42571Y272711D01*
X42576Y272710D01*
X43788Y273705D01*
X43790Y273712D01*
X43795Y273712D01*
X44790Y274924D01*
X44790Y274931D01*
X44795Y274932D01*
X45534Y276315D01*
X45533Y276322D01*
X45538Y276324D01*
X45609Y276558D01*
X45803Y277198D01*
X45993Y277825D01*
X45991Y277832D01*
X45995Y277834D01*
X46149Y279395D01*
X46145Y279401D01*
X46149Y279405D01*
X45995Y280966D01*
X45990Y280971D01*
X45993Y280975D01*
X45538Y282476D01*
X45532Y282480D01*
X45534Y282485D01*
X44795Y283868D01*
X44789Y283871D01*
X44790Y283876D01*
X43795Y285088D01*
X43788Y285090D01*
X43788Y285095D01*
X42576Y286090D01*
X42569Y286090D01*
X42568Y286095D01*
X41185Y286834D01*
X41178Y286833D01*
X41176Y286838D01*
X39675Y287293D01*
X39668Y287291D01*
X39666Y287295D01*
X38105Y287449D01*
X38102Y287447D01*
X38100Y287449D01*
X14100Y287449D01*
X14053Y287413D01*
X14058Y287406D01*
X14051Y287400D01*
X14051Y271400D01*
X14087Y271353D01*
X14094Y271358D01*
X14100Y271351D01*
X38100Y271351D01*
X38103Y271353D01*
G37*
G36*
X38103Y449153D02*
X38103Y449153D01*
X38105Y449151D01*
X39666Y449305D01*
X39671Y449310D01*
X39675Y449307D01*
X41176Y449762D01*
X41180Y449768D01*
X41185Y449766D01*
X42568Y450505D01*
X42571Y450511D01*
X42576Y450510D01*
X43788Y451505D01*
X43790Y451512D01*
X43795Y451512D01*
X44790Y452724D01*
X44790Y452731D01*
X44795Y452732D01*
X45534Y454115D01*
X45533Y454122D01*
X45538Y454124D01*
X45669Y454555D01*
X45863Y455195D01*
X45993Y455625D01*
X45991Y455632D01*
X45995Y455634D01*
X46149Y457195D01*
X46145Y457201D01*
X46149Y457205D01*
X45995Y458766D01*
X45990Y458771D01*
X45993Y458775D01*
X45538Y460276D01*
X45532Y460280D01*
X45534Y460285D01*
X44795Y461668D01*
X44789Y461671D01*
X44790Y461676D01*
X43795Y462888D01*
X43788Y462890D01*
X43788Y462895D01*
X42576Y463890D01*
X42569Y463890D01*
X42568Y463895D01*
X41185Y464634D01*
X41178Y464633D01*
X41176Y464638D01*
X39675Y465093D01*
X39668Y465091D01*
X39666Y465095D01*
X38105Y465249D01*
X38102Y465247D01*
X38100Y465249D01*
X14100Y465249D01*
X14053Y465213D01*
X14058Y465206D01*
X14051Y465200D01*
X14051Y449200D01*
X14087Y449153D01*
X14094Y449158D01*
X14100Y449151D01*
X38100Y449151D01*
X38103Y449153D01*
G37*
D10*
X125226Y173094D02*
X118614Y173094D01*
X118614Y196106D01*
X125226Y196106D01*
X125226Y173094D01*
X125226Y174033D02*
X118614Y174033D01*
X118614Y174972D02*
X125226Y174972D01*
X125226Y175911D02*
X118614Y175911D01*
X118614Y176850D02*
X125226Y176850D01*
X125226Y177789D02*
X118614Y177789D01*
X118614Y178728D02*
X125226Y178728D01*
X125226Y179667D02*
X118614Y179667D01*
X118614Y180606D02*
X125226Y180606D01*
X125226Y181545D02*
X118614Y181545D01*
X118614Y182484D02*
X125226Y182484D01*
X125226Y183423D02*
X118614Y183423D01*
X118614Y184362D02*
X125226Y184362D01*
X125226Y185301D02*
X118614Y185301D01*
X118614Y186240D02*
X125226Y186240D01*
X125226Y187179D02*
X118614Y187179D01*
X118614Y188118D02*
X125226Y188118D01*
X125226Y189057D02*
X118614Y189057D01*
X118614Y189996D02*
X125226Y189996D01*
X125226Y190935D02*
X118614Y190935D01*
X118614Y191874D02*
X125226Y191874D01*
X125226Y192813D02*
X118614Y192813D01*
X118614Y193752D02*
X125226Y193752D01*
X125226Y194691D02*
X118614Y194691D01*
X118614Y195630D02*
X125226Y195630D01*
X131314Y173094D02*
X137926Y173094D01*
X131314Y173094D02*
X131314Y196106D01*
X137926Y196106D01*
X137926Y173094D01*
X137926Y174033D02*
X131314Y174033D01*
X131314Y174972D02*
X137926Y174972D01*
X137926Y175911D02*
X131314Y175911D01*
X131314Y176850D02*
X137926Y176850D01*
X137926Y177789D02*
X131314Y177789D01*
X131314Y178728D02*
X137926Y178728D01*
X137926Y179667D02*
X131314Y179667D01*
X131314Y180606D02*
X137926Y180606D01*
X137926Y181545D02*
X131314Y181545D01*
X131314Y182484D02*
X137926Y182484D01*
X137926Y183423D02*
X131314Y183423D01*
X131314Y184362D02*
X137926Y184362D01*
X137926Y185301D02*
X131314Y185301D01*
X131314Y186240D02*
X137926Y186240D01*
X137926Y187179D02*
X131314Y187179D01*
X131314Y188118D02*
X137926Y188118D01*
X137926Y189057D02*
X131314Y189057D01*
X131314Y189996D02*
X137926Y189996D01*
X137926Y190935D02*
X131314Y190935D01*
X131314Y191874D02*
X137926Y191874D01*
X137926Y192813D02*
X131314Y192813D01*
X131314Y193752D02*
X137926Y193752D01*
X137926Y194691D02*
X131314Y194691D01*
X131314Y195630D02*
X137926Y195630D01*
X144014Y173094D02*
X150626Y173094D01*
X144014Y173094D02*
X144014Y196106D01*
X150626Y196106D01*
X150626Y173094D01*
X150626Y174033D02*
X144014Y174033D01*
X144014Y174972D02*
X150626Y174972D01*
X150626Y175911D02*
X144014Y175911D01*
X144014Y176850D02*
X150626Y176850D01*
X150626Y177789D02*
X144014Y177789D01*
X144014Y178728D02*
X150626Y178728D01*
X150626Y179667D02*
X144014Y179667D01*
X144014Y180606D02*
X150626Y180606D01*
X150626Y181545D02*
X144014Y181545D01*
X144014Y182484D02*
X150626Y182484D01*
X150626Y183423D02*
X144014Y183423D01*
X144014Y184362D02*
X150626Y184362D01*
X150626Y185301D02*
X144014Y185301D01*
X144014Y186240D02*
X150626Y186240D01*
X150626Y187179D02*
X144014Y187179D01*
X144014Y188118D02*
X150626Y188118D01*
X150626Y189057D02*
X144014Y189057D01*
X144014Y189996D02*
X150626Y189996D01*
X150626Y190935D02*
X144014Y190935D01*
X144014Y191874D02*
X150626Y191874D01*
X150626Y192813D02*
X144014Y192813D01*
X144014Y193752D02*
X150626Y193752D01*
X150626Y194691D02*
X144014Y194691D01*
X144014Y195630D02*
X150626Y195630D01*
X112526Y173094D02*
X105914Y173094D01*
X105914Y196106D01*
X112526Y196106D01*
X112526Y173094D01*
X112526Y174033D02*
X105914Y174033D01*
X105914Y174972D02*
X112526Y174972D01*
X112526Y175911D02*
X105914Y175911D01*
X105914Y176850D02*
X112526Y176850D01*
X112526Y177789D02*
X105914Y177789D01*
X105914Y178728D02*
X112526Y178728D01*
X112526Y179667D02*
X105914Y179667D01*
X105914Y180606D02*
X112526Y180606D01*
X112526Y181545D02*
X105914Y181545D01*
X105914Y182484D02*
X112526Y182484D01*
X112526Y183423D02*
X105914Y183423D01*
X105914Y184362D02*
X112526Y184362D01*
X112526Y185301D02*
X105914Y185301D01*
X105914Y186240D02*
X112526Y186240D01*
X112526Y187179D02*
X105914Y187179D01*
X105914Y188118D02*
X112526Y188118D01*
X112526Y189057D02*
X105914Y189057D01*
X105914Y189996D02*
X112526Y189996D01*
X112526Y190935D02*
X105914Y190935D01*
X105914Y191874D02*
X112526Y191874D01*
X112526Y192813D02*
X105914Y192813D01*
X105914Y193752D02*
X112526Y193752D01*
X112526Y194691D02*
X105914Y194691D01*
X105914Y195630D02*
X112526Y195630D01*
X99826Y173094D02*
X93214Y173094D01*
X93214Y196106D01*
X99826Y196106D01*
X99826Y173094D01*
X99826Y174033D02*
X93214Y174033D01*
X93214Y174972D02*
X99826Y174972D01*
X99826Y175911D02*
X93214Y175911D01*
X93214Y176850D02*
X99826Y176850D01*
X99826Y177789D02*
X93214Y177789D01*
X93214Y178728D02*
X99826Y178728D01*
X99826Y179667D02*
X93214Y179667D01*
X93214Y180606D02*
X99826Y180606D01*
X99826Y181545D02*
X93214Y181545D01*
X93214Y182484D02*
X99826Y182484D01*
X99826Y183423D02*
X93214Y183423D01*
X93214Y184362D02*
X99826Y184362D01*
X99826Y185301D02*
X93214Y185301D01*
X93214Y186240D02*
X99826Y186240D01*
X99826Y187179D02*
X93214Y187179D01*
X93214Y188118D02*
X99826Y188118D01*
X99826Y189057D02*
X93214Y189057D01*
X93214Y189996D02*
X99826Y189996D01*
X99826Y190935D02*
X93214Y190935D01*
X93214Y191874D02*
X99826Y191874D01*
X99826Y192813D02*
X93214Y192813D01*
X93214Y193752D02*
X99826Y193752D01*
X99826Y194691D02*
X93214Y194691D01*
X93214Y195630D02*
X99826Y195630D01*
X99826Y134094D02*
X93214Y134094D01*
X93214Y157106D01*
X99826Y157106D01*
X99826Y134094D01*
X99826Y135033D02*
X93214Y135033D01*
X93214Y135972D02*
X99826Y135972D01*
X99826Y136911D02*
X93214Y136911D01*
X93214Y137850D02*
X99826Y137850D01*
X99826Y138789D02*
X93214Y138789D01*
X93214Y139728D02*
X99826Y139728D01*
X99826Y140667D02*
X93214Y140667D01*
X93214Y141606D02*
X99826Y141606D01*
X99826Y142545D02*
X93214Y142545D01*
X93214Y143484D02*
X99826Y143484D01*
X99826Y144423D02*
X93214Y144423D01*
X93214Y145362D02*
X99826Y145362D01*
X99826Y146301D02*
X93214Y146301D01*
X93214Y147240D02*
X99826Y147240D01*
X99826Y148179D02*
X93214Y148179D01*
X93214Y149118D02*
X99826Y149118D01*
X99826Y150057D02*
X93214Y150057D01*
X93214Y150996D02*
X99826Y150996D01*
X99826Y151935D02*
X93214Y151935D01*
X93214Y152874D02*
X99826Y152874D01*
X99826Y153813D02*
X93214Y153813D01*
X93214Y154752D02*
X99826Y154752D01*
X99826Y155691D02*
X93214Y155691D01*
X93214Y156630D02*
X99826Y156630D01*
X105914Y134094D02*
X112526Y134094D01*
X105914Y134094D02*
X105914Y157106D01*
X112526Y157106D01*
X112526Y134094D01*
X112526Y135033D02*
X105914Y135033D01*
X105914Y135972D02*
X112526Y135972D01*
X112526Y136911D02*
X105914Y136911D01*
X105914Y137850D02*
X112526Y137850D01*
X112526Y138789D02*
X105914Y138789D01*
X105914Y139728D02*
X112526Y139728D01*
X112526Y140667D02*
X105914Y140667D01*
X105914Y141606D02*
X112526Y141606D01*
X112526Y142545D02*
X105914Y142545D01*
X105914Y143484D02*
X112526Y143484D01*
X112526Y144423D02*
X105914Y144423D01*
X105914Y145362D02*
X112526Y145362D01*
X112526Y146301D02*
X105914Y146301D01*
X105914Y147240D02*
X112526Y147240D01*
X112526Y148179D02*
X105914Y148179D01*
X105914Y149118D02*
X112526Y149118D01*
X112526Y150057D02*
X105914Y150057D01*
X105914Y150996D02*
X112526Y150996D01*
X112526Y151935D02*
X105914Y151935D01*
X105914Y152874D02*
X112526Y152874D01*
X112526Y153813D02*
X105914Y153813D01*
X105914Y154752D02*
X112526Y154752D01*
X112526Y155691D02*
X105914Y155691D01*
X105914Y156630D02*
X112526Y156630D01*
X118614Y134094D02*
X125226Y134094D01*
X118614Y134094D02*
X118614Y157106D01*
X125226Y157106D01*
X125226Y134094D01*
X125226Y135033D02*
X118614Y135033D01*
X118614Y135972D02*
X125226Y135972D01*
X125226Y136911D02*
X118614Y136911D01*
X118614Y137850D02*
X125226Y137850D01*
X125226Y138789D02*
X118614Y138789D01*
X118614Y139728D02*
X125226Y139728D01*
X125226Y140667D02*
X118614Y140667D01*
X118614Y141606D02*
X125226Y141606D01*
X125226Y142545D02*
X118614Y142545D01*
X118614Y143484D02*
X125226Y143484D01*
X125226Y144423D02*
X118614Y144423D01*
X118614Y145362D02*
X125226Y145362D01*
X125226Y146301D02*
X118614Y146301D01*
X118614Y147240D02*
X125226Y147240D01*
X125226Y148179D02*
X118614Y148179D01*
X118614Y149118D02*
X125226Y149118D01*
X125226Y150057D02*
X118614Y150057D01*
X118614Y150996D02*
X125226Y150996D01*
X125226Y151935D02*
X118614Y151935D01*
X118614Y152874D02*
X125226Y152874D01*
X125226Y153813D02*
X118614Y153813D01*
X118614Y154752D02*
X125226Y154752D01*
X125226Y155691D02*
X118614Y155691D01*
X118614Y156630D02*
X125226Y156630D01*
X131314Y134094D02*
X137926Y134094D01*
X131314Y134094D02*
X131314Y157106D01*
X137926Y157106D01*
X137926Y134094D01*
X137926Y135033D02*
X131314Y135033D01*
X131314Y135972D02*
X137926Y135972D01*
X137926Y136911D02*
X131314Y136911D01*
X131314Y137850D02*
X137926Y137850D01*
X137926Y138789D02*
X131314Y138789D01*
X131314Y139728D02*
X137926Y139728D01*
X137926Y140667D02*
X131314Y140667D01*
X131314Y141606D02*
X137926Y141606D01*
X137926Y142545D02*
X131314Y142545D01*
X131314Y143484D02*
X137926Y143484D01*
X137926Y144423D02*
X131314Y144423D01*
X131314Y145362D02*
X137926Y145362D01*
X137926Y146301D02*
X131314Y146301D01*
X131314Y147240D02*
X137926Y147240D01*
X137926Y148179D02*
X131314Y148179D01*
X131314Y149118D02*
X137926Y149118D01*
X137926Y150057D02*
X131314Y150057D01*
X131314Y150996D02*
X137926Y150996D01*
X137926Y151935D02*
X131314Y151935D01*
X131314Y152874D02*
X137926Y152874D01*
X137926Y153813D02*
X131314Y153813D01*
X131314Y154752D02*
X137926Y154752D01*
X137926Y155691D02*
X131314Y155691D01*
X131314Y156630D02*
X137926Y156630D01*
X144014Y134094D02*
X150626Y134094D01*
X144014Y134094D02*
X144014Y157106D01*
X150626Y157106D01*
X150626Y134094D01*
X150626Y135033D02*
X144014Y135033D01*
X144014Y135972D02*
X150626Y135972D01*
X150626Y136911D02*
X144014Y136911D01*
X144014Y137850D02*
X150626Y137850D01*
X150626Y138789D02*
X144014Y138789D01*
X144014Y139728D02*
X150626Y139728D01*
X150626Y140667D02*
X144014Y140667D01*
X144014Y141606D02*
X150626Y141606D01*
X150626Y142545D02*
X144014Y142545D01*
X144014Y143484D02*
X150626Y143484D01*
X150626Y144423D02*
X144014Y144423D01*
X144014Y145362D02*
X150626Y145362D01*
X150626Y146301D02*
X144014Y146301D01*
X144014Y147240D02*
X150626Y147240D01*
X150626Y148179D02*
X144014Y148179D01*
X144014Y149118D02*
X150626Y149118D01*
X150626Y150057D02*
X144014Y150057D01*
X144014Y150996D02*
X150626Y150996D01*
X150626Y151935D02*
X144014Y151935D01*
X144014Y152874D02*
X150626Y152874D01*
X150626Y153813D02*
X144014Y153813D01*
X144014Y154752D02*
X150626Y154752D01*
X150626Y155691D02*
X144014Y155691D01*
X144014Y156630D02*
X150626Y156630D01*
D11*
X121500Y733800D02*
X112500Y733800D01*
X112500Y742800D01*
X121500Y742800D01*
X121500Y733800D01*
X121500Y739500D02*
X112500Y739500D01*
X132500Y733800D02*
X141500Y733800D01*
X132500Y733800D02*
X132500Y742800D01*
X141500Y742800D01*
X141500Y733800D01*
X141500Y739500D02*
X132500Y739500D01*
X131500Y700800D02*
X122500Y700800D01*
X122500Y709800D01*
X131500Y709800D01*
X131500Y700800D01*
X131500Y706500D02*
X122500Y706500D01*
X106500Y665800D02*
X97500Y665800D01*
X97500Y674800D01*
X106500Y674800D01*
X106500Y665800D01*
X106500Y671500D02*
X97500Y671500D01*
X97500Y640800D02*
X106500Y640800D01*
X97500Y640800D02*
X97500Y649800D01*
X106500Y649800D01*
X106500Y640800D01*
X106500Y646500D02*
X97500Y646500D01*
X97500Y615800D02*
X106500Y615800D01*
X97500Y615800D02*
X97500Y624800D01*
X106500Y624800D01*
X106500Y615800D01*
X106500Y621500D02*
X97500Y621500D01*
D12*
X99750Y731800D02*
X99750Y738800D01*
X154250Y738800D02*
X154250Y731800D01*
D13*
X102750Y707000D02*
X102750Y703000D01*
X151250Y703000D02*
X151250Y707000D01*
D14*
X171864Y218456D02*
X183256Y218456D01*
X183256Y208264D01*
X171864Y208264D01*
X171864Y218456D01*
X171864Y209222D02*
X183256Y209222D01*
X183256Y210180D02*
X171864Y210180D01*
X171864Y211138D02*
X183256Y211138D01*
X183256Y212096D02*
X171864Y212096D01*
X171864Y213054D02*
X183256Y213054D01*
X183256Y214012D02*
X171864Y214012D01*
X171864Y214970D02*
X183256Y214970D01*
X183256Y215928D02*
X171864Y215928D01*
X171864Y216886D02*
X183256Y216886D01*
X183256Y217844D02*
X171864Y217844D01*
X153256Y218456D02*
X141864Y218456D01*
X153256Y218456D02*
X153256Y208264D01*
X141864Y208264D01*
X141864Y218456D01*
X141864Y209222D02*
X153256Y209222D01*
X153256Y210180D02*
X141864Y210180D01*
X141864Y211138D02*
X153256Y211138D01*
X153256Y212096D02*
X141864Y212096D01*
X141864Y213054D02*
X153256Y213054D01*
X153256Y214012D02*
X141864Y214012D01*
X141864Y214970D02*
X153256Y214970D01*
X153256Y215928D02*
X141864Y215928D01*
X141864Y216886D02*
X153256Y216886D01*
X153256Y217844D02*
X141864Y217844D01*
M02*
