G04 EAGLE Gerber RS-274X export*
G75*
%MOMM*%
%FSLAX34Y34*%
%LPD*%
%INBottom Silkscreen*%
%IPPOS*%
%AMOC8*
5,1,8,0,0,1.08239X$1,22.5*%
G01*
%ADD10C,0.177800*%
%ADD11R,2.570481X0.031750*%
%ADD12R,0.731519X0.031750*%
%ADD13R,0.381000X0.031750*%
%ADD14R,1.079500X0.031750*%
%ADD15R,2.570481X0.031494*%
%ADD16R,0.731519X0.031494*%
%ADD17R,0.381000X0.031494*%
%ADD18R,1.079500X0.031494*%
%ADD19R,2.570481X0.032006*%
%ADD20R,0.731519X0.032006*%
%ADD21R,0.381000X0.032006*%
%ADD22R,1.079500X0.032006*%
%ADD23R,0.350519X0.032006*%
%ADD24R,0.347981X0.031750*%
%ADD25R,0.350519X0.031750*%
%ADD26R,0.728981X0.031750*%
%ADD27R,0.762000X0.031750*%
%ADD28R,1.112519X0.031750*%
%ADD29R,0.347981X0.031494*%
%ADD30R,0.350519X0.031494*%
%ADD31R,0.728981X0.031494*%
%ADD32R,0.762000X0.031494*%
%ADD33R,1.112519X0.031494*%
%ADD34R,0.347981X0.032006*%
%ADD35R,0.728981X0.032006*%
%ADD36R,0.762000X0.032006*%
%ADD37R,1.112519X0.032006*%
%ADD38R,1.841500X0.031494*%
%ADD39R,1.841500X0.031750*%
%ADD40R,1.841500X0.032006*%
%ADD41R,0.414019X0.031750*%
%ADD42R,0.317500X0.031750*%
%ADD43R,3.335019X0.031750*%
%ADD44R,2.222500X0.031750*%
%ADD45R,3.683000X0.031750*%
%ADD46R,2.189481X0.031750*%
%ADD47R,3.683000X0.031494*%
%ADD48R,2.189481X0.031494*%
%ADD49R,3.683000X0.032006*%
%ADD50R,2.189481X0.032006*%
%ADD51R,2.222500X0.031494*%
%ADD52R,1.811019X0.031750*%
%ADD53R,1.811019X0.032006*%
%ADD54R,2.222500X0.032006*%
%ADD55R,1.460500X0.031494*%
%ADD56R,1.460500X0.031750*%
%ADD57R,1.460500X0.032006*%
%ADD58R,1.143000X0.031750*%
%ADD59R,0.030481X0.031750*%
%ADD60R,2.192019X0.031750*%
%ADD61R,1.109981X0.031750*%
%ADD62R,1.490981X0.031750*%
%ADD63R,0.411481X0.031750*%
%ADD64R,1.109981X0.031494*%
%ADD65R,1.109981X0.032006*%
%ADD66R,0.033019X0.031750*%
%ADD67R,0.284481X0.031750*%
%ADD68R,1.493519X0.031750*%
%ADD69R,1.493519X0.032006*%
%ADD70R,3.335019X0.032006*%
%ADD71R,0.317500X0.032006*%
%ADD72R,0.033019X0.032006*%
%ADD73R,0.030481X0.032006*%
%ADD74R,0.411481X0.032006*%
%ADD75R,4.030981X0.031494*%
%ADD76R,4.030981X0.032006*%
%ADD77R,1.493519X0.031494*%
%ADD78R,1.143000X0.032006*%
%ADD79R,1.143000X0.031494*%
%ADD80R,0.033019X0.031494*%


D10*
X192151Y292735D02*
X188002Y280289D01*
X183854Y292735D01*
X178658Y289969D02*
X175201Y292735D01*
X175201Y280289D01*
X178658Y280289D02*
X171744Y280289D01*
X166585Y280289D02*
X166585Y280980D01*
X165894Y280980D01*
X165894Y280289D01*
X166585Y280289D01*
X160735Y286512D02*
X160732Y286757D01*
X160723Y287002D01*
X160709Y287246D01*
X160688Y287490D01*
X160662Y287733D01*
X160630Y287976D01*
X160592Y288218D01*
X160549Y288459D01*
X160499Y288699D01*
X160444Y288937D01*
X160383Y289174D01*
X160317Y289410D01*
X160245Y289644D01*
X160167Y289876D01*
X160084Y290107D01*
X159996Y290335D01*
X159902Y290561D01*
X159803Y290785D01*
X159698Y291006D01*
X159699Y291007D02*
X159665Y291100D01*
X159627Y291192D01*
X159586Y291282D01*
X159542Y291370D01*
X159494Y291457D01*
X159442Y291542D01*
X159388Y291625D01*
X159330Y291705D01*
X159269Y291784D01*
X159206Y291860D01*
X159139Y291933D01*
X159069Y292004D01*
X158997Y292072D01*
X158923Y292137D01*
X158845Y292199D01*
X158766Y292259D01*
X158684Y292315D01*
X158600Y292367D01*
X158514Y292417D01*
X158426Y292463D01*
X158337Y292506D01*
X158246Y292545D01*
X158153Y292581D01*
X158060Y292613D01*
X157965Y292641D01*
X157869Y292666D01*
X157772Y292687D01*
X157674Y292704D01*
X157576Y292718D01*
X157477Y292727D01*
X157378Y292733D01*
X157279Y292735D01*
X157180Y292733D01*
X157081Y292727D01*
X156982Y292718D01*
X156884Y292704D01*
X156786Y292687D01*
X156689Y292666D01*
X156593Y292641D01*
X156498Y292613D01*
X156405Y292581D01*
X156312Y292545D01*
X156221Y292506D01*
X156131Y292463D01*
X156044Y292417D01*
X155958Y292367D01*
X155874Y292315D01*
X155792Y292259D01*
X155713Y292199D01*
X155635Y292137D01*
X155561Y292072D01*
X155489Y292004D01*
X155419Y291933D01*
X155352Y291860D01*
X155289Y291784D01*
X155228Y291705D01*
X155170Y291625D01*
X155116Y291542D01*
X155064Y291457D01*
X155016Y291370D01*
X154972Y291282D01*
X154931Y291192D01*
X154893Y291100D01*
X154859Y291007D01*
X154859Y291006D02*
X154755Y290785D01*
X154655Y290561D01*
X154561Y290335D01*
X154473Y290107D01*
X154390Y289876D01*
X154312Y289644D01*
X154240Y289410D01*
X154174Y289175D01*
X154113Y288937D01*
X154058Y288699D01*
X154008Y288459D01*
X153965Y288218D01*
X153927Y287976D01*
X153895Y287733D01*
X153869Y287490D01*
X153848Y287246D01*
X153834Y287002D01*
X153825Y286757D01*
X153822Y286512D01*
X160736Y286512D02*
X160733Y286267D01*
X160724Y286022D01*
X160710Y285778D01*
X160689Y285534D01*
X160663Y285291D01*
X160631Y285048D01*
X160593Y284806D01*
X160550Y284565D01*
X160500Y284325D01*
X160445Y284087D01*
X160384Y283849D01*
X160318Y283614D01*
X160246Y283380D01*
X160168Y283147D01*
X160085Y282917D01*
X159997Y282689D01*
X159903Y282463D01*
X159803Y282239D01*
X159699Y282017D01*
X159665Y281924D01*
X159627Y281832D01*
X159586Y281742D01*
X159542Y281654D01*
X159494Y281567D01*
X159442Y281482D01*
X159388Y281399D01*
X159330Y281319D01*
X159269Y281240D01*
X159206Y281164D01*
X159139Y281091D01*
X159069Y281020D01*
X158997Y280952D01*
X158923Y280887D01*
X158845Y280825D01*
X158766Y280765D01*
X158684Y280709D01*
X158600Y280657D01*
X158514Y280607D01*
X158426Y280561D01*
X158337Y280518D01*
X158246Y280479D01*
X158153Y280443D01*
X158060Y280411D01*
X157965Y280383D01*
X157869Y280358D01*
X157772Y280337D01*
X157674Y280320D01*
X157576Y280306D01*
X157477Y280297D01*
X157378Y280291D01*
X157279Y280289D01*
X154859Y282018D02*
X154754Y282239D01*
X154655Y282463D01*
X154561Y282689D01*
X154473Y282917D01*
X154390Y283148D01*
X154312Y283380D01*
X154240Y283614D01*
X154174Y283850D01*
X154113Y284087D01*
X154058Y284325D01*
X154008Y284565D01*
X153965Y284806D01*
X153927Y285048D01*
X153895Y285291D01*
X153869Y285534D01*
X153848Y285778D01*
X153834Y286022D01*
X153825Y286267D01*
X153822Y286512D01*
X154859Y282017D02*
X154893Y281924D01*
X154931Y281832D01*
X154972Y281742D01*
X155016Y281654D01*
X155064Y281567D01*
X155116Y281482D01*
X155170Y281399D01*
X155228Y281319D01*
X155289Y281240D01*
X155352Y281164D01*
X155419Y281091D01*
X155489Y281020D01*
X155561Y280952D01*
X155635Y280887D01*
X155713Y280825D01*
X155792Y280765D01*
X155874Y280709D01*
X155958Y280657D01*
X156044Y280607D01*
X156132Y280561D01*
X156221Y280518D01*
X156312Y280479D01*
X156405Y280443D01*
X156498Y280411D01*
X156593Y280383D01*
X156689Y280358D01*
X156786Y280337D01*
X156884Y280320D01*
X156982Y280306D01*
X157081Y280297D01*
X157180Y280291D01*
X157279Y280289D01*
X160044Y283055D02*
X154513Y289969D01*
D11*
X77470Y311151D03*
D12*
X97790Y311151D03*
D13*
X106832Y311151D03*
X129057Y311151D03*
X136373Y311151D03*
D14*
X151295Y311151D03*
D13*
X162408Y311151D03*
X173507Y311151D03*
X180823Y311151D03*
D11*
X77470Y311469D03*
D12*
X97790Y311469D03*
D13*
X106832Y311469D03*
X129057Y311469D03*
X136373Y311469D03*
D14*
X151295Y311469D03*
D13*
X162408Y311469D03*
X173507Y311469D03*
X180823Y311469D03*
D15*
X77470Y311785D03*
D16*
X97790Y311785D03*
D17*
X106832Y311785D03*
X129057Y311785D03*
X136373Y311785D03*
D18*
X151295Y311785D03*
D17*
X162408Y311785D03*
X173507Y311785D03*
X180823Y311785D03*
D11*
X77470Y312101D03*
D12*
X97790Y312101D03*
D13*
X106832Y312101D03*
X129057Y312101D03*
X136373Y312101D03*
D14*
X151295Y312101D03*
D13*
X162408Y312101D03*
X173507Y312101D03*
X180823Y312101D03*
D19*
X77470Y312420D03*
D20*
X97790Y312420D03*
D21*
X106832Y312420D03*
X129057Y312420D03*
X136373Y312420D03*
D22*
X151295Y312420D03*
D21*
X162408Y312420D03*
X173507Y312420D03*
X180823Y312420D03*
D11*
X77470Y312739D03*
D12*
X97790Y312739D03*
D13*
X106832Y312739D03*
X129057Y312739D03*
X136373Y312739D03*
D14*
X151295Y312739D03*
D13*
X162408Y312739D03*
X173507Y312739D03*
X180823Y312739D03*
D15*
X77470Y313055D03*
D16*
X97790Y313055D03*
D17*
X106832Y313055D03*
X129057Y313055D03*
X136373Y313055D03*
D18*
X151295Y313055D03*
D17*
X162408Y313055D03*
X173507Y313055D03*
X180823Y313055D03*
D19*
X77470Y313373D03*
D20*
X97790Y313373D03*
D21*
X106832Y313373D03*
X129057Y313373D03*
X136373Y313373D03*
D22*
X151295Y313373D03*
D21*
X162408Y313373D03*
X173507Y313373D03*
X180823Y313373D03*
D11*
X77470Y313691D03*
D12*
X97790Y313691D03*
D13*
X106832Y313691D03*
X129057Y313691D03*
X136373Y313691D03*
D14*
X151295Y313691D03*
D13*
X162408Y313691D03*
X173507Y313691D03*
X180823Y313691D03*
D15*
X77470Y314008D03*
D16*
X97790Y314008D03*
D17*
X106832Y314008D03*
X129057Y314008D03*
X136373Y314008D03*
D18*
X151295Y314008D03*
D17*
X162408Y314008D03*
X173507Y314008D03*
X180823Y314008D03*
D19*
X77470Y314325D03*
D20*
X97790Y314325D03*
D21*
X106832Y314325D03*
X129057Y314325D03*
X136373Y314325D03*
D22*
X151295Y314325D03*
D21*
X162408Y314325D03*
D23*
X173355Y314325D03*
D21*
X180823Y314325D03*
D24*
X66358Y314644D03*
D13*
X88417Y314644D03*
D25*
X95885Y314644D03*
D26*
X105093Y314644D03*
D12*
X120015Y314644D03*
D25*
X132715Y314644D03*
D13*
X143993Y314644D03*
D27*
X160503Y314644D03*
D28*
X173355Y314644D03*
D29*
X66358Y314960D03*
D17*
X88417Y314960D03*
D30*
X95885Y314960D03*
D31*
X105093Y314960D03*
D32*
X119863Y314960D03*
D30*
X132715Y314960D03*
D17*
X143993Y314960D03*
D32*
X160503Y314960D03*
D33*
X173355Y314960D03*
D34*
X66358Y315278D03*
D21*
X88417Y315278D03*
D23*
X95885Y315278D03*
D35*
X105093Y315278D03*
D20*
X120015Y315278D03*
D23*
X132715Y315278D03*
D21*
X143993Y315278D03*
D36*
X160503Y315278D03*
D37*
X173355Y315278D03*
D24*
X66358Y315596D03*
D13*
X88417Y315596D03*
D25*
X95885Y315596D03*
D26*
X105093Y315596D03*
D12*
X120015Y315596D03*
D25*
X132715Y315596D03*
D13*
X143993Y315596D03*
D27*
X160503Y315596D03*
D28*
X173355Y315596D03*
D24*
X66358Y315914D03*
D13*
X88417Y315914D03*
D25*
X95885Y315914D03*
D26*
X105093Y315914D03*
D12*
X120015Y315914D03*
D25*
X132715Y315914D03*
D13*
X143993Y315914D03*
D27*
X160503Y315914D03*
D28*
X173355Y315914D03*
D24*
X66358Y316231D03*
D13*
X88417Y316231D03*
D25*
X95885Y316231D03*
D26*
X105093Y316231D03*
D12*
X120015Y316231D03*
D25*
X132715Y316231D03*
D13*
X143993Y316231D03*
D27*
X160503Y316231D03*
D28*
X173355Y316231D03*
D29*
X66358Y316548D03*
D17*
X88417Y316548D03*
D30*
X95885Y316548D03*
D31*
X105093Y316548D03*
D16*
X120015Y316548D03*
D30*
X132715Y316548D03*
D17*
X143993Y316548D03*
D32*
X160503Y316548D03*
D33*
X173355Y316548D03*
D24*
X66358Y316864D03*
D13*
X88417Y316864D03*
D25*
X95885Y316864D03*
D26*
X105093Y316864D03*
D12*
X120015Y316864D03*
D25*
X132715Y316864D03*
D13*
X143993Y316864D03*
D27*
X160503Y316864D03*
D28*
X173355Y316864D03*
D34*
X66358Y317183D03*
D21*
X88417Y317183D03*
D23*
X95885Y317183D03*
D35*
X105093Y317183D03*
D20*
X120015Y317183D03*
D23*
X132715Y317183D03*
D21*
X143993Y317183D03*
D36*
X160503Y317183D03*
D37*
X173355Y317183D03*
D24*
X66358Y317501D03*
D13*
X88417Y317501D03*
D25*
X95885Y317501D03*
D26*
X105093Y317501D03*
D12*
X120015Y317501D03*
D25*
X132715Y317501D03*
D13*
X143993Y317501D03*
D27*
X160503Y317501D03*
D28*
X173355Y317501D03*
D24*
X66358Y317819D03*
D13*
X88417Y317819D03*
D25*
X95885Y317819D03*
D26*
X105093Y317819D03*
D27*
X119863Y317819D03*
D13*
X132867Y317819D03*
X143993Y317819D03*
D27*
X160503Y317819D03*
D28*
X173355Y317819D03*
D24*
X66358Y318136D03*
D13*
X88417Y318136D03*
D25*
X95885Y318136D03*
D26*
X105093Y318136D03*
D12*
X120015Y318136D03*
D25*
X132715Y318136D03*
D13*
X143993Y318136D03*
D27*
X160503Y318136D03*
D28*
X173355Y318136D03*
D29*
X66358Y318453D03*
D33*
X77470Y318453D03*
D17*
X88417Y318453D03*
D38*
X103340Y318453D03*
D17*
X121768Y318453D03*
X129057Y318453D03*
D32*
X142088Y318453D03*
D16*
X153035Y318453D03*
D31*
X164148Y318453D03*
D17*
X173507Y318453D03*
D24*
X66358Y318769D03*
D28*
X77470Y318769D03*
D13*
X88417Y318769D03*
D39*
X103340Y318769D03*
D13*
X121768Y318769D03*
X129057Y318769D03*
D27*
X142088Y318769D03*
D12*
X153035Y318769D03*
D26*
X164148Y318769D03*
D13*
X173507Y318769D03*
D34*
X66358Y319088D03*
D37*
X77470Y319088D03*
D21*
X88417Y319088D03*
D40*
X103340Y319088D03*
D21*
X121768Y319088D03*
X129057Y319088D03*
D36*
X142088Y319088D03*
D20*
X153035Y319088D03*
D35*
X164148Y319088D03*
D21*
X173507Y319088D03*
D24*
X66358Y319406D03*
D28*
X77470Y319406D03*
D13*
X88417Y319406D03*
D39*
X103340Y319406D03*
D13*
X121768Y319406D03*
X129057Y319406D03*
D27*
X142088Y319406D03*
D12*
X153035Y319406D03*
D26*
X164148Y319406D03*
D13*
X173507Y319406D03*
D24*
X66358Y319724D03*
D28*
X77470Y319724D03*
D13*
X88417Y319724D03*
D39*
X103340Y319724D03*
D13*
X121768Y319724D03*
X129057Y319724D03*
D27*
X142088Y319724D03*
D12*
X153035Y319724D03*
D26*
X164148Y319724D03*
D13*
X173507Y319724D03*
D24*
X66358Y320041D03*
D28*
X77470Y320041D03*
D13*
X88417Y320041D03*
D39*
X103340Y320041D03*
D13*
X121768Y320041D03*
X129057Y320041D03*
D27*
X142088Y320041D03*
D12*
X153035Y320041D03*
D26*
X164148Y320041D03*
D13*
X173507Y320041D03*
D24*
X66358Y320359D03*
D28*
X77470Y320359D03*
D13*
X88417Y320359D03*
D39*
X103340Y320359D03*
D13*
X121768Y320359D03*
X129057Y320359D03*
D27*
X142088Y320359D03*
D12*
X153035Y320359D03*
D26*
X164148Y320359D03*
D13*
X173507Y320359D03*
D29*
X66358Y320675D03*
D33*
X77470Y320675D03*
D17*
X88417Y320675D03*
D38*
X103340Y320675D03*
D17*
X121768Y320675D03*
X129057Y320675D03*
D32*
X142088Y320675D03*
D16*
X153035Y320675D03*
D31*
X164148Y320675D03*
D17*
X173507Y320675D03*
D24*
X66358Y320991D03*
D28*
X77470Y320991D03*
D13*
X88417Y320991D03*
D39*
X103340Y320991D03*
D13*
X121768Y320991D03*
X129057Y320991D03*
D27*
X142088Y320991D03*
D12*
X153035Y320991D03*
D26*
X164148Y320991D03*
D13*
X173507Y320991D03*
D34*
X66358Y321310D03*
D37*
X77470Y321310D03*
D21*
X88417Y321310D03*
D40*
X103340Y321310D03*
D21*
X121768Y321310D03*
X129057Y321310D03*
D36*
X142088Y321310D03*
D20*
X153035Y321310D03*
D35*
X164148Y321310D03*
D21*
X173507Y321310D03*
D24*
X66358Y321629D03*
D28*
X77470Y321629D03*
D13*
X88417Y321629D03*
D39*
X103340Y321629D03*
D13*
X121768Y321629D03*
X129057Y321629D03*
D27*
X142088Y321629D03*
D12*
X153035Y321629D03*
D26*
X164148Y321629D03*
D13*
X173507Y321629D03*
D24*
X66358Y321946D03*
D28*
X77470Y321946D03*
D13*
X88417Y321946D03*
X96037Y321946D03*
D41*
X103188Y321946D03*
D42*
X125260Y321946D03*
D43*
X143828Y321946D03*
D44*
X175095Y321946D03*
D24*
X66358Y322264D03*
D28*
X77470Y322264D03*
D13*
X88417Y322264D03*
D25*
X95885Y322264D03*
D24*
X103188Y322264D03*
D45*
X142088Y322264D03*
D46*
X175260Y322264D03*
D29*
X66358Y322580D03*
D33*
X77470Y322580D03*
D17*
X88417Y322580D03*
D30*
X95885Y322580D03*
D29*
X103188Y322580D03*
D47*
X142088Y322580D03*
D48*
X175260Y322580D03*
D24*
X66358Y322896D03*
D28*
X77470Y322896D03*
D13*
X88417Y322896D03*
D25*
X95885Y322896D03*
D24*
X103188Y322896D03*
D45*
X142088Y322896D03*
D46*
X175260Y322896D03*
D34*
X66358Y323215D03*
D37*
X77470Y323215D03*
D21*
X88417Y323215D03*
D23*
X95885Y323215D03*
D34*
X103188Y323215D03*
D49*
X142088Y323215D03*
D50*
X175260Y323215D03*
D24*
X66358Y323534D03*
D28*
X77470Y323534D03*
D13*
X88417Y323534D03*
D25*
X95885Y323534D03*
D24*
X103188Y323534D03*
D45*
X142088Y323534D03*
D46*
X175260Y323534D03*
D24*
X66358Y323851D03*
D28*
X77470Y323851D03*
D13*
X88417Y323851D03*
D25*
X95885Y323851D03*
D24*
X103188Y323851D03*
D45*
X142088Y323851D03*
D46*
X175260Y323851D03*
D24*
X66358Y324169D03*
D28*
X77470Y324169D03*
D13*
X88417Y324169D03*
D25*
X95885Y324169D03*
D24*
X103188Y324169D03*
D45*
X142088Y324169D03*
D46*
X175260Y324169D03*
D24*
X66358Y324486D03*
D28*
X77470Y324486D03*
D13*
X88417Y324486D03*
D25*
X95885Y324486D03*
D24*
X103188Y324486D03*
D45*
X142088Y324486D03*
D46*
X175260Y324486D03*
D24*
X66358Y324804D03*
D28*
X77470Y324804D03*
D13*
X88417Y324804D03*
D25*
X95885Y324804D03*
D24*
X103188Y324804D03*
D45*
X142088Y324804D03*
D46*
X175260Y324804D03*
D24*
X66358Y325121D03*
D28*
X77470Y325121D03*
D13*
X88417Y325121D03*
D25*
X95885Y325121D03*
D24*
X103188Y325121D03*
D45*
X142088Y325121D03*
D46*
X175260Y325121D03*
D24*
X66358Y325439D03*
D28*
X77470Y325439D03*
D13*
X88417Y325439D03*
D25*
X95885Y325439D03*
D24*
X103188Y325439D03*
D45*
X142088Y325439D03*
D46*
X175260Y325439D03*
D29*
X66358Y325755D03*
D33*
X77470Y325755D03*
D17*
X88417Y325755D03*
D30*
X95885Y325755D03*
D17*
X110642Y325755D03*
D38*
X125565Y325755D03*
D17*
X147472Y325755D03*
D51*
X164300Y325755D03*
D17*
X180823Y325755D03*
D24*
X66358Y326071D03*
D28*
X77470Y326071D03*
D13*
X88417Y326071D03*
D25*
X95885Y326071D03*
D13*
X110642Y326071D03*
D39*
X125260Y326071D03*
D24*
X147638Y326071D03*
D44*
X164300Y326071D03*
D13*
X180823Y326071D03*
D24*
X66358Y326389D03*
D28*
X77470Y326389D03*
D13*
X88417Y326389D03*
D25*
X95885Y326389D03*
D13*
X110642Y326389D03*
D52*
X125413Y326389D03*
D24*
X147638Y326389D03*
D44*
X164300Y326389D03*
D13*
X180823Y326389D03*
D24*
X66358Y326706D03*
D28*
X77470Y326706D03*
D13*
X88417Y326706D03*
D25*
X95885Y326706D03*
D13*
X110642Y326706D03*
D52*
X125413Y326706D03*
D24*
X147638Y326706D03*
D44*
X164300Y326706D03*
D13*
X180823Y326706D03*
D34*
X66358Y327025D03*
D37*
X77470Y327025D03*
D21*
X88417Y327025D03*
D23*
X95885Y327025D03*
D21*
X110642Y327025D03*
D53*
X125413Y327025D03*
D34*
X147638Y327025D03*
D54*
X164300Y327025D03*
D21*
X180823Y327025D03*
D24*
X66358Y327344D03*
D28*
X77470Y327344D03*
D13*
X88417Y327344D03*
D25*
X95885Y327344D03*
D13*
X110642Y327344D03*
D52*
X125413Y327344D03*
D24*
X147638Y327344D03*
D44*
X164300Y327344D03*
D13*
X180823Y327344D03*
D24*
X66358Y327661D03*
D28*
X77470Y327661D03*
D13*
X88417Y327661D03*
D25*
X95885Y327661D03*
D13*
X110642Y327661D03*
D52*
X125413Y327661D03*
D24*
X147638Y327661D03*
D44*
X164300Y327661D03*
D13*
X180823Y327661D03*
D24*
X66358Y327979D03*
D28*
X77470Y327979D03*
D13*
X88417Y327979D03*
D25*
X95885Y327979D03*
D13*
X110642Y327979D03*
D52*
X125413Y327979D03*
D24*
X147638Y327979D03*
D44*
X164300Y327979D03*
D13*
X180823Y327979D03*
D24*
X66358Y328296D03*
D28*
X77470Y328296D03*
D13*
X88417Y328296D03*
D25*
X95885Y328296D03*
D13*
X110642Y328296D03*
D52*
X125413Y328296D03*
D24*
X147638Y328296D03*
D44*
X164300Y328296D03*
D13*
X180823Y328296D03*
D24*
X66358Y328614D03*
D28*
X77470Y328614D03*
D13*
X88417Y328614D03*
D25*
X95885Y328614D03*
D13*
X110642Y328614D03*
D52*
X125413Y328614D03*
D24*
X147638Y328614D03*
D44*
X164300Y328614D03*
D13*
X180823Y328614D03*
D24*
X66358Y328931D03*
D28*
X77470Y328931D03*
D13*
X88417Y328931D03*
D25*
X95885Y328931D03*
D13*
X110642Y328931D03*
D52*
X125413Y328931D03*
D24*
X147638Y328931D03*
D44*
X164300Y328931D03*
D13*
X180823Y328931D03*
D24*
X66358Y329249D03*
D28*
X77470Y329249D03*
D13*
X88417Y329249D03*
D25*
X95885Y329249D03*
D13*
X110642Y329249D03*
D52*
X125413Y329249D03*
D13*
X147472Y329249D03*
D44*
X164300Y329249D03*
D13*
X180823Y329249D03*
D29*
X66358Y329565D03*
D17*
X88417Y329565D03*
D29*
X103188Y329565D03*
D32*
X112547Y329565D03*
D31*
X123508Y329565D03*
D17*
X136373Y329565D03*
D55*
X149390Y329565D03*
D38*
X177000Y329565D03*
D24*
X66358Y329881D03*
D13*
X88417Y329881D03*
D24*
X103188Y329881D03*
D27*
X112547Y329881D03*
D26*
X123508Y329881D03*
D13*
X136373Y329881D03*
D56*
X149390Y329881D03*
D39*
X177000Y329881D03*
D24*
X66358Y330199D03*
D13*
X88417Y330199D03*
D24*
X103188Y330199D03*
D27*
X112547Y330199D03*
D26*
X123508Y330199D03*
D13*
X136373Y330199D03*
D56*
X149390Y330199D03*
D39*
X177000Y330199D03*
D24*
X66358Y330516D03*
D13*
X88417Y330516D03*
D24*
X103188Y330516D03*
D27*
X112547Y330516D03*
D26*
X123508Y330516D03*
D13*
X136373Y330516D03*
D56*
X149390Y330516D03*
D39*
X177000Y330516D03*
D24*
X66358Y330834D03*
D13*
X88417Y330834D03*
D24*
X103188Y330834D03*
D27*
X112547Y330834D03*
D26*
X123508Y330834D03*
D13*
X136373Y330834D03*
D56*
X149390Y330834D03*
D39*
X177000Y330834D03*
D34*
X66358Y331153D03*
D21*
X88417Y331153D03*
D34*
X103188Y331153D03*
D36*
X112547Y331153D03*
D35*
X123508Y331153D03*
D21*
X136373Y331153D03*
D57*
X149390Y331153D03*
D40*
X177000Y331153D03*
D24*
X66358Y331471D03*
D13*
X88417Y331471D03*
D24*
X103188Y331471D03*
D27*
X112547Y331471D03*
D26*
X123508Y331471D03*
D13*
X136373Y331471D03*
D56*
X149390Y331471D03*
D39*
X177000Y331471D03*
D24*
X66358Y331789D03*
D13*
X88417Y331789D03*
D24*
X103188Y331789D03*
D27*
X112547Y331789D03*
D26*
X123508Y331789D03*
D13*
X136373Y331789D03*
D56*
X149390Y331789D03*
D39*
X177000Y331789D03*
D24*
X66358Y332106D03*
D13*
X88417Y332106D03*
D24*
X103188Y332106D03*
D27*
X112547Y332106D03*
D26*
X123508Y332106D03*
D13*
X136373Y332106D03*
D56*
X149390Y332106D03*
D39*
X177000Y332106D03*
D24*
X66358Y332424D03*
D13*
X88417Y332424D03*
D24*
X103188Y332424D03*
D27*
X112547Y332424D03*
D26*
X123508Y332424D03*
D13*
X136373Y332424D03*
D56*
X149390Y332424D03*
D39*
X177000Y332424D03*
D24*
X66358Y332741D03*
D13*
X88417Y332741D03*
D24*
X103188Y332741D03*
D12*
X112395Y332741D03*
D26*
X123508Y332741D03*
D13*
X136373Y332741D03*
D56*
X149390Y332741D03*
D39*
X177000Y332741D03*
D11*
X77470Y333059D03*
D12*
X97790Y333059D03*
D58*
X117958Y333059D03*
D13*
X129057Y333059D03*
D39*
X147485Y333059D03*
D24*
X162243Y333059D03*
D27*
X171602Y333059D03*
D13*
X180823Y333059D03*
D59*
X186055Y333059D03*
D11*
X77470Y333376D03*
D12*
X97790Y333376D03*
D28*
X118110Y333376D03*
D13*
X129057Y333376D03*
D39*
X147485Y333376D03*
D13*
X162408Y333376D03*
D27*
X171602Y333376D03*
D13*
X180823Y333376D03*
D15*
X77470Y333693D03*
D16*
X97790Y333693D03*
D33*
X118110Y333693D03*
D17*
X129057Y333693D03*
D38*
X147485Y333693D03*
D17*
X162408Y333693D03*
D32*
X171602Y333693D03*
D17*
X180823Y333693D03*
D11*
X77470Y334009D03*
D12*
X97790Y334009D03*
D28*
X118110Y334009D03*
D13*
X129057Y334009D03*
D39*
X147485Y334009D03*
D13*
X162408Y334009D03*
D27*
X171602Y334009D03*
D13*
X180823Y334009D03*
D11*
X77470Y334326D03*
D12*
X97790Y334326D03*
D28*
X118110Y334326D03*
D13*
X129057Y334326D03*
D39*
X147485Y334326D03*
D13*
X162408Y334326D03*
D27*
X171602Y334326D03*
D13*
X180823Y334326D03*
D11*
X77470Y334644D03*
D12*
X97790Y334644D03*
D28*
X118110Y334644D03*
D13*
X129057Y334644D03*
D39*
X147485Y334644D03*
D13*
X162408Y334644D03*
D27*
X171602Y334644D03*
D13*
X180823Y334644D03*
D19*
X77470Y334963D03*
D20*
X97790Y334963D03*
D37*
X118110Y334963D03*
D21*
X129057Y334963D03*
D40*
X147485Y334963D03*
D21*
X162408Y334963D03*
D36*
X171602Y334963D03*
D21*
X180823Y334963D03*
D11*
X77470Y335281D03*
D12*
X97790Y335281D03*
D28*
X118110Y335281D03*
D13*
X129057Y335281D03*
D39*
X147485Y335281D03*
D13*
X162408Y335281D03*
D27*
X171602Y335281D03*
D13*
X180823Y335281D03*
D11*
X77470Y335599D03*
D12*
X97790Y335599D03*
D28*
X118110Y335599D03*
D13*
X129057Y335599D03*
D39*
X147485Y335599D03*
D13*
X162408Y335599D03*
D27*
X171602Y335599D03*
D13*
X180823Y335599D03*
D11*
X77470Y335916D03*
D12*
X97790Y335916D03*
D28*
X118110Y335916D03*
D13*
X129057Y335916D03*
D39*
X147485Y335916D03*
D13*
X162408Y335916D03*
D27*
X171602Y335916D03*
D13*
X180823Y335916D03*
D11*
X77470Y336234D03*
D12*
X97790Y336234D03*
D28*
X118110Y336234D03*
D13*
X129057Y336234D03*
D39*
X147485Y336234D03*
D13*
X162408Y336234D03*
D27*
X171602Y336234D03*
D13*
X180823Y336234D03*
D11*
X77470Y336551D03*
D12*
X97790Y336551D03*
D28*
X118110Y336551D03*
D13*
X129057Y336551D03*
D39*
X147485Y336551D03*
D13*
X162408Y336551D03*
D27*
X171602Y336551D03*
D13*
X180823Y336551D03*
D28*
X99695Y336869D03*
X114300Y336869D03*
D24*
X125413Y336869D03*
D28*
X136525Y336869D03*
D12*
X153035Y336869D03*
D28*
X173355Y336869D03*
D24*
X184468Y336869D03*
D14*
X99530Y337186D03*
D28*
X114300Y337186D03*
D24*
X125413Y337186D03*
D28*
X136525Y337186D03*
D12*
X153035Y337186D03*
D28*
X173355Y337186D03*
D24*
X184468Y337186D03*
D14*
X99530Y337504D03*
D28*
X114300Y337504D03*
D24*
X125413Y337504D03*
D28*
X136525Y337504D03*
D12*
X153035Y337504D03*
D28*
X173355Y337504D03*
D24*
X184468Y337504D03*
D18*
X99530Y337820D03*
D33*
X114300Y337820D03*
D29*
X125413Y337820D03*
D33*
X136525Y337820D03*
D16*
X153035Y337820D03*
D33*
X173355Y337820D03*
D29*
X184468Y337820D03*
D14*
X99530Y338136D03*
D28*
X114300Y338136D03*
D24*
X125413Y338136D03*
D28*
X136525Y338136D03*
D12*
X153035Y338136D03*
D28*
X173355Y338136D03*
D24*
X184468Y338136D03*
D14*
X99530Y338454D03*
D28*
X114300Y338454D03*
D24*
X125413Y338454D03*
D28*
X136525Y338454D03*
D12*
X153035Y338454D03*
D28*
X173355Y338454D03*
D24*
X184468Y338454D03*
D14*
X99530Y338771D03*
D28*
X114300Y338771D03*
D24*
X125413Y338771D03*
D28*
X136525Y338771D03*
D12*
X153035Y338771D03*
D28*
X173355Y338771D03*
D24*
X184468Y338771D03*
D22*
X99530Y339090D03*
D37*
X114300Y339090D03*
D34*
X125413Y339090D03*
D37*
X136525Y339090D03*
D20*
X153035Y339090D03*
D37*
X173355Y339090D03*
D34*
X184468Y339090D03*
D14*
X99530Y339409D03*
D28*
X114300Y339409D03*
D24*
X125413Y339409D03*
D28*
X136525Y339409D03*
D12*
X153035Y339409D03*
D28*
X173355Y339409D03*
D24*
X184468Y339409D03*
D18*
X99530Y339725D03*
D33*
X114300Y339725D03*
D29*
X125413Y339725D03*
D33*
X136525Y339725D03*
D16*
X153035Y339725D03*
D33*
X173355Y339725D03*
D29*
X184468Y339725D03*
D14*
X99530Y340041D03*
D28*
X114300Y340041D03*
D24*
X125413Y340041D03*
D28*
X136525Y340041D03*
D12*
X153035Y340041D03*
D28*
X173355Y340041D03*
D24*
X184468Y340041D03*
D14*
X99530Y340359D03*
D28*
X114300Y340359D03*
D24*
X125413Y340359D03*
D28*
X136525Y340359D03*
D12*
X153035Y340359D03*
D28*
X173355Y340359D03*
D24*
X184468Y340359D03*
X66358Y340676D03*
D13*
X77318Y340676D03*
X88417Y340676D03*
X106832Y340676D03*
X129057Y340676D03*
D25*
X136525Y340676D03*
D44*
X164300Y340676D03*
D24*
X184468Y340676D03*
X66358Y340994D03*
D13*
X77318Y340994D03*
X88417Y340994D03*
X106832Y340994D03*
X129057Y340994D03*
X136373Y340994D03*
D44*
X164300Y340994D03*
D24*
X184468Y340994D03*
X66358Y341311D03*
D13*
X77318Y341311D03*
X88417Y341311D03*
X106832Y341311D03*
X129057Y341311D03*
X136373Y341311D03*
D44*
X164300Y341311D03*
D24*
X184468Y341311D03*
X66358Y341629D03*
D13*
X77318Y341629D03*
X88417Y341629D03*
X106832Y341629D03*
X129057Y341629D03*
X136373Y341629D03*
D44*
X164300Y341629D03*
D24*
X184468Y341629D03*
X66358Y341946D03*
D13*
X77318Y341946D03*
X88417Y341946D03*
X106832Y341946D03*
X129057Y341946D03*
X136373Y341946D03*
D44*
X164300Y341946D03*
D24*
X184468Y341946D03*
X66358Y342264D03*
D13*
X77318Y342264D03*
X88417Y342264D03*
X106832Y342264D03*
X129057Y342264D03*
X136373Y342264D03*
D44*
X164300Y342264D03*
D24*
X184468Y342264D03*
X66358Y342581D03*
D13*
X77318Y342581D03*
X88417Y342581D03*
X106832Y342581D03*
X129057Y342581D03*
X136373Y342581D03*
D44*
X164300Y342581D03*
D24*
X184468Y342581D03*
D34*
X66358Y342900D03*
D21*
X77318Y342900D03*
X88417Y342900D03*
X106832Y342900D03*
X129057Y342900D03*
X136373Y342900D03*
D54*
X164300Y342900D03*
D34*
X184468Y342900D03*
D24*
X66358Y343219D03*
D13*
X77318Y343219D03*
X88417Y343219D03*
X106832Y343219D03*
X129057Y343219D03*
X136373Y343219D03*
D44*
X164300Y343219D03*
D24*
X184468Y343219D03*
X66358Y343536D03*
D13*
X77318Y343536D03*
X88417Y343536D03*
X106832Y343536D03*
X129057Y343536D03*
X136373Y343536D03*
D44*
X164300Y343536D03*
D24*
X184468Y343536D03*
X66358Y343854D03*
D13*
X77318Y343854D03*
X88417Y343854D03*
X106832Y343854D03*
X129057Y343854D03*
X136373Y343854D03*
D60*
X164148Y343854D03*
D24*
X184468Y343854D03*
X66358Y344171D03*
D25*
X73660Y344171D03*
D24*
X84773Y344171D03*
D61*
X103188Y344171D03*
D14*
X121755Y344171D03*
D62*
X141923Y344171D03*
D13*
X162408Y344171D03*
D28*
X173355Y344171D03*
D24*
X66358Y344489D03*
D25*
X73660Y344489D03*
D24*
X84773Y344489D03*
D61*
X103188Y344489D03*
X121603Y344489D03*
D62*
X141923Y344489D03*
D13*
X162408Y344489D03*
D28*
X173355Y344489D03*
D24*
X66358Y344806D03*
D25*
X73660Y344806D03*
D24*
X84773Y344806D03*
D61*
X103188Y344806D03*
D14*
X121755Y344806D03*
D62*
X141923Y344806D03*
D13*
X162408Y344806D03*
D28*
X173355Y344806D03*
D24*
X66358Y345124D03*
D25*
X73660Y345124D03*
D24*
X84773Y345124D03*
D61*
X103188Y345124D03*
D14*
X121755Y345124D03*
D62*
X141923Y345124D03*
D13*
X162408Y345124D03*
D28*
X173355Y345124D03*
D24*
X66358Y345441D03*
D25*
X73660Y345441D03*
D24*
X84773Y345441D03*
D61*
X103188Y345441D03*
D14*
X121755Y345441D03*
D62*
X141923Y345441D03*
D13*
X162408Y345441D03*
D28*
X173355Y345441D03*
D24*
X66358Y345759D03*
D25*
X73660Y345759D03*
D24*
X84773Y345759D03*
D61*
X103188Y345759D03*
D14*
X121755Y345759D03*
D62*
X141923Y345759D03*
D13*
X162408Y345759D03*
D28*
X173355Y345759D03*
D24*
X66358Y346076D03*
D25*
X73660Y346076D03*
D24*
X84773Y346076D03*
D61*
X103188Y346076D03*
D14*
X121755Y346076D03*
D62*
X141923Y346076D03*
D13*
X162408Y346076D03*
D28*
X173355Y346076D03*
D24*
X66358Y346394D03*
D25*
X73660Y346394D03*
D24*
X84773Y346394D03*
D61*
X103188Y346394D03*
D14*
X121755Y346394D03*
D62*
X141923Y346394D03*
D13*
X162408Y346394D03*
D28*
X173355Y346394D03*
D24*
X66358Y346711D03*
D25*
X73660Y346711D03*
D24*
X84773Y346711D03*
D61*
X103188Y346711D03*
D14*
X121755Y346711D03*
D62*
X141923Y346711D03*
D13*
X162408Y346711D03*
D28*
X173355Y346711D03*
D24*
X66358Y347029D03*
D25*
X73660Y347029D03*
D24*
X84773Y347029D03*
D61*
X103188Y347029D03*
D14*
X121755Y347029D03*
D62*
X141923Y347029D03*
D13*
X162408Y347029D03*
D28*
X173355Y347029D03*
D24*
X66358Y347346D03*
D25*
X73660Y347346D03*
D24*
X84773Y347346D03*
D61*
X103188Y347346D03*
X121603Y347346D03*
D62*
X141923Y347346D03*
D13*
X162408Y347346D03*
D28*
X173355Y347346D03*
D24*
X66358Y347664D03*
D13*
X73812Y347664D03*
D24*
X84773Y347664D03*
D61*
X103188Y347664D03*
D14*
X121755Y347664D03*
D56*
X142075Y347664D03*
D13*
X162408Y347664D03*
D28*
X173355Y347664D03*
D29*
X66358Y347980D03*
D33*
X77470Y347980D03*
D17*
X88417Y347980D03*
D32*
X108737Y347980D03*
D31*
X123508Y347980D03*
D32*
X142088Y347980D03*
D51*
X164300Y347980D03*
D17*
X180823Y347980D03*
D24*
X66358Y348296D03*
D28*
X77470Y348296D03*
D13*
X88417Y348296D03*
D27*
X108737Y348296D03*
D26*
X123508Y348296D03*
D27*
X142088Y348296D03*
D44*
X164300Y348296D03*
D13*
X180823Y348296D03*
D24*
X66358Y348614D03*
D28*
X77470Y348614D03*
D13*
X88417Y348614D03*
D27*
X108737Y348614D03*
D26*
X123508Y348614D03*
D27*
X142088Y348614D03*
D44*
X164300Y348614D03*
D13*
X180823Y348614D03*
D24*
X66358Y348931D03*
D28*
X77470Y348931D03*
D13*
X88417Y348931D03*
D27*
X108737Y348931D03*
D26*
X123508Y348931D03*
D27*
X142088Y348931D03*
D44*
X164300Y348931D03*
D13*
X180823Y348931D03*
D24*
X66358Y349249D03*
D28*
X77470Y349249D03*
D13*
X88417Y349249D03*
D27*
X108737Y349249D03*
D26*
X123508Y349249D03*
D27*
X142088Y349249D03*
D44*
X164300Y349249D03*
D13*
X180823Y349249D03*
D24*
X66358Y349566D03*
D28*
X77470Y349566D03*
D13*
X88417Y349566D03*
D27*
X108737Y349566D03*
D26*
X123508Y349566D03*
D27*
X142088Y349566D03*
D44*
X164300Y349566D03*
D13*
X180823Y349566D03*
D24*
X66358Y349884D03*
D28*
X77470Y349884D03*
D13*
X88417Y349884D03*
D27*
X108737Y349884D03*
D26*
X123508Y349884D03*
D27*
X142088Y349884D03*
D44*
X164300Y349884D03*
D13*
X180823Y349884D03*
D24*
X66358Y350201D03*
D28*
X77470Y350201D03*
D13*
X88417Y350201D03*
D27*
X108737Y350201D03*
D26*
X123508Y350201D03*
D27*
X142088Y350201D03*
D44*
X164300Y350201D03*
D13*
X180823Y350201D03*
D24*
X66358Y350519D03*
D28*
X77470Y350519D03*
D13*
X88417Y350519D03*
D27*
X108737Y350519D03*
D26*
X123508Y350519D03*
D27*
X142088Y350519D03*
D44*
X164300Y350519D03*
D13*
X180823Y350519D03*
D34*
X66358Y350838D03*
D37*
X77470Y350838D03*
D21*
X88417Y350838D03*
D36*
X108737Y350838D03*
D35*
X123508Y350838D03*
D36*
X142088Y350838D03*
D54*
X164300Y350838D03*
D21*
X180823Y350838D03*
D24*
X66358Y351156D03*
D28*
X77470Y351156D03*
D13*
X88417Y351156D03*
D27*
X108737Y351156D03*
D26*
X123508Y351156D03*
D27*
X142088Y351156D03*
D44*
X164300Y351156D03*
D13*
X180823Y351156D03*
D39*
X73825Y351474D03*
D13*
X103353Y351474D03*
X125247Y351474D03*
D25*
X136525Y351474D03*
D26*
X153353Y351474D03*
D13*
X162408Y351474D03*
D63*
X173355Y351474D03*
D26*
X182563Y351474D03*
D39*
X73825Y351791D03*
D24*
X103188Y351791D03*
X125413Y351791D03*
D13*
X136373Y351791D03*
D12*
X153035Y351791D03*
D13*
X162408Y351791D03*
X173507Y351791D03*
D26*
X182563Y351791D03*
D39*
X73825Y352109D03*
D24*
X103188Y352109D03*
X125413Y352109D03*
D13*
X136373Y352109D03*
D12*
X153035Y352109D03*
D13*
X162408Y352109D03*
X173507Y352109D03*
D26*
X182563Y352109D03*
D39*
X73825Y352426D03*
D24*
X103188Y352426D03*
X125413Y352426D03*
D13*
X136373Y352426D03*
D12*
X153035Y352426D03*
D13*
X162408Y352426D03*
X173507Y352426D03*
D26*
X182563Y352426D03*
D39*
X73825Y352744D03*
D24*
X103188Y352744D03*
X125413Y352744D03*
D13*
X136373Y352744D03*
D12*
X153035Y352744D03*
D13*
X162408Y352744D03*
X173507Y352744D03*
D26*
X182563Y352744D03*
D39*
X73825Y353061D03*
D24*
X103188Y353061D03*
X125413Y353061D03*
D13*
X136373Y353061D03*
D12*
X153035Y353061D03*
D13*
X162408Y353061D03*
X173507Y353061D03*
D26*
X182563Y353061D03*
D39*
X73825Y353379D03*
D24*
X103188Y353379D03*
X125413Y353379D03*
D13*
X136373Y353379D03*
D12*
X153035Y353379D03*
D13*
X162408Y353379D03*
X173507Y353379D03*
D26*
X182563Y353379D03*
D39*
X73825Y353696D03*
D24*
X103188Y353696D03*
X125413Y353696D03*
D13*
X136373Y353696D03*
D12*
X153035Y353696D03*
D13*
X162408Y353696D03*
X173507Y353696D03*
D26*
X182563Y353696D03*
D39*
X73825Y354014D03*
D24*
X103188Y354014D03*
X125413Y354014D03*
D13*
X136373Y354014D03*
D12*
X153035Y354014D03*
D13*
X162408Y354014D03*
X173507Y354014D03*
D26*
X182563Y354014D03*
D39*
X73825Y354331D03*
D24*
X103188Y354331D03*
X125413Y354331D03*
D13*
X136373Y354331D03*
D12*
X153035Y354331D03*
D13*
X162408Y354331D03*
X173507Y354331D03*
D26*
X182563Y354331D03*
D39*
X73825Y354649D03*
D24*
X103188Y354649D03*
X125413Y354649D03*
D13*
X136373Y354649D03*
D12*
X153035Y354649D03*
D13*
X162408Y354649D03*
X173507Y354649D03*
D26*
X182563Y354649D03*
D39*
X73825Y354966D03*
D24*
X103188Y354966D03*
X125413Y354966D03*
D13*
X136373Y354966D03*
D12*
X153035Y354966D03*
D13*
X162408Y354966D03*
X173507Y354966D03*
D26*
X182563Y354966D03*
D24*
X66358Y355284D03*
D61*
X88583Y355284D03*
D13*
X99543Y355284D03*
X110642Y355284D03*
D25*
X118110Y355284D03*
D13*
X129057Y355284D03*
X136373Y355284D03*
D14*
X151295Y355284D03*
D26*
X167958Y355284D03*
D13*
X180823Y355284D03*
D24*
X66358Y355601D03*
D61*
X88583Y355601D03*
D13*
X99543Y355601D03*
X110642Y355601D03*
X117958Y355601D03*
X129057Y355601D03*
X136373Y355601D03*
D14*
X151295Y355601D03*
D26*
X167958Y355601D03*
D13*
X180823Y355601D03*
D24*
X66358Y355919D03*
D61*
X88583Y355919D03*
D13*
X99543Y355919D03*
X110642Y355919D03*
D25*
X118110Y355919D03*
D13*
X129057Y355919D03*
X136373Y355919D03*
D14*
X151295Y355919D03*
D26*
X167958Y355919D03*
D13*
X180823Y355919D03*
D29*
X66358Y356235D03*
D64*
X88583Y356235D03*
D17*
X99543Y356235D03*
X110642Y356235D03*
D30*
X118110Y356235D03*
D17*
X129057Y356235D03*
X136373Y356235D03*
D18*
X151295Y356235D03*
D31*
X167958Y356235D03*
D17*
X180823Y356235D03*
D24*
X66358Y356551D03*
D61*
X88583Y356551D03*
D13*
X99543Y356551D03*
X110642Y356551D03*
D25*
X118110Y356551D03*
D13*
X129057Y356551D03*
X136373Y356551D03*
D14*
X151295Y356551D03*
D26*
X167958Y356551D03*
D13*
X180823Y356551D03*
D24*
X66358Y356869D03*
D61*
X88583Y356869D03*
D13*
X99543Y356869D03*
X110642Y356869D03*
D25*
X118110Y356869D03*
D13*
X129057Y356869D03*
X136373Y356869D03*
D14*
X151295Y356869D03*
D26*
X167958Y356869D03*
D13*
X180823Y356869D03*
D24*
X66358Y357186D03*
D61*
X88583Y357186D03*
D13*
X99543Y357186D03*
X110642Y357186D03*
D25*
X118110Y357186D03*
D13*
X129057Y357186D03*
X136373Y357186D03*
D14*
X151295Y357186D03*
D26*
X167958Y357186D03*
D13*
X180823Y357186D03*
D24*
X66358Y357504D03*
D61*
X88583Y357504D03*
D13*
X99543Y357504D03*
X110642Y357504D03*
D25*
X118110Y357504D03*
D13*
X129057Y357504D03*
X136373Y357504D03*
D14*
X151295Y357504D03*
D26*
X167958Y357504D03*
D13*
X180823Y357504D03*
D24*
X66358Y357821D03*
D61*
X88583Y357821D03*
D13*
X99543Y357821D03*
X110642Y357821D03*
D25*
X118110Y357821D03*
D13*
X129057Y357821D03*
X136373Y357821D03*
D14*
X151295Y357821D03*
D26*
X167958Y357821D03*
D13*
X180823Y357821D03*
D24*
X66358Y358139D03*
D61*
X88583Y358139D03*
D13*
X99543Y358139D03*
X110642Y358139D03*
D25*
X118110Y358139D03*
D13*
X129057Y358139D03*
X136373Y358139D03*
D14*
X151295Y358139D03*
D26*
X167958Y358139D03*
D13*
X180823Y358139D03*
D24*
X66358Y358456D03*
D61*
X88583Y358456D03*
D13*
X99543Y358456D03*
X110642Y358456D03*
D25*
X118110Y358456D03*
D13*
X129057Y358456D03*
X136373Y358456D03*
D14*
X151295Y358456D03*
D26*
X167958Y358456D03*
D13*
X180823Y358456D03*
D34*
X66358Y358775D03*
D65*
X88583Y358775D03*
D21*
X99543Y358775D03*
X110642Y358775D03*
D23*
X118110Y358775D03*
D21*
X129057Y358775D03*
X136373Y358775D03*
D22*
X151295Y358775D03*
D35*
X167958Y358775D03*
D21*
X180823Y358775D03*
D24*
X66358Y359094D03*
D25*
X73660Y359094D03*
D26*
X101283Y359094D03*
D27*
X112547Y359094D03*
D26*
X123508Y359094D03*
D13*
X132867Y359094D03*
D27*
X142088Y359094D03*
D13*
X151282Y359094D03*
X162408Y359094D03*
X169697Y359094D03*
D25*
X177165Y359094D03*
D24*
X66358Y359411D03*
D25*
X73660Y359411D03*
D26*
X101283Y359411D03*
D27*
X112547Y359411D03*
D26*
X123508Y359411D03*
D25*
X132715Y359411D03*
D27*
X142088Y359411D03*
D13*
X151282Y359411D03*
X162408Y359411D03*
X169697Y359411D03*
D25*
X177165Y359411D03*
D24*
X66358Y359729D03*
D25*
X73660Y359729D03*
D26*
X101283Y359729D03*
D27*
X112547Y359729D03*
D26*
X123508Y359729D03*
D25*
X132715Y359729D03*
D27*
X142088Y359729D03*
D13*
X151282Y359729D03*
X162408Y359729D03*
X169697Y359729D03*
D25*
X177165Y359729D03*
D24*
X66358Y360046D03*
D25*
X73660Y360046D03*
D26*
X101283Y360046D03*
D27*
X112547Y360046D03*
D26*
X123508Y360046D03*
D25*
X132715Y360046D03*
D27*
X142088Y360046D03*
D13*
X151282Y360046D03*
X162408Y360046D03*
X169697Y360046D03*
D25*
X177165Y360046D03*
D24*
X66358Y360364D03*
D25*
X73660Y360364D03*
D26*
X101283Y360364D03*
D27*
X112547Y360364D03*
D26*
X123508Y360364D03*
D25*
X132715Y360364D03*
D27*
X142088Y360364D03*
D13*
X151282Y360364D03*
X162408Y360364D03*
X169697Y360364D03*
D25*
X177165Y360364D03*
D24*
X66358Y360681D03*
D25*
X73660Y360681D03*
D26*
X101283Y360681D03*
D27*
X112547Y360681D03*
D26*
X123508Y360681D03*
D25*
X132715Y360681D03*
D27*
X142088Y360681D03*
D13*
X151282Y360681D03*
X162408Y360681D03*
X169697Y360681D03*
D25*
X177165Y360681D03*
D24*
X66358Y360999D03*
D25*
X73660Y360999D03*
D26*
X101283Y360999D03*
D27*
X112547Y360999D03*
D26*
X123508Y360999D03*
D25*
X132715Y360999D03*
D27*
X142088Y360999D03*
D13*
X151282Y360999D03*
X162408Y360999D03*
X169697Y360999D03*
D25*
X177165Y360999D03*
D24*
X66358Y361316D03*
D25*
X73660Y361316D03*
D26*
X101283Y361316D03*
D27*
X112547Y361316D03*
D26*
X123508Y361316D03*
D25*
X132715Y361316D03*
D27*
X142088Y361316D03*
D13*
X151282Y361316D03*
X162408Y361316D03*
X169697Y361316D03*
D25*
X177165Y361316D03*
D24*
X66358Y361634D03*
D25*
X73660Y361634D03*
D26*
X101283Y361634D03*
D27*
X112547Y361634D03*
D26*
X123508Y361634D03*
D25*
X132715Y361634D03*
D27*
X142088Y361634D03*
D13*
X151282Y361634D03*
X162408Y361634D03*
X169697Y361634D03*
D25*
X177165Y361634D03*
D24*
X66358Y361951D03*
D25*
X73660Y361951D03*
D26*
X101283Y361951D03*
D27*
X112547Y361951D03*
D26*
X123508Y361951D03*
D25*
X132715Y361951D03*
D27*
X142088Y361951D03*
D13*
X151282Y361951D03*
X162408Y361951D03*
X169697Y361951D03*
D25*
X177165Y361951D03*
D24*
X66358Y362269D03*
D25*
X73660Y362269D03*
D26*
X101283Y362269D03*
D12*
X112395Y362269D03*
D26*
X123508Y362269D03*
D25*
X132715Y362269D03*
D27*
X142088Y362269D03*
D13*
X151282Y362269D03*
X162408Y362269D03*
X169697Y362269D03*
D25*
X177165Y362269D03*
D24*
X66358Y362586D03*
D25*
X73660Y362586D03*
D59*
X83185Y362586D03*
X90170Y362586D03*
D66*
X94298Y362586D03*
D26*
X101283Y362586D03*
D67*
X110490Y362586D03*
D63*
X114300Y362586D03*
D13*
X121768Y362586D03*
D25*
X125730Y362586D03*
D13*
X132563Y362586D03*
D27*
X142088Y362586D03*
D42*
X151295Y362586D03*
D66*
X157163Y362586D03*
D13*
X162077Y362586D03*
D24*
X169863Y362586D03*
D13*
X177013Y362586D03*
D59*
X182245Y362586D03*
D24*
X66358Y362904D03*
D25*
X73660Y362904D03*
D26*
X86678Y362904D03*
D12*
X97790Y362904D03*
D28*
X118110Y362904D03*
D12*
X130810Y362904D03*
D27*
X142088Y362904D03*
D13*
X158598Y362904D03*
X173507Y362904D03*
X180823Y362904D03*
D24*
X66358Y363221D03*
D25*
X73660Y363221D03*
D26*
X86678Y363221D03*
D12*
X97790Y363221D03*
D28*
X118110Y363221D03*
D12*
X130810Y363221D03*
D27*
X142088Y363221D03*
D13*
X158598Y363221D03*
X173507Y363221D03*
X180823Y363221D03*
D24*
X66358Y363539D03*
D25*
X73660Y363539D03*
D26*
X86678Y363539D03*
D12*
X97790Y363539D03*
D28*
X118110Y363539D03*
D12*
X130810Y363539D03*
D27*
X142088Y363539D03*
D13*
X158598Y363539D03*
X173507Y363539D03*
X180823Y363539D03*
D24*
X66358Y363856D03*
D25*
X73660Y363856D03*
D26*
X86678Y363856D03*
D12*
X97790Y363856D03*
D28*
X118110Y363856D03*
D12*
X130810Y363856D03*
D27*
X142088Y363856D03*
D13*
X158598Y363856D03*
X173507Y363856D03*
X180823Y363856D03*
D29*
X66358Y364173D03*
D30*
X73660Y364173D03*
D31*
X86678Y364173D03*
D16*
X97790Y364173D03*
D33*
X118110Y364173D03*
D16*
X130810Y364173D03*
D32*
X142088Y364173D03*
D17*
X158598Y364173D03*
X173507Y364173D03*
X180823Y364173D03*
D24*
X66358Y364489D03*
D25*
X73660Y364489D03*
D26*
X86678Y364489D03*
D12*
X97790Y364489D03*
D28*
X118110Y364489D03*
D12*
X130810Y364489D03*
D27*
X142088Y364489D03*
D13*
X158598Y364489D03*
X173507Y364489D03*
X180823Y364489D03*
D24*
X66358Y364806D03*
D25*
X73660Y364806D03*
D26*
X86678Y364806D03*
D12*
X97790Y364806D03*
D28*
X118110Y364806D03*
D12*
X130810Y364806D03*
D27*
X142088Y364806D03*
D13*
X158598Y364806D03*
X173507Y364806D03*
X180823Y364806D03*
D24*
X66358Y365124D03*
D25*
X73660Y365124D03*
D26*
X86678Y365124D03*
D12*
X97790Y365124D03*
D28*
X118110Y365124D03*
D12*
X130810Y365124D03*
D27*
X142088Y365124D03*
D13*
X158598Y365124D03*
X173507Y365124D03*
X180823Y365124D03*
D24*
X66358Y365441D03*
D25*
X73660Y365441D03*
D26*
X86678Y365441D03*
D12*
X97790Y365441D03*
D28*
X118110Y365441D03*
D12*
X130810Y365441D03*
D27*
X142088Y365441D03*
D13*
X158598Y365441D03*
X173507Y365441D03*
X180823Y365441D03*
D24*
X66358Y365759D03*
D25*
X73660Y365759D03*
D26*
X86678Y365759D03*
D12*
X97790Y365759D03*
D28*
X118110Y365759D03*
D12*
X130810Y365759D03*
D27*
X142088Y365759D03*
D13*
X158598Y365759D03*
X173507Y365759D03*
X180823Y365759D03*
D24*
X66358Y366076D03*
D25*
X73660Y366076D03*
D26*
X86678Y366076D03*
D12*
X97790Y366076D03*
D28*
X118110Y366076D03*
D12*
X130810Y366076D03*
D27*
X142088Y366076D03*
D13*
X158598Y366076D03*
X173507Y366076D03*
X180823Y366076D03*
D56*
X71920Y366394D03*
D25*
X95885Y366394D03*
D68*
X116205Y366394D03*
D43*
X147638Y366394D03*
D13*
X173507Y366394D03*
D26*
X182563Y366394D03*
D57*
X71920Y366713D03*
D23*
X95885Y366713D03*
D69*
X116205Y366713D03*
D70*
X147638Y366713D03*
D21*
X173507Y366713D03*
D35*
X182563Y366713D03*
D56*
X71920Y367031D03*
D25*
X95885Y367031D03*
D68*
X116205Y367031D03*
D43*
X147638Y367031D03*
D13*
X173507Y367031D03*
D26*
X182563Y367031D03*
D56*
X71920Y367349D03*
D25*
X95885Y367349D03*
D68*
X116205Y367349D03*
D43*
X147638Y367349D03*
D13*
X173507Y367349D03*
D26*
X182563Y367349D03*
D56*
X71920Y367666D03*
D25*
X95885Y367666D03*
D68*
X116205Y367666D03*
D43*
X147638Y367666D03*
D13*
X173507Y367666D03*
D26*
X182563Y367666D03*
D56*
X71920Y367984D03*
D25*
X95885Y367984D03*
D68*
X116205Y367984D03*
D43*
X147638Y367984D03*
D13*
X173507Y367984D03*
D26*
X182563Y367984D03*
D56*
X71920Y368301D03*
D25*
X95885Y368301D03*
D68*
X116205Y368301D03*
D43*
X147638Y368301D03*
D13*
X173507Y368301D03*
D26*
X182563Y368301D03*
D56*
X71920Y368619D03*
D25*
X95885Y368619D03*
D68*
X116205Y368619D03*
D43*
X147638Y368619D03*
D13*
X173507Y368619D03*
D26*
X182563Y368619D03*
D56*
X71920Y368936D03*
D25*
X95885Y368936D03*
D68*
X116205Y368936D03*
D43*
X147638Y368936D03*
D13*
X173507Y368936D03*
D26*
X182563Y368936D03*
D56*
X71920Y369254D03*
D25*
X95885Y369254D03*
D68*
X116205Y369254D03*
D43*
X147638Y369254D03*
D13*
X173507Y369254D03*
D26*
X182563Y369254D03*
D56*
X71920Y369571D03*
D25*
X95885Y369571D03*
D68*
X116205Y369571D03*
D43*
X147638Y369571D03*
D13*
X173507Y369571D03*
D26*
X182563Y369571D03*
D56*
X71920Y369889D03*
D25*
X95885Y369889D03*
D68*
X116205Y369889D03*
D43*
X147638Y369889D03*
D25*
X173355Y369889D03*
D26*
X182563Y369889D03*
D13*
X81128Y370206D03*
X88417Y370206D03*
X106832Y370206D03*
X129057Y370206D03*
X140183Y370206D03*
D24*
X147638Y370206D03*
D13*
X158598Y370206D03*
D26*
X167958Y370206D03*
D13*
X180823Y370206D03*
X81128Y370524D03*
X88417Y370524D03*
X106832Y370524D03*
X129057Y370524D03*
X140183Y370524D03*
D24*
X147638Y370524D03*
D13*
X158598Y370524D03*
D26*
X167958Y370524D03*
D13*
X180823Y370524D03*
D17*
X81128Y370840D03*
X88417Y370840D03*
X106832Y370840D03*
X129057Y370840D03*
X140183Y370840D03*
D29*
X147638Y370840D03*
D17*
X158598Y370840D03*
D31*
X167958Y370840D03*
D17*
X180823Y370840D03*
D21*
X81128Y371158D03*
X88417Y371158D03*
X106832Y371158D03*
X129057Y371158D03*
X140183Y371158D03*
D34*
X147638Y371158D03*
D21*
X158598Y371158D03*
D35*
X167958Y371158D03*
D21*
X180823Y371158D03*
D17*
X81128Y371475D03*
X88417Y371475D03*
X106832Y371475D03*
X129057Y371475D03*
X140183Y371475D03*
D29*
X147638Y371475D03*
D17*
X158598Y371475D03*
D31*
X167958Y371475D03*
D17*
X180823Y371475D03*
D21*
X81128Y371793D03*
X88417Y371793D03*
X106832Y371793D03*
X129057Y371793D03*
X140183Y371793D03*
D34*
X147638Y371793D03*
D21*
X158598Y371793D03*
D35*
X167958Y371793D03*
D21*
X180823Y371793D03*
D17*
X81128Y372110D03*
X88417Y372110D03*
X106832Y372110D03*
X129057Y372110D03*
X140183Y372110D03*
D29*
X147638Y372110D03*
D17*
X158598Y372110D03*
D31*
X167958Y372110D03*
D17*
X180823Y372110D03*
D21*
X81128Y372428D03*
X88417Y372428D03*
X106832Y372428D03*
X129057Y372428D03*
X140183Y372428D03*
D34*
X147638Y372428D03*
D21*
X158598Y372428D03*
D35*
X167958Y372428D03*
D21*
X180823Y372428D03*
D17*
X81128Y372745D03*
X88417Y372745D03*
X106832Y372745D03*
X129057Y372745D03*
X140183Y372745D03*
D29*
X147638Y372745D03*
D17*
X158598Y372745D03*
D31*
X167958Y372745D03*
D17*
X180823Y372745D03*
D21*
X81128Y373063D03*
X88417Y373063D03*
X106832Y373063D03*
X129057Y373063D03*
X140183Y373063D03*
D34*
X147638Y373063D03*
D21*
X158598Y373063D03*
D35*
X167958Y373063D03*
D21*
X180823Y373063D03*
D17*
X81128Y373380D03*
X88417Y373380D03*
X106832Y373380D03*
X129057Y373380D03*
X140183Y373380D03*
D29*
X147638Y373380D03*
D17*
X158598Y373380D03*
D31*
X167958Y373380D03*
D17*
X180823Y373380D03*
D57*
X79210Y373698D03*
D20*
X93980Y373698D03*
D21*
X106832Y373698D03*
D23*
X118110Y373698D03*
D34*
X125413Y373698D03*
D40*
X151295Y373698D03*
D34*
X166053Y373698D03*
D23*
X177165Y373698D03*
D55*
X79210Y374015D03*
D16*
X93980Y374015D03*
D17*
X106832Y374015D03*
X117958Y374015D03*
D29*
X125413Y374015D03*
D38*
X151295Y374015D03*
D29*
X166053Y374015D03*
D30*
X177165Y374015D03*
D57*
X79210Y374333D03*
D20*
X93980Y374333D03*
D21*
X106832Y374333D03*
D23*
X118110Y374333D03*
D34*
X125413Y374333D03*
D40*
X151295Y374333D03*
D34*
X166053Y374333D03*
D23*
X177165Y374333D03*
D56*
X79210Y374651D03*
D12*
X93980Y374651D03*
D13*
X106832Y374651D03*
D25*
X118110Y374651D03*
D24*
X125413Y374651D03*
D39*
X151295Y374651D03*
D24*
X166053Y374651D03*
D25*
X177165Y374651D03*
D56*
X79210Y374969D03*
D12*
X93980Y374969D03*
D13*
X106832Y374969D03*
D25*
X118110Y374969D03*
D24*
X125413Y374969D03*
D39*
X151295Y374969D03*
D24*
X166053Y374969D03*
D25*
X177165Y374969D03*
D56*
X79210Y375286D03*
D12*
X93980Y375286D03*
D13*
X106832Y375286D03*
D25*
X118110Y375286D03*
D24*
X125413Y375286D03*
D39*
X151295Y375286D03*
D24*
X166053Y375286D03*
D25*
X177165Y375286D03*
D56*
X79210Y375604D03*
D12*
X93980Y375604D03*
D13*
X106832Y375604D03*
D25*
X118110Y375604D03*
D24*
X125413Y375604D03*
D39*
X151295Y375604D03*
D24*
X166053Y375604D03*
D25*
X177165Y375604D03*
D56*
X79210Y375921D03*
D12*
X93980Y375921D03*
D13*
X106832Y375921D03*
D25*
X118110Y375921D03*
D24*
X125413Y375921D03*
D39*
X151295Y375921D03*
D24*
X166053Y375921D03*
D25*
X177165Y375921D03*
D56*
X79210Y376239D03*
D12*
X93980Y376239D03*
D13*
X106832Y376239D03*
D25*
X118110Y376239D03*
D24*
X125413Y376239D03*
D39*
X151295Y376239D03*
D24*
X166053Y376239D03*
D25*
X177165Y376239D03*
D56*
X79210Y376556D03*
D12*
X93980Y376556D03*
D13*
X106832Y376556D03*
D25*
X118110Y376556D03*
D24*
X125413Y376556D03*
D39*
X151295Y376556D03*
D24*
X166053Y376556D03*
D25*
X177165Y376556D03*
D55*
X79210Y376873D03*
D16*
X93980Y376873D03*
D17*
X106832Y376873D03*
X117958Y376873D03*
D29*
X125413Y376873D03*
D38*
X151295Y376873D03*
D29*
X166053Y376873D03*
D30*
X177165Y376873D03*
D57*
X79210Y377190D03*
D20*
X93980Y377190D03*
D21*
X106832Y377190D03*
X117958Y377190D03*
D34*
X125413Y377190D03*
D40*
X151295Y377190D03*
D34*
X166053Y377190D03*
D23*
X177165Y377190D03*
D16*
X71755Y377508D03*
D64*
X88583Y377508D03*
X106998Y377508D03*
D29*
X147638Y377508D03*
D16*
X156845Y377508D03*
D17*
X180823Y377508D03*
D20*
X71755Y377825D03*
D65*
X88583Y377825D03*
X106998Y377825D03*
D34*
X147638Y377825D03*
D20*
X156845Y377825D03*
D21*
X180823Y377825D03*
D16*
X71755Y378143D03*
D64*
X88583Y378143D03*
X106998Y378143D03*
D29*
X147638Y378143D03*
D16*
X156845Y378143D03*
D17*
X180823Y378143D03*
D20*
X71755Y378460D03*
D65*
X88583Y378460D03*
X106998Y378460D03*
D34*
X147638Y378460D03*
D20*
X156845Y378460D03*
D21*
X180823Y378460D03*
D16*
X71755Y378778D03*
D64*
X88583Y378778D03*
X106998Y378778D03*
D29*
X147638Y378778D03*
D16*
X156845Y378778D03*
D17*
X180823Y378778D03*
D20*
X71755Y379095D03*
D65*
X88583Y379095D03*
X106998Y379095D03*
D34*
X147638Y379095D03*
D20*
X156845Y379095D03*
D21*
X180823Y379095D03*
D16*
X71755Y379413D03*
D64*
X88583Y379413D03*
X106998Y379413D03*
D29*
X147638Y379413D03*
D16*
X156845Y379413D03*
D17*
X180823Y379413D03*
D20*
X71755Y379730D03*
D65*
X88583Y379730D03*
X106998Y379730D03*
D34*
X147638Y379730D03*
D20*
X156845Y379730D03*
D21*
X180823Y379730D03*
D16*
X71755Y380048D03*
D64*
X88583Y380048D03*
X106998Y380048D03*
D29*
X147638Y380048D03*
D16*
X156845Y380048D03*
D17*
X180823Y380048D03*
D20*
X71755Y380365D03*
D65*
X88583Y380365D03*
X106998Y380365D03*
D34*
X147638Y380365D03*
D20*
X156845Y380365D03*
D21*
X180823Y380365D03*
D16*
X71755Y380683D03*
D64*
X88583Y380683D03*
X106998Y380683D03*
D29*
X147638Y380683D03*
D16*
X156845Y380683D03*
D17*
X180823Y380683D03*
D71*
X66205Y381000D03*
D21*
X70002Y381000D03*
D72*
X75248Y381000D03*
D73*
X83185Y381000D03*
D21*
X92227Y381000D03*
D71*
X96050Y381000D03*
D72*
X101918Y381000D03*
X112078Y381000D03*
D35*
X123508Y381000D03*
D22*
X136360Y381000D03*
D73*
X146050Y381000D03*
D71*
X150965Y381000D03*
D74*
X154940Y381000D03*
D21*
X162077Y381000D03*
X180823Y381000D03*
D71*
X184620Y381000D03*
D31*
X68263Y381318D03*
D16*
X93980Y381318D03*
D31*
X123508Y381318D03*
D33*
X136525Y381318D03*
D16*
X153035Y381318D03*
D17*
X162408Y381318D03*
D31*
X182563Y381318D03*
D35*
X68263Y381635D03*
D20*
X93980Y381635D03*
D35*
X123508Y381635D03*
D37*
X136525Y381635D03*
D20*
X153035Y381635D03*
D21*
X162408Y381635D03*
D35*
X182563Y381635D03*
D31*
X68263Y381953D03*
D16*
X93980Y381953D03*
D31*
X123508Y381953D03*
D33*
X136525Y381953D03*
D16*
X153035Y381953D03*
D17*
X162408Y381953D03*
D31*
X182563Y381953D03*
D35*
X68263Y382270D03*
D20*
X93980Y382270D03*
D35*
X123508Y382270D03*
D37*
X136525Y382270D03*
D20*
X153035Y382270D03*
D21*
X162408Y382270D03*
D35*
X182563Y382270D03*
D26*
X68263Y382589D03*
D12*
X93980Y382589D03*
D26*
X123508Y382589D03*
D28*
X136525Y382589D03*
D12*
X153035Y382589D03*
D13*
X162408Y382589D03*
D26*
X182563Y382589D03*
X68263Y382906D03*
D12*
X93980Y382906D03*
D26*
X123508Y382906D03*
D28*
X136525Y382906D03*
D12*
X153035Y382906D03*
D13*
X162408Y382906D03*
D26*
X182563Y382906D03*
X68263Y383224D03*
D12*
X93980Y383224D03*
D26*
X123508Y383224D03*
D28*
X136525Y383224D03*
D12*
X153035Y383224D03*
D13*
X162408Y383224D03*
D26*
X182563Y383224D03*
X68263Y383541D03*
D12*
X93980Y383541D03*
D26*
X123508Y383541D03*
D28*
X136525Y383541D03*
D12*
X153035Y383541D03*
D13*
X162408Y383541D03*
D26*
X182563Y383541D03*
X68263Y383859D03*
D12*
X93980Y383859D03*
D26*
X123508Y383859D03*
D28*
X136525Y383859D03*
D12*
X153035Y383859D03*
D13*
X162408Y383859D03*
D26*
X182563Y383859D03*
X68263Y384176D03*
D12*
X93980Y384176D03*
D26*
X123508Y384176D03*
D28*
X136525Y384176D03*
D12*
X153035Y384176D03*
D13*
X162408Y384176D03*
D26*
X182563Y384176D03*
X68263Y384494D03*
D12*
X93980Y384494D03*
D26*
X123508Y384494D03*
D28*
X136525Y384494D03*
D12*
X153035Y384494D03*
D13*
X162408Y384494D03*
D26*
X182563Y384494D03*
D75*
X84773Y384810D03*
D17*
X110642Y384810D03*
D16*
X120015Y384810D03*
D17*
X129057Y384810D03*
X140183Y384810D03*
X158598Y384810D03*
D18*
X169710Y384810D03*
D76*
X84773Y385128D03*
D21*
X110642Y385128D03*
D36*
X119863Y385128D03*
D21*
X129057Y385128D03*
X140183Y385128D03*
X158598Y385128D03*
D65*
X169863Y385128D03*
D75*
X84773Y385445D03*
D17*
X110642Y385445D03*
D16*
X120015Y385445D03*
D17*
X129057Y385445D03*
X140183Y385445D03*
X158598Y385445D03*
D64*
X169863Y385445D03*
D76*
X84773Y385763D03*
D21*
X110642Y385763D03*
D20*
X120015Y385763D03*
D21*
X129057Y385763D03*
X140183Y385763D03*
X158598Y385763D03*
D65*
X169863Y385763D03*
D75*
X84773Y386080D03*
D17*
X110642Y386080D03*
D16*
X120015Y386080D03*
D17*
X129057Y386080D03*
X140183Y386080D03*
X158598Y386080D03*
D64*
X169863Y386080D03*
D76*
X84773Y386398D03*
D21*
X110642Y386398D03*
D20*
X120015Y386398D03*
D21*
X129057Y386398D03*
X140183Y386398D03*
X158598Y386398D03*
D65*
X169863Y386398D03*
D75*
X84773Y386715D03*
D17*
X110642Y386715D03*
D16*
X120015Y386715D03*
D17*
X129057Y386715D03*
X140183Y386715D03*
X158598Y386715D03*
D64*
X169863Y386715D03*
D76*
X84773Y387033D03*
D21*
X110642Y387033D03*
D20*
X120015Y387033D03*
D21*
X129057Y387033D03*
X140183Y387033D03*
X158598Y387033D03*
D65*
X169863Y387033D03*
D75*
X84773Y387350D03*
D17*
X110642Y387350D03*
D16*
X120015Y387350D03*
D17*
X129057Y387350D03*
X140183Y387350D03*
X158598Y387350D03*
D64*
X169863Y387350D03*
D76*
X84773Y387668D03*
D21*
X110642Y387668D03*
D20*
X120015Y387668D03*
D21*
X129057Y387668D03*
X140183Y387668D03*
X158598Y387668D03*
D65*
X169863Y387668D03*
D75*
X84773Y387985D03*
D17*
X110642Y387985D03*
D16*
X120015Y387985D03*
D17*
X129057Y387985D03*
X140183Y387985D03*
X158598Y387985D03*
D64*
X169863Y387985D03*
D76*
X84773Y388303D03*
D21*
X110642Y388303D03*
D20*
X120015Y388303D03*
D21*
X129057Y388303D03*
X140183Y388303D03*
X158598Y388303D03*
D65*
X169863Y388303D03*
D17*
X70002Y388620D03*
D29*
X84773Y388620D03*
D32*
X112547Y388620D03*
D17*
X121768Y388620D03*
D16*
X134620Y388620D03*
D17*
X143993Y388620D03*
D30*
X154940Y388620D03*
D31*
X167958Y388620D03*
D30*
X177165Y388620D03*
D21*
X70002Y388938D03*
D34*
X84773Y388938D03*
D36*
X112547Y388938D03*
D21*
X121768Y388938D03*
D20*
X134620Y388938D03*
D21*
X143993Y388938D03*
D23*
X154940Y388938D03*
D35*
X167958Y388938D03*
D23*
X177165Y388938D03*
D17*
X70002Y389255D03*
D29*
X84773Y389255D03*
D32*
X112547Y389255D03*
D17*
X121768Y389255D03*
D16*
X134620Y389255D03*
D17*
X143993Y389255D03*
D30*
X154940Y389255D03*
D31*
X167958Y389255D03*
D30*
X177165Y389255D03*
D21*
X70002Y389573D03*
D34*
X84773Y389573D03*
D36*
X112547Y389573D03*
D21*
X121768Y389573D03*
D20*
X134620Y389573D03*
D21*
X143993Y389573D03*
D23*
X154940Y389573D03*
D35*
X167958Y389573D03*
D23*
X177165Y389573D03*
D17*
X70002Y389890D03*
D29*
X84773Y389890D03*
D32*
X112547Y389890D03*
D17*
X121768Y389890D03*
D16*
X134620Y389890D03*
D17*
X143993Y389890D03*
D30*
X154940Y389890D03*
D31*
X167958Y389890D03*
D30*
X177165Y389890D03*
D21*
X70002Y390208D03*
D34*
X84773Y390208D03*
D36*
X112547Y390208D03*
D21*
X121768Y390208D03*
D20*
X134620Y390208D03*
D21*
X143993Y390208D03*
D23*
X154940Y390208D03*
D35*
X167958Y390208D03*
D23*
X177165Y390208D03*
D13*
X70002Y390526D03*
D24*
X84773Y390526D03*
D27*
X112547Y390526D03*
D13*
X121768Y390526D03*
D12*
X134620Y390526D03*
D13*
X143993Y390526D03*
D25*
X154940Y390526D03*
D26*
X167958Y390526D03*
D25*
X177165Y390526D03*
D13*
X70002Y390844D03*
D24*
X84773Y390844D03*
D27*
X112547Y390844D03*
D13*
X121768Y390844D03*
D12*
X134620Y390844D03*
D13*
X143993Y390844D03*
D25*
X154940Y390844D03*
D26*
X167958Y390844D03*
D25*
X177165Y390844D03*
D13*
X70002Y391161D03*
D24*
X84773Y391161D03*
D27*
X112547Y391161D03*
D13*
X121768Y391161D03*
D12*
X134620Y391161D03*
D13*
X143993Y391161D03*
D25*
X154940Y391161D03*
D26*
X167958Y391161D03*
D25*
X177165Y391161D03*
D13*
X70002Y391479D03*
D24*
X84773Y391479D03*
D27*
X112547Y391479D03*
D13*
X121768Y391479D03*
D12*
X134620Y391479D03*
D13*
X143993Y391479D03*
D25*
X154940Y391479D03*
D26*
X167958Y391479D03*
D25*
X177165Y391479D03*
D13*
X70002Y391796D03*
D24*
X84773Y391796D03*
D12*
X112395Y391796D03*
D13*
X121768Y391796D03*
D12*
X134620Y391796D03*
D13*
X143993Y391796D03*
D25*
X154940Y391796D03*
D26*
X167958Y391796D03*
D25*
X177165Y391796D03*
X69850Y392114D03*
D24*
X84773Y392114D03*
D26*
X112713Y392114D03*
D13*
X121768Y392114D03*
D12*
X134620Y392114D03*
D13*
X143993Y392114D03*
X155092Y392114D03*
D66*
X160338Y392114D03*
D26*
X167958Y392114D03*
D13*
X177013Y392114D03*
D24*
X66358Y392431D03*
D27*
X79223Y392431D03*
D13*
X88417Y392431D03*
D24*
X103188Y392431D03*
D56*
X119850Y392431D03*
D13*
X143993Y392431D03*
D12*
X156845Y392431D03*
D27*
X171602Y392431D03*
D13*
X180823Y392431D03*
D29*
X66358Y392748D03*
D32*
X79223Y392748D03*
D17*
X88417Y392748D03*
D29*
X103188Y392748D03*
D55*
X119850Y392748D03*
D17*
X143993Y392748D03*
D16*
X156845Y392748D03*
D32*
X171602Y392748D03*
D17*
X180823Y392748D03*
D34*
X66358Y393065D03*
D36*
X79223Y393065D03*
D21*
X88417Y393065D03*
D34*
X103188Y393065D03*
D57*
X119850Y393065D03*
D21*
X143993Y393065D03*
D20*
X156845Y393065D03*
D36*
X171602Y393065D03*
D21*
X180823Y393065D03*
D29*
X66358Y393383D03*
D32*
X79223Y393383D03*
D17*
X88417Y393383D03*
D29*
X103188Y393383D03*
D55*
X119850Y393383D03*
D17*
X143993Y393383D03*
D16*
X156845Y393383D03*
D32*
X171602Y393383D03*
D17*
X180823Y393383D03*
D34*
X66358Y393700D03*
D36*
X79223Y393700D03*
D21*
X88417Y393700D03*
D34*
X103188Y393700D03*
D57*
X119850Y393700D03*
D21*
X143993Y393700D03*
D20*
X156845Y393700D03*
D36*
X171602Y393700D03*
D21*
X180823Y393700D03*
D29*
X66358Y394018D03*
D32*
X79223Y394018D03*
D17*
X88417Y394018D03*
D29*
X103188Y394018D03*
D55*
X119850Y394018D03*
D17*
X143993Y394018D03*
D16*
X156845Y394018D03*
D32*
X171602Y394018D03*
D17*
X180823Y394018D03*
D34*
X66358Y394335D03*
D36*
X79223Y394335D03*
D21*
X88417Y394335D03*
D34*
X103188Y394335D03*
D57*
X119850Y394335D03*
D21*
X143993Y394335D03*
D20*
X156845Y394335D03*
D36*
X171602Y394335D03*
D21*
X180823Y394335D03*
D29*
X66358Y394653D03*
D32*
X79223Y394653D03*
D17*
X88417Y394653D03*
D29*
X103188Y394653D03*
D55*
X119850Y394653D03*
D17*
X143993Y394653D03*
D16*
X156845Y394653D03*
D32*
X171602Y394653D03*
D17*
X180823Y394653D03*
D34*
X66358Y394970D03*
D36*
X79223Y394970D03*
D21*
X88417Y394970D03*
D34*
X103188Y394970D03*
D57*
X119850Y394970D03*
D21*
X143993Y394970D03*
D20*
X156845Y394970D03*
D36*
X171602Y394970D03*
D21*
X180823Y394970D03*
D29*
X66358Y395288D03*
D32*
X79223Y395288D03*
D17*
X88417Y395288D03*
D29*
X103188Y395288D03*
D55*
X119850Y395288D03*
D17*
X143993Y395288D03*
D16*
X156845Y395288D03*
D32*
X171602Y395288D03*
D17*
X180823Y395288D03*
D34*
X66358Y395605D03*
D36*
X79223Y395605D03*
D21*
X88417Y395605D03*
D34*
X103188Y395605D03*
D57*
X119850Y395605D03*
D21*
X143993Y395605D03*
D20*
X156845Y395605D03*
D36*
X171602Y395605D03*
D21*
X180823Y395605D03*
D55*
X71920Y395923D03*
D30*
X95885Y395923D03*
D29*
X103188Y395923D03*
D77*
X116205Y395923D03*
D33*
X136525Y395923D03*
D18*
X151295Y395923D03*
D17*
X162408Y395923D03*
D18*
X180810Y395923D03*
D57*
X71920Y396240D03*
D23*
X95885Y396240D03*
D34*
X103188Y396240D03*
D69*
X116205Y396240D03*
D37*
X136525Y396240D03*
D22*
X151295Y396240D03*
D21*
X162408Y396240D03*
D22*
X180810Y396240D03*
D55*
X71920Y396558D03*
D30*
X95885Y396558D03*
D29*
X103188Y396558D03*
D77*
X116205Y396558D03*
D33*
X136525Y396558D03*
D18*
X151295Y396558D03*
D17*
X162408Y396558D03*
D18*
X180810Y396558D03*
D57*
X71920Y396875D03*
D23*
X95885Y396875D03*
D34*
X103188Y396875D03*
D69*
X116205Y396875D03*
D37*
X136525Y396875D03*
D22*
X151295Y396875D03*
D21*
X162408Y396875D03*
D22*
X180810Y396875D03*
D55*
X71920Y397193D03*
D30*
X95885Y397193D03*
D29*
X103188Y397193D03*
D77*
X116205Y397193D03*
D33*
X136525Y397193D03*
D18*
X151295Y397193D03*
D17*
X162408Y397193D03*
D18*
X180810Y397193D03*
D57*
X71920Y397510D03*
D23*
X95885Y397510D03*
D34*
X103188Y397510D03*
D69*
X116205Y397510D03*
D37*
X136525Y397510D03*
D22*
X151295Y397510D03*
D21*
X162408Y397510D03*
D22*
X180810Y397510D03*
D55*
X71920Y397828D03*
D30*
X95885Y397828D03*
D29*
X103188Y397828D03*
D77*
X116205Y397828D03*
D33*
X136525Y397828D03*
D18*
X151295Y397828D03*
D17*
X162408Y397828D03*
D18*
X180810Y397828D03*
D57*
X71920Y398145D03*
D23*
X95885Y398145D03*
D34*
X103188Y398145D03*
D69*
X116205Y398145D03*
D37*
X136525Y398145D03*
D22*
X151295Y398145D03*
D21*
X162408Y398145D03*
D22*
X180810Y398145D03*
D56*
X71920Y398464D03*
D25*
X95885Y398464D03*
D24*
X103188Y398464D03*
D68*
X116205Y398464D03*
D28*
X136525Y398464D03*
D14*
X151295Y398464D03*
D13*
X162408Y398464D03*
D14*
X180810Y398464D03*
D56*
X71920Y398781D03*
D25*
X95885Y398781D03*
D24*
X103188Y398781D03*
D68*
X116205Y398781D03*
D28*
X136525Y398781D03*
D14*
X151295Y398781D03*
D13*
X162408Y398781D03*
D14*
X180810Y398781D03*
D56*
X71920Y399099D03*
D25*
X95885Y399099D03*
D24*
X103188Y399099D03*
D68*
X116205Y399099D03*
D28*
X136525Y399099D03*
D14*
X151295Y399099D03*
D13*
X162408Y399099D03*
D14*
X180810Y399099D03*
D56*
X71920Y399416D03*
D25*
X95885Y399416D03*
D13*
X103353Y399416D03*
D68*
X116205Y399416D03*
D28*
X136525Y399416D03*
D14*
X151295Y399416D03*
D13*
X162408Y399416D03*
D14*
X180810Y399416D03*
D39*
X73825Y399734D03*
D68*
X93980Y399734D03*
D13*
X106832Y399734D03*
D26*
X127318Y399734D03*
D25*
X136525Y399734D03*
D13*
X158598Y399734D03*
D24*
X166053Y399734D03*
D13*
X173507Y399734D03*
X180823Y399734D03*
D39*
X73825Y400051D03*
D68*
X93980Y400051D03*
D13*
X106832Y400051D03*
D26*
X127318Y400051D03*
D13*
X136373Y400051D03*
X158598Y400051D03*
D24*
X166053Y400051D03*
D13*
X173507Y400051D03*
X180823Y400051D03*
D39*
X73825Y400369D03*
D68*
X93980Y400369D03*
D13*
X106832Y400369D03*
D26*
X127318Y400369D03*
D13*
X136373Y400369D03*
X158598Y400369D03*
D24*
X166053Y400369D03*
D13*
X173507Y400369D03*
X180823Y400369D03*
D38*
X73825Y400685D03*
D77*
X93980Y400685D03*
D17*
X106832Y400685D03*
D31*
X127318Y400685D03*
D17*
X136373Y400685D03*
X158598Y400685D03*
D29*
X166053Y400685D03*
D17*
X173507Y400685D03*
X180823Y400685D03*
D40*
X73825Y401003D03*
D69*
X93980Y401003D03*
D21*
X106832Y401003D03*
D35*
X127318Y401003D03*
D21*
X136373Y401003D03*
X158598Y401003D03*
D34*
X166053Y401003D03*
D21*
X173507Y401003D03*
X180823Y401003D03*
D38*
X73825Y401320D03*
D77*
X93980Y401320D03*
D17*
X106832Y401320D03*
D31*
X127318Y401320D03*
D17*
X136373Y401320D03*
X158598Y401320D03*
D29*
X166053Y401320D03*
D17*
X173507Y401320D03*
X180823Y401320D03*
D40*
X73825Y401638D03*
D69*
X93980Y401638D03*
D21*
X106832Y401638D03*
D35*
X127318Y401638D03*
D21*
X136373Y401638D03*
X158598Y401638D03*
D34*
X166053Y401638D03*
D21*
X173507Y401638D03*
X180823Y401638D03*
D38*
X73825Y401955D03*
D77*
X93980Y401955D03*
D17*
X106832Y401955D03*
D31*
X127318Y401955D03*
D17*
X136373Y401955D03*
X158598Y401955D03*
D29*
X166053Y401955D03*
D17*
X173507Y401955D03*
X180823Y401955D03*
D40*
X73825Y402273D03*
D69*
X93980Y402273D03*
D21*
X106832Y402273D03*
D35*
X127318Y402273D03*
D21*
X136373Y402273D03*
X158598Y402273D03*
D34*
X166053Y402273D03*
D21*
X173507Y402273D03*
X180823Y402273D03*
D38*
X73825Y402590D03*
D77*
X93980Y402590D03*
D17*
X106832Y402590D03*
D31*
X127318Y402590D03*
D17*
X136373Y402590D03*
X158598Y402590D03*
D29*
X166053Y402590D03*
D17*
X173507Y402590D03*
X180823Y402590D03*
D40*
X73825Y402908D03*
D69*
X93980Y402908D03*
D21*
X106832Y402908D03*
D35*
X127318Y402908D03*
D21*
X136373Y402908D03*
X158598Y402908D03*
X165887Y402908D03*
X173507Y402908D03*
X180823Y402908D03*
D64*
X103188Y403225D03*
D30*
X118110Y403225D03*
D29*
X125413Y403225D03*
D64*
X140018Y403225D03*
D16*
X153035Y403225D03*
D65*
X103188Y403543D03*
D21*
X117958Y403543D03*
D34*
X125413Y403543D03*
D78*
X140183Y403543D03*
D20*
X153035Y403543D03*
D64*
X103188Y403860D03*
D30*
X118110Y403860D03*
D29*
X125413Y403860D03*
D79*
X140183Y403860D03*
D16*
X153035Y403860D03*
D65*
X103188Y404178D03*
D23*
X118110Y404178D03*
D34*
X125413Y404178D03*
D78*
X140183Y404178D03*
D20*
X153035Y404178D03*
D64*
X103188Y404495D03*
D30*
X118110Y404495D03*
D29*
X125413Y404495D03*
D79*
X140183Y404495D03*
D16*
X153035Y404495D03*
D65*
X103188Y404813D03*
D23*
X118110Y404813D03*
D34*
X125413Y404813D03*
D78*
X140183Y404813D03*
D20*
X153035Y404813D03*
D64*
X103188Y405130D03*
D30*
X118110Y405130D03*
D29*
X125413Y405130D03*
D79*
X140183Y405130D03*
D16*
X153035Y405130D03*
D65*
X103188Y405448D03*
D23*
X118110Y405448D03*
D34*
X125413Y405448D03*
D78*
X140183Y405448D03*
D20*
X153035Y405448D03*
D64*
X103188Y405765D03*
D30*
X118110Y405765D03*
D29*
X125413Y405765D03*
D79*
X140183Y405765D03*
D16*
X153035Y405765D03*
D65*
X103188Y406083D03*
D23*
X118110Y406083D03*
D34*
X125413Y406083D03*
D78*
X140183Y406083D03*
D20*
X153035Y406083D03*
D61*
X103188Y406401D03*
D25*
X118110Y406401D03*
D24*
X125413Y406401D03*
D58*
X140183Y406401D03*
D12*
X153035Y406401D03*
D61*
X103188Y406719D03*
D25*
X118110Y406719D03*
D24*
X125413Y406719D03*
D58*
X140183Y406719D03*
D12*
X153035Y406719D03*
D11*
X77470Y407036D03*
D25*
X95885Y407036D03*
D24*
X103188Y407036D03*
D13*
X110642Y407036D03*
D25*
X118110Y407036D03*
D24*
X125413Y407036D03*
D25*
X132715Y407036D03*
D13*
X140183Y407036D03*
D24*
X147638Y407036D03*
D25*
X154940Y407036D03*
D11*
X173355Y407036D03*
X77470Y407354D03*
D25*
X95885Y407354D03*
D24*
X103188Y407354D03*
D13*
X110642Y407354D03*
D25*
X118110Y407354D03*
D24*
X125413Y407354D03*
D25*
X132715Y407354D03*
D13*
X140183Y407354D03*
D24*
X147638Y407354D03*
D25*
X154940Y407354D03*
D11*
X173355Y407354D03*
X77470Y407671D03*
D25*
X95885Y407671D03*
D24*
X103188Y407671D03*
D13*
X110642Y407671D03*
D25*
X118110Y407671D03*
D24*
X125413Y407671D03*
D25*
X132715Y407671D03*
D13*
X140183Y407671D03*
D24*
X147638Y407671D03*
D25*
X154940Y407671D03*
D11*
X173355Y407671D03*
X77470Y407989D03*
D25*
X95885Y407989D03*
D24*
X103188Y407989D03*
D13*
X110642Y407989D03*
D25*
X118110Y407989D03*
D24*
X125413Y407989D03*
D25*
X132715Y407989D03*
D13*
X140183Y407989D03*
D24*
X147638Y407989D03*
D25*
X154940Y407989D03*
D11*
X173355Y407989D03*
X77470Y408306D03*
D25*
X95885Y408306D03*
D24*
X103188Y408306D03*
D13*
X110642Y408306D03*
D25*
X118110Y408306D03*
D24*
X125413Y408306D03*
D25*
X132715Y408306D03*
D13*
X140183Y408306D03*
D24*
X147638Y408306D03*
D25*
X154940Y408306D03*
D11*
X173355Y408306D03*
X77470Y408624D03*
D25*
X95885Y408624D03*
D24*
X103188Y408624D03*
D13*
X110642Y408624D03*
D25*
X118110Y408624D03*
D24*
X125413Y408624D03*
D25*
X132715Y408624D03*
D13*
X140183Y408624D03*
D24*
X147638Y408624D03*
D25*
X154940Y408624D03*
D11*
X173355Y408624D03*
X77470Y408941D03*
D25*
X95885Y408941D03*
D24*
X103188Y408941D03*
D13*
X110642Y408941D03*
D25*
X118110Y408941D03*
D24*
X125413Y408941D03*
D25*
X132715Y408941D03*
D13*
X140183Y408941D03*
D24*
X147638Y408941D03*
D25*
X154940Y408941D03*
D11*
X173355Y408941D03*
D15*
X77470Y409258D03*
D30*
X95885Y409258D03*
D29*
X103188Y409258D03*
D17*
X110642Y409258D03*
D30*
X118110Y409258D03*
D29*
X125413Y409258D03*
D30*
X132715Y409258D03*
D17*
X140183Y409258D03*
D29*
X147638Y409258D03*
D30*
X154940Y409258D03*
D15*
X173355Y409258D03*
D19*
X77470Y409575D03*
D23*
X95885Y409575D03*
D34*
X103188Y409575D03*
D21*
X110642Y409575D03*
D23*
X118110Y409575D03*
D34*
X125413Y409575D03*
D23*
X132715Y409575D03*
D21*
X140183Y409575D03*
D34*
X147638Y409575D03*
D23*
X154940Y409575D03*
D19*
X173355Y409575D03*
D15*
X77470Y409893D03*
D30*
X95885Y409893D03*
D29*
X103188Y409893D03*
D17*
X110642Y409893D03*
D30*
X118110Y409893D03*
D29*
X125413Y409893D03*
D30*
X132715Y409893D03*
D17*
X140183Y409893D03*
D29*
X147638Y409893D03*
D30*
X154940Y409893D03*
D15*
X173355Y409893D03*
D19*
X77470Y410210D03*
D23*
X95885Y410210D03*
D34*
X103188Y410210D03*
D21*
X110642Y410210D03*
X117958Y410210D03*
D34*
X125413Y410210D03*
D21*
X132867Y410210D03*
X140183Y410210D03*
D34*
X147638Y410210D03*
D23*
X154940Y410210D03*
D19*
X173355Y410210D03*
D15*
X77470Y410528D03*
D17*
X96037Y410528D03*
D29*
X103188Y410528D03*
D17*
X110642Y410528D03*
D30*
X118110Y410528D03*
D29*
X125413Y410528D03*
D30*
X132715Y410528D03*
D17*
X140183Y410528D03*
D29*
X147638Y410528D03*
D30*
X154940Y410528D03*
D15*
X173355Y410528D03*
D34*
X66358Y410845D03*
D21*
X88417Y410845D03*
D20*
X97790Y410845D03*
D36*
X108737Y410845D03*
X142088Y410845D03*
D23*
X154940Y410845D03*
D21*
X162408Y410845D03*
D34*
X184468Y410845D03*
D29*
X66358Y411163D03*
D17*
X88417Y411163D03*
D16*
X97790Y411163D03*
D32*
X108737Y411163D03*
X142088Y411163D03*
D30*
X154940Y411163D03*
D17*
X162408Y411163D03*
D29*
X184468Y411163D03*
D34*
X66358Y411480D03*
D21*
X88417Y411480D03*
D20*
X97790Y411480D03*
D36*
X108737Y411480D03*
X142088Y411480D03*
D23*
X154940Y411480D03*
D21*
X162408Y411480D03*
D34*
X184468Y411480D03*
D29*
X66358Y411798D03*
D17*
X88417Y411798D03*
D16*
X97790Y411798D03*
D32*
X108737Y411798D03*
X142088Y411798D03*
D30*
X154940Y411798D03*
D17*
X162408Y411798D03*
D29*
X184468Y411798D03*
D34*
X66358Y412115D03*
D21*
X88417Y412115D03*
D20*
X97790Y412115D03*
D36*
X108737Y412115D03*
X142088Y412115D03*
D23*
X154940Y412115D03*
D21*
X162408Y412115D03*
D34*
X184468Y412115D03*
D29*
X66358Y412433D03*
D17*
X88417Y412433D03*
D16*
X97790Y412433D03*
D32*
X108737Y412433D03*
X142088Y412433D03*
D30*
X154940Y412433D03*
D17*
X162408Y412433D03*
D29*
X184468Y412433D03*
D34*
X66358Y412750D03*
D21*
X88417Y412750D03*
D20*
X97790Y412750D03*
D36*
X108737Y412750D03*
X142088Y412750D03*
D23*
X154940Y412750D03*
D21*
X162408Y412750D03*
D34*
X184468Y412750D03*
D29*
X66358Y413068D03*
D17*
X88417Y413068D03*
D16*
X97790Y413068D03*
D32*
X108737Y413068D03*
X142088Y413068D03*
D30*
X154940Y413068D03*
D17*
X162408Y413068D03*
D29*
X184468Y413068D03*
D34*
X66358Y413385D03*
D21*
X88417Y413385D03*
D20*
X97790Y413385D03*
D36*
X108737Y413385D03*
X142088Y413385D03*
D23*
X154940Y413385D03*
D21*
X162408Y413385D03*
D34*
X184468Y413385D03*
D29*
X66358Y413703D03*
D17*
X88417Y413703D03*
D16*
X97790Y413703D03*
D32*
X108737Y413703D03*
X142088Y413703D03*
D30*
X154940Y413703D03*
D17*
X162408Y413703D03*
D29*
X184468Y413703D03*
D34*
X66358Y414020D03*
D21*
X88417Y414020D03*
D20*
X97790Y414020D03*
D36*
X108737Y414020D03*
X142088Y414020D03*
D23*
X154940Y414020D03*
D21*
X162408Y414020D03*
D34*
X184468Y414020D03*
D24*
X66358Y414339D03*
D28*
X77470Y414339D03*
D13*
X88417Y414339D03*
X99543Y414339D03*
D45*
X138278Y414339D03*
D13*
X162408Y414339D03*
D28*
X173355Y414339D03*
D24*
X184468Y414339D03*
X66358Y414656D03*
D28*
X77470Y414656D03*
D13*
X88417Y414656D03*
X99543Y414656D03*
D45*
X138278Y414656D03*
D13*
X162408Y414656D03*
D28*
X173355Y414656D03*
D24*
X184468Y414656D03*
X66358Y414974D03*
D28*
X77470Y414974D03*
D13*
X88417Y414974D03*
X99543Y414974D03*
D45*
X138278Y414974D03*
D13*
X162408Y414974D03*
D28*
X173355Y414974D03*
D24*
X184468Y414974D03*
X66358Y415291D03*
D28*
X77470Y415291D03*
D13*
X88417Y415291D03*
X99543Y415291D03*
D45*
X138278Y415291D03*
D13*
X162408Y415291D03*
D28*
X173355Y415291D03*
D24*
X184468Y415291D03*
X66358Y415609D03*
D28*
X77470Y415609D03*
D13*
X88417Y415609D03*
X99543Y415609D03*
D45*
X138278Y415609D03*
D13*
X162408Y415609D03*
D28*
X173355Y415609D03*
D24*
X184468Y415609D03*
X66358Y415926D03*
D28*
X77470Y415926D03*
D13*
X88417Y415926D03*
X99543Y415926D03*
D45*
X138278Y415926D03*
D13*
X162408Y415926D03*
D28*
X173355Y415926D03*
D24*
X184468Y415926D03*
X66358Y416244D03*
D28*
X77470Y416244D03*
D13*
X88417Y416244D03*
X99543Y416244D03*
D45*
X138278Y416244D03*
D13*
X162408Y416244D03*
D28*
X173355Y416244D03*
D24*
X184468Y416244D03*
X66358Y416561D03*
D28*
X77470Y416561D03*
D13*
X88417Y416561D03*
X99543Y416561D03*
D45*
X138278Y416561D03*
D13*
X162408Y416561D03*
D28*
X173355Y416561D03*
D24*
X184468Y416561D03*
X66358Y416879D03*
D28*
X77470Y416879D03*
D13*
X88417Y416879D03*
X99543Y416879D03*
D45*
X138278Y416879D03*
D13*
X162408Y416879D03*
D28*
X173355Y416879D03*
D24*
X184468Y416879D03*
D29*
X66358Y417195D03*
D33*
X77470Y417195D03*
D17*
X88417Y417195D03*
X99543Y417195D03*
D47*
X138278Y417195D03*
D17*
X162408Y417195D03*
D33*
X173355Y417195D03*
D29*
X184468Y417195D03*
D34*
X66358Y417513D03*
D37*
X77470Y417513D03*
D21*
X88417Y417513D03*
X99543Y417513D03*
D49*
X138278Y417513D03*
D21*
X162408Y417513D03*
D37*
X173355Y417513D03*
D34*
X184468Y417513D03*
D29*
X66358Y417830D03*
D33*
X77470Y417830D03*
D17*
X88417Y417830D03*
X99543Y417830D03*
D47*
X138278Y417830D03*
D17*
X162408Y417830D03*
D33*
X173355Y417830D03*
D29*
X184468Y417830D03*
D34*
X66358Y418148D03*
D37*
X77470Y418148D03*
D21*
X88417Y418148D03*
D22*
X99530Y418148D03*
D21*
X110642Y418148D03*
D20*
X120015Y418148D03*
D36*
X130962Y418148D03*
D21*
X162408Y418148D03*
D37*
X173355Y418148D03*
D34*
X184468Y418148D03*
D29*
X66358Y418465D03*
D33*
X77470Y418465D03*
D17*
X88417Y418465D03*
D18*
X99530Y418465D03*
D17*
X110642Y418465D03*
D32*
X119863Y418465D03*
D16*
X130810Y418465D03*
D17*
X162408Y418465D03*
D33*
X173355Y418465D03*
D29*
X184468Y418465D03*
D34*
X66358Y418783D03*
D37*
X77470Y418783D03*
D21*
X88417Y418783D03*
D22*
X99530Y418783D03*
D21*
X110642Y418783D03*
D20*
X120015Y418783D03*
X130810Y418783D03*
D21*
X162408Y418783D03*
D37*
X173355Y418783D03*
D34*
X184468Y418783D03*
D29*
X66358Y419100D03*
D33*
X77470Y419100D03*
D17*
X88417Y419100D03*
D18*
X99530Y419100D03*
D17*
X110642Y419100D03*
D16*
X120015Y419100D03*
X130810Y419100D03*
D17*
X162408Y419100D03*
D33*
X173355Y419100D03*
D29*
X184468Y419100D03*
D34*
X66358Y419418D03*
D37*
X77470Y419418D03*
D21*
X88417Y419418D03*
D22*
X99530Y419418D03*
D21*
X110642Y419418D03*
D20*
X120015Y419418D03*
X130810Y419418D03*
D21*
X162408Y419418D03*
D37*
X173355Y419418D03*
D34*
X184468Y419418D03*
D29*
X66358Y419735D03*
D33*
X77470Y419735D03*
D17*
X88417Y419735D03*
D18*
X99530Y419735D03*
D17*
X110642Y419735D03*
D16*
X120015Y419735D03*
X130810Y419735D03*
D17*
X162408Y419735D03*
D33*
X173355Y419735D03*
D29*
X184468Y419735D03*
D34*
X66358Y420053D03*
D37*
X77470Y420053D03*
D21*
X88417Y420053D03*
D22*
X99530Y420053D03*
D21*
X110642Y420053D03*
D20*
X120015Y420053D03*
X130810Y420053D03*
D21*
X162408Y420053D03*
D37*
X173355Y420053D03*
D34*
X184468Y420053D03*
D29*
X66358Y420370D03*
D33*
X77470Y420370D03*
D17*
X88417Y420370D03*
D18*
X99530Y420370D03*
D17*
X110642Y420370D03*
D16*
X120015Y420370D03*
X130810Y420370D03*
D17*
X162408Y420370D03*
D33*
X173355Y420370D03*
D29*
X184468Y420370D03*
D34*
X66358Y420688D03*
D37*
X77470Y420688D03*
D21*
X88417Y420688D03*
D22*
X99530Y420688D03*
D21*
X110642Y420688D03*
D20*
X120015Y420688D03*
X130810Y420688D03*
D21*
X162408Y420688D03*
D37*
X173355Y420688D03*
D34*
X184468Y420688D03*
D29*
X66358Y421005D03*
D33*
X77470Y421005D03*
D17*
X88417Y421005D03*
D18*
X99530Y421005D03*
D17*
X110642Y421005D03*
D16*
X120015Y421005D03*
X130810Y421005D03*
D17*
X162408Y421005D03*
D33*
X173355Y421005D03*
D29*
X184468Y421005D03*
D34*
X66358Y421323D03*
D37*
X77470Y421323D03*
D21*
X88417Y421323D03*
D22*
X99530Y421323D03*
D21*
X110642Y421323D03*
D20*
X120015Y421323D03*
X130810Y421323D03*
D21*
X162408Y421323D03*
D37*
X173355Y421323D03*
D34*
X184468Y421323D03*
D29*
X66358Y421640D03*
D33*
X77470Y421640D03*
D17*
X88417Y421640D03*
D18*
X99530Y421640D03*
D17*
X110642Y421640D03*
D32*
X119863Y421640D03*
D31*
X131128Y421640D03*
D80*
X156528Y421640D03*
D17*
X162408Y421640D03*
D33*
X173355Y421640D03*
D29*
X184468Y421640D03*
D34*
X66358Y421958D03*
D37*
X77470Y421958D03*
D21*
X88417Y421958D03*
D36*
X112547Y421958D03*
D21*
X121768Y421958D03*
X136373Y421958D03*
D57*
X149390Y421958D03*
D21*
X162408Y421958D03*
D37*
X173355Y421958D03*
D34*
X184468Y421958D03*
D24*
X66358Y422276D03*
D28*
X77470Y422276D03*
D13*
X88417Y422276D03*
D27*
X112547Y422276D03*
D13*
X121768Y422276D03*
X136373Y422276D03*
D56*
X149390Y422276D03*
D13*
X162408Y422276D03*
D28*
X173355Y422276D03*
D24*
X184468Y422276D03*
X66358Y422594D03*
D28*
X77470Y422594D03*
D13*
X88417Y422594D03*
D27*
X112547Y422594D03*
D13*
X121768Y422594D03*
X136373Y422594D03*
D56*
X149390Y422594D03*
D13*
X162408Y422594D03*
D28*
X173355Y422594D03*
D24*
X184468Y422594D03*
X66358Y422911D03*
D28*
X77470Y422911D03*
D13*
X88417Y422911D03*
D27*
X112547Y422911D03*
D13*
X121768Y422911D03*
X136373Y422911D03*
D56*
X149390Y422911D03*
D13*
X162408Y422911D03*
D28*
X173355Y422911D03*
D24*
X184468Y422911D03*
X66358Y423229D03*
D28*
X77470Y423229D03*
D13*
X88417Y423229D03*
D27*
X112547Y423229D03*
D13*
X121768Y423229D03*
X136373Y423229D03*
D56*
X149390Y423229D03*
D13*
X162408Y423229D03*
D28*
X173355Y423229D03*
D24*
X184468Y423229D03*
X66358Y423546D03*
D28*
X77470Y423546D03*
D13*
X88417Y423546D03*
D27*
X112547Y423546D03*
D13*
X121768Y423546D03*
X136373Y423546D03*
D56*
X149390Y423546D03*
D13*
X162408Y423546D03*
D28*
X173355Y423546D03*
D24*
X184468Y423546D03*
X66358Y423864D03*
D28*
X77470Y423864D03*
D13*
X88417Y423864D03*
D27*
X112547Y423864D03*
D13*
X121768Y423864D03*
X136373Y423864D03*
D56*
X149390Y423864D03*
D13*
X162408Y423864D03*
D28*
X173355Y423864D03*
D24*
X184468Y423864D03*
X66358Y424181D03*
D28*
X77470Y424181D03*
D13*
X88417Y424181D03*
D27*
X112547Y424181D03*
D13*
X121768Y424181D03*
X136373Y424181D03*
D56*
X149390Y424181D03*
D13*
X162408Y424181D03*
D28*
X173355Y424181D03*
D24*
X184468Y424181D03*
X66358Y424499D03*
D28*
X77470Y424499D03*
D13*
X88417Y424499D03*
D27*
X112547Y424499D03*
D13*
X121768Y424499D03*
X136373Y424499D03*
D56*
X149390Y424499D03*
D13*
X162408Y424499D03*
D28*
X173355Y424499D03*
D24*
X184468Y424499D03*
X66358Y424816D03*
D28*
X77470Y424816D03*
D13*
X88417Y424816D03*
D27*
X112547Y424816D03*
D13*
X121768Y424816D03*
X136373Y424816D03*
D56*
X149390Y424816D03*
D13*
X162408Y424816D03*
D28*
X173355Y424816D03*
D24*
X184468Y424816D03*
D29*
X66358Y425133D03*
D33*
X77470Y425133D03*
D17*
X88417Y425133D03*
D32*
X112547Y425133D03*
D17*
X121768Y425133D03*
X136373Y425133D03*
D55*
X149390Y425133D03*
D17*
X162408Y425133D03*
D33*
X173355Y425133D03*
D29*
X184468Y425133D03*
D34*
X66358Y425450D03*
D21*
X88417Y425450D03*
D23*
X95885Y425450D03*
D34*
X103188Y425450D03*
D57*
X119850Y425450D03*
D21*
X147472Y425450D03*
D23*
X154940Y425450D03*
D21*
X162408Y425450D03*
D34*
X184468Y425450D03*
D29*
X66358Y425768D03*
D17*
X88417Y425768D03*
D30*
X95885Y425768D03*
D29*
X103188Y425768D03*
D55*
X119850Y425768D03*
D29*
X147638Y425768D03*
D30*
X154940Y425768D03*
D17*
X162408Y425768D03*
D29*
X184468Y425768D03*
D34*
X66358Y426085D03*
D21*
X88417Y426085D03*
D23*
X95885Y426085D03*
D34*
X103188Y426085D03*
D57*
X119850Y426085D03*
D34*
X147638Y426085D03*
D23*
X154940Y426085D03*
D21*
X162408Y426085D03*
D34*
X184468Y426085D03*
D29*
X66358Y426403D03*
D17*
X88417Y426403D03*
D30*
X95885Y426403D03*
D29*
X103188Y426403D03*
D55*
X119850Y426403D03*
D29*
X147638Y426403D03*
D30*
X154940Y426403D03*
D17*
X162408Y426403D03*
D29*
X184468Y426403D03*
D34*
X66358Y426720D03*
D21*
X88417Y426720D03*
D23*
X95885Y426720D03*
D34*
X103188Y426720D03*
D57*
X119850Y426720D03*
D34*
X147638Y426720D03*
D23*
X154940Y426720D03*
D21*
X162408Y426720D03*
D34*
X184468Y426720D03*
D29*
X66358Y427038D03*
D17*
X88417Y427038D03*
D30*
X95885Y427038D03*
D29*
X103188Y427038D03*
D55*
X119850Y427038D03*
D29*
X147638Y427038D03*
D30*
X154940Y427038D03*
D17*
X162408Y427038D03*
D29*
X184468Y427038D03*
D34*
X66358Y427355D03*
D21*
X88417Y427355D03*
D23*
X95885Y427355D03*
D34*
X103188Y427355D03*
D57*
X119850Y427355D03*
D34*
X147638Y427355D03*
D23*
X154940Y427355D03*
D21*
X162408Y427355D03*
D34*
X184468Y427355D03*
D29*
X66358Y427673D03*
D17*
X88417Y427673D03*
D30*
X95885Y427673D03*
D29*
X103188Y427673D03*
D55*
X119850Y427673D03*
D29*
X147638Y427673D03*
D30*
X154940Y427673D03*
D17*
X162408Y427673D03*
D29*
X184468Y427673D03*
D34*
X66358Y427990D03*
D21*
X88417Y427990D03*
D23*
X95885Y427990D03*
D34*
X103188Y427990D03*
D57*
X119850Y427990D03*
D34*
X147638Y427990D03*
D23*
X154940Y427990D03*
D21*
X162408Y427990D03*
D34*
X184468Y427990D03*
D29*
X66358Y428308D03*
D17*
X88417Y428308D03*
D30*
X95885Y428308D03*
D29*
X103188Y428308D03*
D55*
X119850Y428308D03*
D29*
X147638Y428308D03*
D30*
X154940Y428308D03*
D17*
X162408Y428308D03*
D29*
X184468Y428308D03*
D34*
X66358Y428625D03*
D21*
X88417Y428625D03*
D23*
X95885Y428625D03*
D34*
X103188Y428625D03*
D57*
X119850Y428625D03*
D34*
X147638Y428625D03*
D23*
X154940Y428625D03*
D21*
X162408Y428625D03*
D34*
X184468Y428625D03*
D29*
X66358Y428943D03*
D17*
X88417Y428943D03*
D30*
X95885Y428943D03*
D29*
X103188Y428943D03*
D55*
X119850Y428943D03*
D29*
X147638Y428943D03*
D30*
X154940Y428943D03*
D17*
X162408Y428943D03*
D29*
X184468Y428943D03*
D19*
X77470Y429260D03*
D34*
X103188Y429260D03*
D69*
X116205Y429260D03*
D37*
X136525Y429260D03*
D20*
X153035Y429260D03*
D19*
X173355Y429260D03*
D15*
X77470Y429578D03*
D29*
X103188Y429578D03*
D77*
X116205Y429578D03*
D33*
X136525Y429578D03*
D16*
X153035Y429578D03*
D15*
X173355Y429578D03*
D19*
X77470Y429895D03*
D34*
X103188Y429895D03*
D69*
X116205Y429895D03*
D37*
X136525Y429895D03*
D20*
X153035Y429895D03*
D19*
X173355Y429895D03*
D11*
X77470Y430214D03*
D24*
X103188Y430214D03*
D68*
X116205Y430214D03*
D28*
X136525Y430214D03*
D12*
X153035Y430214D03*
D11*
X173355Y430214D03*
X77470Y430531D03*
D24*
X103188Y430531D03*
D68*
X116205Y430531D03*
D28*
X136525Y430531D03*
D12*
X153035Y430531D03*
D11*
X173355Y430531D03*
X77470Y430849D03*
D24*
X103188Y430849D03*
D68*
X116205Y430849D03*
D28*
X136525Y430849D03*
D12*
X153035Y430849D03*
D11*
X173355Y430849D03*
X77470Y431166D03*
D24*
X103188Y431166D03*
D68*
X116205Y431166D03*
D28*
X136525Y431166D03*
D12*
X153035Y431166D03*
D11*
X173355Y431166D03*
X77470Y431484D03*
D24*
X103188Y431484D03*
D68*
X116205Y431484D03*
D28*
X136525Y431484D03*
D12*
X153035Y431484D03*
D11*
X173355Y431484D03*
X77470Y431801D03*
D24*
X103188Y431801D03*
D68*
X116205Y431801D03*
D28*
X136525Y431801D03*
D12*
X153035Y431801D03*
D11*
X173355Y431801D03*
X77470Y432119D03*
D24*
X103188Y432119D03*
D68*
X116205Y432119D03*
D28*
X136525Y432119D03*
D12*
X153035Y432119D03*
D11*
X173355Y432119D03*
X77470Y432436D03*
D24*
X103188Y432436D03*
D68*
X116205Y432436D03*
D28*
X136525Y432436D03*
D12*
X153035Y432436D03*
D11*
X173355Y432436D03*
M02*
