G04 EAGLE Gerber RS-274X export*
G75*
%MOMM*%
%FSLAX34Y34*%
%LPD*%
%INTop Solder Mask*%
%IPPOS*%
%AMOC8*
5,1,8,0,0,1.08239X$1,22.5*%
G01*
%ADD10C,0.221750*%
%ADD11C,2.006600*%
%ADD12C,0.732150*%
%ADD13C,1.227000*%
%ADD14C,1.177000*%
%ADD15R,2.006600X2.006600*%
%ADD16C,0.224459*%
%ADD17C,0.228600*%

G36*
X136047Y231287D02*
X136047Y231287D01*
X136042Y231294D01*
X136049Y231300D01*
X136049Y262300D01*
X136047Y262303D01*
X136049Y262306D01*
X135974Y262973D01*
X135968Y262979D01*
X135971Y262984D01*
X135749Y263618D01*
X135743Y263622D01*
X135745Y263628D01*
X135387Y264197D01*
X135380Y264200D01*
X135380Y264205D01*
X134905Y264680D01*
X134897Y264681D01*
X134897Y264687D01*
X134328Y265045D01*
X134320Y265044D01*
X134318Y265049D01*
X133684Y265271D01*
X133676Y265269D01*
X133673Y265274D01*
X133006Y265349D01*
X133002Y265347D01*
X133000Y265349D01*
X121000Y265349D01*
X120997Y265347D01*
X120995Y265349D01*
X120327Y265274D01*
X120321Y265268D01*
X120316Y265271D01*
X119682Y265049D01*
X119678Y265043D01*
X119672Y265045D01*
X119103Y264687D01*
X119100Y264680D01*
X119095Y264680D01*
X118620Y264205D01*
X118619Y264197D01*
X118613Y264197D01*
X118255Y263628D01*
X118256Y263623D01*
X118254Y263621D01*
X118255Y263619D01*
X118251Y263618D01*
X118029Y262984D01*
X118029Y262982D01*
X118028Y262981D01*
X118031Y262977D01*
X118031Y262976D01*
X118026Y262973D01*
X117951Y262306D01*
X117953Y262302D01*
X117951Y262300D01*
X117951Y231300D01*
X117987Y231253D01*
X117994Y231258D01*
X118000Y231251D01*
X136000Y231251D01*
X136047Y231287D01*
G37*
G36*
X240947Y676787D02*
X240947Y676787D01*
X240942Y676794D01*
X240949Y676800D01*
X240949Y694800D01*
X240913Y694847D01*
X240906Y694842D01*
X240900Y694849D01*
X209900Y694849D01*
X209897Y694847D01*
X209895Y694849D01*
X209227Y694774D01*
X209221Y694768D01*
X209216Y694771D01*
X208582Y694549D01*
X208578Y694543D01*
X208572Y694545D01*
X208003Y694187D01*
X208000Y694180D01*
X207995Y694180D01*
X207520Y693705D01*
X207519Y693697D01*
X207513Y693697D01*
X207155Y693128D01*
X207156Y693120D01*
X207151Y693118D01*
X206929Y692484D01*
X206931Y692478D01*
X206927Y692475D01*
X206928Y692474D01*
X206926Y692473D01*
X206851Y691806D01*
X206853Y691802D01*
X206851Y691800D01*
X206851Y679800D01*
X206853Y679797D01*
X206851Y679795D01*
X206926Y679127D01*
X206932Y679121D01*
X206929Y679116D01*
X207151Y678482D01*
X207157Y678478D01*
X207155Y678472D01*
X207513Y677903D01*
X207520Y677900D01*
X207520Y677895D01*
X207995Y677420D01*
X208003Y677419D01*
X208003Y677413D01*
X208572Y677055D01*
X208580Y677056D01*
X208582Y677051D01*
X209216Y676829D01*
X209224Y676831D01*
X209227Y676826D01*
X209895Y676751D01*
X209898Y676753D01*
X209900Y676751D01*
X240900Y676751D01*
X240947Y676787D01*
G37*
G36*
X240947Y295787D02*
X240947Y295787D01*
X240942Y295794D01*
X240949Y295800D01*
X240949Y313800D01*
X240913Y313847D01*
X240906Y313842D01*
X240900Y313849D01*
X209900Y313849D01*
X209897Y313847D01*
X209895Y313849D01*
X209227Y313774D01*
X209221Y313768D01*
X209216Y313771D01*
X208582Y313549D01*
X208578Y313543D01*
X208572Y313545D01*
X208003Y313187D01*
X208000Y313180D01*
X207995Y313180D01*
X207520Y312705D01*
X207519Y312697D01*
X207513Y312697D01*
X207155Y312128D01*
X207156Y312120D01*
X207151Y312118D01*
X206929Y311484D01*
X206931Y311478D01*
X206927Y311475D01*
X206928Y311474D01*
X206926Y311473D01*
X206851Y310806D01*
X206853Y310802D01*
X206851Y310800D01*
X206851Y298800D01*
X206853Y298797D01*
X206851Y298795D01*
X206926Y298127D01*
X206932Y298121D01*
X206929Y298116D01*
X207151Y297482D01*
X207157Y297478D01*
X207155Y297472D01*
X207513Y296903D01*
X207520Y296900D01*
X207520Y296895D01*
X207995Y296420D01*
X208003Y296419D01*
X208003Y296413D01*
X208572Y296055D01*
X208580Y296056D01*
X208582Y296051D01*
X209216Y295829D01*
X209224Y295831D01*
X209227Y295826D01*
X209895Y295751D01*
X209898Y295753D01*
X209900Y295751D01*
X240900Y295751D01*
X240947Y295787D01*
G37*
G36*
X240947Y422787D02*
X240947Y422787D01*
X240942Y422794D01*
X240949Y422800D01*
X240949Y440800D01*
X240913Y440847D01*
X240906Y440842D01*
X240900Y440849D01*
X209900Y440849D01*
X209897Y440847D01*
X209895Y440849D01*
X209227Y440774D01*
X209221Y440768D01*
X209216Y440771D01*
X208582Y440549D01*
X208578Y440543D01*
X208572Y440545D01*
X208003Y440187D01*
X208000Y440180D01*
X207995Y440180D01*
X207520Y439705D01*
X207519Y439697D01*
X207513Y439697D01*
X207155Y439128D01*
X207156Y439120D01*
X207151Y439118D01*
X206929Y438484D01*
X206931Y438478D01*
X206927Y438475D01*
X206928Y438474D01*
X206926Y438473D01*
X206851Y437806D01*
X206853Y437802D01*
X206851Y437800D01*
X206851Y425800D01*
X206853Y425797D01*
X206851Y425795D01*
X206926Y425127D01*
X206932Y425121D01*
X206929Y425116D01*
X207151Y424482D01*
X207157Y424478D01*
X207155Y424472D01*
X207513Y423903D01*
X207520Y423900D01*
X207520Y423895D01*
X207995Y423420D01*
X208003Y423419D01*
X208003Y423413D01*
X208572Y423055D01*
X208580Y423056D01*
X208582Y423051D01*
X209216Y422829D01*
X209224Y422831D01*
X209227Y422826D01*
X209895Y422751D01*
X209898Y422753D01*
X209900Y422751D01*
X240900Y422751D01*
X240947Y422787D01*
G37*
G36*
X240947Y549787D02*
X240947Y549787D01*
X240942Y549794D01*
X240949Y549800D01*
X240949Y567800D01*
X240913Y567847D01*
X240906Y567842D01*
X240900Y567849D01*
X209900Y567849D01*
X209897Y567847D01*
X209895Y567849D01*
X209227Y567774D01*
X209221Y567768D01*
X209216Y567771D01*
X208582Y567549D01*
X208578Y567543D01*
X208572Y567545D01*
X208003Y567187D01*
X208000Y567180D01*
X207995Y567180D01*
X207520Y566705D01*
X207519Y566697D01*
X207513Y566697D01*
X207155Y566128D01*
X207156Y566120D01*
X207151Y566118D01*
X206929Y565484D01*
X206931Y565478D01*
X206927Y565475D01*
X206928Y565474D01*
X206926Y565473D01*
X206851Y564806D01*
X206853Y564802D01*
X206851Y564800D01*
X206851Y552800D01*
X206853Y552797D01*
X206851Y552795D01*
X206926Y552127D01*
X206932Y552121D01*
X206929Y552116D01*
X207151Y551482D01*
X207157Y551478D01*
X207155Y551472D01*
X207513Y550903D01*
X207520Y550900D01*
X207520Y550895D01*
X207995Y550420D01*
X208003Y550419D01*
X208003Y550413D01*
X208572Y550055D01*
X208580Y550056D01*
X208582Y550051D01*
X209216Y549829D01*
X209224Y549831D01*
X209227Y549826D01*
X209895Y549751D01*
X209898Y549753D01*
X209900Y549751D01*
X240900Y549751D01*
X240947Y549787D01*
G37*
G36*
X44103Y295753D02*
X44103Y295753D01*
X44106Y295751D01*
X44773Y295826D01*
X44779Y295832D01*
X44784Y295829D01*
X45418Y296051D01*
X45422Y296057D01*
X45428Y296055D01*
X45997Y296413D01*
X46000Y296420D01*
X46005Y296420D01*
X46480Y296895D01*
X46481Y296903D01*
X46487Y296903D01*
X46845Y297472D01*
X46844Y297480D01*
X46849Y297482D01*
X47071Y298116D01*
X47069Y298124D01*
X47074Y298127D01*
X47149Y298795D01*
X47147Y298798D01*
X47149Y298800D01*
X47149Y310800D01*
X47147Y310803D01*
X47149Y310806D01*
X47074Y311473D01*
X47068Y311479D01*
X47071Y311484D01*
X46849Y312118D01*
X46843Y312122D01*
X46845Y312128D01*
X46487Y312697D01*
X46480Y312700D01*
X46480Y312705D01*
X46005Y313180D01*
X45997Y313181D01*
X45997Y313187D01*
X45428Y313545D01*
X45420Y313544D01*
X45418Y313549D01*
X44784Y313771D01*
X44776Y313769D01*
X44773Y313774D01*
X44106Y313849D01*
X44102Y313847D01*
X44100Y313849D01*
X13100Y313849D01*
X13053Y313813D01*
X13058Y313806D01*
X13051Y313800D01*
X13051Y295800D01*
X13087Y295753D01*
X13094Y295758D01*
X13100Y295751D01*
X44100Y295751D01*
X44103Y295753D01*
G37*
G36*
X44103Y676753D02*
X44103Y676753D01*
X44106Y676751D01*
X44773Y676826D01*
X44779Y676832D01*
X44784Y676829D01*
X45418Y677051D01*
X45422Y677057D01*
X45428Y677055D01*
X45997Y677413D01*
X46000Y677420D01*
X46005Y677420D01*
X46480Y677895D01*
X46481Y677903D01*
X46487Y677903D01*
X46845Y678472D01*
X46844Y678480D01*
X46849Y678482D01*
X47071Y679116D01*
X47069Y679124D01*
X47074Y679127D01*
X47149Y679795D01*
X47147Y679798D01*
X47149Y679800D01*
X47149Y691800D01*
X47147Y691803D01*
X47149Y691806D01*
X47074Y692473D01*
X47068Y692479D01*
X47071Y692484D01*
X46849Y693118D01*
X46843Y693122D01*
X46845Y693128D01*
X46487Y693697D01*
X46480Y693700D01*
X46480Y693705D01*
X46005Y694180D01*
X45997Y694181D01*
X45997Y694187D01*
X45428Y694545D01*
X45420Y694544D01*
X45418Y694549D01*
X44784Y694771D01*
X44776Y694769D01*
X44773Y694774D01*
X44106Y694849D01*
X44102Y694847D01*
X44100Y694849D01*
X13100Y694849D01*
X13053Y694813D01*
X13058Y694806D01*
X13051Y694800D01*
X13051Y676800D01*
X13087Y676753D01*
X13094Y676758D01*
X13100Y676751D01*
X44100Y676751D01*
X44103Y676753D01*
G37*
G36*
X44103Y549753D02*
X44103Y549753D01*
X44106Y549751D01*
X44773Y549826D01*
X44779Y549832D01*
X44784Y549829D01*
X45418Y550051D01*
X45422Y550057D01*
X45428Y550055D01*
X45997Y550413D01*
X46000Y550420D01*
X46005Y550420D01*
X46480Y550895D01*
X46481Y550903D01*
X46487Y550903D01*
X46845Y551472D01*
X46844Y551480D01*
X46849Y551482D01*
X47071Y552116D01*
X47069Y552124D01*
X47074Y552127D01*
X47149Y552795D01*
X47147Y552798D01*
X47149Y552800D01*
X47149Y564800D01*
X47147Y564803D01*
X47149Y564806D01*
X47074Y565473D01*
X47068Y565479D01*
X47071Y565484D01*
X46849Y566118D01*
X46843Y566122D01*
X46845Y566128D01*
X46487Y566697D01*
X46480Y566700D01*
X46480Y566705D01*
X46005Y567180D01*
X45997Y567181D01*
X45997Y567187D01*
X45428Y567545D01*
X45420Y567544D01*
X45418Y567549D01*
X44784Y567771D01*
X44776Y567769D01*
X44773Y567774D01*
X44106Y567849D01*
X44102Y567847D01*
X44100Y567849D01*
X13100Y567849D01*
X13053Y567813D01*
X13058Y567806D01*
X13051Y567800D01*
X13051Y549800D01*
X13087Y549753D01*
X13094Y549758D01*
X13100Y549751D01*
X44100Y549751D01*
X44103Y549753D01*
G37*
G36*
X44103Y422753D02*
X44103Y422753D01*
X44106Y422751D01*
X44773Y422826D01*
X44779Y422832D01*
X44784Y422829D01*
X45418Y423051D01*
X45422Y423057D01*
X45428Y423055D01*
X45997Y423413D01*
X46000Y423420D01*
X46005Y423420D01*
X46480Y423895D01*
X46481Y423903D01*
X46487Y423903D01*
X46845Y424472D01*
X46844Y424480D01*
X46849Y424482D01*
X47071Y425116D01*
X47069Y425124D01*
X47074Y425127D01*
X47149Y425795D01*
X47147Y425798D01*
X47149Y425800D01*
X47149Y437800D01*
X47147Y437803D01*
X47149Y437806D01*
X47074Y438473D01*
X47068Y438479D01*
X47071Y438484D01*
X46849Y439118D01*
X46843Y439122D01*
X46845Y439128D01*
X46487Y439697D01*
X46480Y439700D01*
X46480Y439705D01*
X46005Y440180D01*
X45997Y440181D01*
X45997Y440187D01*
X45428Y440545D01*
X45420Y440544D01*
X45418Y440549D01*
X44784Y440771D01*
X44776Y440769D01*
X44773Y440774D01*
X44106Y440849D01*
X44102Y440847D01*
X44100Y440849D01*
X13100Y440849D01*
X13053Y440813D01*
X13058Y440806D01*
X13051Y440800D01*
X13051Y422800D01*
X13087Y422753D01*
X13094Y422758D01*
X13100Y422751D01*
X44100Y422751D01*
X44103Y422753D01*
G37*
G36*
X38103Y244953D02*
X38103Y244953D01*
X38105Y244951D01*
X39861Y245124D01*
X39866Y245129D01*
X39870Y245126D01*
X41558Y245638D01*
X41563Y245644D01*
X41567Y245642D01*
X43123Y246473D01*
X43126Y246480D01*
X43131Y246479D01*
X44495Y247598D01*
X44497Y247605D01*
X44502Y247605D01*
X45621Y248969D01*
X45622Y248976D01*
X45627Y248977D01*
X46458Y250533D01*
X46457Y250540D01*
X46462Y250542D01*
X46465Y250552D01*
X46480Y250601D01*
X46659Y251192D01*
X46674Y251241D01*
X46854Y251832D01*
X46869Y251882D01*
X46974Y252230D01*
X46972Y252237D01*
X46976Y252239D01*
X47149Y253995D01*
X47145Y254001D01*
X47149Y254005D01*
X46976Y255761D01*
X46971Y255766D01*
X46974Y255770D01*
X46462Y257458D01*
X46456Y257463D01*
X46458Y257467D01*
X45627Y259023D01*
X45620Y259026D01*
X45621Y259031D01*
X44502Y260395D01*
X44495Y260397D01*
X44495Y260402D01*
X43131Y261521D01*
X43124Y261522D01*
X43123Y261527D01*
X41567Y262358D01*
X41560Y262357D01*
X41558Y262362D01*
X39870Y262874D01*
X39863Y262872D01*
X39861Y262876D01*
X38105Y263049D01*
X38102Y263047D01*
X38100Y263049D01*
X13100Y263049D01*
X13053Y263013D01*
X13058Y263006D01*
X13051Y263000D01*
X13051Y245000D01*
X13087Y244953D01*
X13094Y244958D01*
X13100Y244951D01*
X38100Y244951D01*
X38103Y244953D01*
G37*
G36*
X38103Y727553D02*
X38103Y727553D01*
X38105Y727551D01*
X39861Y727724D01*
X39866Y727729D01*
X39870Y727726D01*
X41558Y728238D01*
X41563Y728244D01*
X41567Y728242D01*
X43123Y729073D01*
X43126Y729080D01*
X43131Y729079D01*
X44495Y730198D01*
X44497Y730205D01*
X44502Y730205D01*
X45621Y731569D01*
X45622Y731576D01*
X45627Y731577D01*
X46458Y733133D01*
X46457Y733140D01*
X46462Y733142D01*
X46600Y733595D01*
X46615Y733644D01*
X46794Y734235D01*
X46809Y734285D01*
X46974Y734830D01*
X46972Y734837D01*
X46976Y734839D01*
X47149Y736595D01*
X47145Y736601D01*
X47149Y736605D01*
X46976Y738361D01*
X46971Y738366D01*
X46974Y738370D01*
X46462Y740058D01*
X46456Y740063D01*
X46458Y740067D01*
X45627Y741623D01*
X45620Y741626D01*
X45621Y741631D01*
X44502Y742995D01*
X44495Y742997D01*
X44495Y743002D01*
X43131Y744121D01*
X43124Y744122D01*
X43123Y744127D01*
X41567Y744958D01*
X41560Y744957D01*
X41558Y744962D01*
X39870Y745474D01*
X39863Y745472D01*
X39861Y745476D01*
X38105Y745649D01*
X38102Y745647D01*
X38100Y745649D01*
X13100Y745649D01*
X13053Y745613D01*
X13058Y745606D01*
X13051Y745600D01*
X13051Y727600D01*
X13087Y727553D01*
X13094Y727558D01*
X13100Y727551D01*
X38100Y727551D01*
X38103Y727553D01*
G37*
G36*
X38103Y702153D02*
X38103Y702153D01*
X38105Y702151D01*
X39861Y702324D01*
X39866Y702329D01*
X39870Y702326D01*
X41558Y702838D01*
X41563Y702844D01*
X41567Y702842D01*
X43123Y703673D01*
X43126Y703680D01*
X43131Y703679D01*
X44495Y704798D01*
X44497Y704805D01*
X44502Y704805D01*
X45621Y706169D01*
X45622Y706176D01*
X45627Y706177D01*
X46458Y707733D01*
X46457Y707740D01*
X46462Y707742D01*
X46600Y708195D01*
X46615Y708244D01*
X46794Y708835D01*
X46809Y708885D01*
X46974Y709430D01*
X46972Y709437D01*
X46976Y709439D01*
X47149Y711195D01*
X47145Y711201D01*
X47149Y711205D01*
X46976Y712961D01*
X46971Y712966D01*
X46974Y712970D01*
X46462Y714658D01*
X46456Y714663D01*
X46458Y714667D01*
X45627Y716223D01*
X45620Y716226D01*
X45621Y716231D01*
X44502Y717595D01*
X44495Y717597D01*
X44495Y717602D01*
X43131Y718721D01*
X43124Y718722D01*
X43123Y718727D01*
X41567Y719558D01*
X41560Y719557D01*
X41558Y719562D01*
X39870Y720074D01*
X39863Y720072D01*
X39861Y720076D01*
X38105Y720249D01*
X38102Y720247D01*
X38100Y720249D01*
X13100Y720249D01*
X13053Y720213D01*
X13058Y720206D01*
X13051Y720200D01*
X13051Y702200D01*
X13087Y702153D01*
X13094Y702158D01*
X13100Y702151D01*
X38100Y702151D01*
X38103Y702153D01*
G37*
G36*
X38103Y346553D02*
X38103Y346553D01*
X38105Y346551D01*
X39861Y346724D01*
X39866Y346729D01*
X39870Y346726D01*
X41558Y347238D01*
X41563Y347244D01*
X41567Y347242D01*
X43123Y348073D01*
X43126Y348080D01*
X43131Y348079D01*
X44495Y349198D01*
X44497Y349205D01*
X44502Y349205D01*
X45621Y350569D01*
X45622Y350576D01*
X45627Y350577D01*
X46458Y352133D01*
X46457Y352140D01*
X46462Y352142D01*
X46600Y352595D01*
X46615Y352644D01*
X46794Y353235D01*
X46809Y353285D01*
X46974Y353830D01*
X46972Y353837D01*
X46976Y353839D01*
X47149Y355595D01*
X47145Y355601D01*
X47149Y355605D01*
X46976Y357361D01*
X46971Y357366D01*
X46974Y357370D01*
X46462Y359058D01*
X46456Y359063D01*
X46458Y359067D01*
X45627Y360623D01*
X45620Y360626D01*
X45621Y360631D01*
X44502Y361995D01*
X44495Y361997D01*
X44495Y362002D01*
X43131Y363121D01*
X43124Y363122D01*
X43123Y363127D01*
X41567Y363958D01*
X41560Y363957D01*
X41558Y363962D01*
X39870Y364474D01*
X39863Y364472D01*
X39861Y364476D01*
X38105Y364649D01*
X38102Y364647D01*
X38100Y364649D01*
X13100Y364649D01*
X13053Y364613D01*
X13058Y364606D01*
X13051Y364600D01*
X13051Y346600D01*
X13087Y346553D01*
X13094Y346558D01*
X13100Y346551D01*
X38100Y346551D01*
X38103Y346553D01*
G37*
G36*
X38103Y600553D02*
X38103Y600553D01*
X38105Y600551D01*
X39861Y600724D01*
X39866Y600729D01*
X39870Y600726D01*
X41558Y601238D01*
X41563Y601244D01*
X41567Y601242D01*
X43123Y602073D01*
X43126Y602080D01*
X43131Y602079D01*
X44495Y603198D01*
X44497Y603205D01*
X44502Y603205D01*
X45621Y604569D01*
X45622Y604576D01*
X45627Y604577D01*
X46458Y606133D01*
X46457Y606140D01*
X46462Y606142D01*
X46600Y606595D01*
X46615Y606644D01*
X46794Y607235D01*
X46809Y607285D01*
X46974Y607830D01*
X46972Y607837D01*
X46976Y607839D01*
X47149Y609595D01*
X47145Y609601D01*
X47149Y609605D01*
X46976Y611361D01*
X46971Y611366D01*
X46974Y611370D01*
X46462Y613058D01*
X46456Y613063D01*
X46458Y613067D01*
X45627Y614623D01*
X45620Y614626D01*
X45621Y614631D01*
X44502Y615995D01*
X44495Y615997D01*
X44495Y616002D01*
X43131Y617121D01*
X43124Y617122D01*
X43123Y617127D01*
X41567Y617958D01*
X41560Y617957D01*
X41558Y617962D01*
X39870Y618474D01*
X39863Y618472D01*
X39861Y618476D01*
X38105Y618649D01*
X38102Y618647D01*
X38100Y618649D01*
X13100Y618649D01*
X13053Y618613D01*
X13058Y618606D01*
X13051Y618600D01*
X13051Y600600D01*
X13087Y600553D01*
X13094Y600558D01*
X13100Y600551D01*
X38100Y600551D01*
X38103Y600553D01*
G37*
G36*
X38103Y651353D02*
X38103Y651353D01*
X38105Y651351D01*
X39861Y651524D01*
X39866Y651529D01*
X39870Y651526D01*
X41558Y652038D01*
X41563Y652044D01*
X41567Y652042D01*
X43123Y652873D01*
X43126Y652880D01*
X43131Y652879D01*
X44495Y653998D01*
X44497Y654005D01*
X44502Y654005D01*
X45621Y655369D01*
X45622Y655376D01*
X45627Y655377D01*
X46458Y656933D01*
X46457Y656940D01*
X46462Y656942D01*
X46600Y657395D01*
X46615Y657444D01*
X46794Y658035D01*
X46809Y658085D01*
X46974Y658630D01*
X46972Y658637D01*
X46976Y658639D01*
X47149Y660395D01*
X47145Y660401D01*
X47149Y660405D01*
X46976Y662161D01*
X46971Y662166D01*
X46974Y662170D01*
X46462Y663858D01*
X46456Y663863D01*
X46458Y663867D01*
X45627Y665423D01*
X45620Y665426D01*
X45621Y665431D01*
X44502Y666795D01*
X44495Y666797D01*
X44495Y666802D01*
X43131Y667921D01*
X43124Y667922D01*
X43123Y667927D01*
X41567Y668758D01*
X41560Y668757D01*
X41558Y668762D01*
X39870Y669274D01*
X39863Y669272D01*
X39861Y669276D01*
X38105Y669449D01*
X38102Y669447D01*
X38100Y669449D01*
X13100Y669449D01*
X13053Y669413D01*
X13058Y669406D01*
X13051Y669400D01*
X13051Y651400D01*
X13087Y651353D01*
X13094Y651358D01*
X13100Y651351D01*
X38100Y651351D01*
X38103Y651353D01*
G37*
G36*
X38103Y321153D02*
X38103Y321153D01*
X38105Y321151D01*
X39861Y321324D01*
X39866Y321329D01*
X39870Y321326D01*
X41558Y321838D01*
X41563Y321844D01*
X41567Y321842D01*
X43123Y322673D01*
X43126Y322680D01*
X43131Y322679D01*
X44495Y323798D01*
X44497Y323805D01*
X44502Y323805D01*
X45621Y325169D01*
X45622Y325176D01*
X45627Y325177D01*
X46458Y326733D01*
X46457Y326740D01*
X46462Y326742D01*
X46600Y327195D01*
X46615Y327244D01*
X46794Y327835D01*
X46809Y327885D01*
X46974Y328430D01*
X46972Y328437D01*
X46976Y328439D01*
X47149Y330195D01*
X47145Y330201D01*
X47149Y330205D01*
X46976Y331961D01*
X46971Y331966D01*
X46974Y331970D01*
X46462Y333658D01*
X46456Y333663D01*
X46458Y333667D01*
X45627Y335223D01*
X45620Y335226D01*
X45621Y335231D01*
X44502Y336595D01*
X44495Y336597D01*
X44495Y336602D01*
X43131Y337721D01*
X43124Y337722D01*
X43123Y337727D01*
X41567Y338558D01*
X41560Y338557D01*
X41558Y338562D01*
X39870Y339074D01*
X39863Y339072D01*
X39861Y339076D01*
X38105Y339249D01*
X38102Y339247D01*
X38100Y339249D01*
X13100Y339249D01*
X13053Y339213D01*
X13058Y339206D01*
X13051Y339200D01*
X13051Y321200D01*
X13087Y321153D01*
X13094Y321158D01*
X13100Y321151D01*
X38100Y321151D01*
X38103Y321153D01*
G37*
G36*
X38103Y625953D02*
X38103Y625953D01*
X38105Y625951D01*
X39861Y626124D01*
X39866Y626129D01*
X39870Y626126D01*
X41558Y626638D01*
X41563Y626644D01*
X41567Y626642D01*
X43123Y627473D01*
X43126Y627480D01*
X43131Y627479D01*
X44495Y628598D01*
X44497Y628605D01*
X44502Y628605D01*
X45621Y629969D01*
X45622Y629976D01*
X45627Y629977D01*
X46458Y631533D01*
X46457Y631540D01*
X46462Y631542D01*
X46600Y631995D01*
X46615Y632044D01*
X46794Y632635D01*
X46809Y632685D01*
X46974Y633230D01*
X46972Y633237D01*
X46976Y633239D01*
X47149Y634995D01*
X47145Y635001D01*
X47149Y635005D01*
X46976Y636761D01*
X46971Y636766D01*
X46974Y636770D01*
X46462Y638458D01*
X46456Y638463D01*
X46458Y638467D01*
X45627Y640023D01*
X45620Y640026D01*
X45621Y640031D01*
X44502Y641395D01*
X44495Y641397D01*
X44495Y641402D01*
X43131Y642521D01*
X43124Y642522D01*
X43123Y642527D01*
X41567Y643358D01*
X41560Y643357D01*
X41558Y643362D01*
X39870Y643874D01*
X39863Y643872D01*
X39861Y643876D01*
X38105Y644049D01*
X38102Y644047D01*
X38100Y644049D01*
X13100Y644049D01*
X13053Y644013D01*
X13058Y644006D01*
X13051Y644000D01*
X13051Y626000D01*
X13087Y625953D01*
X13094Y625958D01*
X13100Y625951D01*
X38100Y625951D01*
X38103Y625953D01*
G37*
G36*
X38103Y575153D02*
X38103Y575153D01*
X38105Y575151D01*
X39861Y575324D01*
X39866Y575329D01*
X39870Y575326D01*
X41558Y575838D01*
X41563Y575844D01*
X41567Y575842D01*
X43123Y576673D01*
X43126Y576680D01*
X43131Y576679D01*
X44495Y577798D01*
X44497Y577805D01*
X44502Y577805D01*
X45621Y579169D01*
X45622Y579176D01*
X45627Y579177D01*
X46458Y580733D01*
X46457Y580740D01*
X46462Y580742D01*
X46600Y581195D01*
X46615Y581244D01*
X46794Y581835D01*
X46809Y581885D01*
X46974Y582430D01*
X46972Y582437D01*
X46976Y582439D01*
X47149Y584195D01*
X47145Y584201D01*
X47149Y584205D01*
X46976Y585961D01*
X46971Y585966D01*
X46974Y585970D01*
X46462Y587658D01*
X46456Y587663D01*
X46458Y587667D01*
X45627Y589223D01*
X45620Y589226D01*
X45621Y589231D01*
X44502Y590595D01*
X44495Y590597D01*
X44495Y590602D01*
X43131Y591721D01*
X43124Y591722D01*
X43123Y591727D01*
X41567Y592558D01*
X41560Y592557D01*
X41558Y592562D01*
X39870Y593074D01*
X39863Y593072D01*
X39861Y593076D01*
X38105Y593249D01*
X38102Y593247D01*
X38100Y593249D01*
X13100Y593249D01*
X13053Y593213D01*
X13058Y593206D01*
X13051Y593200D01*
X13051Y575200D01*
X13087Y575153D01*
X13094Y575158D01*
X13100Y575151D01*
X38100Y575151D01*
X38103Y575153D01*
G37*
G36*
X38103Y473553D02*
X38103Y473553D01*
X38105Y473551D01*
X39861Y473724D01*
X39866Y473729D01*
X39870Y473726D01*
X41558Y474238D01*
X41563Y474244D01*
X41567Y474242D01*
X43123Y475073D01*
X43126Y475080D01*
X43131Y475079D01*
X44495Y476198D01*
X44497Y476205D01*
X44502Y476205D01*
X45621Y477569D01*
X45622Y477576D01*
X45627Y477577D01*
X46458Y479133D01*
X46457Y479140D01*
X46462Y479142D01*
X46600Y479595D01*
X46615Y479644D01*
X46794Y480235D01*
X46809Y480285D01*
X46974Y480830D01*
X46972Y480837D01*
X46976Y480839D01*
X47149Y482595D01*
X47145Y482601D01*
X47149Y482605D01*
X46976Y484361D01*
X46971Y484366D01*
X46974Y484370D01*
X46462Y486058D01*
X46456Y486063D01*
X46458Y486067D01*
X45627Y487623D01*
X45620Y487626D01*
X45621Y487631D01*
X44502Y488995D01*
X44495Y488997D01*
X44495Y489002D01*
X43131Y490121D01*
X43124Y490122D01*
X43123Y490127D01*
X41567Y490958D01*
X41560Y490957D01*
X41558Y490962D01*
X39870Y491474D01*
X39863Y491472D01*
X39861Y491476D01*
X38105Y491649D01*
X38102Y491647D01*
X38100Y491649D01*
X13100Y491649D01*
X13053Y491613D01*
X13058Y491606D01*
X13051Y491600D01*
X13051Y473600D01*
X13087Y473553D01*
X13094Y473558D01*
X13100Y473551D01*
X38100Y473551D01*
X38103Y473553D01*
G37*
G36*
X38103Y524353D02*
X38103Y524353D01*
X38105Y524351D01*
X39861Y524524D01*
X39866Y524529D01*
X39870Y524526D01*
X41558Y525038D01*
X41563Y525044D01*
X41567Y525042D01*
X43123Y525873D01*
X43126Y525880D01*
X43131Y525879D01*
X44495Y526998D01*
X44497Y527005D01*
X44502Y527005D01*
X45621Y528369D01*
X45622Y528376D01*
X45627Y528377D01*
X46458Y529933D01*
X46457Y529940D01*
X46462Y529942D01*
X46600Y530395D01*
X46615Y530444D01*
X46794Y531035D01*
X46809Y531085D01*
X46974Y531630D01*
X46972Y531637D01*
X46976Y531639D01*
X47149Y533395D01*
X47145Y533401D01*
X47149Y533405D01*
X46976Y535161D01*
X46971Y535166D01*
X46974Y535170D01*
X46462Y536858D01*
X46456Y536863D01*
X46458Y536867D01*
X45627Y538423D01*
X45620Y538426D01*
X45621Y538431D01*
X44502Y539795D01*
X44495Y539797D01*
X44495Y539802D01*
X43131Y540921D01*
X43124Y540922D01*
X43123Y540927D01*
X41567Y541758D01*
X41560Y541757D01*
X41558Y541762D01*
X39870Y542274D01*
X39863Y542272D01*
X39861Y542276D01*
X38105Y542449D01*
X38102Y542447D01*
X38100Y542449D01*
X13100Y542449D01*
X13053Y542413D01*
X13058Y542406D01*
X13051Y542400D01*
X13051Y524400D01*
X13087Y524353D01*
X13094Y524358D01*
X13100Y524351D01*
X38100Y524351D01*
X38103Y524353D01*
G37*
G36*
X38103Y498953D02*
X38103Y498953D01*
X38105Y498951D01*
X39861Y499124D01*
X39866Y499129D01*
X39870Y499126D01*
X41558Y499638D01*
X41563Y499644D01*
X41567Y499642D01*
X43123Y500473D01*
X43126Y500480D01*
X43131Y500479D01*
X44495Y501598D01*
X44497Y501605D01*
X44502Y501605D01*
X45621Y502969D01*
X45622Y502976D01*
X45627Y502977D01*
X46458Y504533D01*
X46457Y504540D01*
X46462Y504542D01*
X46600Y504995D01*
X46615Y505044D01*
X46794Y505635D01*
X46809Y505685D01*
X46974Y506230D01*
X46972Y506237D01*
X46976Y506239D01*
X47149Y507995D01*
X47145Y508001D01*
X47149Y508005D01*
X46976Y509761D01*
X46971Y509766D01*
X46974Y509770D01*
X46462Y511458D01*
X46456Y511463D01*
X46458Y511467D01*
X45627Y513023D01*
X45620Y513026D01*
X45621Y513031D01*
X44502Y514395D01*
X44495Y514397D01*
X44495Y514402D01*
X43131Y515521D01*
X43124Y515522D01*
X43123Y515527D01*
X41567Y516358D01*
X41560Y516357D01*
X41558Y516362D01*
X39870Y516874D01*
X39863Y516872D01*
X39861Y516876D01*
X38105Y517049D01*
X38102Y517047D01*
X38100Y517049D01*
X13100Y517049D01*
X13053Y517013D01*
X13058Y517006D01*
X13051Y517000D01*
X13051Y499000D01*
X13087Y498953D01*
X13094Y498958D01*
X13100Y498951D01*
X38100Y498951D01*
X38103Y498953D01*
G37*
G36*
X38103Y270353D02*
X38103Y270353D01*
X38105Y270351D01*
X39861Y270524D01*
X39866Y270529D01*
X39870Y270526D01*
X41558Y271038D01*
X41563Y271044D01*
X41567Y271042D01*
X43123Y271873D01*
X43126Y271880D01*
X43131Y271879D01*
X44495Y272998D01*
X44497Y273005D01*
X44502Y273005D01*
X45621Y274369D01*
X45622Y274376D01*
X45627Y274377D01*
X46458Y275933D01*
X46457Y275940D01*
X46462Y275942D01*
X46600Y276395D01*
X46615Y276444D01*
X46794Y277035D01*
X46809Y277085D01*
X46974Y277630D01*
X46972Y277637D01*
X46976Y277639D01*
X47149Y279395D01*
X47145Y279401D01*
X47149Y279405D01*
X46976Y281161D01*
X46971Y281166D01*
X46974Y281170D01*
X46462Y282858D01*
X46456Y282863D01*
X46458Y282867D01*
X45627Y284423D01*
X45620Y284426D01*
X45621Y284431D01*
X44502Y285795D01*
X44495Y285797D01*
X44495Y285802D01*
X43131Y286921D01*
X43124Y286922D01*
X43123Y286927D01*
X41567Y287758D01*
X41560Y287757D01*
X41558Y287762D01*
X39870Y288274D01*
X39863Y288272D01*
X39861Y288276D01*
X38105Y288449D01*
X38102Y288447D01*
X38100Y288449D01*
X13100Y288449D01*
X13053Y288413D01*
X13058Y288406D01*
X13051Y288400D01*
X13051Y270400D01*
X13087Y270353D01*
X13094Y270358D01*
X13100Y270351D01*
X38100Y270351D01*
X38103Y270353D01*
G37*
G36*
X38103Y448153D02*
X38103Y448153D01*
X38105Y448151D01*
X39861Y448324D01*
X39866Y448329D01*
X39870Y448326D01*
X41558Y448838D01*
X41563Y448844D01*
X41567Y448842D01*
X43123Y449673D01*
X43126Y449680D01*
X43131Y449679D01*
X44495Y450798D01*
X44497Y450805D01*
X44502Y450805D01*
X45621Y452169D01*
X45622Y452176D01*
X45627Y452177D01*
X46458Y453733D01*
X46457Y453740D01*
X46462Y453742D01*
X46600Y454195D01*
X46615Y454244D01*
X46794Y454835D01*
X46809Y454885D01*
X46974Y455430D01*
X46972Y455437D01*
X46976Y455439D01*
X47149Y457195D01*
X47145Y457201D01*
X47149Y457205D01*
X46976Y458961D01*
X46971Y458966D01*
X46974Y458970D01*
X46462Y460658D01*
X46456Y460663D01*
X46458Y460667D01*
X45627Y462223D01*
X45620Y462226D01*
X45621Y462231D01*
X44502Y463595D01*
X44495Y463597D01*
X44495Y463602D01*
X43131Y464721D01*
X43124Y464722D01*
X43123Y464727D01*
X41567Y465558D01*
X41560Y465557D01*
X41558Y465562D01*
X39870Y466074D01*
X39863Y466072D01*
X39861Y466076D01*
X38105Y466249D01*
X38102Y466247D01*
X38100Y466249D01*
X13100Y466249D01*
X13053Y466213D01*
X13058Y466206D01*
X13051Y466200D01*
X13051Y448200D01*
X13087Y448153D01*
X13094Y448158D01*
X13100Y448151D01*
X38100Y448151D01*
X38103Y448153D01*
G37*
G36*
X38103Y397353D02*
X38103Y397353D01*
X38105Y397351D01*
X39861Y397524D01*
X39866Y397529D01*
X39870Y397526D01*
X41558Y398038D01*
X41563Y398044D01*
X41567Y398042D01*
X43123Y398873D01*
X43126Y398880D01*
X43131Y398879D01*
X44495Y399998D01*
X44497Y400005D01*
X44502Y400005D01*
X45621Y401369D01*
X45622Y401376D01*
X45627Y401377D01*
X46458Y402933D01*
X46457Y402940D01*
X46462Y402942D01*
X46600Y403395D01*
X46615Y403444D01*
X46794Y404035D01*
X46809Y404085D01*
X46974Y404630D01*
X46972Y404637D01*
X46976Y404639D01*
X47149Y406395D01*
X47145Y406401D01*
X47149Y406405D01*
X46976Y408161D01*
X46971Y408166D01*
X46974Y408170D01*
X46462Y409858D01*
X46456Y409863D01*
X46458Y409867D01*
X45627Y411423D01*
X45620Y411426D01*
X45621Y411431D01*
X44502Y412795D01*
X44495Y412797D01*
X44495Y412802D01*
X43131Y413921D01*
X43124Y413922D01*
X43123Y413927D01*
X41567Y414758D01*
X41560Y414757D01*
X41558Y414762D01*
X39870Y415274D01*
X39863Y415272D01*
X39861Y415276D01*
X38105Y415449D01*
X38102Y415447D01*
X38100Y415449D01*
X13100Y415449D01*
X13053Y415413D01*
X13058Y415406D01*
X13051Y415400D01*
X13051Y397400D01*
X13087Y397353D01*
X13094Y397358D01*
X13100Y397351D01*
X38100Y397351D01*
X38103Y397353D01*
G37*
G36*
X38103Y371953D02*
X38103Y371953D01*
X38105Y371951D01*
X39861Y372124D01*
X39866Y372129D01*
X39870Y372126D01*
X41558Y372638D01*
X41563Y372644D01*
X41567Y372642D01*
X43123Y373473D01*
X43126Y373480D01*
X43131Y373479D01*
X44495Y374598D01*
X44497Y374605D01*
X44502Y374605D01*
X45621Y375969D01*
X45622Y375976D01*
X45627Y375977D01*
X46458Y377533D01*
X46457Y377540D01*
X46462Y377542D01*
X46600Y377995D01*
X46615Y378044D01*
X46794Y378635D01*
X46809Y378685D01*
X46974Y379230D01*
X46972Y379237D01*
X46976Y379239D01*
X47149Y380995D01*
X47145Y381001D01*
X47149Y381005D01*
X46976Y382761D01*
X46971Y382766D01*
X46974Y382770D01*
X46462Y384458D01*
X46456Y384463D01*
X46458Y384467D01*
X45627Y386023D01*
X45620Y386026D01*
X45621Y386031D01*
X44502Y387395D01*
X44495Y387397D01*
X44495Y387402D01*
X43131Y388521D01*
X43124Y388522D01*
X43123Y388527D01*
X41567Y389358D01*
X41560Y389357D01*
X41558Y389362D01*
X39870Y389874D01*
X39863Y389872D01*
X39861Y389876D01*
X38105Y390049D01*
X38102Y390047D01*
X38100Y390049D01*
X13100Y390049D01*
X13053Y390013D01*
X13058Y390006D01*
X13051Y390000D01*
X13051Y372000D01*
X13087Y371953D01*
X13094Y371958D01*
X13100Y371951D01*
X38100Y371951D01*
X38103Y371953D01*
G37*
G36*
X161447Y231287D02*
X161447Y231287D01*
X161442Y231294D01*
X161449Y231300D01*
X161449Y256300D01*
X161447Y256303D01*
X161449Y256305D01*
X161276Y258061D01*
X161271Y258066D01*
X161274Y258070D01*
X160762Y259758D01*
X160756Y259763D01*
X160758Y259767D01*
X159927Y261323D01*
X159920Y261326D01*
X159921Y261331D01*
X158802Y262695D01*
X158795Y262697D01*
X158795Y262702D01*
X157431Y263821D01*
X157424Y263822D01*
X157423Y263827D01*
X155867Y264658D01*
X155860Y264657D01*
X155858Y264662D01*
X154170Y265174D01*
X154163Y265172D01*
X154161Y265176D01*
X152405Y265349D01*
X152399Y265345D01*
X152395Y265349D01*
X150639Y265176D01*
X150634Y265171D01*
X150630Y265174D01*
X148942Y264662D01*
X148937Y264656D01*
X148933Y264658D01*
X147377Y263827D01*
X147374Y263820D01*
X147369Y263821D01*
X146005Y262702D01*
X146003Y262695D01*
X145998Y262695D01*
X144879Y261331D01*
X144878Y261324D01*
X144873Y261323D01*
X144042Y259767D01*
X144043Y259760D01*
X144038Y259758D01*
X143865Y259189D01*
X143671Y258549D01*
X143526Y258070D01*
X143528Y258063D01*
X143524Y258061D01*
X143351Y256305D01*
X143353Y256302D01*
X143351Y256300D01*
X143351Y231300D01*
X143387Y231253D01*
X143394Y231258D01*
X143400Y231251D01*
X161400Y231251D01*
X161447Y231287D01*
G37*
G36*
X110647Y231287D02*
X110647Y231287D01*
X110642Y231294D01*
X110649Y231300D01*
X110649Y256300D01*
X110647Y256303D01*
X110649Y256305D01*
X110476Y258061D01*
X110471Y258066D01*
X110474Y258070D01*
X109962Y259758D01*
X109956Y259763D01*
X109958Y259767D01*
X109127Y261323D01*
X109120Y261326D01*
X109121Y261331D01*
X108002Y262695D01*
X107995Y262697D01*
X107995Y262702D01*
X106631Y263821D01*
X106624Y263822D01*
X106623Y263827D01*
X105067Y264658D01*
X105060Y264657D01*
X105058Y264662D01*
X103370Y265174D01*
X103363Y265172D01*
X103361Y265176D01*
X101605Y265349D01*
X101599Y265345D01*
X101595Y265349D01*
X99839Y265176D01*
X99834Y265171D01*
X99830Y265174D01*
X98142Y264662D01*
X98137Y264656D01*
X98133Y264658D01*
X96577Y263827D01*
X96574Y263820D01*
X96569Y263821D01*
X95205Y262702D01*
X95203Y262695D01*
X95198Y262695D01*
X94079Y261331D01*
X94078Y261324D01*
X94073Y261323D01*
X93242Y259767D01*
X93243Y259760D01*
X93238Y259758D01*
X93065Y259189D01*
X92871Y258549D01*
X92726Y258070D01*
X92728Y258063D01*
X92724Y258061D01*
X92551Y256305D01*
X92553Y256302D01*
X92551Y256300D01*
X92551Y231300D01*
X92587Y231253D01*
X92594Y231258D01*
X92600Y231251D01*
X110600Y231251D01*
X110647Y231287D01*
G37*
G36*
X240947Y702187D02*
X240947Y702187D01*
X240942Y702194D01*
X240949Y702200D01*
X240949Y720200D01*
X240913Y720247D01*
X240906Y720242D01*
X240900Y720249D01*
X215900Y720249D01*
X215897Y720247D01*
X215895Y720249D01*
X214139Y720076D01*
X214134Y720071D01*
X214130Y720074D01*
X212442Y719562D01*
X212437Y719556D01*
X212433Y719558D01*
X210877Y718727D01*
X210874Y718720D01*
X210869Y718721D01*
X209505Y717602D01*
X209503Y717595D01*
X209498Y717595D01*
X208379Y716231D01*
X208378Y716224D01*
X208373Y716223D01*
X207542Y714667D01*
X207543Y714660D01*
X207538Y714658D01*
X207026Y712970D01*
X207028Y712963D01*
X207024Y712961D01*
X206851Y711205D01*
X206855Y711199D01*
X206851Y711195D01*
X207024Y709439D01*
X207029Y709434D01*
X207026Y709430D01*
X207538Y707742D01*
X207544Y707737D01*
X207542Y707733D01*
X208373Y706177D01*
X208380Y706174D01*
X208379Y706169D01*
X209498Y704805D01*
X209505Y704803D01*
X209505Y704798D01*
X210869Y703679D01*
X210876Y703678D01*
X210877Y703673D01*
X212433Y702842D01*
X212440Y702843D01*
X212442Y702838D01*
X214130Y702326D01*
X214137Y702328D01*
X214139Y702324D01*
X215895Y702151D01*
X215898Y702153D01*
X215900Y702151D01*
X240900Y702151D01*
X240947Y702187D01*
G37*
G36*
X240947Y651387D02*
X240947Y651387D01*
X240942Y651394D01*
X240949Y651400D01*
X240949Y669400D01*
X240913Y669447D01*
X240906Y669442D01*
X240900Y669449D01*
X215900Y669449D01*
X215897Y669447D01*
X215895Y669449D01*
X214139Y669276D01*
X214134Y669271D01*
X214130Y669274D01*
X212442Y668762D01*
X212437Y668756D01*
X212433Y668758D01*
X210877Y667927D01*
X210874Y667920D01*
X210869Y667921D01*
X209505Y666802D01*
X209503Y666795D01*
X209498Y666795D01*
X208379Y665431D01*
X208378Y665424D01*
X208373Y665423D01*
X207542Y663867D01*
X207543Y663860D01*
X207538Y663858D01*
X207026Y662170D01*
X207028Y662163D01*
X207024Y662161D01*
X206851Y660405D01*
X206855Y660399D01*
X206851Y660395D01*
X207024Y658639D01*
X207029Y658634D01*
X207026Y658630D01*
X207538Y656942D01*
X207544Y656937D01*
X207542Y656933D01*
X208373Y655377D01*
X208380Y655374D01*
X208379Y655369D01*
X209498Y654005D01*
X209505Y654003D01*
X209505Y653998D01*
X210869Y652879D01*
X210876Y652878D01*
X210877Y652873D01*
X212433Y652042D01*
X212440Y652043D01*
X212442Y652038D01*
X214130Y651526D01*
X214137Y651528D01*
X214139Y651524D01*
X215895Y651351D01*
X215898Y651353D01*
X215900Y651351D01*
X240900Y651351D01*
X240947Y651387D01*
G37*
G36*
X240947Y448187D02*
X240947Y448187D01*
X240942Y448194D01*
X240949Y448200D01*
X240949Y466200D01*
X240913Y466247D01*
X240906Y466242D01*
X240900Y466249D01*
X215900Y466249D01*
X215897Y466247D01*
X215895Y466249D01*
X214139Y466076D01*
X214134Y466071D01*
X214130Y466074D01*
X212442Y465562D01*
X212437Y465556D01*
X212433Y465558D01*
X210877Y464727D01*
X210874Y464720D01*
X210869Y464721D01*
X209505Y463602D01*
X209503Y463595D01*
X209498Y463595D01*
X208379Y462231D01*
X208378Y462224D01*
X208373Y462223D01*
X207542Y460667D01*
X207543Y460660D01*
X207538Y460658D01*
X207026Y458970D01*
X207028Y458963D01*
X207024Y458961D01*
X206851Y457205D01*
X206855Y457199D01*
X206851Y457195D01*
X207024Y455439D01*
X207029Y455434D01*
X207026Y455430D01*
X207538Y453742D01*
X207544Y453737D01*
X207542Y453733D01*
X208373Y452177D01*
X208380Y452174D01*
X208379Y452169D01*
X209498Y450805D01*
X209505Y450803D01*
X209505Y450798D01*
X210869Y449679D01*
X210876Y449678D01*
X210877Y449673D01*
X212433Y448842D01*
X212440Y448843D01*
X212442Y448838D01*
X214130Y448326D01*
X214137Y448328D01*
X214139Y448324D01*
X215895Y448151D01*
X215898Y448153D01*
X215900Y448151D01*
X240900Y448151D01*
X240947Y448187D01*
G37*
G36*
X240947Y371987D02*
X240947Y371987D01*
X240942Y371994D01*
X240949Y372000D01*
X240949Y390000D01*
X240913Y390047D01*
X240906Y390042D01*
X240900Y390049D01*
X215900Y390049D01*
X215897Y390047D01*
X215895Y390049D01*
X214139Y389876D01*
X214134Y389871D01*
X214130Y389874D01*
X212442Y389362D01*
X212437Y389356D01*
X212433Y389358D01*
X210877Y388527D01*
X210874Y388520D01*
X210869Y388521D01*
X209505Y387402D01*
X209503Y387395D01*
X209498Y387395D01*
X208379Y386031D01*
X208378Y386024D01*
X208373Y386023D01*
X207542Y384467D01*
X207543Y384460D01*
X207538Y384458D01*
X207026Y382770D01*
X207028Y382763D01*
X207024Y382761D01*
X206851Y381005D01*
X206855Y380999D01*
X206851Y380995D01*
X207024Y379239D01*
X207029Y379234D01*
X207026Y379230D01*
X207538Y377542D01*
X207544Y377537D01*
X207542Y377533D01*
X208373Y375977D01*
X208380Y375974D01*
X208379Y375969D01*
X209498Y374605D01*
X209505Y374603D01*
X209505Y374598D01*
X210869Y373479D01*
X210876Y373478D01*
X210877Y373473D01*
X212433Y372642D01*
X212440Y372643D01*
X212442Y372638D01*
X214130Y372126D01*
X214137Y372128D01*
X214139Y372124D01*
X215895Y371951D01*
X215898Y371953D01*
X215900Y371951D01*
X240900Y371951D01*
X240947Y371987D01*
G37*
G36*
X240947Y473587D02*
X240947Y473587D01*
X240942Y473594D01*
X240949Y473600D01*
X240949Y491600D01*
X240913Y491647D01*
X240906Y491642D01*
X240900Y491649D01*
X215900Y491649D01*
X215897Y491647D01*
X215895Y491649D01*
X214139Y491476D01*
X214134Y491471D01*
X214130Y491474D01*
X212442Y490962D01*
X212437Y490956D01*
X212433Y490958D01*
X210877Y490127D01*
X210874Y490120D01*
X210869Y490121D01*
X209505Y489002D01*
X209503Y488995D01*
X209498Y488995D01*
X208379Y487631D01*
X208378Y487624D01*
X208373Y487623D01*
X207542Y486067D01*
X207543Y486060D01*
X207538Y486058D01*
X207026Y484370D01*
X207028Y484363D01*
X207024Y484361D01*
X206851Y482605D01*
X206855Y482599D01*
X206851Y482595D01*
X207024Y480839D01*
X207029Y480834D01*
X207026Y480830D01*
X207538Y479142D01*
X207544Y479137D01*
X207542Y479133D01*
X208373Y477577D01*
X208380Y477574D01*
X208379Y477569D01*
X209498Y476205D01*
X209505Y476203D01*
X209505Y476198D01*
X210869Y475079D01*
X210876Y475078D01*
X210877Y475073D01*
X212433Y474242D01*
X212440Y474243D01*
X212442Y474238D01*
X214130Y473726D01*
X214137Y473728D01*
X214139Y473724D01*
X215895Y473551D01*
X215898Y473553D01*
X215900Y473551D01*
X240900Y473551D01*
X240947Y473587D01*
G37*
G36*
X240947Y498987D02*
X240947Y498987D01*
X240942Y498994D01*
X240949Y499000D01*
X240949Y517000D01*
X240913Y517047D01*
X240906Y517042D01*
X240900Y517049D01*
X215900Y517049D01*
X215897Y517047D01*
X215895Y517049D01*
X214139Y516876D01*
X214134Y516871D01*
X214130Y516874D01*
X212442Y516362D01*
X212437Y516356D01*
X212433Y516358D01*
X210877Y515527D01*
X210874Y515520D01*
X210869Y515521D01*
X209505Y514402D01*
X209503Y514395D01*
X209498Y514395D01*
X208379Y513031D01*
X208378Y513024D01*
X208373Y513023D01*
X207542Y511467D01*
X207543Y511460D01*
X207538Y511458D01*
X207026Y509770D01*
X207028Y509763D01*
X207024Y509761D01*
X206851Y508005D01*
X206855Y507999D01*
X206851Y507995D01*
X207024Y506239D01*
X207029Y506234D01*
X207026Y506230D01*
X207538Y504542D01*
X207544Y504537D01*
X207542Y504533D01*
X208373Y502977D01*
X208380Y502974D01*
X208379Y502969D01*
X209498Y501605D01*
X209505Y501603D01*
X209505Y501598D01*
X210869Y500479D01*
X210876Y500478D01*
X210877Y500473D01*
X212433Y499642D01*
X212440Y499643D01*
X212442Y499638D01*
X214130Y499126D01*
X214137Y499128D01*
X214139Y499124D01*
X215895Y498951D01*
X215898Y498953D01*
X215900Y498951D01*
X240900Y498951D01*
X240947Y498987D01*
G37*
G36*
X240947Y346587D02*
X240947Y346587D01*
X240942Y346594D01*
X240949Y346600D01*
X240949Y364600D01*
X240913Y364647D01*
X240906Y364642D01*
X240900Y364649D01*
X215900Y364649D01*
X215897Y364647D01*
X215895Y364649D01*
X214139Y364476D01*
X214134Y364471D01*
X214130Y364474D01*
X212442Y363962D01*
X212437Y363956D01*
X212433Y363958D01*
X210877Y363127D01*
X210874Y363120D01*
X210869Y363121D01*
X209505Y362002D01*
X209503Y361995D01*
X209498Y361995D01*
X208379Y360631D01*
X208378Y360624D01*
X208373Y360623D01*
X207542Y359067D01*
X207543Y359060D01*
X207538Y359058D01*
X207026Y357370D01*
X207028Y357363D01*
X207024Y357361D01*
X206851Y355605D01*
X206855Y355599D01*
X206851Y355595D01*
X207024Y353839D01*
X207029Y353834D01*
X207026Y353830D01*
X207538Y352142D01*
X207544Y352137D01*
X207542Y352133D01*
X208373Y350577D01*
X208380Y350574D01*
X208379Y350569D01*
X209498Y349205D01*
X209505Y349203D01*
X209505Y349198D01*
X210869Y348079D01*
X210876Y348078D01*
X210877Y348073D01*
X212433Y347242D01*
X212440Y347243D01*
X212442Y347238D01*
X214130Y346726D01*
X214137Y346728D01*
X214139Y346724D01*
X215895Y346551D01*
X215898Y346553D01*
X215900Y346551D01*
X240900Y346551D01*
X240947Y346587D01*
G37*
G36*
X240947Y575187D02*
X240947Y575187D01*
X240942Y575194D01*
X240949Y575200D01*
X240949Y593200D01*
X240913Y593247D01*
X240906Y593242D01*
X240900Y593249D01*
X215900Y593249D01*
X215897Y593247D01*
X215895Y593249D01*
X214139Y593076D01*
X214134Y593071D01*
X214130Y593074D01*
X212442Y592562D01*
X212437Y592556D01*
X212433Y592558D01*
X210877Y591727D01*
X210874Y591720D01*
X210869Y591721D01*
X209505Y590602D01*
X209503Y590595D01*
X209498Y590595D01*
X208379Y589231D01*
X208378Y589224D01*
X208373Y589223D01*
X207542Y587667D01*
X207543Y587660D01*
X207538Y587658D01*
X207026Y585970D01*
X207028Y585963D01*
X207024Y585961D01*
X206851Y584205D01*
X206855Y584199D01*
X206851Y584195D01*
X207024Y582439D01*
X207029Y582434D01*
X207026Y582430D01*
X207538Y580742D01*
X207544Y580737D01*
X207542Y580733D01*
X208373Y579177D01*
X208380Y579174D01*
X208379Y579169D01*
X209498Y577805D01*
X209505Y577803D01*
X209505Y577798D01*
X210869Y576679D01*
X210876Y576678D01*
X210877Y576673D01*
X212433Y575842D01*
X212440Y575843D01*
X212442Y575838D01*
X214130Y575326D01*
X214137Y575328D01*
X214139Y575324D01*
X215895Y575151D01*
X215898Y575153D01*
X215900Y575151D01*
X240900Y575151D01*
X240947Y575187D01*
G37*
G36*
X240947Y397387D02*
X240947Y397387D01*
X240942Y397394D01*
X240949Y397400D01*
X240949Y415400D01*
X240913Y415447D01*
X240906Y415442D01*
X240900Y415449D01*
X215900Y415449D01*
X215897Y415447D01*
X215895Y415449D01*
X214139Y415276D01*
X214134Y415271D01*
X214130Y415274D01*
X212442Y414762D01*
X212437Y414756D01*
X212433Y414758D01*
X210877Y413927D01*
X210874Y413920D01*
X210869Y413921D01*
X209505Y412802D01*
X209503Y412795D01*
X209498Y412795D01*
X208379Y411431D01*
X208378Y411424D01*
X208373Y411423D01*
X207542Y409867D01*
X207543Y409860D01*
X207538Y409858D01*
X207026Y408170D01*
X207028Y408163D01*
X207024Y408161D01*
X206851Y406405D01*
X206855Y406399D01*
X206851Y406395D01*
X207024Y404639D01*
X207029Y404634D01*
X207026Y404630D01*
X207538Y402942D01*
X207544Y402937D01*
X207542Y402933D01*
X208373Y401377D01*
X208380Y401374D01*
X208379Y401369D01*
X209498Y400005D01*
X209505Y400003D01*
X209505Y399998D01*
X210869Y398879D01*
X210876Y398878D01*
X210877Y398873D01*
X212433Y398042D01*
X212440Y398043D01*
X212442Y398038D01*
X214130Y397526D01*
X214137Y397528D01*
X214139Y397524D01*
X215895Y397351D01*
X215898Y397353D01*
X215900Y397351D01*
X240900Y397351D01*
X240947Y397387D01*
G37*
G36*
X240947Y600587D02*
X240947Y600587D01*
X240942Y600594D01*
X240949Y600600D01*
X240949Y618600D01*
X240913Y618647D01*
X240906Y618642D01*
X240900Y618649D01*
X215900Y618649D01*
X215897Y618647D01*
X215895Y618649D01*
X214139Y618476D01*
X214134Y618471D01*
X214130Y618474D01*
X212442Y617962D01*
X212437Y617956D01*
X212433Y617958D01*
X210877Y617127D01*
X210874Y617120D01*
X210869Y617121D01*
X209505Y616002D01*
X209503Y615995D01*
X209498Y615995D01*
X208379Y614631D01*
X208378Y614624D01*
X208373Y614623D01*
X207542Y613067D01*
X207543Y613060D01*
X207538Y613058D01*
X207026Y611370D01*
X207028Y611363D01*
X207024Y611361D01*
X206851Y609605D01*
X206855Y609599D01*
X206851Y609595D01*
X207024Y607839D01*
X207029Y607834D01*
X207026Y607830D01*
X207538Y606142D01*
X207544Y606137D01*
X207542Y606133D01*
X208373Y604577D01*
X208380Y604574D01*
X208379Y604569D01*
X209498Y603205D01*
X209505Y603203D01*
X209505Y603198D01*
X210869Y602079D01*
X210876Y602078D01*
X210877Y602073D01*
X212433Y601242D01*
X212440Y601243D01*
X212442Y601238D01*
X214130Y600726D01*
X214137Y600728D01*
X214139Y600724D01*
X215895Y600551D01*
X215898Y600553D01*
X215900Y600551D01*
X240900Y600551D01*
X240947Y600587D01*
G37*
G36*
X240947Y727587D02*
X240947Y727587D01*
X240942Y727594D01*
X240949Y727600D01*
X240949Y745600D01*
X240913Y745647D01*
X240906Y745642D01*
X240900Y745649D01*
X215900Y745649D01*
X215897Y745647D01*
X215895Y745649D01*
X214139Y745476D01*
X214134Y745471D01*
X214130Y745474D01*
X212442Y744962D01*
X212437Y744956D01*
X212433Y744958D01*
X210877Y744127D01*
X210874Y744120D01*
X210869Y744121D01*
X209505Y743002D01*
X209503Y742995D01*
X209498Y742995D01*
X208379Y741631D01*
X208378Y741624D01*
X208373Y741623D01*
X207542Y740067D01*
X207543Y740060D01*
X207538Y740058D01*
X207026Y738370D01*
X207028Y738363D01*
X207024Y738361D01*
X206851Y736605D01*
X206855Y736599D01*
X206851Y736595D01*
X207024Y734839D01*
X207029Y734834D01*
X207026Y734830D01*
X207538Y733142D01*
X207544Y733137D01*
X207542Y733133D01*
X208373Y731577D01*
X208380Y731574D01*
X208379Y731569D01*
X209498Y730205D01*
X209505Y730203D01*
X209505Y730198D01*
X210869Y729079D01*
X210876Y729078D01*
X210877Y729073D01*
X212433Y728242D01*
X212440Y728243D01*
X212442Y728238D01*
X214130Y727726D01*
X214137Y727728D01*
X214139Y727724D01*
X215895Y727551D01*
X215898Y727553D01*
X215900Y727551D01*
X240900Y727551D01*
X240947Y727587D01*
G37*
G36*
X240947Y270387D02*
X240947Y270387D01*
X240942Y270394D01*
X240949Y270400D01*
X240949Y288400D01*
X240913Y288447D01*
X240906Y288442D01*
X240900Y288449D01*
X215900Y288449D01*
X215897Y288447D01*
X215895Y288449D01*
X214139Y288276D01*
X214134Y288271D01*
X214130Y288274D01*
X212442Y287762D01*
X212437Y287756D01*
X212433Y287758D01*
X210877Y286927D01*
X210874Y286920D01*
X210869Y286921D01*
X209505Y285802D01*
X209503Y285795D01*
X209498Y285795D01*
X208379Y284431D01*
X208378Y284424D01*
X208373Y284423D01*
X207542Y282867D01*
X207543Y282860D01*
X207538Y282858D01*
X207026Y281170D01*
X207028Y281163D01*
X207024Y281161D01*
X206851Y279405D01*
X206855Y279399D01*
X206851Y279395D01*
X207024Y277639D01*
X207029Y277634D01*
X207026Y277630D01*
X207538Y275942D01*
X207544Y275937D01*
X207542Y275933D01*
X208373Y274377D01*
X208380Y274374D01*
X208379Y274369D01*
X209498Y273005D01*
X209505Y273003D01*
X209505Y272998D01*
X210869Y271879D01*
X210876Y271878D01*
X210877Y271873D01*
X212433Y271042D01*
X212440Y271043D01*
X212442Y271038D01*
X214130Y270526D01*
X214137Y270528D01*
X214139Y270524D01*
X215895Y270351D01*
X215898Y270353D01*
X215900Y270351D01*
X240900Y270351D01*
X240947Y270387D01*
G37*
G36*
X240947Y524387D02*
X240947Y524387D01*
X240942Y524394D01*
X240949Y524400D01*
X240949Y542400D01*
X240913Y542447D01*
X240906Y542442D01*
X240900Y542449D01*
X215900Y542449D01*
X215897Y542447D01*
X215895Y542449D01*
X214139Y542276D01*
X214134Y542271D01*
X214130Y542274D01*
X212442Y541762D01*
X212437Y541756D01*
X212433Y541758D01*
X210877Y540927D01*
X210874Y540920D01*
X210869Y540921D01*
X209505Y539802D01*
X209503Y539795D01*
X209498Y539795D01*
X208379Y538431D01*
X208378Y538424D01*
X208373Y538423D01*
X207542Y536867D01*
X207543Y536860D01*
X207538Y536858D01*
X207026Y535170D01*
X207028Y535163D01*
X207024Y535161D01*
X206851Y533405D01*
X206855Y533399D01*
X206851Y533395D01*
X207024Y531639D01*
X207029Y531634D01*
X207026Y531630D01*
X207538Y529942D01*
X207544Y529937D01*
X207542Y529933D01*
X208373Y528377D01*
X208380Y528374D01*
X208379Y528369D01*
X209498Y527005D01*
X209505Y527003D01*
X209505Y526998D01*
X210869Y525879D01*
X210876Y525878D01*
X210877Y525873D01*
X212433Y525042D01*
X212440Y525043D01*
X212442Y525038D01*
X214130Y524526D01*
X214137Y524528D01*
X214139Y524524D01*
X215895Y524351D01*
X215898Y524353D01*
X215900Y524351D01*
X240900Y524351D01*
X240947Y524387D01*
G37*
G36*
X240947Y625987D02*
X240947Y625987D01*
X240942Y625994D01*
X240949Y626000D01*
X240949Y644000D01*
X240913Y644047D01*
X240906Y644042D01*
X240900Y644049D01*
X215900Y644049D01*
X215897Y644047D01*
X215895Y644049D01*
X214139Y643876D01*
X214134Y643871D01*
X214130Y643874D01*
X212442Y643362D01*
X212437Y643356D01*
X212433Y643358D01*
X210877Y642527D01*
X210874Y642520D01*
X210869Y642521D01*
X209505Y641402D01*
X209503Y641395D01*
X209498Y641395D01*
X208379Y640031D01*
X208378Y640024D01*
X208373Y640023D01*
X207542Y638467D01*
X207543Y638460D01*
X207538Y638458D01*
X207026Y636770D01*
X207028Y636763D01*
X207024Y636761D01*
X206851Y635005D01*
X206855Y634999D01*
X206851Y634995D01*
X207024Y633239D01*
X207029Y633234D01*
X207026Y633230D01*
X207538Y631542D01*
X207544Y631537D01*
X207542Y631533D01*
X208373Y629977D01*
X208380Y629974D01*
X208379Y629969D01*
X209498Y628605D01*
X209505Y628603D01*
X209505Y628598D01*
X210869Y627479D01*
X210876Y627478D01*
X210877Y627473D01*
X212433Y626642D01*
X212440Y626643D01*
X212442Y626638D01*
X214130Y626126D01*
X214137Y626128D01*
X214139Y626124D01*
X215895Y625951D01*
X215898Y625953D01*
X215900Y625951D01*
X240900Y625951D01*
X240947Y625987D01*
G37*
G36*
X240947Y244987D02*
X240947Y244987D01*
X240942Y244994D01*
X240949Y245000D01*
X240949Y263000D01*
X240913Y263047D01*
X240906Y263042D01*
X240900Y263049D01*
X215900Y263049D01*
X215897Y263047D01*
X215895Y263049D01*
X214139Y262876D01*
X214134Y262871D01*
X214130Y262874D01*
X212442Y262362D01*
X212437Y262356D01*
X212433Y262358D01*
X210877Y261527D01*
X210874Y261520D01*
X210869Y261521D01*
X209505Y260402D01*
X209503Y260395D01*
X209498Y260395D01*
X208379Y259031D01*
X208378Y259024D01*
X208373Y259023D01*
X207542Y257467D01*
X207543Y257460D01*
X207538Y257458D01*
X207026Y255770D01*
X207028Y255763D01*
X207024Y255761D01*
X206851Y254005D01*
X206855Y253999D01*
X206851Y253995D01*
X207024Y252239D01*
X207029Y252234D01*
X207026Y252230D01*
X207538Y250542D01*
X207544Y250537D01*
X207542Y250533D01*
X208373Y248977D01*
X208380Y248974D01*
X208379Y248969D01*
X209498Y247605D01*
X209505Y247603D01*
X209505Y247598D01*
X210869Y246479D01*
X210876Y246478D01*
X210877Y246473D01*
X212433Y245642D01*
X212440Y245643D01*
X212442Y245638D01*
X214130Y245126D01*
X214137Y245128D01*
X214139Y245124D01*
X215895Y244951D01*
X215898Y244953D01*
X215900Y244951D01*
X240900Y244951D01*
X240947Y244987D01*
G37*
G36*
X240947Y321187D02*
X240947Y321187D01*
X240942Y321194D01*
X240949Y321200D01*
X240949Y339200D01*
X240913Y339247D01*
X240906Y339242D01*
X240900Y339249D01*
X215900Y339249D01*
X215897Y339247D01*
X215895Y339249D01*
X214139Y339076D01*
X214134Y339071D01*
X214130Y339074D01*
X212442Y338562D01*
X212437Y338556D01*
X212433Y338558D01*
X210877Y337727D01*
X210874Y337720D01*
X210869Y337721D01*
X209505Y336602D01*
X209503Y336595D01*
X209498Y336595D01*
X208379Y335231D01*
X208378Y335224D01*
X208373Y335223D01*
X207542Y333667D01*
X207543Y333660D01*
X207538Y333658D01*
X207026Y331970D01*
X207028Y331963D01*
X207024Y331961D01*
X206851Y330205D01*
X206855Y330199D01*
X206851Y330195D01*
X207024Y328439D01*
X207029Y328434D01*
X207026Y328430D01*
X207538Y326742D01*
X207544Y326737D01*
X207542Y326733D01*
X208373Y325177D01*
X208380Y325174D01*
X208379Y325169D01*
X209498Y323805D01*
X209505Y323803D01*
X209505Y323798D01*
X210869Y322679D01*
X210876Y322678D01*
X210877Y322673D01*
X212433Y321842D01*
X212440Y321843D01*
X212442Y321838D01*
X214130Y321326D01*
X214137Y321328D01*
X214139Y321324D01*
X215895Y321151D01*
X215898Y321153D01*
X215900Y321151D01*
X240900Y321151D01*
X240947Y321187D01*
G37*
D10*
X125246Y173074D02*
X118594Y173074D01*
X118594Y196126D01*
X125246Y196126D01*
X125246Y173074D01*
X125246Y175181D02*
X118594Y175181D01*
X118594Y177288D02*
X125246Y177288D01*
X125246Y179395D02*
X118594Y179395D01*
X118594Y181502D02*
X125246Y181502D01*
X125246Y183609D02*
X118594Y183609D01*
X118594Y185716D02*
X125246Y185716D01*
X125246Y187823D02*
X118594Y187823D01*
X118594Y189930D02*
X125246Y189930D01*
X125246Y192037D02*
X118594Y192037D01*
X118594Y194144D02*
X125246Y194144D01*
X131294Y173074D02*
X137946Y173074D01*
X131294Y173074D02*
X131294Y196126D01*
X137946Y196126D01*
X137946Y173074D01*
X137946Y175181D02*
X131294Y175181D01*
X131294Y177288D02*
X137946Y177288D01*
X137946Y179395D02*
X131294Y179395D01*
X131294Y181502D02*
X137946Y181502D01*
X137946Y183609D02*
X131294Y183609D01*
X131294Y185716D02*
X137946Y185716D01*
X137946Y187823D02*
X131294Y187823D01*
X131294Y189930D02*
X137946Y189930D01*
X137946Y192037D02*
X131294Y192037D01*
X131294Y194144D02*
X137946Y194144D01*
X143994Y173074D02*
X150646Y173074D01*
X143994Y173074D02*
X143994Y196126D01*
X150646Y196126D01*
X150646Y173074D01*
X150646Y175181D02*
X143994Y175181D01*
X143994Y177288D02*
X150646Y177288D01*
X150646Y179395D02*
X143994Y179395D01*
X143994Y181502D02*
X150646Y181502D01*
X150646Y183609D02*
X143994Y183609D01*
X143994Y185716D02*
X150646Y185716D01*
X150646Y187823D02*
X143994Y187823D01*
X143994Y189930D02*
X150646Y189930D01*
X150646Y192037D02*
X143994Y192037D01*
X143994Y194144D02*
X150646Y194144D01*
X112546Y173074D02*
X105894Y173074D01*
X105894Y196126D01*
X112546Y196126D01*
X112546Y173074D01*
X112546Y175181D02*
X105894Y175181D01*
X105894Y177288D02*
X112546Y177288D01*
X112546Y179395D02*
X105894Y179395D01*
X105894Y181502D02*
X112546Y181502D01*
X112546Y183609D02*
X105894Y183609D01*
X105894Y185716D02*
X112546Y185716D01*
X112546Y187823D02*
X105894Y187823D01*
X105894Y189930D02*
X112546Y189930D01*
X112546Y192037D02*
X105894Y192037D01*
X105894Y194144D02*
X112546Y194144D01*
X99846Y173074D02*
X93194Y173074D01*
X93194Y196126D01*
X99846Y196126D01*
X99846Y173074D01*
X99846Y175181D02*
X93194Y175181D01*
X93194Y177288D02*
X99846Y177288D01*
X99846Y179395D02*
X93194Y179395D01*
X93194Y181502D02*
X99846Y181502D01*
X99846Y183609D02*
X93194Y183609D01*
X93194Y185716D02*
X99846Y185716D01*
X99846Y187823D02*
X93194Y187823D01*
X93194Y189930D02*
X99846Y189930D01*
X99846Y192037D02*
X93194Y192037D01*
X93194Y194144D02*
X99846Y194144D01*
X99846Y134074D02*
X93194Y134074D01*
X93194Y157126D01*
X99846Y157126D01*
X99846Y134074D01*
X99846Y136181D02*
X93194Y136181D01*
X93194Y138288D02*
X99846Y138288D01*
X99846Y140395D02*
X93194Y140395D01*
X93194Y142502D02*
X99846Y142502D01*
X99846Y144609D02*
X93194Y144609D01*
X93194Y146716D02*
X99846Y146716D01*
X99846Y148823D02*
X93194Y148823D01*
X93194Y150930D02*
X99846Y150930D01*
X99846Y153037D02*
X93194Y153037D01*
X93194Y155144D02*
X99846Y155144D01*
X105894Y134074D02*
X112546Y134074D01*
X105894Y134074D02*
X105894Y157126D01*
X112546Y157126D01*
X112546Y134074D01*
X112546Y136181D02*
X105894Y136181D01*
X105894Y138288D02*
X112546Y138288D01*
X112546Y140395D02*
X105894Y140395D01*
X105894Y142502D02*
X112546Y142502D01*
X112546Y144609D02*
X105894Y144609D01*
X105894Y146716D02*
X112546Y146716D01*
X112546Y148823D02*
X105894Y148823D01*
X105894Y150930D02*
X112546Y150930D01*
X112546Y153037D02*
X105894Y153037D01*
X105894Y155144D02*
X112546Y155144D01*
X118594Y134074D02*
X125246Y134074D01*
X118594Y134074D02*
X118594Y157126D01*
X125246Y157126D01*
X125246Y134074D01*
X125246Y136181D02*
X118594Y136181D01*
X118594Y138288D02*
X125246Y138288D01*
X125246Y140395D02*
X118594Y140395D01*
X118594Y142502D02*
X125246Y142502D01*
X125246Y144609D02*
X118594Y144609D01*
X118594Y146716D02*
X125246Y146716D01*
X125246Y148823D02*
X118594Y148823D01*
X118594Y150930D02*
X125246Y150930D01*
X125246Y153037D02*
X118594Y153037D01*
X118594Y155144D02*
X125246Y155144D01*
X131294Y134074D02*
X137946Y134074D01*
X131294Y134074D02*
X131294Y157126D01*
X137946Y157126D01*
X137946Y134074D01*
X137946Y136181D02*
X131294Y136181D01*
X131294Y138288D02*
X137946Y138288D01*
X137946Y140395D02*
X131294Y140395D01*
X131294Y142502D02*
X137946Y142502D01*
X137946Y144609D02*
X131294Y144609D01*
X131294Y146716D02*
X137946Y146716D01*
X137946Y148823D02*
X131294Y148823D01*
X131294Y150930D02*
X137946Y150930D01*
X137946Y153037D02*
X131294Y153037D01*
X131294Y155144D02*
X137946Y155144D01*
X143994Y134074D02*
X150646Y134074D01*
X143994Y134074D02*
X143994Y157126D01*
X150646Y157126D01*
X150646Y134074D01*
X150646Y136181D02*
X143994Y136181D01*
X143994Y138288D02*
X150646Y138288D01*
X150646Y140395D02*
X143994Y140395D01*
X143994Y142502D02*
X150646Y142502D01*
X150646Y144609D02*
X143994Y144609D01*
X143994Y146716D02*
X150646Y146716D01*
X150646Y148823D02*
X143994Y148823D01*
X143994Y150930D02*
X150646Y150930D01*
X150646Y153037D02*
X143994Y153037D01*
X143994Y155144D02*
X150646Y155144D01*
D11*
X63500Y106680D03*
X88900Y106680D03*
X114300Y106680D03*
X139700Y106680D03*
X165100Y106680D03*
X190500Y106680D03*
D12*
X121474Y733826D02*
X112526Y733826D01*
X112526Y742774D01*
X121474Y742774D01*
X121474Y733826D01*
X121474Y740782D02*
X112526Y740782D01*
X132526Y733826D02*
X141474Y733826D01*
X132526Y733826D02*
X132526Y742774D01*
X141474Y742774D01*
X141474Y733826D01*
X141474Y740782D02*
X132526Y740782D01*
X131474Y700826D02*
X122526Y700826D01*
X122526Y709774D01*
X131474Y709774D01*
X131474Y700826D01*
X131474Y707782D02*
X122526Y707782D01*
X106474Y665826D02*
X97526Y665826D01*
X97526Y674774D01*
X106474Y674774D01*
X106474Y665826D01*
X106474Y672782D02*
X97526Y672782D01*
X97526Y640826D02*
X106474Y640826D01*
X97526Y640826D02*
X97526Y649774D01*
X106474Y649774D01*
X106474Y640826D01*
X106474Y647782D02*
X97526Y647782D01*
X97526Y615826D02*
X106474Y615826D01*
X97526Y615826D02*
X97526Y624774D01*
X106474Y624774D01*
X106474Y615826D01*
X106474Y622782D02*
X97526Y622782D01*
D13*
X99750Y731800D02*
X99750Y738800D01*
X154250Y738800D02*
X154250Y731800D01*
D14*
X102750Y707000D02*
X102750Y703000D01*
X151250Y703000D02*
X151250Y707000D01*
D11*
X38100Y736600D03*
X38100Y711200D03*
D15*
X38100Y685800D03*
X38100Y558800D03*
X38100Y431800D03*
X38100Y304800D03*
X127000Y254000D03*
X215900Y304800D03*
X215900Y431800D03*
X215900Y558800D03*
X215900Y685800D03*
D11*
X38100Y660400D03*
X38100Y635000D03*
X38100Y609600D03*
X38100Y584200D03*
X38100Y533400D03*
X38100Y508000D03*
X38100Y482600D03*
X38100Y457200D03*
X38100Y406400D03*
X38100Y381000D03*
X38100Y355600D03*
X38100Y330200D03*
X38100Y279400D03*
X38100Y254000D03*
X215900Y254000D03*
X215900Y279400D03*
X215900Y330200D03*
X215900Y355600D03*
X215900Y381000D03*
X215900Y406400D03*
X215900Y457200D03*
X215900Y482600D03*
X215900Y508000D03*
X215900Y533400D03*
X215900Y584200D03*
X215900Y609600D03*
X215900Y635000D03*
X215900Y660400D03*
X215900Y711200D03*
X215900Y736600D03*
X101600Y254000D03*
X152400Y254000D03*
D16*
X171847Y218473D02*
X183273Y218473D01*
X183273Y208247D01*
X171847Y208247D01*
X171847Y218473D01*
X171847Y210380D02*
X183273Y210380D01*
X183273Y212513D02*
X171847Y212513D01*
X171847Y214646D02*
X183273Y214646D01*
X183273Y216779D02*
X171847Y216779D01*
X153273Y218473D02*
X141847Y218473D01*
X153273Y218473D02*
X153273Y208247D01*
X141847Y208247D01*
X141847Y218473D01*
X141847Y210380D02*
X153273Y210380D01*
X153273Y212513D02*
X141847Y212513D01*
X141847Y214646D02*
X153273Y214646D01*
X153273Y216779D02*
X141847Y216779D01*
D17*
X201422Y161163D02*
X201422Y155829D01*
X189738Y155829D01*
X189738Y161163D01*
X201422Y161163D01*
X201422Y158001D02*
X189738Y158001D01*
X189738Y160173D02*
X201422Y160173D01*
X201422Y163957D02*
X201422Y169291D01*
X201422Y163957D02*
X189738Y163957D01*
X189738Y169291D01*
X201422Y169291D01*
X201422Y166129D02*
X189738Y166129D01*
X189738Y168301D02*
X201422Y168301D01*
M02*
