G04 EAGLE Gerber RS-274X export*
G75*
%MOMM*%
%FSLAX34Y34*%
%LPD*%
%INBottom Copper*%
%IPPOS*%
%AMOC8*
5,1,8,0,0,1.08239X$1,22.5*%
G01*
%ADD10C,1.879600*%
%ADD11R,1.879600X1.879600*%
%ADD12C,0.604000*%
%ADD13C,0.304800*%
%ADD14C,0.406400*%


D10*
X63500Y106680D03*
X88900Y106680D03*
X114300Y106680D03*
X139700Y106680D03*
X165100Y106680D03*
X190500Y106680D03*
X38100Y736600D03*
X38100Y711200D03*
D11*
X38100Y685800D03*
X38100Y558800D03*
X38100Y431800D03*
X38100Y304800D03*
X127000Y254000D03*
X215900Y304800D03*
X215900Y431800D03*
X215900Y558800D03*
X215900Y685800D03*
D10*
X38100Y660400D03*
X38100Y635000D03*
X38100Y609600D03*
X38100Y584200D03*
X38100Y533400D03*
X38100Y508000D03*
X38100Y482600D03*
X38100Y457200D03*
X38100Y406400D03*
X38100Y381000D03*
X38100Y355600D03*
X38100Y330200D03*
X38100Y279400D03*
X38100Y254000D03*
X215900Y254000D03*
X215900Y279400D03*
X215900Y330200D03*
X215900Y355600D03*
X215900Y381000D03*
X215900Y406400D03*
X215900Y457200D03*
X215900Y482600D03*
X215900Y508000D03*
X215900Y533400D03*
X215900Y584200D03*
X215900Y609600D03*
X215900Y635000D03*
X215900Y660400D03*
X215900Y711200D03*
X215900Y736600D03*
X101600Y254000D03*
X152400Y254000D03*
D12*
X109220Y208280D03*
X114300Y576580D03*
D13*
X139700Y551180D01*
X139700Y208280D01*
X139700Y106680D01*
X139700Y208280D02*
X109220Y208280D01*
D12*
X99060Y576580D03*
D13*
X114300Y591820D01*
X137160Y591820D01*
X154940Y574040D01*
X154940Y269061D02*
X164846Y259155D01*
X164846Y106934D02*
X165100Y106680D01*
X164846Y106934D02*
X164846Y259155D01*
X154940Y269061D02*
X154940Y574040D01*
X190500Y685800D02*
X215900Y711200D01*
X190500Y685800D02*
X190500Y106680D01*
X94055Y94234D02*
X83745Y94234D01*
X76454Y101525D01*
X76454Y292282D01*
X106501Y106680D02*
X114300Y106680D01*
X106501Y106680D02*
X94055Y94234D01*
X58420Y310316D02*
X58420Y574040D01*
X48260Y584200D01*
X38100Y584200D01*
X58420Y310316D02*
X76454Y292282D01*
X88900Y248380D02*
X88900Y106680D01*
D14*
X88900Y248380D02*
X88646Y248634D01*
D13*
X88646Y287274D02*
X68580Y307340D01*
X88646Y287274D02*
X88646Y248634D01*
X68580Y307340D02*
X68580Y596900D01*
X55880Y609600D01*
X38100Y609600D01*
M02*
