G04 EAGLE Gerber RS-274X export*
G75*
%MOMM*%
%FSLAX34Y34*%
%LPD*%
%INMechanical*%
%IPPOS*%
%AMOC8*
5,1,8,0,0,1.08239X$1,22.5*%
G01*
%ADD10C,0.000000*%
%ADD11C,0.254000*%


D10*
X48260Y0D02*
X205740Y0D01*
X254000Y213360D02*
X254000Y756920D01*
X243840Y767080D02*
X10160Y767080D01*
X0Y756920D02*
X0Y213360D01*
X38100Y193040D02*
X38100Y10160D01*
X27940Y203200D02*
X10160Y203200D01*
X215900Y193040D02*
X215900Y10160D01*
X226060Y203200D02*
X243840Y203200D01*
X38100Y193040D02*
X38097Y193286D01*
X38088Y193531D01*
X38073Y193776D01*
X38053Y194021D01*
X38026Y194265D01*
X37993Y194508D01*
X37955Y194751D01*
X37911Y194992D01*
X37861Y195232D01*
X37805Y195471D01*
X37743Y195709D01*
X37676Y195945D01*
X37603Y196180D01*
X37524Y196412D01*
X37440Y196643D01*
X37350Y196871D01*
X37255Y197098D01*
X37154Y197321D01*
X37048Y197543D01*
X36936Y197762D01*
X36820Y197978D01*
X36698Y198191D01*
X36571Y198401D01*
X36439Y198608D01*
X36302Y198812D01*
X36160Y199012D01*
X36013Y199209D01*
X35861Y199402D01*
X35705Y199592D01*
X35545Y199777D01*
X35380Y199959D01*
X35210Y200137D01*
X35037Y200310D01*
X34859Y200480D01*
X34677Y200645D01*
X34492Y200805D01*
X34302Y200961D01*
X34109Y201113D01*
X33912Y201260D01*
X33712Y201402D01*
X33508Y201539D01*
X33301Y201671D01*
X33091Y201798D01*
X32878Y201920D01*
X32662Y202036D01*
X32443Y202148D01*
X32221Y202254D01*
X31998Y202355D01*
X31771Y202450D01*
X31543Y202540D01*
X31312Y202624D01*
X31080Y202703D01*
X30845Y202776D01*
X30609Y202843D01*
X30371Y202905D01*
X30132Y202961D01*
X29892Y203011D01*
X29651Y203055D01*
X29408Y203093D01*
X29165Y203126D01*
X28921Y203153D01*
X28676Y203173D01*
X28431Y203188D01*
X28186Y203197D01*
X27940Y203200D01*
X38100Y10160D02*
X38103Y9914D01*
X38112Y9669D01*
X38127Y9424D01*
X38147Y9179D01*
X38174Y8935D01*
X38207Y8692D01*
X38245Y8449D01*
X38289Y8208D01*
X38339Y7968D01*
X38395Y7729D01*
X38457Y7491D01*
X38524Y7255D01*
X38597Y7020D01*
X38676Y6788D01*
X38760Y6557D01*
X38850Y6329D01*
X38945Y6102D01*
X39046Y5879D01*
X39152Y5657D01*
X39264Y5438D01*
X39380Y5222D01*
X39502Y5009D01*
X39629Y4799D01*
X39761Y4592D01*
X39898Y4388D01*
X40040Y4188D01*
X40187Y3991D01*
X40339Y3798D01*
X40495Y3608D01*
X40655Y3423D01*
X40820Y3241D01*
X40990Y3063D01*
X41163Y2890D01*
X41341Y2720D01*
X41523Y2555D01*
X41708Y2395D01*
X41898Y2239D01*
X42091Y2087D01*
X42288Y1940D01*
X42488Y1798D01*
X42692Y1661D01*
X42899Y1529D01*
X43109Y1402D01*
X43322Y1280D01*
X43538Y1164D01*
X43757Y1052D01*
X43979Y946D01*
X44202Y845D01*
X44429Y750D01*
X44657Y660D01*
X44888Y576D01*
X45120Y497D01*
X45355Y424D01*
X45591Y357D01*
X45829Y295D01*
X46068Y239D01*
X46308Y189D01*
X46549Y145D01*
X46792Y107D01*
X47035Y74D01*
X47279Y47D01*
X47524Y27D01*
X47769Y12D01*
X48014Y3D01*
X48260Y0D01*
X10160Y203200D02*
X9914Y203203D01*
X9669Y203212D01*
X9424Y203227D01*
X9179Y203247D01*
X8935Y203274D01*
X8692Y203307D01*
X8449Y203345D01*
X8208Y203389D01*
X7968Y203439D01*
X7729Y203495D01*
X7491Y203557D01*
X7255Y203624D01*
X7020Y203697D01*
X6788Y203776D01*
X6557Y203860D01*
X6329Y203950D01*
X6102Y204045D01*
X5879Y204146D01*
X5657Y204252D01*
X5438Y204364D01*
X5222Y204480D01*
X5009Y204602D01*
X4799Y204729D01*
X4592Y204861D01*
X4388Y204998D01*
X4188Y205140D01*
X3991Y205287D01*
X3798Y205439D01*
X3608Y205595D01*
X3423Y205755D01*
X3241Y205920D01*
X3063Y206090D01*
X2890Y206263D01*
X2720Y206441D01*
X2555Y206623D01*
X2395Y206808D01*
X2239Y206998D01*
X2087Y207191D01*
X1940Y207388D01*
X1798Y207588D01*
X1661Y207792D01*
X1529Y207999D01*
X1402Y208209D01*
X1280Y208422D01*
X1164Y208638D01*
X1052Y208857D01*
X946Y209079D01*
X845Y209302D01*
X750Y209529D01*
X660Y209757D01*
X576Y209988D01*
X497Y210220D01*
X424Y210455D01*
X357Y210691D01*
X295Y210929D01*
X239Y211168D01*
X189Y211408D01*
X145Y211649D01*
X107Y211892D01*
X74Y212135D01*
X47Y212379D01*
X27Y212624D01*
X12Y212869D01*
X3Y213114D01*
X0Y213360D01*
X0Y756920D02*
X3Y757166D01*
X12Y757411D01*
X27Y757656D01*
X47Y757901D01*
X74Y758145D01*
X107Y758388D01*
X145Y758631D01*
X189Y758872D01*
X239Y759112D01*
X295Y759351D01*
X357Y759589D01*
X424Y759825D01*
X497Y760060D01*
X576Y760292D01*
X660Y760523D01*
X750Y760751D01*
X845Y760978D01*
X946Y761201D01*
X1052Y761423D01*
X1164Y761642D01*
X1280Y761858D01*
X1402Y762071D01*
X1529Y762281D01*
X1661Y762488D01*
X1798Y762692D01*
X1940Y762892D01*
X2087Y763089D01*
X2239Y763282D01*
X2395Y763472D01*
X2555Y763657D01*
X2720Y763839D01*
X2890Y764017D01*
X3063Y764190D01*
X3241Y764360D01*
X3423Y764525D01*
X3608Y764685D01*
X3798Y764841D01*
X3991Y764993D01*
X4188Y765140D01*
X4388Y765282D01*
X4592Y765419D01*
X4799Y765551D01*
X5009Y765678D01*
X5222Y765800D01*
X5438Y765916D01*
X5657Y766028D01*
X5879Y766134D01*
X6102Y766235D01*
X6329Y766330D01*
X6557Y766420D01*
X6788Y766504D01*
X7020Y766583D01*
X7255Y766656D01*
X7491Y766723D01*
X7729Y766785D01*
X7968Y766841D01*
X8208Y766891D01*
X8449Y766935D01*
X8692Y766973D01*
X8935Y767006D01*
X9179Y767033D01*
X9424Y767053D01*
X9669Y767068D01*
X9914Y767077D01*
X10160Y767080D01*
X243840Y767080D02*
X244086Y767077D01*
X244331Y767068D01*
X244576Y767053D01*
X244821Y767033D01*
X245065Y767006D01*
X245308Y766973D01*
X245551Y766935D01*
X245792Y766891D01*
X246032Y766841D01*
X246271Y766785D01*
X246509Y766723D01*
X246745Y766656D01*
X246980Y766583D01*
X247212Y766504D01*
X247443Y766420D01*
X247671Y766330D01*
X247898Y766235D01*
X248121Y766134D01*
X248343Y766028D01*
X248562Y765916D01*
X248778Y765800D01*
X248991Y765678D01*
X249201Y765551D01*
X249408Y765419D01*
X249612Y765282D01*
X249812Y765140D01*
X250009Y764993D01*
X250202Y764841D01*
X250392Y764685D01*
X250577Y764525D01*
X250759Y764360D01*
X250937Y764190D01*
X251110Y764017D01*
X251280Y763839D01*
X251445Y763657D01*
X251605Y763472D01*
X251761Y763282D01*
X251913Y763089D01*
X252060Y762892D01*
X252202Y762692D01*
X252339Y762488D01*
X252471Y762281D01*
X252598Y762071D01*
X252720Y761858D01*
X252836Y761642D01*
X252948Y761423D01*
X253054Y761201D01*
X253155Y760978D01*
X253250Y760751D01*
X253340Y760523D01*
X253424Y760292D01*
X253503Y760060D01*
X253576Y759825D01*
X253643Y759589D01*
X253705Y759351D01*
X253761Y759112D01*
X253811Y758872D01*
X253855Y758631D01*
X253893Y758388D01*
X253926Y758145D01*
X253953Y757901D01*
X253973Y757656D01*
X253988Y757411D01*
X253997Y757166D01*
X254000Y756920D01*
X254000Y213360D02*
X253997Y213114D01*
X253988Y212869D01*
X253973Y212624D01*
X253953Y212379D01*
X253926Y212135D01*
X253893Y211892D01*
X253855Y211649D01*
X253811Y211408D01*
X253761Y211168D01*
X253705Y210929D01*
X253643Y210691D01*
X253576Y210455D01*
X253503Y210220D01*
X253424Y209988D01*
X253340Y209757D01*
X253250Y209529D01*
X253155Y209302D01*
X253054Y209079D01*
X252948Y208857D01*
X252836Y208638D01*
X252720Y208422D01*
X252598Y208209D01*
X252471Y207999D01*
X252339Y207792D01*
X252202Y207588D01*
X252060Y207388D01*
X251913Y207191D01*
X251761Y206998D01*
X251605Y206808D01*
X251445Y206623D01*
X251280Y206441D01*
X251110Y206263D01*
X250937Y206090D01*
X250759Y205920D01*
X250577Y205755D01*
X250392Y205595D01*
X250202Y205439D01*
X250009Y205287D01*
X249812Y205140D01*
X249612Y204998D01*
X249408Y204861D01*
X249201Y204729D01*
X248991Y204602D01*
X248778Y204480D01*
X248562Y204364D01*
X248343Y204252D01*
X248121Y204146D01*
X247898Y204045D01*
X247671Y203950D01*
X247443Y203860D01*
X247212Y203776D01*
X246980Y203697D01*
X246745Y203624D01*
X246509Y203557D01*
X246271Y203495D01*
X246032Y203439D01*
X245792Y203389D01*
X245551Y203345D01*
X245308Y203307D01*
X245065Y203274D01*
X244821Y203247D01*
X244576Y203227D01*
X244331Y203212D01*
X244086Y203203D01*
X243840Y203200D01*
X226060Y203200D02*
X225814Y203197D01*
X225569Y203188D01*
X225324Y203173D01*
X225079Y203153D01*
X224835Y203126D01*
X224592Y203093D01*
X224349Y203055D01*
X224108Y203011D01*
X223868Y202961D01*
X223629Y202905D01*
X223391Y202843D01*
X223155Y202776D01*
X222920Y202703D01*
X222688Y202624D01*
X222457Y202540D01*
X222229Y202450D01*
X222002Y202355D01*
X221779Y202254D01*
X221557Y202148D01*
X221338Y202036D01*
X221122Y201920D01*
X220909Y201798D01*
X220699Y201671D01*
X220492Y201539D01*
X220288Y201402D01*
X220088Y201260D01*
X219891Y201113D01*
X219698Y200961D01*
X219508Y200805D01*
X219323Y200645D01*
X219141Y200480D01*
X218963Y200310D01*
X218790Y200137D01*
X218620Y199959D01*
X218455Y199777D01*
X218295Y199592D01*
X218139Y199402D01*
X217987Y199209D01*
X217840Y199012D01*
X217698Y198812D01*
X217561Y198608D01*
X217429Y198401D01*
X217302Y198191D01*
X217180Y197978D01*
X217064Y197762D01*
X216952Y197543D01*
X216846Y197321D01*
X216745Y197098D01*
X216650Y196871D01*
X216560Y196643D01*
X216476Y196412D01*
X216397Y196180D01*
X216324Y195945D01*
X216257Y195709D01*
X216195Y195471D01*
X216139Y195232D01*
X216089Y194992D01*
X216045Y194751D01*
X216007Y194508D01*
X215974Y194265D01*
X215947Y194021D01*
X215927Y193776D01*
X215912Y193531D01*
X215903Y193286D01*
X215900Y193040D01*
X215900Y10160D02*
X215897Y9914D01*
X215888Y9669D01*
X215873Y9424D01*
X215853Y9179D01*
X215826Y8935D01*
X215793Y8692D01*
X215755Y8449D01*
X215711Y8208D01*
X215661Y7968D01*
X215605Y7729D01*
X215543Y7491D01*
X215476Y7255D01*
X215403Y7020D01*
X215324Y6788D01*
X215240Y6557D01*
X215150Y6329D01*
X215055Y6102D01*
X214954Y5879D01*
X214848Y5657D01*
X214736Y5438D01*
X214620Y5222D01*
X214498Y5009D01*
X214371Y4799D01*
X214239Y4592D01*
X214102Y4388D01*
X213960Y4188D01*
X213813Y3991D01*
X213661Y3798D01*
X213505Y3608D01*
X213345Y3423D01*
X213180Y3241D01*
X213010Y3063D01*
X212837Y2890D01*
X212659Y2720D01*
X212477Y2555D01*
X212292Y2395D01*
X212102Y2239D01*
X211909Y2087D01*
X211712Y1940D01*
X211512Y1798D01*
X211308Y1661D01*
X211101Y1529D01*
X210891Y1402D01*
X210678Y1280D01*
X210462Y1164D01*
X210243Y1052D01*
X210021Y946D01*
X209798Y845D01*
X209571Y750D01*
X209343Y660D01*
X209112Y576D01*
X208880Y497D01*
X208645Y424D01*
X208409Y357D01*
X208171Y295D01*
X207932Y239D01*
X207692Y189D01*
X207451Y145D01*
X207208Y107D01*
X206965Y74D01*
X206721Y47D01*
X206476Y27D01*
X206231Y12D01*
X205986Y3D01*
X205740Y0D01*
D11*
X0Y213360D02*
X39Y212475D01*
X154Y211596D01*
X346Y210730D01*
X613Y209885D01*
X952Y209066D01*
X1361Y208280D01*
X1837Y207532D01*
X2377Y206829D01*
X2976Y206176D01*
X3629Y205577D01*
X4332Y205037D01*
X5080Y204561D01*
X5866Y204152D01*
X6685Y203813D01*
X7530Y203546D01*
X8396Y203354D01*
X9275Y203239D01*
X10160Y203200D01*
X27940Y203200D01*
X28826Y203161D01*
X29704Y203046D01*
X30570Y202854D01*
X31415Y202587D01*
X32234Y202248D01*
X33020Y201839D01*
X33768Y201363D01*
X34471Y200823D01*
X35124Y200224D01*
X35723Y199571D01*
X36263Y198868D01*
X36739Y198120D01*
X37148Y197334D01*
X37487Y196515D01*
X37754Y195670D01*
X37946Y194804D01*
X38061Y193926D01*
X38100Y193040D01*
X38100Y10160D01*
X38139Y9275D01*
X38254Y8396D01*
X38446Y7530D01*
X38713Y6685D01*
X39052Y5866D01*
X39461Y5080D01*
X39937Y4332D01*
X40477Y3629D01*
X41076Y2976D01*
X41729Y2377D01*
X42432Y1837D01*
X43180Y1361D01*
X43966Y952D01*
X44785Y613D01*
X45630Y346D01*
X46496Y154D01*
X47375Y39D01*
X48260Y0D01*
X205740Y0D01*
X206626Y39D01*
X207504Y154D01*
X208370Y346D01*
X209215Y613D01*
X210034Y952D01*
X210820Y1361D01*
X211568Y1837D01*
X212271Y2377D01*
X212924Y2976D01*
X213523Y3629D01*
X214063Y4332D01*
X214539Y5080D01*
X214948Y5866D01*
X215287Y6685D01*
X215554Y7530D01*
X215746Y8396D01*
X215861Y9275D01*
X215900Y10160D01*
X215900Y193040D01*
X215939Y193926D01*
X216054Y194804D01*
X216246Y195670D01*
X216513Y196515D01*
X216852Y197334D01*
X217261Y198120D01*
X217737Y198868D01*
X218277Y199571D01*
X218876Y200224D01*
X219529Y200823D01*
X220232Y201363D01*
X220980Y201839D01*
X221766Y202248D01*
X222585Y202587D01*
X223430Y202854D01*
X224296Y203046D01*
X225175Y203161D01*
X226060Y203200D01*
X243840Y203200D01*
X244726Y203239D01*
X245604Y203354D01*
X246470Y203546D01*
X247315Y203813D01*
X248134Y204152D01*
X248920Y204561D01*
X249668Y205037D01*
X250371Y205577D01*
X251024Y206176D01*
X251623Y206829D01*
X252163Y207532D01*
X252639Y208280D01*
X253048Y209066D01*
X253387Y209885D01*
X253654Y210730D01*
X253846Y211596D01*
X253961Y212475D01*
X254000Y213360D01*
X254000Y756920D01*
X253961Y757806D01*
X253846Y758684D01*
X253654Y759550D01*
X253387Y760395D01*
X253048Y761214D01*
X252639Y762000D01*
X252163Y762748D01*
X251623Y763451D01*
X251024Y764104D01*
X250371Y764703D01*
X249668Y765243D01*
X248920Y765719D01*
X248134Y766128D01*
X247315Y766467D01*
X246470Y766734D01*
X245604Y766926D01*
X244726Y767041D01*
X243840Y767080D01*
X10160Y767080D01*
X9275Y767041D01*
X8396Y766926D01*
X7530Y766734D01*
X6685Y766467D01*
X5866Y766128D01*
X5080Y765719D01*
X4332Y765243D01*
X3629Y764703D01*
X2976Y764104D01*
X2377Y763451D01*
X1837Y762748D01*
X1361Y762000D01*
X952Y761214D01*
X613Y760395D01*
X346Y759550D01*
X154Y758684D01*
X39Y757806D01*
X0Y756920D01*
X0Y213360D01*
M02*
